<svg width="166" height="289" viewBox="0 0 166 289" fill="none" xmlns="http://www.w3.org/2000/svg">
<path d="M112.093 267.01L103.093 284.53C102.615 285.458 101.891 286.236 101 286.779C100.11 287.323 99.0863 287.61 98.0429 287.61H67.3929C66.3577 287.602 65.3444 287.311 64.463 286.768C63.5816 286.225 62.8657 285.451 62.3929 284.53L53.3929 267.01H112.093Z" fill="#263238"/>
<path d="M98.0528 288.11H67.3928C66.2569 288.111 65.143 287.797 64.1741 287.204C63.2052 286.611 62.4192 285.762 61.9028 284.75L52.9028 267.24C52.8604 267.164 52.8387 267.079 52.84 266.992C52.8413 266.906 52.8656 266.821 52.9103 266.747C52.955 266.673 53.0186 266.612 53.0946 266.57C53.1706 266.528 53.2562 266.508 53.3428 266.51H112.073C112.158 266.51 112.241 266.532 112.315 266.575C112.388 266.617 112.45 266.677 112.493 266.75C112.535 266.825 112.557 266.909 112.557 266.995C112.557 267.081 112.535 267.165 112.493 267.24L103.493 284.75C102.982 285.756 102.204 286.601 101.245 287.194C100.285 287.787 99.1807 288.104 98.0528 288.11ZM54.1828 267.51L62.7928 284.3C63.227 285.146 63.8861 285.856 64.6976 286.352C65.5092 286.848 66.4418 287.11 67.3928 287.11H98.0528C99.0043 287.112 99.9378 286.851 100.75 286.355C101.562 285.859 102.221 285.148 102.653 284.3L111.273 267.51H54.1828Z" fill="#263238"/>
<path d="M125.923 205.12H39.5329V266.44H125.923V205.12Z" fill="#263238"/>
<path d="M125.923 266.94H39.5329C39.4002 266.94 39.2731 266.887 39.1793 266.794C39.0855 266.7 39.0329 266.573 39.0329 266.44V205.12C39.0329 204.987 39.0855 204.86 39.1793 204.766C39.2731 204.673 39.4002 204.62 39.5329 204.62H125.923C126.055 204.62 126.183 204.673 126.276 204.766C126.37 204.86 126.423 204.987 126.423 205.12V266.42C126.426 266.487 126.415 266.554 126.391 266.617C126.367 266.68 126.33 266.738 126.284 266.787C126.237 266.835 126.181 266.874 126.119 266.9C126.057 266.926 125.99 266.94 125.923 266.94ZM40.0329 265.94H125.423V205.62H40.0329V265.94Z" fill="#263238"/>
<path d="M74.2928 205.12H50.6328V266.44H74.2928V205.12Z" fill="white"/>
<path d="M74.2928 266.94H50.6228C50.4902 266.94 50.3631 266.887 50.2693 266.794C50.1755 266.7 50.1228 266.573 50.1228 266.44V205.12C50.1228 204.987 50.1755 204.86 50.2693 204.766C50.3631 204.673 50.4902 204.62 50.6228 204.62H74.2829C74.4155 204.62 74.5426 204.673 74.6364 204.766C74.7302 204.86 74.7829 204.987 74.7829 205.12V266.42C74.7855 266.486 74.7749 266.553 74.7516 266.615C74.7283 266.678 74.6928 266.735 74.6471 266.783C74.6015 266.831 74.5467 266.87 74.4858 266.897C74.425 266.924 74.3594 266.939 74.2928 266.94ZM51.1328 265.94H73.7928V205.62H51.1328V265.94Z" fill="#263238"/>
<path d="M125.923 266.42L119.623 274.49C118.906 275.453 117.973 276.234 116.9 276.773C115.827 277.311 114.643 277.591 113.443 277.59H52.0329C50.8327 277.589 49.6492 277.309 48.5764 276.77C47.5036 276.232 46.5711 275.451 45.8528 274.49L39.5329 266.42H125.923Z" fill="#263238"/>
<path d="M113.413 278.09H52.0329C50.7556 278.086 49.4966 277.786 48.3549 277.214C47.2132 276.641 46.2198 275.811 45.4529 274.79L39.1328 266.79C39.0843 266.71 39.0586 266.618 39.0586 266.525C39.0586 266.432 39.0843 266.34 39.1328 266.26C39.1741 266.176 39.2381 266.105 39.3177 266.055C39.3973 266.006 39.4891 265.98 39.5829 265.98H125.923C126.017 265.98 126.108 266.007 126.188 266.057C126.267 266.107 126.33 266.179 126.371 266.263C126.412 266.348 126.428 266.442 126.418 266.535C126.407 266.628 126.371 266.716 126.313 266.79L119.993 274.84C119.22 275.851 118.224 276.67 117.083 277.234C115.941 277.797 114.686 278.09 113.413 278.09ZM40.5629 266.94L46.2529 274.18C46.9256 275.079 47.7978 275.81 48.8007 276.315C49.8036 276.82 50.91 277.085 52.0329 277.09H113.413C114.535 277.087 115.641 276.823 116.644 276.32C117.647 275.817 118.52 275.088 119.193 274.19L124.893 266.94H40.5629Z" fill="#263238"/>
<path d="M74.2529 274.49L67.9229 266.42H50.9229L57.2529 274.47C57.9711 275.431 58.9036 276.212 59.9764 276.75C61.0492 277.289 62.2327 277.569 63.4328 277.57H80.4328C79.2341 277.573 78.0511 277.296 76.9782 276.762C75.9053 276.227 74.9721 275.449 74.2529 274.49Z" fill="white"/>
<path d="M80.4328 278.09H63.4328C62.1556 278.086 60.8966 277.786 59.7549 277.214C58.6132 276.641 57.6198 275.811 56.8528 274.79L50.5329 266.79C50.4747 266.716 50.4385 266.628 50.4282 266.535C50.4179 266.442 50.434 266.348 50.4746 266.263C50.5153 266.179 50.5789 266.107 50.6581 266.057C50.7374 266.007 50.8291 265.98 50.9229 265.98H67.9229C67.9982 265.979 68.0728 265.995 68.1405 266.028C68.2083 266.061 68.2673 266.11 68.3129 266.17L74.6429 274.22C75.3161 275.118 76.1886 275.847 77.1916 276.35C78.1946 276.853 79.3007 277.117 80.4229 277.12C80.5555 277.12 80.6826 277.173 80.7764 277.266C80.8702 277.36 80.9229 277.487 80.9229 277.62C80.9131 277.745 80.8578 277.862 80.7674 277.948C80.6771 278.035 80.558 278.086 80.4328 278.09ZM51.9128 266.94L57.6028 274.18C58.2782 275.079 59.1523 275.809 60.1567 276.314C61.1612 276.819 62.2687 277.084 63.3929 277.09H76.5128C75.4738 276.524 74.567 275.743 73.8528 274.8L67.6828 266.94H51.9128Z" fill="#263238"/>
<path d="M125.923 221.26H39.5329V266.45H125.923V221.26Z" fill="#263238"/>
<path d="M125.923 266.94H39.5329C39.4002 266.94 39.2731 266.887 39.1793 266.794C39.0855 266.7 39.0329 266.573 39.0329 266.44V221.26C39.0329 221.127 39.0855 221 39.1793 220.906C39.2731 220.813 39.4002 220.76 39.5329 220.76H125.923C126.055 220.76 126.183 220.813 126.276 220.906C126.37 221 126.423 221.127 126.423 221.26V266.42C126.426 266.487 126.415 266.555 126.391 266.617C126.367 266.68 126.33 266.738 126.284 266.787C126.237 266.835 126.181 266.874 126.119 266.9C126.057 266.927 125.99 266.94 125.923 266.94ZM40.0329 265.94H125.423V221.76H40.0329V265.94Z" fill="#263238"/>
<path d="M125.413 231.11L40.4128 235.89C39.4971 235.939 38.5992 235.624 37.9153 235.013C37.2314 234.402 36.817 233.545 36.7629 232.63C36.7372 232.176 36.8011 231.722 36.9511 231.293C37.101 230.864 37.334 230.469 37.6368 230.13C37.9395 229.791 38.306 229.515 38.7154 229.318C39.1249 229.12 39.5691 229.006 40.0228 228.98L125.023 224.2C125.925 224.159 126.807 224.473 127.48 225.075C128.153 225.677 128.564 226.519 128.623 227.42C128.686 228.335 128.383 229.237 127.782 229.929C127.18 230.621 126.328 231.046 125.413 231.11Z" fill="#263238"/>
<path d="M40.2329 236.42C39.2172 236.422 38.2386 236.038 37.4958 235.345C36.7529 234.653 36.3014 233.703 36.2329 232.69C36.1834 231.644 36.5464 230.62 37.2439 229.838C37.9414 229.056 38.9176 228.58 39.9629 228.51L124.963 223.73C125.917 223.819 126.808 224.247 127.473 224.937C128.138 225.627 128.533 226.533 128.587 227.49C128.64 228.447 128.348 229.392 127.764 230.151C127.179 230.911 126.341 231.436 125.403 231.63L40.4029 236.41L40.2329 236.42ZM125.233 224.72H125.063L40.0629 229.5C39.283 229.554 38.555 229.91 38.0339 230.493C37.5128 231.076 37.2397 231.839 37.2729 232.62C37.3 233.003 37.4022 233.376 37.5738 233.719C37.7454 234.063 37.9829 234.369 38.2729 234.62C38.8606 235.14 39.6289 235.41 40.4128 235.37L125.413 230.59C125.987 230.538 126.534 230.322 126.989 229.967C127.443 229.613 127.786 229.135 127.976 228.59C128.166 228.046 128.195 227.458 128.06 226.898C127.924 226.337 127.63 225.828 127.213 225.43C126.666 224.942 125.956 224.678 125.223 224.69L125.233 224.72Z" fill="#263238"/>
<path d="M40.0429 231.82L125.043 227.04C125.735 227 126.422 227.17 127.016 227.527C127.61 227.883 128.083 228.411 128.373 229.04C128.59 228.529 128.676 227.972 128.623 227.42C128.599 226.967 128.485 226.523 128.289 226.113C128.093 225.704 127.818 225.337 127.479 225.034C127.141 224.732 126.747 224.498 126.318 224.348C125.89 224.198 125.436 224.134 124.983 224.16L39.9829 228.94C39.5291 228.965 39.0849 229.08 38.6754 229.277C38.266 229.475 37.8995 229.751 37.5968 230.09C37.294 230.429 37.0611 230.824 36.9111 231.253C36.7612 231.682 36.6972 232.136 36.7229 232.59C36.7524 233.015 36.8573 233.432 37.0329 233.82C37.3006 233.241 37.7237 232.747 38.255 232.394C38.7864 232.041 39.4053 231.842 40.0429 231.82Z" fill="white"/>
<path d="M37.0928 234.36C36.9978 234.36 36.9046 234.333 36.8247 234.282C36.7448 234.23 36.6816 234.157 36.6428 234.07C36.4376 233.626 36.3156 233.148 36.2828 232.66C36.2334 231.614 36.5964 230.59 37.2939 229.808C37.9913 229.026 38.9676 228.549 40.0128 228.48L125.013 223.7C125.532 223.67 126.051 223.743 126.542 223.915C127.033 224.086 127.485 224.353 127.872 224.699C128.259 225.046 128.575 225.465 128.8 225.934C129.025 226.403 129.155 226.911 129.183 227.43C129.219 228.063 129.099 228.695 128.833 229.27C128.792 229.358 128.727 229.431 128.646 229.483C128.564 229.534 128.469 229.561 128.373 229.56C128.278 229.56 128.185 229.533 128.105 229.482C128.025 229.43 127.962 229.357 127.923 229.27C127.679 228.724 127.275 228.266 126.764 227.957C126.253 227.648 125.659 227.502 125.063 227.54L40.0628 232.32C39.5224 232.351 39.0011 232.531 38.5565 232.84C38.1118 233.149 37.761 233.575 37.5428 234.07C37.5023 234.158 37.4373 234.231 37.3557 234.283C37.2741 234.334 37.1793 234.361 37.0828 234.36H37.0928ZM125.223 224.69H125.053L40.0528 229.47C39.2729 229.524 38.545 229.88 38.0239 230.463C37.5028 231.046 37.2297 231.809 37.2628 232.59V232.64C37.9626 231.855 38.9434 231.377 39.9928 231.31L124.993 226.53C125.587 226.492 126.182 226.591 126.732 226.82C127.282 227.049 127.771 227.401 128.163 227.85C128.163 227.72 128.163 227.6 128.163 227.48C128.1 226.709 127.741 225.993 127.163 225.48C126.636 224.986 125.945 224.704 125.223 224.69Z" fill="#263238"/>
<path d="M125.413 261.42L40.4128 266.2C39.9591 266.226 39.5048 266.162 39.0757 266.012C38.6467 265.862 38.2515 265.629 37.9125 265.326C37.5736 265.023 37.2976 264.657 37.1003 264.247C36.9031 263.838 36.7884 263.394 36.7628 262.94C36.7372 262.487 36.8012 262.033 36.9513 261.604C37.1014 261.176 37.3345 260.781 37.6373 260.443C37.9402 260.105 38.3068 259.83 38.7162 259.634C39.1255 259.438 39.5695 259.324 40.0228 259.3L125.023 254.52C125.475 254.494 125.928 254.558 126.356 254.707C126.784 254.857 127.178 255.089 127.516 255.391C127.854 255.693 128.129 256.058 128.326 256.466C128.523 256.875 128.637 257.318 128.663 257.77C128.715 258.685 128.402 259.583 127.792 260.267C127.183 260.951 126.327 261.366 125.413 261.42Z" fill="white"/>
<path d="M40.2329 266.75C39.2808 266.635 38.4015 266.183 37.7553 265.474C37.1091 264.766 36.739 263.848 36.7123 262.89C36.6856 261.931 37.0042 260.995 37.6101 260.252C38.2159 259.508 39.0686 259.007 40.0129 258.84L125.013 254.06C125.787 254.036 126.551 254.237 127.213 254.639C127.874 255.041 128.405 255.626 128.741 256.324C129.076 257.022 129.202 257.802 129.103 258.57C129.004 259.338 128.685 260.06 128.183 260.65C127.48 261.428 126.499 261.898 125.453 261.96L40.4529 266.74L40.2329 266.75ZM125.233 255.05H125.063L40.0629 259.83C39.283 259.884 38.555 260.24 38.0339 260.823C37.5128 261.406 37.2397 262.169 37.2729 262.95C37.3269 263.73 37.6832 264.458 38.2659 264.979C38.8487 265.5 39.6118 265.773 40.3929 265.74L125.393 260.96C125.776 260.933 126.149 260.831 126.492 260.659C126.836 260.487 127.142 260.25 127.393 259.96C127.906 259.369 128.167 258.602 128.123 257.821C128.078 257.04 127.73 256.308 127.153 255.78C126.62 255.309 125.934 255.049 125.223 255.05H125.233Z" fill="#263238"/>
<path d="M125.413 246.28L40.4128 251.06C39.9591 251.086 39.5048 251.022 39.0757 250.872C38.6467 250.722 38.2515 250.489 37.9125 250.186C37.5736 249.883 37.2976 249.517 37.1003 249.107C36.9031 248.698 36.7884 248.254 36.7628 247.8C36.7372 247.347 36.8012 246.893 36.9513 246.465C37.1014 246.036 37.3345 245.642 37.6373 245.303C37.9402 244.965 38.3068 244.69 38.7162 244.494C39.1255 244.298 39.5695 244.184 40.0228 244.16L125.023 239.38C125.476 239.354 125.93 239.418 126.358 239.568C126.787 239.719 127.181 239.952 127.519 240.255C127.858 240.557 128.133 240.924 128.329 241.333C128.525 241.743 128.639 242.187 128.663 242.64C128.689 243.092 128.625 243.545 128.475 243.973C128.326 244.401 128.094 244.795 127.792 245.133C127.49 245.471 127.125 245.747 126.716 245.943C126.308 246.14 125.865 246.254 125.413 246.28Z" fill="#263238"/>
<path d="M40.2329 251.57C39.2155 251.572 38.2356 251.187 37.4925 250.492C36.7494 249.797 36.299 248.845 36.2329 247.83C36.1861 246.785 36.5503 245.764 37.2475 244.984C37.9447 244.205 38.9194 243.73 39.9629 243.66L124.963 238.88C125.526 238.764 126.108 238.77 126.669 238.899C127.229 239.028 127.755 239.276 128.211 239.626C128.667 239.977 129.042 240.422 129.311 240.931C129.579 241.44 129.735 242 129.767 242.575C129.799 243.149 129.706 243.724 129.496 244.259C129.286 244.794 128.963 245.278 128.548 245.677C128.134 246.077 127.639 246.382 127.096 246.572C126.553 246.762 125.976 246.833 125.403 246.78L40.4029 251.56L40.2329 251.57ZM125.233 239.87H125.063L40.0629 244.65C39.283 244.704 38.555 245.06 38.0339 245.643C37.5128 246.226 37.2397 246.989 37.2728 247.77C37.3 248.153 37.4022 248.526 37.5738 248.87C37.7454 249.213 37.9829 249.519 38.2728 249.77C38.8621 250.287 39.6302 250.552 40.4128 250.51L125.413 245.73C125.796 245.703 126.169 245.601 126.512 245.429C126.856 245.257 127.162 245.02 127.413 244.73C127.931 244.145 128.2 243.381 128.163 242.6C128.1 241.829 127.741 241.113 127.163 240.6C126.627 240.128 125.937 239.868 125.223 239.87H125.233Z" fill="#263238"/>
<path d="M40.0428 247L125.043 242.22C125.735 242.178 126.424 242.346 127.018 242.703C127.613 243.06 128.085 243.589 128.373 244.22C128.607 243.721 128.714 243.171 128.683 242.62C128.619 241.712 128.198 240.865 127.512 240.266C126.827 239.666 125.932 239.362 125.023 239.42L40.0228 244.2C39.5695 244.224 39.1255 244.338 38.7162 244.534C38.3068 244.73 37.9402 245.005 37.6373 245.343C37.3345 245.682 37.1014 246.076 36.9513 246.505C36.8012 246.933 36.7372 247.387 36.7628 247.84C36.7912 248.269 36.8962 248.689 37.0728 249.08C37.3261 248.492 37.738 247.986 38.2625 247.618C38.7871 247.251 39.4035 247.037 40.0428 247Z" fill="white"/>
<path d="M37.0929 249.54C36.9984 249.538 36.9062 249.51 36.8268 249.459C36.7473 249.408 36.6836 249.335 36.6429 249.25C36.4365 248.803 36.3144 248.321 36.2829 247.83C36.2361 246.785 36.6003 245.764 37.2975 244.984C37.9947 244.205 38.9694 243.73 40.0129 243.66L125.013 238.88C125.692 238.839 126.369 238.975 126.98 239.274C127.591 239.572 128.114 240.024 128.498 240.585C128.883 241.145 129.116 241.796 129.174 242.473C129.233 243.151 129.115 243.832 128.833 244.45C128.792 244.538 128.727 244.612 128.646 244.663C128.564 244.714 128.469 244.741 128.373 244.74C128.278 244.741 128.185 244.713 128.105 244.662C128.025 244.61 127.962 244.537 127.923 244.45C127.672 243.912 127.268 243.461 126.76 243.153C126.253 242.845 125.666 242.694 125.073 242.72L40.0729 247.5C39.5335 247.531 39.013 247.709 38.5684 248.016C38.1239 248.323 37.7725 248.746 37.5529 249.24C37.5128 249.329 37.4482 249.404 37.3667 249.457C37.2852 249.51 37.1902 249.539 37.0929 249.54ZM125.223 239.87H125.053L40.0529 244.65C39.273 244.704 38.545 245.06 38.0239 245.643C37.5028 246.226 37.2297 246.989 37.2629 247.77V247.82C37.6069 247.428 38.0255 247.109 38.4942 246.881C38.9629 246.652 39.4723 246.52 39.9929 246.49L124.993 241.71C125.587 241.673 126.182 241.772 126.731 242.001C127.281 242.23 127.771 242.582 128.163 243.03C128.163 242.9 128.163 242.78 128.163 242.66C128.1 241.889 127.741 241.173 127.163 240.66C126.636 240.166 125.945 239.884 125.223 239.87Z" fill="#263238"/>
<path d="M40.0429 262.18L125.043 257.4C125.735 257.358 126.424 257.526 127.018 257.883C127.613 258.24 128.085 258.769 128.373 259.4C128.608 258.897 128.715 258.344 128.683 257.79C128.657 257.338 128.543 256.895 128.346 256.486C128.149 256.078 127.874 255.713 127.536 255.411C127.198 255.109 126.804 254.877 126.376 254.727C125.948 254.578 125.495 254.514 125.043 254.54L40.0429 259.32C39.5896 259.344 39.1455 259.458 38.7362 259.654C38.3268 259.85 37.9602 260.125 37.6574 260.463C37.3545 260.802 37.1214 261.196 36.9713 261.625C36.8213 262.053 36.7572 262.507 36.7829 262.96C36.8125 263.388 36.9174 263.808 37.0929 264.2C37.3531 263.626 37.7657 263.134 38.2858 262.778C38.8058 262.422 39.4135 262.215 40.0429 262.18Z" fill="#263238"/>
<path d="M37.0929 264.72C36.997 264.718 36.9036 264.689 36.8238 264.636C36.744 264.583 36.6812 264.508 36.6429 264.42C36.4359 263.977 36.3138 263.498 36.2829 263.01C36.2361 261.965 36.6003 260.944 37.2975 260.164C37.9947 259.385 38.9694 258.91 40.0129 258.84L125.013 254.06C125.692 254.019 126.369 254.155 126.98 254.454C127.591 254.752 128.114 255.204 128.498 255.765C128.883 256.325 129.116 256.976 129.174 257.653C129.233 258.331 129.115 259.012 128.833 259.63C128.791 259.717 128.726 259.79 128.645 259.841C128.563 259.893 128.469 259.92 128.373 259.92C128.278 259.918 128.186 259.89 128.107 259.839C128.027 259.788 127.964 259.715 127.923 259.63C127.674 259.09 127.27 258.637 126.762 258.327C126.255 258.017 125.667 257.865 125.073 257.89L40.0729 262.67C39.5342 262.708 39.0158 262.891 38.5722 263.199C38.1287 263.507 37.7765 263.929 37.5529 264.42C37.5128 264.509 37.4482 264.584 37.3667 264.637C37.2852 264.69 37.1902 264.719 37.0929 264.72ZM125.223 255.05H125.053L40.0529 259.83C39.273 259.884 38.545 260.24 38.0239 260.823C37.5028 261.406 37.2297 262.169 37.2629 262.95V263.01C37.6055 262.617 38.0237 262.296 38.4927 262.068C38.9617 261.839 39.4719 261.707 39.9929 261.68L124.993 256.9C125.587 256.859 126.182 256.955 126.732 257.183C127.282 257.41 127.772 257.762 128.163 258.21C128.163 258.09 128.163 257.97 128.163 257.84C128.1 257.069 127.741 256.353 127.163 255.84C126.637 255.345 125.945 255.063 125.223 255.05Z" fill="#263238"/>
<path d="M94.1228 1.31995L100.083 15.4799L98.4729 27.9299L106.103 40.3799L125.773 33.9499L134.203 38.3699L144.243 50.4099L147.453 63.6599L153.483 70.4899L154.283 78.9199L112.933 72.4999L79.6028 23.9199L87.2328 2.63995L94.1228 1.31995Z" fill="#263238"/>
<path d="M154.283 79.42H154.203L112.853 73C112.785 72.9897 112.72 72.9658 112.661 72.9297C112.603 72.8936 112.552 72.8461 112.513 72.79L79.1929 24.2C79.1488 24.1347 79.1204 24.0601 79.11 23.982C79.0996 23.904 79.1074 23.8246 79.1328 23.75L86.7629 2.47C86.791 2.38708 86.8413 2.31343 86.9082 2.25702C86.9752 2.20062 87.0564 2.16361 87.1429 2.15L94.0329 0.830003C94.1453 0.806676 94.2624 0.822773 94.3643 0.875585C94.4663 0.928397 94.547 1.0147 94.5929 1.12L100.593 15.29C100.618 15.3749 100.618 15.4651 100.593 15.55L98.9928 27.82L106.323 39.82L125.623 33.52C125.748 33.4704 125.888 33.4704 126.013 33.52L134.443 37.94C134.501 37.9685 134.552 38.0094 134.593 38.06L144.593 50.06C144.638 50.1237 144.672 50.1948 144.693 50.27L147.913 63.42L153.853 70.16C153.921 70.2386 153.963 70.3365 153.973 70.44L154.783 78.87C154.788 78.946 154.777 79.0222 154.749 79.0932C154.722 79.1641 154.678 79.2279 154.623 79.28C154.578 79.3245 154.525 79.3598 154.467 79.3839C154.408 79.4079 154.346 79.4202 154.283 79.42ZM113.223 72.03L153.723 78.33L152.993 70.7L147.083 63.99C147.027 63.9317 146.989 63.8589 146.973 63.78L143.783 50.64L133.883 38.77L125.733 34.49L106.263 40.85C106.155 40.8856 106.039 40.8843 105.932 40.8462C105.825 40.8082 105.734 40.7356 105.673 40.64L98.0528 28.19C97.991 28.0955 97.9661 27.9816 97.9828 27.87L99.6229 15.55L93.8228 1.88L87.6229 3.07L80.1729 23.84L113.223 72.03Z" fill="#263238"/>
<path d="M155.083 59.25L150.673 68.88L143.443 65.67L134.203 49.61L124.973 39.98L108.113 37.98L90.4429 15.89L89.6229 7.42L94.0429 1.42L94.1029 1.31C90.3141 0.762657 86.4909 0.488617 82.6628 0.489995C37.2828 0.489995 0.482865 38.24 0.472865 84.84C0.429826 99.0591 3.93207 113.065 10.6629 125.59C21.8929 146.12 41.8229 167.66 38.1029 193.31C37.4629 197.73 36.9929 201.37 39.5129 205.11H126.163C129.853 199.98 129.063 193.59 128.823 186.11C128.393 172.37 132.403 158.89 139.243 147.11C144.993 137.23 153.323 128.48 158.103 118.11C162.883 107.74 164.813 96.11 164.823 84.76C164.828 76.5889 163.677 68.4583 161.403 60.61L155.083 59.25Z" fill="#0057FF"/>
<path d="M126.183 205.64H39.5328C39.4495 205.638 39.3679 205.616 39.2948 205.576C39.2217 205.536 39.1593 205.479 39.1129 205.41C36.4529 201.41 37.0228 197.48 37.6328 193.27C40.4428 173.83 29.6329 156.92 19.1929 140.57C15.9529 135.49 12.8928 130.7 10.2428 125.86C1.60419 109.706 -1.69424 91.2294 0.821012 73.0837C3.33626 54.938 11.5358 38.0557 24.2428 24.86C31.8022 17.0036 40.8686 10.7526 50.8996 6.48109C60.9306 2.20957 71.7202 0.00524866 82.6228 1.13873e-06C86.4775 -0.000644644 90.3272 0.273382 94.1429 0.820001C94.2233 0.834857 94.2992 0.867776 94.3651 0.91628C94.4309 0.964784 94.4848 1.0276 94.5228 1.1C94.5622 1.17206 94.5829 1.25287 94.5829 1.335C94.5829 1.41713 94.5622 1.49794 94.5228 1.57L94.4628 1.69L90.1328 7.6L90.9028 15.69L108.343 37.5L125.003 39.5C125.118 39.5123 125.224 39.5656 125.303 39.65L134.623 49.26L134.693 49.36L143.843 65.28L150.473 68.22L154.623 59.04C154.671 58.9345 154.754 58.849 154.858 58.7979C154.962 58.7468 155.08 58.7334 155.193 58.76L161.523 60.25C161.61 60.2698 161.691 60.3128 161.756 60.3744C161.821 60.4359 161.868 60.5139 161.893 60.6C164.178 68.4941 165.337 76.6717 165.333 84.89C165.333 97.3 162.993 108.89 158.573 118.45C155.773 124.45 151.733 130.04 147.823 135.45C144.911 139.309 142.197 143.314 139.693 147.45C132.503 159.8 128.923 173.18 129.333 186.16C129.333 187.05 129.393 187.93 129.433 188.78C129.703 195.23 129.923 200.78 126.583 205.44C126.535 205.501 126.475 205.551 126.405 205.585C126.336 205.62 126.26 205.639 126.183 205.64ZM39.8028 204.64H125.923C128.923 200.3 128.693 194.97 128.443 188.82C128.443 187.95 128.373 187.08 128.343 186.18C127.923 173.02 131.553 159.45 138.833 146.94C141.357 142.771 144.09 138.732 147.023 134.84C150.903 129.5 154.923 123.97 157.673 118.03C162.033 108.61 164.333 97.15 164.343 84.89C164.346 76.864 163.228 68.877 161.023 61.16L155.373 59.83L151.123 69.09C151.068 69.2105 150.968 69.3045 150.844 69.3513C150.721 69.3982 150.584 69.3941 150.463 69.34L143.243 66.13C143.147 66.0851 143.066 66.0119 143.013 65.92L133.803 49.92L124.733 40.42L108.053 38.42C107.989 38.4137 107.926 38.3946 107.869 38.3636C107.813 38.3327 107.763 38.2907 107.723 38.24L90.0528 16.2C89.9908 16.1234 89.9557 16.0285 89.9529 15.93L89.1429 7.5C89.1305 7.37796 89.1664 7.25594 89.2428 7.16L93.2428 1.7C89.7422 1.23296 86.2145 0.999112 82.6828 1C71.9039 0.994594 61.2349 3.16531 51.315 7.38207C41.3951 11.5988 32.4286 17.7748 24.9528 25.54C12.4003 38.5856 4.30261 55.272 1.82158 73.2051C-0.659456 91.1383 2.6037 109.396 11.1429 125.36C13.7729 130.17 16.8228 134.95 20.0628 140.01C30.6228 156.52 41.4928 173.59 38.6228 193.42C38.0328 197.49 37.5128 201.04 39.8028 204.62V204.64Z" fill="#263238"/>
<path d="M75.8828 198.42C75.7519 198.407 75.6312 198.344 75.5469 198.242C75.4627 198.141 75.4217 198.011 75.4328 197.88C75.4328 197.75 76.6828 184.27 76.9128 169.68C76.9128 169.615 76.9258 169.55 76.9511 169.49C76.9763 169.43 77.0133 169.376 77.0599 169.33C77.1065 169.284 77.1616 169.248 77.2223 169.224C77.2829 169.2 77.3477 169.189 77.4128 169.19C77.5446 169.195 77.6692 169.251 77.7606 169.346C77.852 169.441 77.9029 169.568 77.9028 169.7C77.6728 184.32 76.4328 197.84 76.4228 197.97C76.4077 198.1 76.3433 198.219 76.2427 198.303C76.1422 198.387 76.0134 198.429 75.8828 198.42Z" fill="white"/>
<path d="M93.0028 190.31C92.872 190.31 92.7463 190.259 92.6528 190.167C92.5593 190.075 92.5055 189.951 92.5028 189.82C92.4228 181.46 92.4228 169.63 92.8728 158.74C92.3228 158.92 91.7629 159.07 91.1929 159.21C86.7765 160.262 82.1605 160.127 77.8128 158.82C77.8728 160.94 77.9028 163.17 77.8928 165.53C77.8928 165.663 77.8402 165.79 77.7464 165.884C77.6526 165.977 77.5255 166.03 77.3928 166.03C77.2602 166.03 77.1331 165.977 77.0393 165.884C76.9455 165.79 76.8928 165.663 76.8928 165.53C76.8928 163.05 76.8928 160.7 76.8028 158.48C73.6464 157.466 70.8621 155.538 68.8028 152.94C63.3228 145.47 62.3528 134.09 65.6328 131.05C66.7528 130.05 68.7928 129.4 72.1828 132.31C75.4228 135.08 77.2828 143.61 77.7528 157.72C82.0161 159.075 86.566 159.255 90.9228 158.24C91.5991 158.085 92.2667 157.895 92.9228 157.67C93.3328 148.52 94.0628 140.15 95.3528 135.22C97.1528 128.32 100.213 124.22 103.143 124.87C105.843 125.44 108.283 130.46 106.303 142.75C105.093 150.26 100.623 155.84 93.8928 158.38C93.4228 169.38 93.4128 181.38 93.5028 189.81C93.5029 189.941 93.4516 190.067 93.36 190.16C93.2683 190.254 93.1437 190.307 93.0128 190.31H93.0028ZM67.8228 131.2C67.2728 131.193 66.7417 131.401 66.3428 131.78C63.4128 134.5 64.5228 145.37 69.6328 152.35C71.4859 154.66 73.9592 156.395 76.7628 157.35C76.2928 143.92 74.5128 135.58 71.5628 133.05C70.5516 132.041 69.2381 131.392 67.8228 131.2ZM102.623 125.81C100.753 125.81 98.1028 128.73 96.3428 135.48C95.1028 140.26 94.3428 148.37 93.9628 157.29C98.4428 155.49 103.913 151.49 105.343 142.59C107.083 131.8 105.343 126.35 102.973 125.85C102.858 125.827 102.74 125.813 102.623 125.81Z" fill="white"/>
<path d="M93.1728 200.36C93.0436 200.36 92.9194 200.31 92.8262 200.221C92.733 200.131 92.678 200.009 92.6728 199.88C92.6728 199.88 92.6228 197.88 92.5628 194.46C92.5615 194.394 92.5731 194.329 92.5971 194.268C92.621 194.207 92.6567 194.151 92.7022 194.103C92.7477 194.056 92.8021 194.018 92.8623 193.992C92.9224 193.965 92.9872 193.951 93.0528 193.95C93.1837 193.95 93.3094 194.001 93.4029 194.093C93.4964 194.184 93.5502 194.309 93.5528 194.44C93.6128 197.81 93.6628 199.85 93.6628 199.85C93.6642 199.916 93.6526 199.981 93.6286 200.042C93.6047 200.103 93.569 200.159 93.5235 200.206C93.478 200.254 93.4236 200.292 93.3634 200.318C93.3033 200.344 93.2385 200.359 93.1728 200.36Z" fill="white"/>
<path d="M123.523 174.3C125.02 164.73 128.319 155.531 133.243 147.19C138.993 137.31 147.313 128.56 152.103 118.19C156.893 107.82 158.813 96.19 158.813 84.84C158.813 82.74 158.74 80.66 158.593 78.6" fill="#0057FF"/>
<path d="M123.523 175.3H123.373C123.243 175.281 123.118 175.236 123.005 175.168C122.893 175.1 122.794 175.01 122.716 174.904C122.638 174.798 122.582 174.678 122.55 174.55C122.519 174.423 122.513 174.29 122.533 174.16C124.042 164.462 127.381 155.14 132.373 146.69C134.813 142.5 137.753 138.46 140.593 134.55C144.463 129.23 148.463 123.72 151.193 117.83C155.523 108.47 157.813 97.09 157.813 84.9C157.813 82.9 157.743 80.78 157.593 78.73C157.574 78.4648 157.662 78.2031 157.836 78.0024C158.011 77.8018 158.258 77.6786 158.523 77.66C158.788 77.6415 159.05 77.729 159.25 77.9034C159.451 78.0779 159.574 78.3248 159.593 78.59C159.743 80.69 159.813 82.81 159.813 84.9C159.813 97.38 157.453 109.05 153.003 118.67C150.193 124.74 146.133 130.33 142.213 135.73C139.311 139.592 136.604 143.597 134.103 147.73C129.244 155.939 125.989 164.996 124.513 174.42C124.484 174.662 124.367 174.885 124.184 175.047C124.002 175.21 123.767 175.299 123.523 175.3Z" fill="white"/>
<path d="M122.673 198.88C123.333 195.09 122.963 190.83 122.813 186.17C122.813 185.32 122.813 184.47 122.813 183.63" fill="#0057FF"/>
<path d="M122.683 199.88H122.503C122.244 199.834 122.013 199.687 121.861 199.471C121.71 199.256 121.649 198.99 121.693 198.73C122.103 195.456 122.177 192.149 121.913 188.86C121.913 187.99 121.843 187.11 121.813 186.22C121.783 185.33 121.813 184.5 121.813 183.64C121.813 183.375 121.918 183.12 122.106 182.933C122.293 182.745 122.548 182.64 122.813 182.64C123.078 182.64 123.332 182.745 123.52 182.933C123.707 183.12 123.813 183.375 123.813 183.64C123.813 184.48 123.813 185.31 123.813 186.14C123.813 186.97 123.883 187.91 123.913 188.76C124.186 192.189 124.102 195.638 123.663 199.05C123.623 199.281 123.503 199.491 123.324 199.643C123.145 199.795 122.918 199.879 122.683 199.88Z" fill="white"/>
<path d="M76.3828 108.65C76.3112 108.649 76.2405 108.634 76.1751 108.605C76.1097 108.575 76.0511 108.533 76.0028 108.48C75.9182 108.377 75.8771 108.245 75.8883 108.113C75.8995 107.98 75.9622 107.857 76.0628 107.77L86.7229 98.77L87.2728 87.6C87.2801 87.5023 87.3148 87.4088 87.3728 87.33L93.6328 78.78C93.662 78.7559 93.6888 78.7291 93.7128 78.7L102.553 70.97L99.2728 63.33C99.2671 63.2768 99.2671 63.2231 99.2728 63.17L98.7028 55.77C98.6989 55.6981 98.7102 55.6261 98.7361 55.5589C98.7619 55.4917 98.8017 55.4307 98.8529 55.38L104.453 49.78L107.673 37.78C107.689 37.7162 107.718 37.6563 107.757 37.6037C107.797 37.5511 107.846 37.5068 107.903 37.4733C107.96 37.4399 108.022 37.418 108.088 37.4088C108.153 37.3996 108.219 37.4034 108.283 37.42C108.409 37.4594 108.516 37.5455 108.581 37.6607C108.646 37.7759 108.664 37.9115 108.633 38.04L105.383 50.14C105.359 50.2233 105.315 50.2991 105.253 50.36L99.7229 55.89L100.263 62.98L103.653 70.88C103.692 70.9768 103.701 71.0835 103.678 71.1854C103.654 71.2874 103.6 71.3797 103.523 71.45L94.4128 79.42L88.2728 87.8L87.7028 99.04C87.7018 99.1072 87.686 99.1734 87.6567 99.2338C87.6273 99.2943 87.585 99.3476 87.5328 99.39L76.7128 108.51C76.6234 108.595 76.5062 108.645 76.3828 108.65Z" fill="white"/>
<path d="M58.2329 62.66C58.1323 62.6616 58.0338 62.6315 57.9513 62.5741C57.8688 62.5167 57.8063 62.4348 57.7728 62.34C57.7488 62.2784 57.7372 62.2125 57.7387 62.1463C57.7403 62.0801 57.755 62.0149 57.782 61.9544C57.8089 61.8939 57.8477 61.8394 57.8959 61.7941C57.9441 61.7487 58.0009 61.7133 58.0629 61.69L69.4729 57.3L76.6229 55.82C76.6914 55.7998 76.7643 55.7998 76.8329 55.82L93.8329 59.57L98.8328 55.38C98.9356 55.2954 99.0674 55.2543 99.2001 55.2655C99.3327 55.2767 99.4558 55.3393 99.5429 55.44C99.6239 55.545 99.6618 55.677 99.6488 55.8089C99.6358 55.9409 99.5729 56.0629 99.4729 56.15L94.2428 60.49C94.1841 60.5396 94.1149 60.5752 94.0404 60.5943C93.966 60.6133 93.8882 60.6153 93.8129 60.6L76.6729 56.82L69.7529 58.26L58.4128 62.62C58.3572 62.6483 58.2953 62.6621 58.2329 62.66Z" fill="white"/>
<path d="M65.8428 77.29C65.7354 77.2857 65.6314 77.251 65.5428 77.19C65.4389 77.1089 65.3705 76.9907 65.3518 76.8602C65.3332 76.7297 65.3658 76.597 65.4429 76.49L68.7829 72.04L65.9729 65.88C65.9227 65.7514 65.9227 65.6086 65.9729 65.48L69.1929 57.58C69.217 57.519 69.2531 57.4634 69.2991 57.4165C69.3451 57.3697 69.4 57.3326 69.4607 57.3074C69.5213 57.2822 69.5864 57.2695 69.652 57.2699C69.7177 57.2704 69.7826 57.284 69.8428 57.31C69.904 57.3343 69.9597 57.3703 70.0068 57.4161C70.054 57.4619 70.0916 57.5166 70.1176 57.577C70.1437 57.6373 70.1575 57.7022 70.1584 57.768C70.1593 57.8337 70.1472 57.899 70.1228 57.96L66.9828 65.66L69.8228 71.9C69.8578 71.983 69.8707 72.0735 69.8602 72.1629C69.8497 72.2523 69.8161 72.3375 69.7628 72.41L66.2529 77.09C66.2047 77.1529 66.1426 77.2037 66.0715 77.2384C66.0003 77.2731 65.922 77.2908 65.8428 77.29Z" fill="white"/>
</svg>
