<svg width="137" height="149" viewBox="0 0 137 149" fill="none" xmlns="http://www.w3.org/2000/svg">
<g clip-path="url(#clip0_581_944)">
<path fill-rule="evenodd" clip-rule="evenodd" d="M116.7 31.5001C143.4 58.2001 143.4 101.5 116.7 128.2C90 154.9 46.7 154.9 20 128.2C-6.70002 101.5 -6.70002 58.2001 20 31.5001C46.7 4.8001 90 4.8001 116.7 31.5001Z" fill="#BFE1FF"/>
<path fill-rule="evenodd" clip-rule="evenodd" d="M27.7 120.6C27.7 120.6 23.8 121.9 19 127.1C19.3 127.4 19.7 127.8 20 128.1C24.2 132.3 28.7 135.8 33.6 138.6C32.6 132.8 30.8 126.6 27.7 120.6Z" fill="#12006C"/>
<path fill-rule="evenodd" clip-rule="evenodd" d="M50.2 95.9999C50.2 95.9999 53.7 97.4999 54 100.8C54.2 102.2 55.4 112.4 51.4 112.8C48.7 113.1 50.6 117 50.6 117C50.6 117 48.6 118.4 48.8 120.2C49 121.9 49.9 126.8 58.3 127.4C66.6 128 81 124.6 84.7 121.8C88.4 119 88.8 112.4 88.8 112.4C88.8 112.4 85.6 111 86.1 106.3C86.6 101.5 87 92.3999 87 92.3999C87 92.3999 50.1 95.9999 50.2 95.9999Z" fill="#59B2FF"/>
<path fill-rule="evenodd" clip-rule="evenodd" d="M50.2 96C50.2 96 53.7 97.5 54 100.8C54.1 101.7 54.7 106.8 53.8 110.1C68.5 115.8 84.8 108.7 87 92.2C87.1 92.3 50.1 96 50.2 96Z" fill="#2C81FE"/>
<path fill-rule="evenodd" clip-rule="evenodd" d="M88.2 112.9L119.2 125.6C118.4 126.5 117.6 127.3 116.8 128.2C92.7 152.3 55 154.6 28.3 135.2C31 126.2 33.3 118.9 33.3 118.9L51.6 113L60.8 124.7L88.2 112.9Z" fill="white"/>
<path fill-rule="evenodd" clip-rule="evenodd" d="M24.4 132.1C26.3 125.4 27.7 120.6 27.7 120.6L46.6 114.4L48.3 119.4C46.2 127.7 44.5 135.6 43.1 143.4C36.4 140.7 30.1 137 24.4 132.1Z" fill="#12006C"/>
<path fill-rule="evenodd" clip-rule="evenodd" d="M88.2 112.9L119.2 125.6C118.4 126.5 117.6 127.3 116.8 128.2C104.2 140.8 87.9 147.4 71.4 148.2C73.9 139.5 77 130.4 80.5 122.4C81.7 119.2 87.1 115.5 88.2 112.9Z" fill="#12006C"/>
<path fill-rule="evenodd" clip-rule="evenodd" d="M94.9 63.6999C94.9 63.6999 97.4 60.5999 99.2 60.6999C101 60.7999 103.4 64.7999 103.2 67.8999C103.1 70.9999 100.1 81.7999 94.1 77.9999C88 74.1999 94.9 63.6999 94.9 63.6999Z" fill="#59B2FF"/>
<path fill-rule="evenodd" clip-rule="evenodd" d="M93 67.0999C92.8 67.2999 92.8 67.6999 92.9 67.8999C93 68.0999 93.3 68.0999 93.4 67.9999C93.4 67.9999 95.3 77.3999 96.6 75.8999C97.9 74.3999 99.2 72.8999 99.7 70.4999C100.2 68.0999 98.1 65.8999 98.8 65.2999C99.5 64.6999 100.2 65.5999 100.3 65.6999C100.9 66.4999 101.2 67.3999 101.2 67.3999C101.3 67.6999 101.5 67.7999 101.8 67.5999C102 67.3999 102.1 67.0999 102 66.7999C102 66.7999 100.8 63.1999 98.4 63.3999C96 63.5999 93 66.9999 93 67.0999Z" fill="#2C81FE"/>
<path fill-rule="evenodd" clip-rule="evenodd" d="M36.2 66.1C36.2 66.1 33.4 63.2 31.7 63.5C29.9 63.8 27.9 67.9 28.2 71C28.6 74.1 32.4 84.6 38.1 80.3C43.8 75.9 36.2 66.1 36.2 66.1Z" fill="#59B2FF"/>
<path fill-rule="evenodd" clip-rule="evenodd" d="M38.3 69.2C38.5 69.4 38.6 69.8 38.5 70C38.4 70.2 38.2 70.3 38 70.1C38 70.1 36.8 79.6 35.4 78.2C34 76.8 32.6 75.4 31.9 73C31.2 70.6 33.2 68.3 32.4 67.7C31.7 67.1 31 68.1 30.9 68.2C30.3 69 30.1 70 30.1 70C30 70.3 29.8 70.4 29.6 70.2C29.4 70.1 29.2 69.7 29.3 69.4C29.3 69.4 30.2 65.8 32.7 65.8C35 66 38.3 69.2 38.3 69.2Z" fill="#2C81FE"/>
<path fill-rule="evenodd" clip-rule="evenodd" d="M63.6 14.0999C23.3 16.2999 30.6 49.4999 35.2 76.1999C42.4 117.9 93 115.9 96.8 73.6999C99.3 46.6999 103.9 13.0999 63.6 14.0999Z" fill="#59B2FF"/>
<path fill-rule="evenodd" clip-rule="evenodd" d="M45.8 40.5001L48.8 43.2001C60.6 41.5001 81.4 53.9001 91.4 45.6001C97.6 40.6001 86.6 36.5001 85.7 36.3001C85 36.2001 45.8 40.5001 45.8 40.5001Z" fill="#2C81FE"/>
<path fill-rule="evenodd" clip-rule="evenodd" d="M97.3 70.9C97.6 67.2 98 63.1 98.3 59.4C100 34.2 97.5 16 63.9 16.8C30.4 18.7 29.1 36.4 32.8 61.4C33.3 65.1 34.1 69.8 34.8 73.4C34.8 73.4 36.8 69.7 35.7 61.9C35.7 61.9 41.2 56.4 39.6 46.5C37.3 32.6 55.6 32.4 64.6 32.1C73.6 31.7 91.3 32 88.4 45.8C85.5 59.6 94.6 62.3 94.6 62.3C93.9 70.1 97.3 70.9 97.3 70.9Z" fill="#12006C"/>
<path fill-rule="evenodd" clip-rule="evenodd" d="M39 45.5C36.6 45.1 36.8 43.9 35.1 43C18.7 34.7 33.7 6.69998 40.5 14.8C40.6 14.9 40.7 15.2 40.7 15.1C46.2 -3.10002 76.8 -3.90002 68.3 7.49998C68.3 7.49998 90.5 0.999981 91.8 17C96.3 5.29998 110.5 43.5 88.2 45.7C69.7 47.7 55.6 39.9 39 45.5Z" fill="#12006C"/>
<path fill-rule="evenodd" clip-rule="evenodd" d="M98.7 75.1001C99.1 75.1001 99.5 75.4001 99.5 75.8001C99.5 76.2001 99.2 76.6001 98.8 76.6001C98.4 76.6001 98 76.3001 98 75.9001C98 75.5001 98.3 75.2001 98.7 75.1001Z" fill="#12006C"/>
<path fill-rule="evenodd" clip-rule="evenodd" d="M33.3 15.8C34.1 21.7 38.7 30.9 60.4 22.6L61 22.4C61.4 22.2 61.6 22.2 61.6 22.3C61.6 22.3 61.6 22.4 61.5 22.4C61.4 22.5 61.1 22.6 60.8 22.8L60.5 22.9C58.8 23.7 55.6 25.2 51.9 26.4C49.5 27.2 47 27.9 44.6 28.3C41.7 28.8 39.3 28.6 37.3 28.2C35.3 27.8 33.8 27.1 32.7 26.5C32.5 26.4 32.3 26.3 32.1 26.2C30.6 25.3 29.7 24.8 28.6 24.9C29.4 21.3 31.2 17.9 33.3 15.8ZM63.8 21.2C63.8 21.2 71.6 16.6 76.7 17.9C76.8 17.9 76.8 18 76.8 18L76.7 18.1C76.7 18.1 74.7 17.8 73.6 19.1C72.6 20.2 71.6 20.2 70.3 20.1C70 20.1 69.7 20.1 69.3 20.1C68.4 20.1 67.4 20.2 66.5 20.4C65.6 20.6 64.8 20.9 63.9 21.4H63.8C63.7 21.3 63.8 21.3 63.8 21.2Z" fill="#2C81FE"/>
<path fill-rule="evenodd" clip-rule="evenodd" d="M73.6 65.2C75 62.3 76.7 60.7 78.4 60.1C79.6 59.7 80.8 59.7 81.9 60C83 60.3 84.1 61 84.9 61.8C86.5 63.4 87.5 65.6 87.5 67.8C87.5 67.9 87.4 67.9 87.4 67.9C87.3 67.9 87.3 67.9 87.3 67.8C87.1 66.3 86.3 64.8 85.1 63.6C84.2 62.7 83 62.1 81.8 61.8C80.6 61.5 79.3 61.6 78 62.1C76.5 62.8 75.1 64.1 73.9 66.3C73.6 66.8 73.4 67.4 73.2 68C73 68.6 73 69.1 72.9 69.7C72.9 69.8 72.8 69.8 72.8 69.8C72.7 69.8 72.7 69.8 72.7 69.7C72.6 68.9 72.7 68.2 72.8 67.4C72.9 66.7 73.2 65.9 73.6 65.2Z" fill="#2C81FE"/>
<path fill-rule="evenodd" clip-rule="evenodd" d="M48.4 61.2999C50.1 61.7999 51.9 63.1999 53.5 65.8999C53.9 66.5999 54.2 67.2999 54.4 68.0999C54.6 68.7999 54.7 69.5999 54.7 70.2999C54.7 70.3999 54.7 70.3999 54.6 70.3999C54.5 70.3999 54.5 70.3999 54.5 70.2999C54.4 69.7999 54.3 69.1999 54.1 68.6999C53.9 68.0999 53.6 67.5999 53.3 67.0999C52 64.9999 50.4 63.7999 49 63.2999C47.7 62.7999 46.4 62.8999 45.3 63.2999C44.1 63.6999 43.1 64.3999 42.3 65.2999C41.2 66.4999 40.5 67.9999 40.5 69.4999C40.5 69.5999 40.5 69.5999 40.4 69.5999C40.3 69.5999 40.3 69.5999 40.3 69.4999C40.1 67.3999 40.9 65.0999 42.3 63.4999C43.1 62.5999 44 61.8999 45.1 61.4999C46 61.0999 47.2 60.9999 48.4 61.2999Z" fill="#2C81FE"/>
<path fill-rule="evenodd" clip-rule="evenodd" d="M63.2 65.5998C63.2 65.6998 63.2 65.6999 63.1 65.7999L63 66.0998C62.1 67.7998 59.4 73.3998 59.4 73.9998C59.5 74.3998 61.1 75.5999 61.4 75.7999C62.2 76.2999 64.1 75.4998 64.7 75.1998C67.6 73.8998 63 77.8998 61.8 77.5998C60.8 77.3998 60.2 76.9999 59.5 76.3999C58.9 75.8999 58 74.8998 57.9 74.0998C57.8 73.2998 60.6 67.3998 61.6 65.4998C62.5 63.5998 62.4 62.3998 62.2 61.7998C62 61.2998 62 60.5998 62.7 61.4998C63.2 62.2998 63.9 63.5998 63.2 65.5998Z" fill="#2C81FE"/>
<path fill-rule="evenodd" clip-rule="evenodd" d="M54.4 55.4C54.4 55.9 54.3 56.1 54.2 56.2C54.2 55.5 53.8 55.1 53.1 54.8C49.1 53.1 42.8 54.7 39.9 57.3V57.4L40 57.5C42.1 56.5 44.3 56.2 46.2 56.3C49.3 56.4 51.8 57.4 52.6 57.9C52.9 58.1 53.3 58.3 53.6 58.3C54 58.3 54.3 58.1 54.6 57.5C54.7 57.3 54.8 57.1 54.8 56.9C54.9 56.5 54.9 56.1 54.8 55.8C54.7 55.5 54.6 55.3 54.6 55.3C54.4 55.1 54.4 55.4 54.4 55.4Z" fill="#12006C"/>
<path fill-rule="evenodd" clip-rule="evenodd" d="M73.6 65.7C75 62.8 76.7 61.2 78.4 60.6C79.6 60.2 80.8 60.2 81.9 60.5C83 60.8 84.1 61.5 84.9 62.3C86.5 63.9 87.5 66.1 87.5 68.3C87.5 68.4 87.4 68.4 87.4 68.4C87.3 68.4 87.3 68.4 87.3 68.3C87.1 66.8 86.3 65.3 85.1 64.1C84.2 63.2 83 62.6 81.8 62.3C80.6 62 79.3 62.1 78 62.6C76.5 63.3 75.1 64.6 73.8 66.8C73.5 67.3 73.3 67.9 73.1 68.5C72.9 69.1 72.9 69.6 72.8 70.2C72.8 70.3 72.7 70.3 72.7 70.3C72.6 70.3 72.6 70.3 72.6 70.2C72.5 69.5 72.6 68.7 72.7 67.9C73 67.2 73.2 66.4 73.6 65.7Z" fill="#12006C"/>
<path fill-rule="evenodd" clip-rule="evenodd" d="M48.5 61.8999C50.2 62.3999 52 63.7999 53.6 66.4999C54 67.1999 54.3 67.8999 54.5 68.6999C54.7 69.3999 54.8 70.1999 54.8 70.8999C54.8 70.9999 54.8 70.9999 54.7 70.9999C54.6 70.9999 54.6 70.9999 54.6 70.8999C54.6 70.3999 54.4 69.7999 54.2 69.2999C54 68.7999 53.7 68.1999 53.4 67.6999C52 65.5999 50.5 64.4999 49.1 63.8999C47.8 63.3999 46.5 63.4999 45.4 63.8999C44.2 64.2999 43.2 64.9999 42.4 65.8999C41.3 67.0999 40.6 68.5999 40.6 70.0999C40.6 70.1999 40.6 70.1999 40.5 70.1999C40.4 70.1999 40.4 70.1999 40.4 70.0999C40.2 67.9999 41 65.6999 42.4 64.0999C43.2 63.1999 44.1 62.4999 45.2 62.0999C46.1 61.5999 47.3 61.4999 48.5 61.8999Z" fill="#12006C"/>
<path fill-rule="evenodd" clip-rule="evenodd" d="M75 64.6001C75.2 64.2001 75.5 63.8001 75.7 63.5001C76.7 62.7001 78 62.2001 79.4 62.1001C82.6 62.0001 85.4 64.3001 85.5 67.2001C85.7 72.1001 79.3 73.7001 75.9 71.6001C75.3 71.1001 74.7 70.5001 74.4 69.8001C73.7 68.2001 74.1 66.2001 75 64.6001Z" fill="#12006C"/>
<path fill-rule="evenodd" clip-rule="evenodd" d="M52.1 65.6999C51.8 65.2999 51.6 64.9999 51.3 64.6999C50.3 63.9999 49 63.5999 47.6 63.5999C44.5 63.6999 42 66.1999 42.1 68.9999C42.3 73.7999 48.6 74.7999 51.7 72.4999C52.3 71.9999 52.7 71.3999 53 70.6999C53.6 69.0999 53.1 67.1999 52.1 65.6999Z" fill="#12006C"/>
<path d="M87.4 70.6999C87.3 70.6999 87.3 70.6999 87.4 70.6999C86.8 70.5999 86.5 70.2999 86.4 70.1999C86.2 69.9999 86.2 69.8 86.4 69.6C86.6 69.4 86.8 69.4 87 69.6C87 69.6 87.2 69.8 87.5 69.8C87.7 69.9 87.9 70.1 87.8 70.3C87.7 70.6 87.5 70.6999 87.4 70.6999Z" fill="#BFE1FF"/>
<path d="M86 71.7999C85.9 71.7999 85.8 71.7999 85.8 71.6999C85.4 71.3999 85.3 71.0999 85.2 71.0999C85.1 70.8999 85.2 70.5999 85.4 70.4999C85.6 70.3999 85.9 70.4999 86 70.6999C86 70.6999 86.1 70.7999 86.3 70.9999C86.5 71.0999 86.5 71.3999 86.4 71.5999C86.3 71.7999 86.2 71.7999 86 71.7999Z" fill="#BFE1FF"/>
<path d="M40 72.5999C39.8 72.5999 39.7 72.4999 39.6 72.2999C39.5 72.0999 39.6 71.7999 39.9 71.7999C40.2 71.6999 40.4 71.4999 40.4 71.4999C40.6 71.2999 40.8 71.2999 41 71.4999C41.2 71.6999 41.2 71.8999 41 72.0999C41 72.0999 40.7 72.3999 40.2 72.5999C40.1 72.5999 40.1 72.5999 40 72.5999Z" fill="#BFE1FF"/>
<path d="M41.4 73.5998C41.3 73.5998 41.2 73.4998 41.1 73.3998C41 73.2998 41 72.9998 41.2 72.8998C41.4 72.7998 41.4 72.5998 41.4 72.5998C41.5 72.3998 41.7 72.2998 42 72.3998C42.2 72.4998 42.3 72.6998 42.2 72.8998C42.2 72.9998 42.1 73.2998 41.7 73.5998C41.6 73.5998 41.5 73.5998 41.4 73.5998Z" fill="#BFE1FF"/>
<path fill-rule="evenodd" clip-rule="evenodd" d="M77.1 64.4999C77.7 64.3999 78.2 64.7999 78.3 65.3999C78.4 65.9999 78 66.4999 77.4 66.5999C76.8 66.6999 76.3 66.2999 76.2 65.6999C76.2 65.0999 76.6 64.5999 77.1 64.4999Z" fill="white"/>
<path fill-rule="evenodd" clip-rule="evenodd" d="M46.4 65.6999C46.9 65.5999 47.4 65.9999 47.5 66.5999C47.6 67.1999 47.2 67.6999 46.6 67.6999C46.1 67.7999 45.6 67.3999 45.5 66.7999C45.5 66.2999 45.9 65.7999 46.4 65.6999Z" fill="white"/>
<path fill-rule="evenodd" clip-rule="evenodd" d="M67.9 95.3C68.4 95.2 68.7 94.8 68.6 94.3C68.5 93.8 68.1 93.5 67.6 93.6C67.6 93.6 64.9 94.4 61.6 94C60.4 93.8 60.3 95.1 61.5 95.3C65 95.7 67.9 95.3 67.9 95.3Z" fill="#2C81FE"/>
<path fill-rule="evenodd" clip-rule="evenodd" d="M71.5 51.6C71.5 52.1 71.7 52.3 71.8 52.4C71.8 51.7 72.2 51.2 72.9 50.9C77 49 83.5 50.4 86.5 52.9V53L86.4 53.1C84.2 52.2 82 51.9 80 52.1C76.8 52.3 74.3 53.5 73.4 54C73.1 54.2 72.7 54.4 72.3 54.4C71.9 54.4 71.5 54.2 71.2 53.6C71.1 53.4 71 53.2 71 53C70.9 52.6 70.9 52.2 70.9 51.9C71 51.6 71.1 51.4 71.1 51.3C71.5 51.3 71.5 51.6 71.5 51.6Z" fill="#12006C"/>
<path fill-rule="evenodd" clip-rule="evenodd" d="M83.6 49.4C83.8 49.2 84.2 49.2999 84.3 49.5999C84.5 49.8999 84.4 50.2 84.2 50.4L79.9 53.7C79.7 53.9 79.3 53.7999 79.2 53.4999C79 53.1999 79.1 52.9 79.3 52.7L83.6 49.4Z" fill="#59B2FF"/>
<path fill-rule="evenodd" clip-rule="evenodd" d="M54.5 80.4C56.8 81.1 60.4 81.2 64 80.7C67.6 80.2 71 79.2 73.1 77.8C73.5 77.5 74.1 77.7 74.3 78.1C74.4 78.3 74.5 78.5 74.4 78.7C73.7 84 71.9 87.8 69.7 90C68.3 91.4 66.8 92.2 65.2 92.4C63.6 92.6 61.9 92.2 60.2 91.2C57.6 89.6 55.2 86.4 53.3 81.6C53.1 81.1 53.3 80.6 53.8 80.4C54.1 80.3 54.3 80.3 54.5 80.4Z" fill="#12006C"/>
<path fill-rule="evenodd" clip-rule="evenodd" d="M55.1 80.5C57.4 81.1 60.7 81 64 80.6C67.6 80.1 71 79.1 73.1 77.7C73.5 77.4 74.1 77.5 74.3 78C74.4 78.2 74.5 78.4 74.4 78.6C74.3 79 74.3 79.4 74.2 79.9C68.1 84.1 58.6 83.9 56.8 83.1C55.6 82.5 55.2 81.3 55.1 80.5Z" fill="white"/>
<path fill-rule="evenodd" clip-rule="evenodd" d="M57.8 89.1C59.3 88.1 61.6 87.2 65.1 88.2C65.1 88.2 68.6 83.9 73.2 84C72.3 86.6 71.1001 88.6 69.8001 90C68.4001 91.4 66.9001 92.2 65.3001 92.4C63.7001 92.6 62 92.2 60.3 91.2C59.4 90.6 58.6 89.9 57.8 89.1Z" fill="#2C81FE"/>
<path d="M64 90.8999C63.7 90.8999 63.5 90.5999 63.6 90.3999C63.9 87.9999 65.1 86.8999 65.1 86.8999C65.3 86.6999 65.5 86.7999 65.7 86.8999C65.9 87.0999 65.8 87.2999 65.7 87.4999C65.7 87.4999 64.7 88.3999 64.4 90.4999C64.4 90.7999 64.2 90.8999 64 90.8999Z" fill="#12006C"/>
<path d="M71.3 148.6H71.2C71 148.5 70.8 148.3 70.9 148.1C72.8 141.5 74.9 135.2 77.1 129.4C77.2 129.2 77.4 129.1 77.7 129.2C77.9 129.3 78 129.5 77.9 129.8C75.7 135.6 73.6 141.9 71.7 148.5C71.7 148.4 71.5 148.6 71.3 148.6ZM95.7 142.9C95.6 142.9 95.5 142.9 95.5 142.8C95.3 142.7 95.2 142.4 95.4 142.2C98.4 137.4 100.9 133.7 102.8 130.9C104.4 128.5 105.6 126.8 105.8 126.3C107.1 122.3 104.5 120.6 104.4 120.5C104.2 120.4 104.1 120.1 104.3 119.9C104.4 119.7 104.7 119.6 104.9 119.8C104.9 119.8 108.3 122 106.7 126.6C106.5 127.3 105.4 128.9 103.6 131.5C101.7 134.2 99.2 138 96.2 142.8C96 142.9 95.8 142.9 95.7 142.9Z" fill="#2C81FE"/>
<path d="M43.1 143.8C42.8 143.8 42.6 143.5 42.7 143.3C43.8 137 45.1 130.8 46.6 124.4C46.7 124.2 46.9 124 47.1 124.1C47.3 124.2 47.5 124.4 47.4 124.6C45.9 131 44.6 137.1 43.5 143.4C43.5 143.7 43.3 143.8 43.1 143.8ZM31.2 137.6C30.9 137.6 30.8 137.4 30.8 137.1C31.8 126.5 38.9 117.4 39 117.3C39.1 117.1 39.4 117.1 39.6 117.2C39.8 117.3 39.8 117.6 39.7 117.8C39.6 117.9 32.7 126.8 31.7 137.1C31.6 137.5 31.4 137.6 31.2 137.6Z" fill="#2C81FE"/>
<path fill-rule="evenodd" clip-rule="evenodd" d="M60.1 147.7C60.1 142.9 60.3 138.5 61 135L59.9 132.8H57.1L56 135C54.5 137.8 53.6 141.8 53 146.6C55.4 147 57.7 147.4 60.1 147.7Z" fill="#FFE875"/>
<path fill-rule="evenodd" clip-rule="evenodd" d="M57.8 125.1C57.9 125.1 58.5 124.6 59.8 124.5C60.3 124.5 60.8 124.6 61.5 124.7C63.9 125.2 66.9 128.8 66.9 128.8L61.1 135C61.1 135 58.2 134 56.1 134.9L55 127L57.8 125.1Z" fill="#FFE875"/>
<path d="M61.1 135.4H61C61 135.4 58.2 134.5 56.3 135.3C56.1 135.4 55.8 135.3 55.7 135.1C55.6 134.9 55.7 134.6 55.9 134.5C58.1 133.6 61.1 134.6 61.2 134.6C61.4 134.7 61.5 134.9 61.5 135.1C61.4 135.3 61.2 135.4 61.1 135.4Z" fill="#FCCB37"/>
<path fill-rule="evenodd" clip-rule="evenodd" d="M60.7 124.6L67.8 133.5C67.8 133.5 69.6 135 71.4 133.5C73.2 132 94.6 115.6 94.6 115.6L88.9 112.5L60.7 124.6Z" fill="white"/>
<path fill-rule="evenodd" clip-rule="evenodd" d="M60.7 124.6L54.3 129.9C52.1 131.9 49.4 133.6 48.8 129.6C48 125.3 45.8 114.7 45.8 114.7L51.6 112.9L60.7 124.6Z" fill="white"/>
<path d="M69.6 134.5C68.7 134.5 67.9 134.1 67.5 133.8L60.6 125.2L54.6 130.2C53.2 131.4 51.5 132.8 50 132.3C49.2 132 48.6 131.1 48.3 129.6C47.6 125.3 45.3 114.8 45.3 114.7C45.3 114.5 45.4 114.2 45.6 114.2C45.8 114.1 46.1 114.3 46.1 114.5C46.1 114.6 48.4 125.1 49.1 129.4C49.3 130.6 49.7 131.2 50.2 131.4C51 131.7 52.2 131 53.9 129.4L60.3 124.1L60.4 124H60.5C60.6 124 60.6 124 60.7 124.1L60.8 124.2L67.9 133.1C67.9 133.1 68.5 133.6 69.4 133.6C69.9 133.6 70.4 133.5 70.9 133C72.7 131.5 93.2 115.7 94.1 115.1C94.3 115 94.6 115 94.7 115.2C94.8 115.4 94.8 115.7 94.6 115.8C94.4 116 73.2 132.2 71.4 133.7C70.9 134.3 70.2 134.5 69.6 134.5Z" fill="#BFE1FF"/>
<path d="M35.1 43.4999C35 43.4999 35 43.4999 34.9 43.4999C27.6 39.7999 27 32.6999 27.4 28.7999C28 21.7999 32.2 14.5999 36.4 13.2999C38.1 12.7999 39.6 13.1999 40.9 14.6999C41.1 14.8999 41 15.1999 40.8 15.2999C40.6 15.4999 40.3 15.3999 40.2 15.1999C39.2 13.9999 38 13.5999 36.7 14.0999C33.2 15.1999 28.9 21.4999 28.3 28.8999C28 32.5999 28.5 39.2999 35.4 42.7999C35.6 42.8999 35.7 43.1999 35.6 43.3999C35.4 43.3999 35.3 43.4999 35.1 43.4999Z" fill="white"/>
</g>
<defs>
<clipPath id="clip0_581_944">
<rect width="136.7" height="148.6" fill="white"/>
</clipPath>
</defs>
</svg>
