<svg width="65" height="70" viewBox="0 0 65 70" fill="none" xmlns="http://www.w3.org/2000/svg">
<g clip-path="url(#clip0_575_345)">
<mask id="mask0_575_345" style="mask-type:luminance" maskUnits="userSpaceOnUse" x="0" y="0" width="65" height="70">
<path d="M64.9297 0H0.0703125V70H64.9297V0Z" fill="white"/>
</mask>
<g mask="url(#mask0_575_345)">
<path d="M32.4453 67.1563C16.5859 67.1563 3.67969 54.25 3.67969 38.3906C3.67969 22.5312 16.5859 9.625 32.4453 9.625C48.3047 9.625 61.3203 22.5312 61.3203 38.3906C61.3203 54.25 48.4141 67.1563 32.4453 67.1563ZM32.4453 12.0312C17.8984 12.0312 6.08594 23.8437 6.08594 38.3906C6.08594 52.9375 17.8984 64.75 32.4453 64.75C46.9922 64.75 58.8047 52.9375 58.8047 38.3906C58.9141 23.8437 46.9922 12.0312 32.4453 12.0312Z" fill="#293462"/>
<path d="M27.0379 31.3L25.3364 33.0014L37.9427 45.6077L39.6442 43.9062L27.0379 31.3Z" fill="#0057FF"/>
<path d="M15.2734 55.5625L25.2266 31.1719L49.6172 21.2188L39.6641 45.6094L15.2734 55.5625ZM27.0859 33.0312L19.6484 51.1875L37.8047 43.75L45.2422 25.5938L27.0859 33.0312Z" fill="#0057FF"/>
<path d="M56.5078 37.1875H51.6953V39.5938H56.5078V37.1875Z" fill="#0057FF"/>
<path d="M13.3047 37.1875H8.49219V39.5938H13.3047V37.1875Z" fill="#0057FF"/>
<path d="M33.6484 14.4375H31.2422V19.25H33.6484V14.4375Z" fill="#0057FF"/>
<path d="M33.6484 57.6406H31.2422V62.4531H33.6484V57.6406Z" fill="#0057FF"/>
<path d="M36.0547 11.4844L33.9766 10.2812L35.6172 7.65625C35.9453 7.10938 36.1641 6.45312 36.1641 5.90625C36.1641 3.9375 34.6328 2.40625 32.6641 2.40625H32.4453C30.4766 2.40625 28.9453 3.9375 28.9453 5.90625C28.9453 6.5625 29.1641 7.10938 29.4922 7.65625L31.0234 10.2812L28.9453 11.4844L27.4141 8.85938C26.8672 7.98438 26.5391 6.89062 26.5391 5.79688C26.5391 2.51562 29.1641 -0.109375 32.4453 -0.109375H32.6641C35.9453 -0.109375 38.5703 2.51562 38.5703 5.79688C38.5703 6.89062 38.2422 7.875 37.6953 8.85938L36.0547 11.4844Z" fill="#293462"/>
<path d="M15.8203 67.5937C12.3203 65.625 9.25781 63 6.74219 59.9375L8.60156 58.4062C11.0078 61.2501 13.8516 63.6563 17.0234 65.5157L15.8203 67.5937Z" fill="#293462"/>
<path d="M4.44531 56.875C4.00781 56.2188 3.57031 55.4531 3.13281 54.7969L5.21094 53.5938C5.53906 54.2499 5.97656 54.9062 6.41406 55.5625L4.44531 56.875Z" fill="#293462"/>
<path d="M2.36719 30.1875L0.0703125 29.5312C1.27344 25.2656 3.24219 21.2188 5.97656 17.7188L7.83594 19.1406C5.32031 22.5312 3.46094 26.1406 2.36719 30.1875Z" fill="#293462"/>
<path d="M10.6797 16.0781L9.03906 14.3281C9.69531 13.6719 10.3516 13.125 11.0078 12.5781L12.5391 14.4375C11.8828 14.9844 11.3359 15.5312 10.6797 16.0781Z" fill="#293462"/>
<path d="M15.2734 12.3594L13.9609 10.3906C14.6172 9.95312 15.3828 9.51562 16.0391 9.07812L17.2422 11.1562C16.5859 11.4844 15.9297 11.9219 15.2734 12.3594Z" fill="#293462"/>
<path d="M19.8672 9.84375L18.8828 7.65625C19.5391 7.32813 20.3047 7.10937 21.0703 6.78125L21.8359 9.07813C21.1797 9.29688 20.5234 9.51562 19.8672 9.84375Z" fill="#293462"/>
<path d="M56.3984 18.375C53.9922 15.5312 51.1484 13.125 47.9766 11.2656L49.1797 9.1875C52.6797 11.1562 55.7422 13.7812 58.2578 16.8438L56.3984 18.375Z" fill="#293462"/>
<path d="M59.6797 23.1875C59.3516 22.5312 58.9141 21.8751 58.4766 21.2188L60.4453 19.9062C60.8828 20.5626 61.3203 21.3281 61.7578 21.9844L59.6797 23.1875Z" fill="#293462"/>
<path d="M59.0234 59.0625L57.1641 57.6406C59.6797 54.3594 61.5391 50.6406 62.6328 46.7031L64.9297 47.3594C63.7266 51.625 61.7578 55.5625 59.0234 59.0625Z" fill="#293462"/>
<path d="M53.9922 64.2031L52.4609 62.3437C53.1172 61.7969 53.6641 61.25 54.2109 60.7031L55.8516 62.4531C55.3047 63.1094 54.6484 63.6563 53.9922 64.2031Z" fill="#293462"/>
<path d="M48.8516 67.7031L47.7578 65.625C48.4141 65.2969 49.0703 64.8594 49.7266 64.4219L51.0391 66.3906C50.2734 66.9375 49.6172 67.375 48.8516 67.7031Z" fill="#293462"/>
<path d="M43.9297 70L43.1641 67.7031C43.8203 67.4844 44.4766 67.1563 45.1328 66.9375L46.1172 69.125C45.3516 69.4531 44.6953 69.7812 43.9297 70Z" fill="#293462"/>
</g>
</g>
<defs>
<clipPath id="clip0_575_345">
<rect width="65" height="70" fill="white"/>
</clipPath>
</defs>
</svg>
