<svg width="674" height="161" viewBox="0 0 674 161" fill="none" xmlns="http://www.w3.org/2000/svg">
<path d="M0 99.2421C0 81.2143 0 63.008 0 44.4448C25.703 41.4104 41.2319 27.1309 44.2663 0C62.6511 0 81.2143 0 99.7776 0C102.455 55.6898 50.1565 102.455 0 99.2421Z" fill="#EEF7FF"/>
<path d="M100.135 161C81.2144 161 63.0081 161 44.4448 161C44.4448 140.652 44.4448 120.661 44.4448 100.134C63.0081 100.134 81.3929 100.134 100.135 100.134C100.135 120.304 100.135 140.295 100.135 161Z" fill="#EEF7FF"/>
<path d="M244.6 69.3C242.1 73.7 238.4 77.3 233.3 80C228.2 82.7 221.9 84.1 214.4 84.1H200.5V117.2H178V25H214.4C221.8 25 228 26.3 233.1 28.8C238.2 31.3 242 34.8 244.5 39.3C247 43.8 248.3 48.9 248.3 54.7C248.3 60 247.1 64.9 244.6 69.3ZM222.3 63.2C224.4 61.2 225.5 58.3 225.5 54.7C225.5 51.1 224.4 48.2 222.3 46.2C220.2 44.2 217 43.2 212.7 43.2H200.5V66.3H212.7C217 66.2 220.2 65.2 222.3 63.2Z" fill="#EEF7FF"/>
<path d="M259.8 60.5999C262.6 54.8999 266.5 50.4999 271.4 47.4999C276.3 44.3999 281.8 42.8999 287.8 42.8999C293 42.8999 297.5 43.8999 301.4 46.0999C305.3 48.1999 308.3 50.9999 310.4 54.3999V43.8999H332.9V117.2H310.4V106.8C308.2 110.2 305.2 113 301.3 115.1C297.4 117.2 292.9 118.3 287.7 118.3C281.7 118.3 276.3 116.7 271.4 113.6C266.5 110.5 262.6 106.1 259.8 100.3C257 94.5999 255.5 87.8999 255.5 80.3999C255.5 72.8999 256.9 66.2999 259.8 60.5999ZM305.8 67.2999C302.7 64.0999 298.9 62.3999 294.4 62.3999C289.9 62.3999 286.1 63.9999 283 67.1999C279.9 70.3999 278.3 74.7999 278.3 80.3999C278.3 85.9999 279.9 90.4999 283 93.6999C286.1 96.9999 289.9 98.5999 294.4 98.5999C298.9 98.5999 302.7 96.9999 305.8 93.6999C308.9 90.4999 310.5 85.9999 310.5 80.3999C310.5 74.7999 308.9 70.4999 305.8 67.2999Z" fill="#EEF7FF"/>
<path d="M424.1 43.8999L378.1 152H353.9L370.7 114.7L340.9 43.8999H366L382.9 89.7999L399.7 43.8999H424.1Z" fill="#EEF7FF"/>
<path d="M446.2 113.7C440.5 110.6 436 106.3 432.7 100.6C429.4 94.8999 427.8 88.2999 427.8 80.5999C427.8 73.0999 429.5 66.3999 432.8 60.6999C436.1 54.9999 440.7 50.5999 446.5 47.4999C452.3 44.3999 458.8 42.8999 465.9 42.8999C473.1 42.8999 479.6 44.3999 485.3 47.4999C491.1 50.5999 495.6 54.9999 499 60.6999C502.3 66.3999 504 73.0999 504 80.5999C504 88.0999 502.3 94.7999 498.9 100.5C495.5 106.2 490.9 110.6 485.1 113.7C479.3 116.8 472.8 118.3 465.6 118.3C458.4 118.3 451.9 116.7 446.2 113.7ZM476.5 94.0999C479.5 90.8999 481 86.3999 481 80.5999C481 74.7999 479.5 70.1999 476.6 67.0999C473.7 63.8999 470.1 62.3999 465.8 62.3999C461.4 62.3999 457.8 63.9999 454.9 67.0999C452 70.1999 450.6 74.6999 450.6 80.6999C450.6 86.5999 452 91.0999 454.9 94.1999C457.7 97.3999 461.3 98.8999 465.6 98.8999C469.9 98.7999 473.5 97.1999 476.5 94.0999Z" fill="#EEF7FF"/>
<path d="M581.1 51.5001C586.2 57.1001 588.8 64.7001 588.8 74.4001V117.2H566.5V77.4001C566.5 72.5001 565.2 68.7001 562.7 66.0001C560.2 63.3001 556.7 61.9001 552.5 61.9001C548.2 61.9001 544.8 63.3001 542.3 66.0001C539.8 68.7001 538.5 72.5001 538.5 77.4001V117.2H516V43.9001H538.4V53.6001C540.7 50.4001 543.7 47.8001 547.6 45.9001C551.5 44.0001 555.8 43.1001 560.6 43.1001C569.1 43.1001 576 45.9001 581.1 51.5001Z" fill="#EEF7FF"/>
<path d="M673.2 85.8998H622.4C622.7 90.4998 624.2 93.8998 626.8 96.2998C629.4 98.6998 632.6 99.8998 636.3 99.8998C641.9 99.8998 645.8 97.4998 648 92.7998H671.9C670.7 97.5998 668.5 102 665.3 105.8C662.1 109.7 658.1 112.7 653.3 114.9C648.5 117.1 643.1 118.2 637.1 118.2C629.9 118.2 623.5 116.7 617.9 113.6C612.3 110.5 607.9 106.2 604.8 100.5C601.6 94.7998 600.1 88.1998 600.1 80.4998C600.1 72.8998 601.7 66.1998 604.8 60.4998C607.9 54.7998 612.3 50.3998 617.9 47.3998C623.5 44.2998 629.9 42.7998 637.2 42.7998C644.3 42.7998 650.6 44.2998 656.1 47.2998C661.6 50.2998 665.9 54.4998 669 59.9998C672.1 65.4998 673.7 71.9998 673.7 79.2998C673.5 81.4998 673.4 83.6998 673.2 85.8998ZM650.6 73.4998C650.6 69.5998 649.3 66.5998 646.7 64.2998C644.1 61.9998 640.8 60.8998 636.8 60.8998C633 60.8998 629.9 61.9998 627.3 64.1998C624.7 66.3998 623.1 69.4998 622.5 73.4998H650.6Z" fill="#EEF7FF"/>
<path d="M578.4 27.6001V9.6001H590.5V12.7001H581.9V17.4001H589.1V20.2001H581.9V27.7001H578.4V27.6001Z" fill="#EEF7FF"/>
<path d="M593.7 12.4V9H597.1V12.4H593.7ZM593.7 27.6V14.3H597.1V27.6H593.7Z" fill="#EEF7FF"/>
<path d="M613.6 27.6H610.2V20.2001C610.2 19.1001 610 18.4001 609.6 17.9001C609.2 17.4001 608.7 17.2001 608 17.2001C607.5 17.2001 607.1 17.3 606.6 17.5C606.1 17.7 605.7 18.1 605.3 18.5C604.9 18.9 604.7 19.4001 604.5 19.9001V27.6H601.1V14.4001H604.2V16.9001C604.5 16.3001 605 15.8 605.5 15.5C606 15.1 606.6 14.8 607.3 14.6C608 14.4 608.7 14.3 609.5 14.3C610.3 14.3 611 14.4001 611.5 14.7001C612 15.0001 612.4 15.4001 612.7 15.9001C613 16.4001 613.2 17 613.3 17.6C613.4 18.2 613.5 18.8 613.5 19.5V27.6H613.6Z" fill="#EEF7FF"/>
<path d="M625.5 27.0001C625.2 27.1001 624.9 27.3001 624.5 27.4001C624.1 27.6001 623.7 27.7001 623.2 27.8001C622.7 27.9001 622.3 27.9001 621.8 27.9001C621.2 27.9001 620.6 27.8001 620.1 27.6001C619.6 27.4001 619.2 27.0001 618.8 26.6001C618.5 26.1001 618.3 25.5001 618.3 24.7001V17.0001H616.5V14.4001H618.3V10.1001H621.7V14.4001H624.5V17.0001H621.7V23.4001C621.7 23.9001 621.8 24.2001 622.1 24.4001C622.4 24.6001 622.6 24.7001 623 24.7001C623.4 24.7001 623.7 24.6001 624 24.5001C624.3 24.4001 624.6 24.3001 624.8 24.2001L625.5 27.0001Z" fill="#EEF7FF"/>
<path d="M634.3 27.9001C633.2 27.9001 632.3 27.7001 631.4 27.4001C630.5 27.0001 629.8 26.5001 629.2 25.9001C628.6 25.3001 628.1 24.6001 627.8 23.7001C627.5 22.8001 627.3 22 627.3 21.1C627.3 19.8 627.6 18.7001 628.2 17.7001C628.8 16.7001 629.6 15.8001 630.6 15.2001C631.7 14.6001 632.9 14.3 634.4 14.3C635.9 14.3 637.1 14.6001 638.1 15.2001C639.1 15.8001 639.9 16.7001 640.5 17.7001C641.1 18.7001 641.3 19.8 641.3 21C641.3 21.2 641.3 21.4 641.3 21.6C641.3 21.8 641.3 22 641.2 22.1H630.9C631 22.8 631.2 23.3 631.5 23.8C631.8 24.3 632.3 24.7001 632.8 24.9001C633.3 25.1001 633.9 25.3 634.5 25.3C635.2 25.3 635.8 25.1 636.4 24.8C637 24.5 637.4 24 637.6 23.5L640.5 24.3C640.2 25 639.7 25.6 639.1 26.1C638.5 26.6 637.8 27 637 27.3C636.2 27.6 635.3 27.9001 634.3 27.9001ZM630.8 20H637.8C637.7 19.3 637.5 18.8 637.2 18.3C636.9 17.8 636.5 17.4001 636 17.2001C635.5 16.9001 634.9 16.8 634.3 16.8C633.7 16.8 633.1 16.9001 632.6 17.2001C632.1 17.5001 631.7 17.9 631.4 18.3C631.1 18.7 630.9 19.3 630.8 20Z" fill="#EEF7FF"/>
<path d="M650.6 27.9001C649.5 27.9001 648.5 27.7001 647.7 27.4001C646.9 27.1001 646.1 26.5001 645.5 25.9001C644.9 25.3001 644.4 24.5001 644.1 23.7001C643.8 22.9001 643.6 22 643.6 21.1C643.6 19.9 643.9 18.7001 644.5 17.7001C645.1 16.7001 645.9 15.8001 646.9 15.2001C648 14.6001 649.2 14.3 650.6 14.3C652 14.3 653.3 14.6001 654.3 15.2001C655.3 15.8001 656.1 16.6001 656.6 17.7001L653.3 18.7001C653 18.2001 652.6 17.8 652.2 17.6C651.8 17.4 651.2 17.2001 650.6 17.2001C650 17.2001 649.4 17.4001 648.8 17.7001C648.3 18.0001 647.8 18.5 647.5 19.1C647.2 19.7 647 20.4001 647 21.2001C647 22.0001 647.2 22.6001 647.5 23.2001C647.8 23.8001 648.2 24.3 648.8 24.6C649.3 24.9 649.9 25.1 650.6 25.1C651 25.1 651.4 25.0001 651.8 24.9001C652.2 24.8001 652.5 24.6 652.8 24.3C653.1 24 653.3 23.8 653.4 23.5L656.7 24.5C656.4 25.2 655.9 25.8 655.4 26.3C654.8 26.8 654.1 27.2 653.3 27.5C652.5 27.8 651.6 27.9001 650.6 27.9001Z" fill="#EEF7FF"/>
<path d="M672.1 27.6001H668.7V20.2001C668.7 19.2001 668.5 18.4001 668.1 17.9001C667.7 17.4001 667.2 17.1001 666.5 17.1001C666.1 17.1001 665.7 17.2001 665.2 17.4001C664.7 17.6001 664.3 18.0001 664 18.4001C663.6 18.8001 663.4 19.3001 663.2 19.8001V27.5001H659.8V9.1001H663.2V16.9001C663.7 16.1001 664.4 15.4001 665.2 14.9001C666 14.4001 667 14.2001 668 14.2001C668.9 14.2001 669.6 14.3001 670.1 14.6001C670.6 14.9001 671.1 15.3001 671.4 15.8001C671.7 16.3001 671.9 16.8001 672 17.5001C672.1 18.1001 672.2 18.7001 672.2 19.4001V27.6001H672.1Z" fill="#EEF7FF"/>
</svg>
