<svg width="19" height="14" viewBox="0 0 19 14" fill="none" xmlns="http://www.w3.org/2000/svg">
<g clip-path="url(#clip0_102_172)">
<path d="M0.401367 0.387207H18.5516V14H0.401367V0.387207Z" fill="white"/>
<path d="M10.6109 0.387207H8.34208V5.91732H0.401367V8.4697H8.34208V13.9998H10.6109V8.4697H18.5516V5.91732H10.6109V0.387207Z" fill="#D80027"/>
<path d="M14.3598 9.56006L18.5505 12.1793V9.56006H14.3598ZM11.4482 9.56006L18.5505 13.999V12.7437L13.4566 9.56006H11.4482ZM16.6587 13.999L11.4482 10.7421V13.999H16.6587Z" fill="#0052B4"/>
<path d="M11.4482 9.56006L18.5505 13.999V12.7437L13.4566 9.56006H11.4482Z" fill="white"/>
<path d="M11.4482 9.56006L18.5505 13.999V12.7437L13.4566 9.56006H11.4482Z" fill="#D80027"/>
<path d="M3.60392 9.56006L0.401367 11.5617V9.56006H3.60392ZM7.50362 10.1245V13.999H1.30501L7.50362 10.1245Z" fill="#0052B4"/>
<path d="M5.49523 9.56006L0.401367 12.7437V13.999L7.50362 9.56006H5.49523Z" fill="#D80027"/>
<path d="M4.59204 4.8261L0.401367 2.20689V4.8261H4.59204ZM7.50362 4.8261L0.401367 0.387207V1.64242L5.49523 4.8261H7.50362ZM2.29317 0.387207L7.50362 3.64404V0.387207H2.29317Z" fill="#0052B4"/>
<path d="M7.50362 4.8261L0.401367 0.387207V1.64242L5.49523 4.8261H7.50362Z" fill="white"/>
<path d="M7.50362 4.8261L0.401367 0.387207V1.64242L5.49523 4.8261H7.50362Z" fill="#D80027"/>
<path d="M15.3479 4.82614L18.5505 2.82452V4.82614H15.3479ZM11.4482 4.26167V0.387207H17.6469L11.4482 4.26167Z" fill="#0052B4"/>
<path d="M13.4566 4.8261L18.5505 1.64242V0.387207L11.4482 4.8261H13.4566Z" fill="#D80027"/>
</g>
<defs>
<clipPath id="clip0_102_172">
<rect width="18.1502" height="13.6126" fill="white" transform="translate(0.401367 0.387207)"/>
</clipPath>
</defs>
</svg>
