<?xml version="1.0" encoding="utf-8"?>
<!-- Generator: Adobe Illustrator 16.0.0, SVG Export Plug-In . SVG Version: 6.00 Build 0)  -->
<!DOCTYPE svg PUBLIC "-//W3C//DTD SVG 1.0//EN" "http://www.w3.org/TR/2001/REC-SVG-20010904/DTD/svg10.dtd">
<svg version="1.0" id="Layer_1" xmlns="http://www.w3.org/2000/svg" xmlns:xlink="http://www.w3.org/1999/xlink" x="0px" y="0px"
	 width="188.121px" height="42.576px" viewBox="0 0 188.121 42.576" enable-background="new 0 0 188.121 42.576"
	 xml:space="preserve">
<g>
	<g>
		<path fill="#FFFFFF" d="M19.875,42.576l10.164-19.742H0c0,0,13.344,1.641,16.919,4.83C19.948,30.365,20.593,33.129,19.875,42.576z
			"/>
		<path fill="#FFFFFF" d="M40.997,16.898c-3.3-3.539,0.162-15.305,0.162-15.305l-11.12,21.24h30.003
			C60.042,22.834,45.675,21.92,40.997,16.898z"/>
		<path fill="#FFFFFF" d="M24.437,15.459c-8.463,5.154-24.419,7.375-24.419,7.375h30.021l11.119-21.24
			C41.158,1.594,33.287,10.066,24.437,15.459z"/>
		<path fill="#FFFFFF" d="M59.83,22.834H30.039L19.876,42.576c0,0,6.576-6.996,15.174-12.191
			C44.067,24.941,57.288,22.834,59.83,22.834z"/>
	</g>
	<path fill-rule="evenodd" clip-rule="evenodd" fill="#FFFFFF" d="M62.836,31.589V12.065h3.372v19.523H62.836L62.836,31.589z
		 M64.563,6.605c0.535,0,0.997,0.196,1.381,0.592c0.385,0.395,0.579,0.868,0.579,1.42c0,0.549-0.194,1.023-0.579,1.418
		c-0.386,0.396-0.846,0.592-1.381,0.592c-0.545,0-1.01-0.196-1.395-0.592c-0.385-0.395-0.575-0.869-0.575-1.418
		c0-0.552,0.19-1.024,0.575-1.42C63.553,6.803,64.018,6.605,64.563,6.605L64.563,6.605z M77.517,31.589l-4.08-6.463l-1.559,1.692
		v4.771h-3.24V11.998l3.24-0.796v11.591l4.63-5.477h3.903l-4.695,5.412l5.651,8.86H77.517L77.517,31.589z M83.566,19.995H81.96
		v-2.679h1.606v-2.903l3.24-1.229v4.132h3.814v2.679h-3.814v6.249c0,1.023,0.157,1.741,0.469,2.166
		c0.312,0.421,0.854,0.632,1.634,0.632c0.777,0,1.504-0.214,2.177-0.649v3.064c-0.753,0.264-1.823,0.401-3.213,0.401
		c-1.386,0-2.446-0.406-3.191-1.21c-0.742-0.801-1.115-1.947-1.115-3.43V19.995L83.566,19.995z M94.521,12.249
		c0.518,0,0.96,0.191,1.328,0.569c0.367,0.377,0.553,0.832,0.553,1.364s-0.187,0.992-0.553,1.37
		c-0.367,0.377-0.811,0.563-1.328,0.563s-0.965-0.187-1.333-0.563c-0.366-0.378-0.548-0.838-0.548-1.37s0.182-0.988,0.548-1.364
		C93.556,12.44,94.003,12.249,94.521,12.249L94.521,12.249z M92.848,31.589c0-4.765,0.012-9.522,0.012-14.272h3.268v14.272H92.848
		L92.848,31.589z M98.044,30.671l1.155-2.651c0.97,0.791,2.063,1.187,3.28,1.187c1.261,0,1.894-0.464,1.894-1.388
		c0-0.541-0.189-0.987-0.57-1.332c-0.38-0.347-1.119-0.758-2.217-1.229c-2.394-1.022-3.595-2.451-3.595-4.289
		c0-1.233,0.461-2.197,1.377-2.885c0.917-0.689,2.088-1.031,3.514-1.031c1.443,0,2.802,0.331,4.071,0.994l-0.933,2.59
		c-0.709-0.624-1.695-0.934-2.957-0.934c-1.134,0-1.7,0.46-1.7,1.383c0,0.365,0.188,0.695,0.559,0.988
		c0.372,0.293,1.169,0.686,2.386,1.178c1.221,0.494,2.097,1.093,2.633,1.797c0.534,0.701,0.806,1.547,0.806,2.543
		c0,1.322-0.478,2.365-1.434,3.125c-0.956,0.759-2.253,1.142-3.9,1.142c-0.924,0-1.663-0.081-2.221-0.237
		C99.634,31.466,98.916,31.148,98.044,30.671L98.044,30.671z M118.179,30.166c-0.297,0.496-0.81,0.902-1.541,1.22
		c-0.729,0.315-1.49,0.473-2.288,0.473c-1.495,0-2.669-0.386-3.527-1.155c-0.854-0.767-1.284-1.861-1.284-3.271
		c0-1.65,0.607-2.948,1.812-3.879c1.208-0.934,2.921-1.396,5.143-1.396c0.381,0,0.828,0.063,1.346,0.199
		c0-1.678-1.031-2.521-3.099-2.521c-1.217,0-2.24,0.21-3.058,0.629l-0.699-2.589c1.115-0.551,2.438-0.822,3.979-0.822
		c2.12,0,3.671,0.492,4.655,1.481c0.985,0.989,1.479,2.872,1.479,5.632v3.053c0,1.901,0.372,3.098,1.115,3.585
		c-0.27,0.481-0.565,0.778-0.894,0.886c-0.332,0.109-0.708,0.169-1.129,0.169c-0.47,0-0.885-0.179-1.257-0.537
		C118.56,30.965,118.306,30.58,118.179,30.166L118.179,30.166z M117.864,24.871c-0.554-0.113-0.966-0.172-1.244-0.172
		c-2.557,0-3.837,0.863-3.837,2.588c0,1.277,0.722,1.919,2.165,1.919c1.947,0,2.916-1,2.916-3.003V24.871L117.864,24.871z
		 M124.31,19.995h-1.605v-2.679h1.605v-2.903l3.24-1.229v4.132h3.815v2.679h-3.815v6.249c0,1.024,0.156,1.741,0.469,2.166
		c0.312,0.422,0.854,0.632,1.633,0.632c0.779,0,1.505-0.214,2.179-0.649v3.064c-0.753,0.264-1.824,0.401-3.214,0.401
		c-1.385,0-2.446-0.406-3.191-1.21c-0.742-0.803-1.115-1.947-1.115-3.43V19.995L124.31,19.995z M136.196,30.804l-0.726,1.055h-1.828
		v-19.86l3.239-0.796v6.659c0.867-0.541,1.812-0.809,2.829-0.809c2.031,0,3.668,0.66,4.912,1.978
		c1.247,1.321,1.868,3.007,1.868,5.071c0,2.39-0.626,4.276-1.881,5.67c-1.254,1.389-2.952,2.087-5.095,2.087
		C138.229,31.858,137.121,31.504,136.196,30.804L136.196,30.804z M136.882,20.713v7.451c0.479,0.578,1.121,0.865,1.935,0.865
		c1.562,0,2.673-0.379,3.324-1.143c0.653-0.765,0.982-1.988,0.982-3.666c0-2.898-1.35-4.344-4.051-4.344
		C138.116,19.877,137.387,20.154,136.882,20.713L136.882,20.713z M156.186,30.166c-0.297,0.496-0.81,0.902-1.541,1.22
		c-0.729,0.315-1.49,0.473-2.288,0.473c-1.495,0-2.67-0.386-3.527-1.155c-0.854-0.767-1.283-1.861-1.283-3.271
		c0-1.65,0.606-2.948,1.81-3.879c1.208-0.934,2.921-1.396,5.144-1.396c0.38,0,0.828,0.063,1.346,0.199
		c0-1.678-1.031-2.521-3.098-2.521c-1.218,0-2.24,0.21-3.06,0.629l-0.699-2.589c1.116-0.551,2.439-0.822,3.979-0.822
		c2.121,0,3.673,0.492,4.657,1.481c0.983,0.989,1.478,2.872,1.478,5.632v3.053c0,1.901,0.372,3.098,1.116,3.585
		c-0.271,0.481-0.567,0.778-0.895,0.886c-0.332,0.109-0.708,0.169-1.128,0.169c-0.47,0-0.885-0.179-1.259-0.537
		C156.568,30.965,156.313,30.58,156.186,30.166L156.186,30.166z M155.872,24.871c-0.556-0.113-0.966-0.172-1.245-0.172
		c-2.558,0-3.837,0.863-3.837,2.588c0,1.277,0.723,1.919,2.164,1.919c1.947,0,2.918-1,2.918-3.003V24.871L155.872,24.871z
		 M170.646,31.589v-8.246c0-1.218-0.228-2.104-0.683-2.665c-0.452-0.559-1.194-0.843-2.222-0.843c-0.478,0-0.981,0.14-1.522,0.415
		c-0.539,0.274-0.965,0.618-1.266,1.023v10.315h-3.24V17.316h2.333l0.598,1.332c0.881-1.064,2.182-1.596,3.899-1.596
		c1.655,0,2.958,0.508,3.912,1.522c0.957,1.019,1.429,2.439,1.429,4.259v8.755H170.646L170.646,31.589z M184.271,31.589l-4.08-6.463
		l-1.559,1.692v4.771h-3.239V11.998l3.239-0.796v11.591l4.631-5.477h3.903l-4.696,5.412l5.651,8.86H184.271z"/>
</g>
<g>
	<g>
		<path fill="#F7941E" d="M19.875,40.982L30.039,21.24H0c0,0,13.344,1.641,16.919,4.83C19.948,28.771,20.593,31.535,19.875,40.982z"
			/>
		<path fill="#00549F" d="M40.997,15.305C37.697,11.766,41.159,0,41.159,0l-11.12,21.24h30.003
			C60.042,21.24,45.675,20.326,40.997,15.305z"/>
		<path fill="#00AEEF" d="M24.437,13.865C15.974,19.02,0.018,21.24,0.018,21.24h30.021L41.158,0
			C41.158,0,33.287,8.473,24.437,13.865z"/>
		<path fill="#EF4123" d="M59.83,21.24H30.039L19.876,40.982c0,0,6.576-6.996,15.174-12.191C44.067,23.348,57.288,21.24,59.83,21.24
			z"/>
	</g>
	<path fill-rule="evenodd" clip-rule="evenodd" fill="#0097DC" d="M62.836,29.995V10.472h3.372v19.523H62.836L62.836,29.995z
		 M64.563,5.012c0.535,0,0.997,0.196,1.381,0.592c0.385,0.395,0.579,0.868,0.579,1.42c0,0.549-0.194,1.023-0.579,1.418
		c-0.386,0.396-0.846,0.592-1.381,0.592c-0.545,0-1.01-0.196-1.395-0.592c-0.385-0.395-0.575-0.869-0.575-1.418
		c0-0.552,0.19-1.024,0.575-1.42C63.553,5.209,64.018,5.012,64.563,5.012L64.563,5.012z M77.517,29.995l-4.08-6.463l-1.559,1.692
		v4.771h-3.24V10.404l3.24-0.796v11.591l4.63-5.477h3.903l-4.695,5.412l5.651,8.86H77.517L77.517,29.995z M83.566,18.401H81.96
		v-2.679h1.606v-2.903l3.24-1.229v4.132h3.814v2.679h-3.814v6.249c0,1.023,0.157,1.741,0.469,2.166
		c0.312,0.421,0.854,0.632,1.634,0.632c0.777,0,1.504-0.214,2.177-0.649v3.064c-0.753,0.264-1.823,0.401-3.213,0.401
		c-1.386,0-2.446-0.406-3.191-1.21c-0.742-0.801-1.115-1.947-1.115-3.43V18.401L83.566,18.401z M94.521,10.655
		c0.518,0,0.96,0.191,1.328,0.569c0.367,0.377,0.553,0.832,0.553,1.364s-0.187,0.992-0.553,1.37
		c-0.367,0.377-0.811,0.563-1.328,0.563s-0.965-0.187-1.333-0.563c-0.366-0.378-0.548-0.838-0.548-1.37s0.182-0.988,0.548-1.364
		C93.556,10.847,94.003,10.655,94.521,10.655L94.521,10.655z M92.848,29.995c0-4.765,0.012-9.522,0.012-14.272h3.268v14.272H92.848
		L92.848,29.995z M98.044,29.077l1.155-2.651c0.97,0.791,2.063,1.187,3.28,1.187c1.261,0,1.894-0.464,1.894-1.388
		c0-0.541-0.189-0.987-0.57-1.332c-0.38-0.347-1.119-0.758-2.217-1.229c-2.394-1.022-3.595-2.451-3.595-4.289
		c0-1.233,0.461-2.197,1.377-2.885c0.917-0.689,2.088-1.031,3.514-1.031c1.443,0,2.802,0.331,4.071,0.994l-0.933,2.59
		c-0.709-0.624-1.695-0.934-2.957-0.934c-1.134,0-1.7,0.46-1.7,1.383c0,0.365,0.188,0.695,0.559,0.988
		c0.372,0.293,1.169,0.686,2.386,1.178c1.221,0.494,2.097,1.093,2.633,1.797c0.534,0.701,0.806,1.547,0.806,2.543
		c0,1.322-0.478,2.365-1.434,3.125c-0.956,0.759-2.253,1.142-3.9,1.142c-0.924,0-1.663-0.081-2.221-0.237
		C99.634,29.872,98.916,29.555,98.044,29.077L98.044,29.077z M118.179,28.572c-0.297,0.496-0.81,0.902-1.541,1.22
		c-0.729,0.315-1.49,0.473-2.288,0.473c-1.495,0-2.669-0.386-3.527-1.155c-0.854-0.767-1.284-1.861-1.284-3.271
		c0-1.65,0.607-2.948,1.812-3.879c1.208-0.934,2.921-1.396,5.143-1.396c0.381,0,0.828,0.063,1.346,0.199
		c0-1.678-1.031-2.521-3.099-2.521c-1.217,0-2.24,0.21-3.058,0.629l-0.699-2.589c1.115-0.551,2.438-0.822,3.979-0.822
		c2.12,0,3.671,0.492,4.655,1.481c0.985,0.989,1.479,2.872,1.479,5.632v3.053c0,1.901,0.372,3.098,1.115,3.585
		c-0.27,0.481-0.565,0.778-0.894,0.886c-0.332,0.109-0.708,0.169-1.129,0.169c-0.47,0-0.885-0.179-1.257-0.537
		C118.56,29.371,118.306,28.986,118.179,28.572L118.179,28.572z M117.864,23.277c-0.554-0.113-0.966-0.172-1.244-0.172
		c-2.557,0-3.837,0.863-3.837,2.588c0,1.277,0.722,1.919,2.165,1.919c1.947,0,2.916-1,2.916-3.003V23.277L117.864,23.277z
		 M124.31,18.401h-1.605v-2.679h1.605v-2.903l3.24-1.229v4.132h3.815v2.679h-3.815v6.249c0,1.024,0.156,1.741,0.469,2.166
		c0.312,0.422,0.854,0.632,1.633,0.632c0.779,0,1.505-0.214,2.179-0.649v3.064c-0.753,0.264-1.824,0.401-3.214,0.401
		c-1.385,0-2.446-0.406-3.191-1.21c-0.742-0.803-1.115-1.947-1.115-3.43V18.401L124.31,18.401z M136.196,29.21l-0.726,1.055h-1.828
		v-19.86l3.239-0.796v6.659c0.867-0.541,1.812-0.809,2.829-0.809c2.031,0,3.668,0.66,4.912,1.978
		c1.247,1.321,1.868,3.007,1.868,5.071c0,2.39-0.626,4.276-1.881,5.67c-1.254,1.389-2.952,2.087-5.095,2.087
		C138.229,30.265,137.121,29.91,136.196,29.21L136.196,29.21z M136.882,19.119v7.451c0.479,0.578,1.121,0.865,1.935,0.865
		c1.562,0,2.673-0.379,3.324-1.143c0.653-0.765,0.982-1.988,0.982-3.666c0-2.898-1.35-4.344-4.051-4.344
		C138.116,18.283,137.387,18.561,136.882,19.119L136.882,19.119z M156.186,28.572c-0.297,0.496-0.81,0.902-1.541,1.22
		c-0.729,0.315-1.49,0.473-2.288,0.473c-1.495,0-2.67-0.386-3.527-1.155c-0.854-0.767-1.283-1.861-1.283-3.271
		c0-1.65,0.606-2.948,1.81-3.879c1.208-0.934,2.921-1.396,5.144-1.396c0.38,0,0.828,0.063,1.346,0.199
		c0-1.678-1.031-2.521-3.098-2.521c-1.218,0-2.24,0.21-3.06,0.629l-0.699-2.589c1.116-0.551,2.439-0.822,3.979-0.822
		c2.121,0,3.673,0.492,4.657,1.481c0.983,0.989,1.478,2.872,1.478,5.632v3.053c0,1.901,0.372,3.098,1.116,3.585
		c-0.271,0.481-0.567,0.778-0.895,0.886c-0.332,0.109-0.708,0.169-1.128,0.169c-0.47,0-0.885-0.179-1.259-0.537
		C156.568,29.371,156.313,28.986,156.186,28.572L156.186,28.572z M155.872,23.277c-0.556-0.113-0.966-0.172-1.245-0.172
		c-2.558,0-3.837,0.863-3.837,2.588c0,1.277,0.723,1.919,2.164,1.919c1.947,0,2.918-1,2.918-3.003V23.277L155.872,23.277z
		 M170.646,29.995v-8.246c0-1.218-0.228-2.104-0.683-2.665c-0.452-0.559-1.194-0.843-2.222-0.843c-0.478,0-0.981,0.14-1.522,0.415
		c-0.539,0.274-0.965,0.618-1.266,1.023v10.315h-3.24V15.723h2.333l0.598,1.332c0.881-1.064,2.182-1.596,3.899-1.596
		c1.655,0,2.958,0.508,3.912,1.522c0.957,1.019,1.429,2.439,1.429,4.259v8.755H170.646L170.646,29.995z M184.271,29.995l-4.08-6.463
		l-1.559,1.692v4.771h-3.239V10.404l3.239-0.796v11.591l4.631-5.477h3.903l-4.696,5.412l5.651,8.86H184.271z"/>
</g>
</svg>
