<svg width="22" height="15" viewBox="0 0 22 15" fill="none" xmlns="http://www.w3.org/2000/svg">
<g clip-path="url(#clip0_102_168)">
<path d="M0.4375 0.562012H21.2142V14.4131H0.4375V0.562012Z" fill="#E30A17"/>
<path d="M10.9555 5.36559C10.4249 4.98084 9.78094 4.77429 9.12078 4.77834C7.46837 4.77834 6.13186 6.02575 6.13186 7.56881C6.13186 9.11188 7.47242 10.3593 9.12078 10.3593C9.81334 10.3593 10.4532 10.1406 10.9555 9.77203C9.74044 11.3353 7.48457 11.6188 5.92126 10.3998C4.35795 9.18073 4.07444 6.92891 5.2935 5.36559C6.51256 3.80228 8.76438 3.51878 10.3277 4.73784C10.5626 4.92009 10.7732 5.13474 10.9555 5.36559ZM12.5714 8.03052L11.8384 8.91747L11.887 7.76726L10.8177 7.34606L11.9234 7.03826L11.9963 5.8921L12.6281 6.85196L13.7419 6.5644L13.0331 7.45541L13.6528 8.42337L12.5714 8.03052Z" fill="white"/>
</g>
<defs>
<clipPath id="clip0_102_168">
<rect width="20.7767" height="13.8511" fill="white" transform="translate(0.4375 0.562012)"/>
</clipPath>
</defs>
</svg>
