<svg width="137" height="33" viewBox="0 0 137 33" fill="none" xmlns="http://www.w3.org/2000/svg">
<path d="M0 20.0798C0 16.4322 0 12.7485 0 8.99256C5.20051 8.37861 8.34249 5.48942 8.95645 0C12.6763 0 16.4322 0 20.1881 0C20.7298 11.2678 10.1482 20.7298 0 20.0798Z" fill="#EEF7FF"/>
<path d="M20.2605 32.5753C16.4323 32.5753 12.7486 32.5753 8.99268 32.5753C8.99268 28.4583 8.99268 24.4135 8.99268 20.2603C12.7486 20.2603 16.4684 20.2603 20.2605 20.2603C20.2605 24.3413 20.2605 28.3861 20.2605 32.5753Z" fill="#EEF7FF"/>
<path d="M49.4904 14.0214C48.9846 14.9116 48.2359 15.64 47.204 16.1863C46.1722 16.7326 44.8975 17.0159 43.38 17.0159H40.5676V23.713H36.0151V5.05811H43.38C44.8772 5.05811 46.1317 5.32114 47.1636 5.82696C48.1955 6.33279 48.9643 7.04095 49.4701 7.95144C49.976 8.86193 50.239 9.89382 50.239 11.0673C50.239 12.1397 49.9962 13.1311 49.4904 14.0214ZM44.9784 12.7872C45.4033 12.3825 45.6259 11.7957 45.6259 11.0673C45.6259 10.3389 45.4033 9.75218 44.9784 9.34752C44.5535 8.94286 43.906 8.74053 43.036 8.74053H40.5676V13.4144H43.036C43.906 13.3941 44.5535 13.1918 44.9784 12.7872Z" fill="#EEF7FF"/>
<path d="M52.5658 12.2609C53.1323 11.1077 53.9214 10.2174 54.9129 9.61041C55.9043 8.98318 57.0171 8.67969 58.2311 8.67969C59.2832 8.67969 60.1937 8.88202 60.9828 9.32715C61.7719 9.75204 62.3789 10.3186 62.8038 11.0065V8.88202H67.3562V23.7129H62.8038V21.6087C62.3586 22.2966 61.7517 22.8631 60.9626 23.288C60.1735 23.7129 59.263 23.9355 58.2109 23.9355C56.9969 23.9355 55.9043 23.6117 54.9129 22.9845C53.9214 22.3573 53.1323 21.467 52.5658 20.2935C51.9993 19.1402 51.6958 17.7846 51.6958 16.2671C51.6958 14.7496 51.9791 13.4142 52.5658 12.2609ZM61.873 13.6166C61.2458 12.9691 60.477 12.6251 59.5665 12.6251C58.656 12.6251 57.8871 12.9489 57.2599 13.5963C56.6327 14.2438 56.3089 15.134 56.3089 16.2671C56.3089 17.4002 56.6327 18.3106 57.2599 18.9581C57.8871 19.6258 58.656 19.9495 59.5665 19.9495C60.477 19.9495 61.2458 19.6258 61.873 18.9581C62.5003 18.3106 62.824 17.4002 62.824 16.2671C62.824 15.134 62.5003 14.264 61.873 13.6166Z" fill="#EEF7FF"/>
<path d="M85.809 8.88232L76.5018 30.7543H71.6054L75.0046 23.2074L68.9751 8.88232H74.0536L77.473 18.1693L80.8722 8.88232H85.809Z" fill="#EEF7FF"/>
<path d="M90.28 23.0047C89.1267 22.3775 88.2162 21.5075 87.5486 20.3542C86.8809 19.2009 86.5571 17.8655 86.5571 16.3076C86.5571 14.7901 86.9011 13.4345 87.5688 12.2812C88.2365 11.1279 89.1672 10.2376 90.3407 9.61041C91.5142 8.98318 92.8294 8.67969 94.2659 8.67969C95.7227 8.67969 97.0379 8.98318 98.1912 9.61041C99.3647 10.2376 100.275 11.1279 100.963 12.2812C101.631 13.4345 101.975 14.7901 101.975 16.3076C101.975 17.825 101.631 19.1807 100.943 20.334C100.255 21.4873 99.3242 22.3775 98.1507 23.0047C96.9772 23.632 95.662 23.9355 94.2052 23.9355C92.7485 23.9355 91.4333 23.6117 90.28 23.0047ZM96.4107 19.039C97.0176 18.3916 97.3211 17.4811 97.3211 16.3076C97.3211 15.134 97.0176 14.2033 96.4309 13.5761C95.8441 12.9286 95.1157 12.6251 94.2457 12.6251C93.3555 12.6251 92.6271 12.9489 92.0403 13.5761C91.4535 14.2033 91.1703 15.1138 91.1703 16.3278C91.1703 17.5216 91.4535 18.432 92.0403 19.0593C92.6068 19.7067 93.3352 20.0102 94.2052 20.0102C95.0753 19.99 95.8037 19.6663 96.4107 19.039Z" fill="#EEF7FF"/>
<path d="M117.575 10.4198C118.606 11.5528 119.133 13.0906 119.133 15.0532V23.7129H114.621V15.6602C114.621 14.6687 114.358 13.8999 113.852 13.3536C113.346 12.8073 112.638 12.524 111.788 12.524C110.918 12.524 110.23 12.8073 109.724 13.3536C109.218 13.8999 108.955 14.6687 108.955 15.6602V23.7129H104.403V8.88208H108.935V10.8447C109.4 10.1972 110.007 9.67117 110.796 9.28674C111.586 8.90231 112.456 8.72021 113.427 8.72021C115.147 8.72021 116.543 9.28674 117.575 10.4198Z" fill="#EEF7FF"/>
<path d="M136.209 17.3801H125.931C125.992 18.3109 126.295 18.9988 126.821 19.4844C127.347 19.97 127.995 20.2128 128.743 20.2128C129.876 20.2128 130.665 19.7272 131.111 18.7762H135.946C135.704 19.7474 135.258 20.6377 134.611 21.4066C133.963 22.1957 133.154 22.8026 132.183 23.2478C131.212 23.6929 130.119 23.9155 128.905 23.9155C127.448 23.9155 126.154 23.612 125.02 22.9847C123.887 22.3575 122.997 21.4875 122.37 20.3342C121.722 19.1809 121.419 17.8455 121.419 16.2875C121.419 14.7498 121.743 13.3942 122.37 12.2409C122.997 11.0876 123.887 10.1974 125.02 9.59039C126.154 8.96316 127.448 8.65967 128.925 8.65967C130.362 8.65967 131.637 8.96316 132.749 9.57016C133.862 10.1772 134.732 11.0269 135.36 12.1398C135.987 13.2526 136.311 14.5677 136.311 16.0447C136.27 16.4899 136.25 16.935 136.209 17.3801ZM131.637 14.8712C131.637 14.0821 131.374 13.4751 130.848 13.0098C130.322 12.5444 129.654 12.3219 128.844 12.3219C128.076 12.3219 127.448 12.5444 126.922 12.9896C126.396 13.4347 126.073 14.0619 125.951 14.8712H131.637Z" fill="#EEF7FF"/>
</svg>
