<svg width="659" height="391" viewBox="0 0 659 391" fill="none" xmlns="http://www.w3.org/2000/svg">
<path d="M412.024 378.218C414.313 376.934 416.885 376.24 419.508 376.197C422.132 376.155 424.725 376.765 427.054 377.973C429.384 379.181 431.376 380.949 432.853 383.118C434.329 385.287 435.243 387.789 435.513 390.399C425.916 390.399 416.509 388.166 412.024 378.218Z" fill="#EBEBEB"/>
<path d="M423.198 368.384C426.425 369.443 429.865 369.683 433.208 369.082C436.55 368.481 439.691 367.058 442.347 364.941C445.003 362.824 447.091 360.08 448.422 356.956C449.754 353.831 450.287 350.425 449.974 347.043C437.783 349.437 426.343 354.644 423.198 368.384Z" fill="#EBEBEB"/>
<path d="M381.419 384.622C381.611 384.526 381.812 384.446 382.018 384.384L383.775 383.795C385.296 383.301 387.5 382.579 390.208 381.638C395.634 379.738 403.073 377.04 411.112 373.552C415.112 371.795 418.875 370.008 422.257 368.298C425.64 366.588 428.595 364.896 431.047 363.405C432.976 362.245 434.839 360.976 436.624 359.604C437.878 358.654 438.524 357.979 438.524 358.017C438.4 358.191 438.257 358.35 438.097 358.492C437.668 358.938 437.214 359.36 436.738 359.756C434.989 361.205 433.145 362.535 431.218 363.737C428.795 365.276 425.821 366.968 422.457 368.735C419.093 370.502 415.312 372.279 411.292 374.046C403.263 377.543 395.786 380.223 390.332 382.009C387.605 382.912 385.381 383.577 383.842 384.014L382.065 384.517C381.855 384.58 381.638 384.615 381.419 384.622Z" fill="#E0E0E0"/>
<path d="M424.377 383.805C424.377 383.881 423.217 383.102 421.308 382.066C418.813 380.728 416.177 379.67 413.45 378.911C410.713 378.169 407.902 377.739 405.069 377.629C402.903 377.543 401.544 377.629 401.544 377.553C401.853 377.462 402.172 377.411 402.494 377.401C403.356 377.309 404.222 377.268 405.088 377.277C410.854 377.302 416.512 378.849 421.488 381.762C422.238 382.197 422.961 382.676 423.654 383.197C423.924 383.363 424.167 383.568 424.377 383.805Z" fill="#E0E0E0"/>
<path d="M197.978 341.085C196.816 344.182 196.443 347.519 196.891 350.797C197.339 354.074 198.595 357.188 200.546 359.86C202.496 362.531 205.08 364.676 208.065 366.101C211.051 367.525 214.343 368.186 217.647 368.022C215.823 356.069 211.224 344.705 197.978 341.085Z" fill="#EBEBEB"/>
<path d="M196.107 335.213C196.183 335.213 196.506 336.524 197.199 338.605C198.101 341.318 199.229 343.949 200.573 346.472C201.934 348.986 203.501 351.382 205.257 353.637C206.616 355.366 207.537 356.373 207.48 356.43C207.213 356.25 206.97 356.036 206.758 355.794C206.312 355.357 205.703 354.701 204.991 353.893C201.254 349.468 198.486 344.309 196.867 338.748C196.563 337.683 196.344 336.847 196.24 336.201C196.142 335.881 196.097 335.547 196.107 335.213Z" fill="#E0E0E0"/>
<path d="M8.09537 101.318C6.29109 106.12 5.71018 111.295 6.40501 116.377C7.09984 121.459 9.04856 126.289 12.0755 130.43C15.1024 134.571 19.1124 137.894 23.7438 140.098C28.3753 142.303 33.4827 143.321 38.6055 143.059C35.755 124.531 28.6571 106.952 8.13338 101.318" fill="#EBEBEB"/>
<path d="M5.18799 92.2343C5.38103 92.6911 5.53055 93.1651 5.63457 93.65C5.88161 94.6002 6.27119 95.8924 6.79378 97.5172C8.17237 101.733 9.91457 105.822 12.0007 109.736C14.1029 113.649 16.5447 117.369 19.2981 120.854C20.3623 122.184 21.1984 123.248 21.8731 123.961C22.2171 124.32 22.5346 124.705 22.8232 125.11C22.4316 124.806 22.069 124.465 21.74 124.094C21.0654 123.409 20.1342 122.383 19.0415 121.072C13.3036 114.193 9.0265 106.217 6.47072 97.6312C5.98613 95.9969 5.64407 94.6477 5.45404 93.7165C5.33046 93.2293 5.24156 92.734 5.18799 92.2343Z" fill="#E0E0E0"/>
<path d="M40.2019 290.441C37.6233 292.515 35.6012 295.198 34.3175 298.248C33.0339 301.299 32.5291 304.62 32.8486 307.914C33.1681 311.208 34.3018 314.371 36.1478 317.118C37.9937 319.865 40.4938 322.109 43.423 323.649C47.9364 312.428 49.7607 300.313 40.2019 290.441Z" fill="#EBEBEB"/>
<path d="M41.5701 284.436C41.6461 284.436 41.2565 285.775 40.7909 287.913C39.5608 293.51 39.3196 299.279 40.0783 304.959C40.3633 307.135 40.6484 308.475 40.5629 308.494C40.4267 308.19 40.3278 307.871 40.2683 307.544C40.1068 306.945 39.9168 306.071 39.7267 304.988C38.7746 299.273 39.0205 293.423 40.4489 287.809C40.7244 286.735 40.9905 285.908 41.1995 285.3C41.2895 284.999 41.4138 284.709 41.5701 284.436Z" fill="#E0E0E0"/>
<path d="M216.535 50.1796C219.497 51.6541 222.778 52.3692 226.085 52.2603C229.392 52.1515 232.619 51.2222 235.477 49.5561C238.336 47.89 240.735 45.5394 242.459 42.7158C244.183 39.8921 245.178 36.6841 245.354 33.3805C233.268 33.9601 221.505 37.3712 216.535 50.1796Z" fill="#EBEBEB"/>
<path d="M210.501 51.4908C210.501 51.4148 211.851 51.2248 213.989 50.7497C219.586 49.5266 224.926 47.3369 229.771 44.279C231.671 43.1008 232.726 42.2931 232.774 42.3786C232.572 42.6304 232.336 42.8512 232.07 43.0343C231.595 43.4333 230.873 43.9844 229.961 44.5925C225.174 47.8514 219.76 50.0747 214.065 51.1202C212.972 51.3198 212.088 51.4338 211.471 51.4908C211.149 51.5342 210.823 51.5342 210.501 51.4908Z" fill="#E0E0E0"/>
<path d="M191.907 48.4597C196.173 47.5442 200.144 45.5822 203.463 42.7504C206.782 39.9186 209.344 36.3059 210.92 32.2376C212.496 28.1692 213.035 23.7728 212.489 19.4442C211.944 15.1156 210.33 10.9907 207.794 7.44067C195.822 17.9781 186.491 31.195 191.907 48.4597Z" fill="#EBEBEB"/>
<path d="M186.728 54.7119C186.964 54.3708 187.231 54.0526 187.526 53.7617C188.068 53.1631 188.837 52.2699 189.75 51.1487C194.541 45.2954 198.251 38.6351 200.705 31.4801C201.18 30.1119 201.532 28.9906 201.76 28.2115C201.855 27.7996 201.992 27.3985 202.168 27.0143C202.139 27.4364 202.063 27.854 201.94 28.259C201.779 29.0572 201.465 30.1594 200.99 31.5846C198.711 38.8627 194.963 45.5958 189.978 51.3673C189.027 52.4695 188.21 53.3341 187.621 53.8947C187.353 54.1974 187.053 54.4713 186.728 54.7119Z" fill="#E0E0E0"/>
<path d="M269.85 373.952C270.751 375.727 272.079 377.25 273.714 378.385C275.35 379.52 277.241 380.232 279.22 380.455C281.198 380.678 283.201 380.407 285.048 379.664C286.895 378.922 288.529 377.733 289.803 376.203C283.76 372.137 276.843 369.552 269.85 373.952Z" fill="#EBEBEB"/>
<path d="M266.486 372.393C268.709 373.378 270.994 374.216 273.327 374.902C275.7 375.426 278.107 375.788 280.529 375.985C279.822 376.141 279.094 376.185 278.373 376.118C274.874 375.999 271.444 375.12 268.32 373.543C267.654 373.254 267.036 372.866 266.486 372.393Z" fill="#E0E0E0"/>
<path d="M357.931 32.8009C359.157 34.372 360.755 35.6133 362.58 36.4129C364.405 37.2125 366.401 37.5453 368.387 37.3812C370.373 37.2172 372.287 36.5616 373.957 35.4733C375.627 34.3851 376.999 32.8985 377.951 31.1476C371.233 28.2971 363.955 27.1284 357.931 32.8009Z" fill="#EBEBEB"/>
<path d="M354.33 31.9266C359.051 33.1624 363.972 33.437 368.801 32.7343C368.134 33.0154 367.43 33.1978 366.71 33.2759C363.254 33.8389 359.716 33.6411 356.344 32.6963C355.637 32.543 354.958 32.2835 354.33 31.9266Z" fill="#E0E0E0"/>
<path d="M586.201 62.0282C589.388 62.9052 592.743 62.9767 595.965 62.236C599.187 61.4953 602.174 59.9657 604.659 57.7847C607.143 55.6037 609.047 52.8397 610.198 49.7409C611.35 46.6421 611.714 43.3058 611.257 40.0316C599.513 42.8821 588.624 48.5167 586.201 62.0282Z" fill="#EBEBEB"/>
<path d="M580.519 64.4227C580.519 64.3467 581.782 63.9001 583.797 63.0259C589.056 60.7556 593.879 57.5852 598.049 53.6572C599.655 52.1464 600.567 51.1393 600.634 51.1963C600.478 51.4767 600.287 51.7355 600.064 51.9659C599.674 52.4505 599.113 53.1156 598.296 53.8663C594.219 57.9784 589.329 61.1951 583.939 63.311C582.913 63.7101 582.039 64.0046 581.469 64.1661C581.164 64.2911 580.845 64.3773 580.519 64.4227Z" fill="#E0E0E0"/>
<path d="M608.71 351.632C614.317 350.334 619.513 347.663 623.831 343.859C628.149 340.056 631.455 335.238 633.451 329.841C635.446 324.443 636.069 318.634 635.263 312.936C634.458 307.238 632.249 301.829 628.835 297.196C613.223 311.345 601.194 328.942 608.71 351.632Z" fill="#EBEBEB"/>
<path d="M601.974 359.993C602.297 359.538 602.653 359.106 603.038 358.701C603.751 357.903 604.748 356.715 605.936 355.224C607.124 353.732 608.492 351.898 609.908 349.808C611.323 347.717 612.758 345.332 614.155 342.767C615.552 340.201 616.692 337.674 617.671 335.336C618.649 332.999 619.419 330.861 619.998 329.037C620.578 327.212 621.015 325.73 621.291 324.694C621.41 324.149 621.575 323.615 621.785 323.098C621.723 323.653 621.622 324.202 621.481 324.742C621.262 325.797 620.873 327.298 620.331 329.141C619.789 330.985 619.039 333.151 618.098 335.517C617.157 337.883 615.97 340.41 614.592 343.004C613.276 345.428 611.84 347.784 610.288 350.064C608.834 352.155 607.437 353.969 606.211 355.442C604.986 356.915 603.931 358.074 603.18 358.834C602.809 359.252 602.406 359.64 601.974 359.993Z" fill="#E0E0E0"/>
<path d="M479.695 231.834C473.7 198.34 444.938 169.122 411.026 166.329C392.545 164.828 373.969 170.652 355.565 168.429C339.966 166.482 325.612 158.915 315.192 147.145C299.989 129.852 294.848 105.252 278.752 88.7946C256.575 66.095 217.875 65.7434 190.89 82.438C163.905 99.1325 147.59 129.263 140.122 160.096L139.827 169.474C138.203 201.457 146.621 238.675 165.178 267.18C183.982 296.066 196.344 308.038 230.607 328.761C259.701 346.396 316.674 354.15 350.69 354.967C384.706 355.784 419.644 345.655 445.233 323.212C470.821 300.769 485.7 265.328 479.695 231.834Z" fill="#0057FF"/>
<g opacity="0.8">
<path d="M479.695 231.834C473.7 198.34 444.938 169.122 411.026 166.329C392.545 164.828 373.969 170.652 355.565 168.429C339.966 166.482 325.612 158.915 315.192 147.145C299.989 129.852 294.848 105.252 278.752 88.7946C256.575 66.095 217.875 65.7434 190.89 82.438C163.905 99.1325 147.59 129.263 140.122 160.096L139.827 169.474C138.203 201.457 146.621 238.675 165.178 267.18C183.982 296.066 196.344 308.038 230.607 328.761C259.701 346.396 316.674 354.15 350.69 354.967C384.706 355.784 419.644 345.655 445.233 323.212C470.821 300.769 485.7 265.328 479.695 231.834Z" fill="white"/>
</g>
<path d="M513.041 351.418C514.342 342.46 508.134 334.143 499.176 332.843C490.217 331.542 481.901 337.75 480.6 346.709C479.3 355.667 485.508 363.983 494.466 365.284C503.424 366.584 511.741 360.377 513.041 351.418Z" fill="#0057FF"/>
<path opacity="0.8" d="M513.041 351.418C514.342 342.46 508.134 334.143 499.176 332.843C490.217 331.542 481.901 337.75 480.6 346.709C479.3 355.667 485.508 363.983 494.466 365.284C503.424 366.584 511.741 360.377 513.041 351.418Z" fill="white"/>
<path d="M381.77 222.95C382.081 255.674 374.948 280.695 360.373 298.014C345.797 315.332 325.843 324.105 300.512 324.333C275.047 324.58 254.805 316.194 239.786 299.173C224.767 282.152 217.096 257.283 216.773 224.565L216.222 167.022C215.905 134.425 223.037 109.404 237.619 91.9587C252.201 74.5134 272.222 65.6832 297.68 65.4678C323.018 65.2207 343.203 73.6678 358.235 90.8089C373.266 107.95 380.934 132.816 381.238 165.407L381.77 222.95ZM339.174 159.364C338.965 138.758 335.377 123.542 328.409 113.718C321.441 103.893 311.306 99.0406 298.003 99.161C284.745 99.2877 274.74 104.333 267.987 114.297C261.234 124.261 257.937 139.543 258.096 160.143L258.761 230.067C258.957 250.78 262.59 266.081 269.659 275.969C276.729 285.858 286.886 290.738 300.131 290.612C313.377 290.485 323.351 285.44 330.052 275.475C336.754 265.511 340.007 250.115 339.811 229.287L339.174 159.364Z" fill="#0057FF"/>
<g opacity="0.4">
<path d="M381.77 222.95C382.081 255.674 374.948 280.695 360.373 298.014C345.797 315.332 325.843 324.105 300.512 324.333C275.047 324.58 254.805 316.194 239.786 299.173C224.767 282.152 217.096 257.283 216.773 224.565L216.222 167.022C215.905 134.425 223.037 109.404 237.619 91.9587C252.201 74.5134 272.222 65.6832 297.68 65.4678C323.018 65.2207 343.203 73.6678 358.235 90.8089C373.266 107.95 380.934 132.816 381.238 165.407L381.77 222.95ZM339.174 159.364C338.965 138.758 335.377 123.542 328.409 113.718C321.441 103.893 311.306 99.0406 298.003 99.161C284.745 99.2877 274.74 104.333 267.987 114.297C261.234 124.261 257.937 139.543 258.096 160.143L258.761 230.067C258.957 250.78 262.59 266.081 269.659 275.969C276.729 285.858 286.886 290.738 300.131 290.612C313.377 290.485 323.351 285.44 330.052 275.475C336.754 265.511 340.007 250.115 339.811 229.287L339.174 159.364Z" fill="black"/>
</g>
<path d="M405.962 222.722C406.279 255.439 399.146 280.461 384.564 297.785C369.982 315.11 350.029 323.884 324.703 324.105C299.239 324.352 278.997 315.962 263.978 298.935C248.958 281.908 241.297 257.033 240.993 224.309L240.442 166.766C240.125 134.169 247.258 109.147 261.84 91.7021C276.422 74.2569 296.442 65.4235 321.9 65.2018C347.238 64.9674 367.423 73.4144 382.455 90.5429C397.487 107.671 405.126 132.55 405.373 165.179L405.962 222.722ZM363.366 159.136C363.163 138.536 359.559 123.333 352.553 113.528C345.547 103.722 335.412 98.8696 322.147 98.971C308.889 99.104 298.884 104.149 292.131 114.107C285.379 124.065 282.097 139.35 282.287 159.963L282.962 229.877C283.165 250.597 286.798 265.901 293.861 275.789C300.924 285.677 311.081 290.558 324.333 290.431C337.578 290.298 347.552 285.253 354.254 275.295C360.956 265.337 364.205 249.938 364.002 229.097L363.366 159.136Z" fill="#0057FF"/>
<path d="M240.565 170.186C240.613 170.31 234.997 172.543 228.023 175.165C221.048 177.788 215.338 179.764 215.338 179.679C215.338 179.593 220.906 177.322 227.88 174.7C234.854 172.077 240.518 170.053 240.565 170.186Z" fill="#0057FF"/>
<path d="M241.943 192.924C241.991 193.048 236.375 195.281 229.391 197.903C222.408 200.526 216.726 202.54 216.678 202.416C216.631 202.293 222.246 200.06 229.22 197.438C236.195 194.815 241.943 192.791 241.943 192.924Z" fill="#0057FF"/>
<path d="M243.359 215.662C243.406 215.785 237.791 218.018 230.807 220.641C223.823 223.263 218.188 225.278 218.093 225.154C217.998 225.031 223.661 222.798 230.636 220.175C237.61 217.553 243.311 215.529 243.359 215.662Z" fill="#0057FF"/>
<path d="M244.794 238.4C244.841 238.523 239.225 240.756 232.242 243.379C225.258 246.001 219.566 248.015 219.519 247.892C219.471 247.768 225.096 245.535 232.071 242.913C239.045 240.29 244.708 238.267 244.794 238.4Z" fill="#0057FF"/>
<path d="M246.152 261.137C245.878 261.313 245.585 261.457 245.278 261.565C244.708 261.812 243.871 262.154 242.845 262.563C240.774 263.389 237.914 264.463 234.74 265.689C231.567 266.914 228.678 267.931 226.578 268.672C225.533 269.043 224.678 269.337 224.089 269.527C223.786 269.655 223.466 269.738 223.139 269.774C223.411 269.596 223.705 269.452 224.013 269.347C224.583 269.1 225.41 268.758 226.445 268.397C228.507 267.57 231.377 266.496 234.55 265.271C237.724 264.045 240.612 263.019 242.712 262.287C243.757 261.916 244.613 261.622 245.202 261.432C245.502 261.286 245.822 261.186 246.152 261.137Z" fill="#0057FF"/>
<path d="M252.642 281.937C251.725 282.43 250.772 282.853 249.791 283.2C247.986 283.922 245.487 284.892 242.722 285.937C239.957 286.982 237.429 287.894 235.605 288.531C234.631 288.927 233.627 289.244 232.603 289.481C233.518 288.985 234.471 288.562 235.453 288.217C237.249 287.486 239.748 286.516 242.522 285.481C245.297 284.445 247.805 283.523 249.639 282.887C250.611 282.486 251.616 282.168 252.642 281.937Z" fill="#0057FF"/>
<path d="M266.543 301.016C265.725 301.471 264.87 301.856 263.987 302.166C262.381 302.812 260.186 303.677 257.697 304.608C255.207 305.539 252.946 306.347 251.349 306.907C250.481 307.258 249.585 307.535 248.67 307.734C249.485 307.274 250.341 306.889 251.226 306.584C252.822 305.938 255.027 305.073 257.516 304.142C260.006 303.211 262.267 302.403 263.863 301.833C264.73 301.482 265.627 301.208 266.543 301.016Z" fill="#0057FF"/>
<path d="M289.642 313.53C288.822 313.979 287.967 314.36 287.086 314.67C285.48 315.326 283.285 316.19 280.796 317.112C278.306 318.034 276.045 318.851 274.449 319.421C273.581 319.773 272.685 320.046 271.769 320.238C272.587 319.783 273.442 319.399 274.325 319.088C275.931 318.442 278.126 317.578 280.615 316.646C283.105 315.715 285.366 314.908 286.962 314.347C287.827 313.99 288.725 313.716 289.642 313.53Z" fill="#0057FF"/>
<path d="M359.308 265.004C359.365 265.128 352.154 268.492 343.203 272.52C334.252 276.549 326.946 279.704 326.889 279.58C326.832 279.457 334.043 276.093 343.041 272.064C352.04 268.036 359.251 264.881 359.308 265.004Z" fill="#0057FF"/>
<path d="M364.04 245.526C364.097 245.649 358.14 248.443 350.738 251.768C343.336 255.094 337.293 257.698 337.236 257.574C337.179 257.451 343.127 254.648 350.538 251.322C357.95 247.996 363.983 245.402 364.04 245.526Z" fill="#0057FF"/>
<path d="M366.216 223.643C366.273 223.767 360.316 226.56 352.914 229.886C345.512 233.212 339.469 235.815 339.412 235.692C339.355 235.568 345.303 232.765 352.714 229.439C360.126 226.114 366.159 223.472 366.216 223.643Z" fill="#0057FF"/>
<path d="M368.392 201.751C368.449 201.875 362.501 204.678 355.09 208.004C347.678 211.329 341.645 213.923 341.588 213.8C341.531 213.676 347.488 210.883 354.89 207.557C362.292 204.231 368.316 201.618 368.392 201.751Z" fill="#0057FF"/>
<path d="M370.578 179.869C370.625 179.992 364.677 182.795 357.275 186.121C349.873 189.447 343.83 192.041 343.773 191.917C343.716 191.793 349.674 189 357.076 185.665C364.478 182.33 370.521 179.764 370.578 179.869Z" fill="#0057FF"/>
<path d="M366.216 160.381C366.273 160.504 360.316 163.307 352.914 166.633C345.512 169.959 339.469 172.553 339.412 172.429C339.355 172.306 345.303 169.502 352.714 166.177C360.126 162.851 366.159 160.257 366.216 160.381Z" fill="#0057FF"/>
<path d="M366.216 139.401C366.273 139.524 360.316 142.327 352.914 145.653C345.512 148.979 339.469 151.573 339.412 151.449C339.355 151.326 345.303 148.523 352.714 145.197C360.126 141.871 366.159 139.277 366.216 139.401Z" fill="#0057FF"/>
<path d="M364.04 119.647C364.097 119.77 358.14 122.564 350.738 125.889C343.336 129.215 337.293 131.818 337.236 131.695C337.179 131.571 343.127 128.768 350.538 125.443C357.95 122.117 363.983 119.523 364.04 119.647Z" fill="#0057FF"/>
<path d="M345.274 105.879C342.665 107.324 339.978 108.625 337.226 109.774C334.539 111.072 331.783 112.22 328.969 113.214C331.575 111.762 334.262 110.461 337.017 109.318C339.704 108.021 342.461 106.873 345.274 105.879Z" fill="#0057FF"/>
<path d="M335.241 97.4507C332.629 98.8882 329.942 100.185 327.193 101.337C324.505 102.634 321.749 103.782 318.936 104.777C321.545 103.338 324.232 102.043 326.984 100.9C329.67 99.5994 332.427 98.4479 335.241 97.4507Z" fill="#0057FF"/>
<path d="M241.639 142.622C241.686 142.745 236.071 144.978 229.097 147.601C222.122 150.223 216.421 152.247 216.374 152.114C216.326 151.981 221.942 149.758 228.926 147.135C235.909 144.513 241.591 142.498 241.639 142.622Z" fill="#0057FF"/>
<path d="M248.594 114.269C248.651 114.392 242.551 116.796 234.997 119.647C227.443 122.497 221.258 124.683 221.21 124.559C221.163 124.436 227.253 122.022 234.817 119.181C242.38 116.34 248.594 114.136 248.594 114.269Z" fill="#0057FF"/>
<path d="M266.904 86.2006C266.952 86.3336 259.227 89.3457 249.649 92.9468C240.071 96.548 232.27 99.3605 232.223 99.237C232.175 99.1135 239.9 96.0824 249.478 92.4812C259.056 88.8801 266.857 86.0771 266.904 86.2006Z" fill="#0057FF"/>
<path d="M401.867 265.28L401.468 265.147L400.328 264.7C399.824 264.52 399.169 264.377 398.427 264.168C397.54 263.995 396.641 263.884 395.738 263.836C391.681 263.579 385.6 265.052 379.718 269.461C376.534 271.873 373.681 274.694 371.233 277.851C368.506 281.186 365.836 284.958 362.805 288.759C359.721 292.836 356.029 296.415 351.859 299.372C347.294 302.452 342.135 304.542 336.714 305.51C331.292 306.487 325.725 306.302 320.38 304.969C315.447 303.675 310.653 301.896 306.07 299.657C301.652 297.614 297.519 295.534 293.585 293.814C289.927 292.198 286.129 290.916 282.24 289.985C279.033 289.227 275.748 288.851 272.453 288.863C269.966 288.882 267.492 289.218 265.089 289.861C263.578 290.304 262.11 290.88 260.7 291.581L259.616 292.151C259.497 292.225 259.369 292.286 259.236 292.331L259.588 292.113L260.652 291.495C262.05 290.749 263.517 290.141 265.032 289.68C267.446 289 269.937 288.632 272.444 288.588C275.765 288.545 279.079 288.899 282.316 289.643C286.224 290.563 290.04 291.835 293.718 293.443C297.69 295.154 301.823 297.244 306.232 299.258C310.798 301.474 315.572 303.231 320.485 304.503C325.77 305.823 331.276 306.005 336.638 305.035C341.992 304.078 347.088 302.016 351.603 298.983C355.742 296.06 359.408 292.519 362.473 288.483C365.504 284.683 368.174 280.939 370.939 277.594C373.408 274.428 376.283 271.601 379.49 269.185C385.458 264.776 391.624 263.332 395.729 263.655C396.642 263.715 397.55 263.839 398.446 264.026C399.207 264.263 399.862 264.415 400.347 264.615L401.477 265.109L401.867 265.28Z" fill="white"/>
<path d="M283.751 223.919C283.578 223.911 283.406 223.885 283.238 223.843C282.896 223.767 282.392 223.691 281.755 223.51C279.971 222.982 278.26 222.232 276.662 221.277C274.319 219.839 272.095 218.215 270.011 216.422C267.626 214.446 265.08 212.194 262.163 210.179C259.439 208.255 256.382 206.853 253.146 206.046C248.699 204.952 244.052 204.971 239.615 206.103C238.351 206.426 237.667 206.673 237.658 206.626C237.804 206.53 237.964 206.456 238.133 206.407C238.456 206.284 238.931 206.094 239.568 205.913C241.347 205.392 243.18 205.074 245.031 204.963C247.789 204.759 250.562 204.987 253.25 205.638C256.548 206.438 259.665 207.853 262.438 209.809C265.393 211.852 267.94 214.123 270.306 216.108C272.359 217.907 274.544 219.55 276.843 221.021C278.407 221.986 280.074 222.773 281.812 223.368C282.468 223.517 283.115 223.701 283.751 223.919Z" fill="white"/>
<path d="M283.912 134.099C283.4 134.336 282.87 134.53 282.325 134.679C281.702 134.898 281.068 135.085 280.425 135.239C279.674 135.429 278.829 135.686 277.869 135.857C276.909 136.028 275.874 136.265 274.733 136.408C273.593 136.55 272.387 136.683 271.104 136.797C268.318 136.974 265.523 136.939 262.742 136.693C259.964 136.415 257.21 135.929 254.504 135.239C253.269 134.888 252.081 134.564 251.008 134.175C249.934 133.785 248.927 133.424 248.034 133.054C247.14 132.683 246.342 132.294 245.639 131.971C244.936 131.647 244.356 131.334 243.881 131.068C243.378 130.817 242.896 130.528 242.437 130.203C242.963 130.397 243.474 130.629 243.967 130.897C244.451 131.134 245.05 131.429 245.753 131.723C246.456 132.018 247.254 132.398 248.167 132.721C249.079 133.044 250.067 133.453 251.141 133.785C252.214 134.118 253.383 134.46 254.618 134.793C259.992 136.148 265.543 136.67 271.075 136.341C272.349 136.237 273.555 136.17 274.686 135.999C275.817 135.828 276.852 135.686 277.803 135.515C278.753 135.344 279.598 135.135 280.349 134.973C281.1 134.812 281.746 134.641 282.249 134.498C282.793 134.325 283.349 134.192 283.912 134.099Z" fill="white"/>
<path d="M344.372 69.316C344.158 69.4775 343.929 69.6175 343.687 69.7341L341.711 70.8268C339.953 71.777 337.407 73.0977 334.214 74.694C327.848 77.8391 318.907 82.1434 308.322 84.8229C303.346 86.0738 298.248 86.781 293.119 86.9323C288.933 87.0546 284.747 86.6943 280.643 85.8586C277.878 85.3033 275.173 84.479 272.567 83.3976C271.617 83.0366 270.961 82.6565 270.486 82.4475C270.24 82.3416 270.002 82.2177 269.773 82.0769C270.033 82.1442 270.285 82.2398 270.524 82.3619C271.018 82.5425 271.702 82.894 272.643 83.2266C275.257 84.2336 277.957 85.0032 280.71 85.526C284.795 86.3063 288.954 86.625 293.11 86.4762C298.198 86.2995 303.252 85.5829 308.189 84.3383C318.707 81.6778 327.658 77.4495 334.053 74.3805L341.654 70.6463L343.611 69.6391C343.858 69.515 344.111 69.4071 344.372 69.316Z" fill="white"/>
<path d="M153.634 234.874L185.398 236.262L183.925 269.926L152.161 268.539L149.719 324.476L107.911 322.652L110.353 266.715L2.49902 262.002L2.58454 236.347L117.556 71.2069L160.713 73.1073L153.634 234.874ZM44.3637 230.124L111.826 233.069L116.273 131.039L115.256 130.65L111.456 137.919L44.3637 230.124Z" fill="#0057FF"/>
<g opacity="0.4">
<path d="M153.634 234.874L185.398 236.262L183.925 269.926L152.161 268.539L149.719 324.476L107.911 322.652L110.353 266.715L2.49902 262.002L2.58454 236.347L117.556 71.2069L160.713 73.1073L153.634 234.874ZM44.3637 230.124L111.826 233.069L116.273 131.039L115.256 130.65L111.456 137.919L44.3637 230.124Z" fill="black"/>
</g>
<path d="M180.182 236.034L211.946 237.421L210.473 271.086L178.709 269.698L176.267 325.635L134.459 323.811L136.901 267.874L28.9993 263.123L29.0848 237.468L144.075 72.3947L187.241 74.295L180.182 236.034ZM70.9115 231.283L138.421 234.228L142.868 132.199L141.852 131.809L138.051 139.078L70.9115 231.283Z" fill="#0057FF"/>
<path d="M29.6643 242.4C29.3452 242.631 29.0009 242.825 28.6381 242.979C27.9635 243.321 26.9753 243.797 25.7876 244.367C23.3457 245.516 19.9345 247.046 16.1243 248.661C12.3141 250.277 8.84601 251.645 6.31854 252.605C5.05481 253.08 4.01912 253.45 3.30649 253.697C2.94179 253.848 2.56304 253.963 2.17578 254.039C2.50913 253.825 2.86624 253.649 3.23998 253.517L6.18552 252.272L15.8963 248.177L25.6071 244.025L28.5621 242.77C28.9159 242.61 29.2853 242.485 29.6643 242.4Z" fill="#0057FF"/>
<path d="M45.1333 213.971C44.6728 214.253 44.1934 214.504 43.6985 214.721C42.7484 215.177 41.3991 215.823 39.7078 216.622C36.3157 218.161 31.6123 220.223 26.4054 222.437C21.1984 224.651 16.381 226.541 12.9509 227.891C11.2216 228.575 9.81531 229.107 8.82712 229.458C8.33055 229.671 7.81521 229.836 7.28784 229.953C7.76243 229.694 8.25456 229.468 8.76061 229.278L12.8179 227.568L26.2248 221.933L39.6033 216.232L43.6605 214.512C44.1335 214.286 44.6266 214.105 45.1333 213.971Z" fill="#0057FF"/>
<path d="M64.0131 188.572C63.535 188.868 63.0328 189.122 62.5118 189.333C61.5616 189.789 60.1079 190.435 58.3405 191.233C54.7964 192.782 49.884 194.844 44.43 197.057C38.976 199.271 33.9781 201.2 30.3769 202.559C28.5716 203.234 27.0988 203.766 26.0821 204.117C25.563 204.33 25.0255 204.496 24.4763 204.611C24.9742 204.353 25.4884 204.128 26.0156 203.937L30.2534 202.226L44.2399 196.592L58.198 190.891L62.4358 189.171C62.9453 188.931 63.4727 188.731 64.0131 188.572Z" fill="#0057FF"/>
<path d="M139.638 217.876C139.314 218.1 138.967 218.288 138.602 218.436C137.927 218.769 136.939 219.225 135.704 219.776C133.253 220.888 129.832 222.361 126.022 223.909C122.212 225.458 118.724 226.76 116.197 227.71C114.924 228.166 113.898 228.527 113.185 228.765C112.819 228.905 112.44 229.01 112.054 229.078C112.385 228.873 112.739 228.707 113.109 228.584L116.073 227.387L125.841 223.472L135.571 219.482L138.526 218.275C138.881 218.101 139.254 217.968 139.638 217.876Z" fill="#0057FF"/>
<path d="M136.559 270.078C136.248 270.302 135.914 270.49 135.561 270.639C134.906 270.962 133.946 271.428 132.758 271.979C130.383 273.09 127.057 274.563 123.38 276.103C119.703 277.642 116.301 278.953 113.878 279.903C112.643 280.359 111.645 280.72 110.952 280.948C110.597 281.096 110.228 281.204 109.85 281.271C110.172 281.066 110.516 280.897 110.876 280.768L113.726 279.571L123.228 275.665L132.654 271.675L135.504 270.477C135.841 270.308 136.194 270.174 136.559 270.078Z" fill="#0057FF"/>
<path d="M136.122 288.379C135.827 288.598 135.508 288.783 135.172 288.93C134.516 289.262 133.557 289.719 132.321 290.279C129.946 291.381 126.62 292.854 122.934 294.403C119.247 295.952 115.864 297.253 113.432 298.204C112.206 298.66 111.208 299.021 110.505 299.258C110.156 299.41 109.789 299.516 109.413 299.572C109.738 299.374 110.081 299.209 110.439 299.078L113.289 297.881L122.791 293.975L132.226 289.985L135.077 288.787C135.407 288.608 135.758 288.471 136.122 288.379Z" fill="#0057FF"/>
<path d="M135.685 306.67C135.388 306.887 135.069 307.075 134.735 307.23C134.079 307.563 133.12 308.019 131.884 308.57C129.499 309.682 126.183 311.154 122.497 312.694C118.81 314.233 115.427 315.544 112.995 316.494C111.769 316.951 110.762 317.312 110.068 317.54C109.716 317.685 109.35 317.793 108.976 317.863C109.297 317.656 109.642 317.487 110.002 317.359L112.852 316.171L122.354 312.257L131.789 308.266L134.64 307.069C134.973 306.898 135.323 306.764 135.685 306.67Z" fill="#0057FF"/>
<path d="M140.132 198.549C139.805 198.769 139.458 198.957 139.096 199.11C138.421 199.442 137.433 199.899 136.246 200.45C133.794 201.561 130.373 203.034 126.563 204.583C122.753 206.132 119.266 207.433 116.738 208.384C115.465 208.84 114.439 209.201 113.726 209.429C113.361 209.574 112.982 209.682 112.596 209.752C112.925 209.54 113.279 209.371 113.65 209.248L116.615 208.051L126.383 204.146L136.113 200.155L139.068 198.958C139.407 198.784 139.764 198.647 140.132 198.549Z" fill="#0057FF"/>
<path d="M140.626 179.223C140.3 179.442 139.953 179.63 139.59 179.783C138.916 180.106 137.928 180.572 136.692 181.123C134.241 182.235 130.82 183.708 127.01 185.247C123.2 186.786 119.722 188.097 117.185 189.048C115.912 189.504 114.886 189.855 114.173 190.093C113.808 190.238 113.429 190.346 113.042 190.416C113.374 190.203 113.732 190.034 114.107 189.912L117.062 188.715L126.83 184.81L136.559 180.819L139.514 179.622C139.869 179.448 140.242 179.315 140.626 179.223Z" fill="#0057FF"/>
<path d="M141.12 159.896C140.822 160.105 140.503 160.283 140.17 160.428C139.533 160.742 138.592 161.179 137.424 161.711C135.077 162.775 131.827 164.191 128.197 165.654C124.568 167.117 121.242 168.381 118.829 169.246C117.622 169.673 116.643 170.015 115.978 170.196C115.63 170.337 115.266 170.439 114.895 170.5C115.214 170.3 115.555 170.137 115.912 170.015L118.762 168.875L128.064 165.16L137.338 161.359L140.189 160.219C140.486 160.077 140.798 159.968 141.12 159.896Z" fill="#0057FF"/>
<path d="M143.305 141.833C141.788 142.655 140.198 143.332 138.554 143.857C136.964 144.534 135.313 145.059 133.623 145.425C135.14 144.601 136.731 143.92 138.374 143.392C139.964 142.715 141.615 142.193 143.305 141.833Z" fill="#0057FF"/>
<path d="M82.8551 162.272C82.376 162.559 81.8776 162.813 81.3634 163.032C80.4132 163.488 78.9594 164.124 77.1826 164.932C73.6479 166.481 68.7355 168.543 63.272 170.757C57.8085 172.971 52.8201 174.909 49.2285 176.258C47.4231 176.933 45.9504 177.465 44.9337 177.816C44.4104 178.02 43.8739 178.189 43.3279 178.32C43.8204 178.048 44.3354 177.819 44.8672 177.636L49.1049 175.935L63.0915 170.263L77.0496 164.562L81.2779 162.842C81.7904 162.617 82.3173 162.426 82.8551 162.272Z" fill="#0057FF"/>
<path d="M101.707 135.961C101.229 136.257 100.726 136.511 100.205 136.721C99.2553 137.178 97.8015 137.824 96.0342 138.622C92.4995 140.161 87.5776 142.232 82.1236 144.437C76.6696 146.641 71.6717 148.589 68.08 149.938C66.2652 150.623 64.8019 151.155 63.7757 151.506C63.259 151.717 62.7249 151.882 62.1794 152C62.6722 151.738 63.1835 151.513 63.7092 151.326L67.947 149.615L81.9336 143.981L95.9011 138.28L100.129 136.55C100.64 136.315 101.167 136.119 101.707 135.961Z" fill="#0057FF"/>
<path d="M119.123 109.66C118.641 109.949 118.14 110.203 117.622 110.421C116.672 110.877 115.218 111.513 113.451 112.321C109.916 113.87 104.994 115.932 99.5401 118.145C94.0861 120.359 89.0882 122.298 85.4965 123.647C83.6912 124.322 82.2184 124.854 81.2017 125.205C80.6785 125.409 80.142 125.578 79.5959 125.709C80.0885 125.437 80.6035 125.208 81.1352 125.025L85.373 123.324L99.3596 117.689L113.318 111.988L117.546 110.269C118.053 110.02 118.581 109.816 119.123 109.66Z" fill="#0057FF"/>
<path d="M137.253 84.3668C136.769 84.6527 136.268 84.9066 135.751 85.1269C134.801 85.583 133.347 86.2197 131.58 87.0273C128.036 88.5761 123.123 90.638 117.669 92.8519C112.215 95.0658 107.218 97.0041 103.616 98.3534C101.811 99.028 100.348 99.5601 99.3216 99.9117C98.7995 100.119 98.2628 100.287 97.7158 100.415C98.2096 100.146 98.7243 99.9172 99.2551 99.7311L103.493 98.0303L117.47 92.3483L131.428 86.6472L135.666 84.9274C136.18 84.7017 136.711 84.5143 137.253 84.3668Z" fill="#0057FF"/>
<path d="M185.351 123.01C185.192 123.24 185.007 123.45 184.799 123.637C184.262 124.228 183.688 124.783 183.08 125.3C180.863 127.235 178.376 128.836 175.697 130.051C171.701 131.847 167.383 132.816 163.002 132.902C160.413 132.949 157.829 132.659 155.316 132.037C152.632 131.35 150.03 130.378 147.553 129.139C142.441 126.65 137.899 123.713 133.462 121.671C129.572 119.764 125.339 118.659 121.014 118.421C118.1 118.272 115.192 118.815 112.529 120.008C111.811 120.344 111.122 120.738 110.467 121.186C110.244 121.351 110.009 121.501 109.764 121.633C109.967 121.443 110.183 121.269 110.41 121.11C111.048 120.625 111.729 120.199 112.444 119.837C115.109 118.564 118.044 117.957 120.995 118.069C125.381 118.277 129.679 119.38 133.623 121.31C138.108 123.352 142.669 126.279 147.733 128.749C150.186 129.964 152.759 130.919 155.411 131.6C157.88 132.216 160.419 132.509 162.964 132.474C170.259 132.374 177.3 129.782 182.918 125.129C183.726 124.483 184.296 123.913 184.695 123.542C184.899 123.348 185.118 123.17 185.351 123.01Z" fill="white"/>
<path d="M172.124 76.0338C171.741 76.2998 171.338 76.5349 170.917 76.7369C170.129 77.1645 168.951 77.6871 167.468 78.3522C165.731 79.0829 163.955 79.7174 162.147 80.2526C157.72 81.5744 153.14 82.3216 148.522 82.476C146.621 82.5453 144.717 82.5072 142.821 82.362C141.215 82.2385 139.97 82.0864 139.02 81.9249C138.557 81.873 138.099 81.7808 137.652 81.6493C138.119 81.633 138.587 81.6617 139.049 81.7349C139.932 81.8394 141.225 81.9344 142.849 82.0104C144.474 82.0864 146.355 82.1054 148.465 82.0104C150.75 81.8972 153.027 81.6625 155.287 81.3073C157.529 80.9222 159.749 80.4211 161.938 79.806C163.962 79.2169 165.739 78.6088 167.25 78.0197C168.761 77.4306 169.929 76.927 170.746 76.5564C171.188 76.3388 171.649 76.1638 172.124 76.0338Z" fill="white"/>
<path d="M104.662 181.56C104.349 181.27 104.062 180.952 103.807 180.61L101.564 177.931C99.0614 175.018 96.4034 172.243 93.6018 169.616C92.0807 168.174 90.4082 166.899 88.6134 165.816C87.1453 164.937 85.5389 164.314 83.8625 163.972C82.3071 163.694 80.7146 163.694 79.1592 163.972C79.1592 163.972 79.2637 163.915 79.4727 163.849C79.782 163.747 80.1001 163.673 80.4229 163.63C81.5898 163.434 82.7812 163.434 83.9481 163.63C85.6795 163.931 87.3431 164.54 88.8605 165.426C90.7051 166.514 92.4173 167.811 93.9629 169.293C96.7848 171.926 99.42 174.752 101.849 177.75C102.8 178.9 103.503 179.859 103.978 180.524C104.242 180.844 104.471 181.192 104.662 181.56Z" fill="white"/>
<path d="M180.457 210.265C180.457 210.265 180.333 210.379 180.086 210.55C179.839 210.721 179.469 210.997 178.956 211.282C177.529 212.118 176.032 212.827 174.48 213.4C169.342 215.341 163.759 215.786 158.378 214.685C152.997 213.583 148.038 210.98 144.075 207.177C142.873 206.048 141.779 204.811 140.806 203.481C140.455 203.015 140.227 202.626 140.056 202.369C139.885 202.112 139.809 201.97 139.828 201.96C140.23 202.408 140.607 202.878 140.958 203.367C141.985 204.634 143.106 205.822 144.312 206.92C148.279 210.586 153.172 213.097 158.463 214.18C163.754 215.264 169.24 214.879 174.328 213.068C175.869 212.534 177.366 211.879 178.804 211.111C179.339 210.799 179.891 210.516 180.457 210.265Z" fill="white"/>
<path d="M208.136 270.43C208.136 270.43 208.041 270.287 207.87 269.983C207.699 269.679 207.433 269.242 207.11 268.672C206.156 266.982 205.07 265.372 203.86 263.855L202.568 262.334L201.874 261.508L201.066 260.719L199.356 259.028L197.361 257.375C194.174 254.842 190.658 252.755 186.909 251.17C182.383 249.256 177.562 248.134 172.656 247.854C167.009 247.551 161.363 248.458 156.095 250.514C150.536 252.7 145.168 255.997 139.486 259.189C136.608 260.852 133.628 262.331 130.563 263.617C127.388 264.954 124.038 265.834 120.615 266.23C117.19 266.575 113.731 266.366 110.372 265.613C107.121 264.897 103.957 263.83 100.937 262.429C95.2796 259.692 89.8963 256.421 84.8601 252.662C79.9857 249.194 75.3583 245.839 70.788 243.16C66.5861 240.587 62.0311 238.64 57.267 237.383C53.3194 236.411 49.2315 236.141 45.1903 236.585C42.1392 236.901 39.1692 237.761 36.4202 239.122C34.7004 240.003 33.1032 241.105 31.6693 242.4L30.5671 243.426C30.3296 243.664 30.1965 243.778 30.1965 243.778C30.1965 243.778 30.3011 243.645 30.5386 243.388L31.5743 242.276C32.9994 240.944 34.5974 239.809 36.3252 238.903C39.0875 237.497 42.0811 236.603 45.1618 236.262C49.2367 235.784 53.3641 236.031 57.3525 236.993C62.1547 238.244 66.7505 240.184 70.997 242.751C75.6244 245.431 80.2422 248.775 85.1261 252.253C90.1435 255.984 95.5045 259.229 101.137 261.945C104.121 263.344 107.25 264.412 110.467 265.128C113.78 265.869 117.19 266.074 120.568 265.736C123.937 265.345 127.235 264.482 130.364 263.171C133.409 261.889 136.373 260.423 139.239 258.781C144.94 255.598 150.299 252.291 155.905 250.096C157.288 249.553 158.703 249.096 160.142 248.728C160.855 248.547 161.558 248.329 162.261 248.186L164.39 247.835C167.125 247.427 169.895 247.3 172.656 247.455C177.621 247.751 182.497 248.901 187.07 250.856C190.822 252.48 194.338 254.602 197.522 257.165C198.206 257.745 198.872 258.315 199.518 258.847L201.218 260.567L202.017 261.365C202.254 261.65 202.492 261.926 202.71 262.201C203.166 262.743 203.594 263.256 203.993 263.75C205.193 265.283 206.258 266.917 207.176 268.634C207.486 269.217 207.724 269.663 207.889 269.974C208.069 270.268 208.136 270.43 208.136 270.43Z" fill="white"/>
<path d="M179.421 310.119C179.266 310.181 179.103 310.223 178.937 310.242L177.53 310.508C176.792 310.657 176.047 310.768 175.297 310.841C174.423 310.926 173.397 311.069 172.314 311.097L170.566 311.173C169.967 311.173 169.33 311.173 168.665 311.173C167.363 311.173 165.967 311.05 164.503 310.936C161.332 310.589 158.195 309.979 155.125 309.112C152.07 308.192 149.095 307.022 146.232 305.615C144.939 304.921 143.695 304.285 142.592 303.572C142.041 303.23 141.49 302.916 140.987 302.622L139.561 301.624C138.611 301.007 137.88 300.351 137.186 299.8C136.586 299.34 136.012 298.849 135.466 298.327C135.058 297.928 134.706 297.605 134.43 297.377C134.301 297.268 134.187 297.144 134.088 297.006C134.236 297.088 134.373 297.187 134.497 297.301L135.599 298.251C136.065 298.65 136.644 299.135 137.357 299.648C138.07 300.161 138.83 300.807 139.761 301.406L141.196 302.356C141.699 302.688 142.25 302.992 142.801 303.306C143.904 304 145.148 304.617 146.441 305.292C152.123 308.093 158.253 309.878 164.551 310.565C166.005 310.689 167.401 310.841 168.684 310.85C169.33 310.85 169.957 310.907 170.585 310.85H172.314C173.416 310.85 174.414 310.727 175.288 310.67C176.162 310.613 176.913 310.518 177.521 310.423L178.937 310.252C179.091 310.184 179.254 310.139 179.421 310.119Z" fill="white"/>
<path d="M566.256 235.264L597.897 232.176L601.175 265.708L569.534 268.805L574.979 324.523L533.361 328.6L527.945 272.881L420.424 283.39L416.898 257.992L507.498 78.3237L550.493 74.1144L566.256 235.264ZM457.385 245.915L524.629 239.34L514.69 137.672L513.626 137.434L510.909 145.168L457.385 245.915Z" fill="#0057FF"/>
<g opacity="0.4">
<path d="M566.256 235.264L597.897 232.176L601.175 265.708L569.534 268.805L574.979 324.523L533.361 328.6L527.945 272.881L420.424 283.39L416.898 257.992L507.498 78.3237L550.493 74.1144L566.256 235.264ZM457.385 245.915L524.629 239.34L514.69 137.672L513.626 137.434L510.909 145.168L457.385 245.915Z" fill="black"/>
</g>
<path d="M592.719 232.68L624.36 229.582L627.647 263.123L595.997 266.23L601.451 321.958L559.824 326.025L554.379 270.306L446.886 280.796L443.38 255.408L533.979 75.7392L576.974 71.5299L592.719 232.68ZM483.857 243.321L551.101 236.775L541.162 135.106L540.089 134.859L537.381 142.593L483.857 243.321Z" fill="#0057FF"/>
<path d="M444.577 260.159C444.286 260.429 443.968 260.667 443.627 260.871C443.01 261.308 442.097 261.916 440.967 262.658C438.696 264.14 435.541 266.135 431.997 268.264C428.453 270.392 425.213 272.245 422.837 273.547C421.659 274.193 420.69 274.715 419.987 275.057C419.647 275.258 419.287 275.424 418.913 275.551C419.202 275.292 419.521 275.069 419.863 274.886L422.609 273.242L431.693 267.836L440.72 262.363L443.466 260.71C443.813 260.483 444.187 260.298 444.577 260.159Z" fill="#0057FF"/>
<path d="M455.884 229.81C455.473 230.16 455.034 230.478 454.573 230.76C453.718 231.34 452.454 232.166 450.886 233.174C447.751 235.178 443.38 237.924 438.534 240.775C433.688 243.626 429.222 246.296 425.982 248.12C424.367 249.07 423.046 249.764 422.125 250.248C421.658 250.52 421.172 250.758 420.671 250.961C421.099 250.63 421.554 250.335 422.03 250.077L425.83 247.816L438.306 240.357L450.744 232.841L454.545 230.57C454.971 230.283 455.419 230.029 455.884 229.81Z" fill="#0057FF"/>
<path d="M471.011 202.036C470.577 202.388 470.117 202.706 469.634 202.987C468.683 203.576 467.41 204.412 465.766 205.429C462.479 207.452 457.899 210.179 452.806 213.144C447.713 216.108 443.067 218.721 439.675 220.622C437.983 221.572 436.605 222.285 435.646 222.779C435.158 223.054 434.649 223.292 434.125 223.491C434.578 223.161 435.054 222.866 435.551 222.608L439.503 220.318L452.559 212.773L465.586 205.172L469.529 202.873C470.001 202.557 470.497 202.277 471.011 202.036Z" fill="#0057FF"/>
<path d="M550.009 220.413C549.718 220.678 549.4 220.911 549.059 221.106C548.441 221.534 547.519 222.123 546.389 222.845C544.108 224.289 540.935 226.228 537.381 228.299C533.827 230.371 530.559 232.157 528.174 233.411C526.986 234.048 526.017 234.542 525.323 234.874C524.983 235.071 524.623 235.23 524.25 235.349C524.542 235.101 524.861 234.884 525.2 234.703L527.965 233.107L537.077 227.862L546.151 222.551L548.916 220.945C549.259 220.726 549.625 220.548 550.009 220.413Z" fill="#0057FF"/>
<path d="M554.303 272.52C554.016 272.789 553.697 273.022 553.353 273.214C552.755 273.632 551.871 274.221 550.769 274.943C548.574 276.369 545.505 278.297 542.065 280.35C538.626 282.402 535.461 284.151 533.153 285.424C532.003 286.051 531.062 286.545 530.407 286.878C530.078 287.074 529.727 287.231 529.361 287.343C529.655 287.098 529.973 286.885 530.312 286.706L532.981 285.12L541.809 279.922L550.588 274.639L553.258 273.052C553.584 272.834 553.935 272.655 554.303 272.52Z" fill="#0057FF"/>
<path d="M556.45 290.697C556.163 290.966 555.844 291.199 555.5 291.391C554.902 291.809 554.018 292.398 552.916 293.12C550.721 294.545 547.652 296.474 544.212 298.517C540.772 300.56 537.608 302.318 535.299 303.601C534.15 304.228 533.209 304.722 532.553 305.054C532.225 305.251 531.874 305.407 531.508 305.52C531.802 305.275 532.12 305.062 532.458 304.883L535.128 303.297L543.956 298.099L552.735 292.816L555.405 291.229C555.731 291.011 556.082 290.832 556.45 290.697Z" fill="#0057FF"/>
<path d="M558.579 308.874C558.292 309.143 557.973 309.376 557.629 309.568C557.031 309.986 556.147 310.575 555.045 311.287C552.85 312.722 549.781 314.651 546.341 316.694C542.901 318.737 539.737 320.495 537.428 321.777C536.279 322.404 535.338 322.899 534.682 323.231C534.351 323.422 534.001 323.579 533.637 323.697C533.931 323.452 534.249 323.238 534.587 323.06L537.257 321.473L546.085 316.276L554.864 310.993L557.534 309.406C557.86 309.187 558.211 309.009 558.579 308.874Z" fill="#0057FF"/>
<path d="M547.776 201.2C547.484 201.466 547.166 201.702 546.826 201.903C546.199 202.321 545.286 202.92 544.146 203.642C541.866 205.077 538.692 207.025 535.139 209.087C531.585 211.149 528.316 212.944 525.941 214.208C524.744 214.835 523.774 215.339 523.09 215.671C522.75 215.868 522.39 216.027 522.017 216.147C522.311 215.9 522.629 215.684 522.967 215.5L525.722 213.904L534.844 208.659L543.918 203.338L546.674 201.742C547.021 201.523 547.39 201.341 547.776 201.2Z" fill="#0057FF"/>
<path d="M545.542 181.997C545.253 182.267 544.934 182.502 544.592 182.7C543.965 183.118 543.053 183.708 541.913 184.43C539.642 185.874 536.468 187.822 532.905 189.884C529.342 191.946 526.092 193.741 523.707 195.005C522.52 195.632 521.551 196.136 520.857 196.468C520.52 196.668 520.159 196.825 519.783 196.934C520.075 196.687 520.394 196.474 520.733 196.297L523.489 194.692L532.611 189.456L541.685 184.135L544.44 182.529C544.789 182.315 545.158 182.137 545.542 181.997Z" fill="#0057FF"/>
<path d="M543.319 162.794C543.048 163.049 542.748 163.273 542.426 163.459C541.827 163.868 540.953 164.409 539.87 165.122C537.713 166.5 534.691 168.353 531.318 170.32C527.945 172.286 524.819 173.997 522.548 175.194L519.84 176.581C519.515 176.767 519.171 176.917 518.814 177.028C519.109 176.791 519.427 176.584 519.764 176.41L522.387 174.88L531.081 169.892L539.718 164.818L542.35 163.298C542.653 163.095 542.978 162.926 543.319 162.794Z" fill="#0057FF"/>
<path d="M542.939 144.608C541.553 145.641 540.07 146.539 538.512 147.287C537.028 148.178 535.466 148.932 533.846 149.539C535.233 148.506 536.715 147.609 538.274 146.86C539.757 145.967 541.318 145.213 542.939 144.608Z" fill="#0057FF"/>
<path d="M485.967 173.341C485.537 173.695 485.08 174.012 484.598 174.291C483.648 174.88 482.365 175.717 480.722 176.733C477.444 178.757 472.864 181.484 467.771 184.449C462.678 187.413 458.031 190.026 454.639 191.87C452.948 192.82 451.561 193.532 450.601 194.026C450.114 194.298 449.61 194.536 449.09 194.739C449.541 194.406 450.017 194.111 450.516 193.855L454.468 191.565L467.524 184.021L480.541 176.42L484.494 174.12C484.965 173.825 485.458 173.565 485.967 173.341Z" fill="#0057FF"/>
<path d="M500.932 144.608C500.498 144.96 500.037 145.277 499.554 145.558C498.604 146.147 497.331 146.983 495.687 148C492.4 150.024 487.82 152.751 482.736 155.715C477.653 158.68 472.988 161.293 469.595 163.136C467.904 164.086 466.526 164.799 465.567 165.293C465.079 165.569 464.57 165.807 464.046 166.006C464.499 165.676 464.975 165.38 465.472 165.122L469.424 162.832L482.48 155.288L495.507 147.686L499.459 145.387C499.93 145.09 500.422 144.829 500.932 144.608Z" fill="#0057FF"/>
<path d="M514.481 116.15C514.047 116.502 513.587 116.82 513.104 117.1C512.154 117.689 510.88 118.526 509.237 119.542C505.949 121.566 501.369 124.293 496.276 127.258C491.183 130.222 486.537 132.835 483.145 134.679C481.453 135.629 480.076 136.341 479.116 136.835C478.627 137.109 478.119 137.347 477.596 137.548C478.048 137.218 478.524 136.923 479.021 136.664L482.974 134.374L496.029 126.83L509.056 119.229L512.999 116.929C513.472 116.631 513.967 116.37 514.481 116.15Z" fill="#0057FF"/>
<path d="M528.896 88.5475C528.461 88.8993 528.001 89.2169 527.518 89.4977C526.615 90.0868 525.294 90.9229 523.651 91.9396C520.363 93.9635 515.783 96.6905 510.69 99.6645C505.597 102.639 500.951 105.233 497.559 107.085C495.867 108.036 494.49 108.739 493.53 109.233C493.042 109.511 492.534 109.752 492.01 109.955C492.457 109.615 492.934 109.316 493.435 109.062L497.388 106.781L510.443 99.1799L523.47 91.5785L527.413 89.2791C527.889 88.999 528.384 88.7544 528.896 88.5475Z" fill="#0057FF"/>
<path d="M581.925 120.055C581.794 120.3 581.642 120.532 581.469 120.749C581.02 121.414 580.528 122.048 579.996 122.649C578.074 124.885 575.833 126.825 573.345 128.407C569.648 130.767 565.51 132.351 561.183 133.063C558.628 133.472 556.031 133.545 553.458 133.282C550.704 132.978 547.99 132.383 545.362 131.505C539.946 129.766 535.044 127.495 530.359 126.089C526.241 124.764 521.899 124.276 517.589 124.654C514.682 124.919 511.879 125.867 509.408 127.419C508.739 127.856 508.104 128.341 507.507 128.873C507.316 129.073 507.106 129.255 506.88 129.415C507.049 129.196 507.237 128.992 507.441 128.806C508.005 128.236 508.618 127.718 509.275 127.258C511.743 125.62 514.575 124.609 517.522 124.312C521.892 123.853 526.309 124.293 530.502 125.604C535.253 127.001 540.155 129.253 545.514 130.992C548.113 131.854 550.794 132.447 553.515 132.759C556.047 133.018 558.601 132.951 561.116 132.56C565.389 131.88 569.482 130.352 573.155 128.065C575.619 126.519 577.858 124.639 579.806 122.478C580.349 121.898 580.859 121.289 581.336 120.654C581.518 120.441 581.715 120.241 581.925 120.055Z" fill="white"/>
<path d="M562.218 75.4066C561.881 75.7274 561.515 76.0168 561.126 76.2713C560.403 76.8129 559.32 77.5255 557.942 78.3522C556.326 79.3206 554.658 80.1992 552.945 80.9841C550.841 81.935 548.683 82.763 546.483 83.4641C544.275 84.1435 542.029 84.6924 539.756 85.1079C537.901 85.4329 536.029 85.6613 534.15 85.792C532.544 85.8966 531.243 85.9155 530.349 85.887C529.882 85.9068 529.414 85.8781 528.953 85.8015C529.411 85.7233 529.875 85.6883 530.34 85.697C531.233 85.697 532.525 85.583 534.141 85.4405C535.756 85.2979 537.618 85.0414 539.69 84.6613C541.933 84.2201 544.153 83.6652 546.341 82.9985C548.524 82.3028 550.668 81.4908 552.764 80.5661C554.664 79.7014 556.384 78.8462 557.771 78.0481C559.159 77.25 560.27 76.5943 561.021 76.1478C561.398 75.8664 561.798 75.6184 562.218 75.4066Z" fill="white"/>
<path d="M510.272 189.371C509.931 189.121 509.613 188.841 509.322 188.534L506.718 186.206C503.834 183.673 500.814 181.297 497.673 179.09C495.963 177.861 494.125 176.823 492.19 175.992C490.614 175.33 488.937 174.942 487.23 174.842C485.65 174.776 484.071 174.989 482.565 175.47C482.565 175.47 482.66 175.394 482.859 175.298C483.148 175.162 483.447 175.047 483.753 174.956C484.884 174.607 486.066 174.45 487.249 174.491C489.004 174.546 490.735 174.913 492.361 175.574C494.337 176.39 496.212 177.433 497.948 178.681C501.115 180.893 504.125 183.322 506.956 185.95C508.039 186.957 508.856 187.85 509.455 188.401C509.763 188.692 510.037 189.018 510.272 189.371Z" fill="white"/>
<path d="M589.346 207.139C589.346 207.139 589.251 207.262 589.023 207.471C588.795 207.68 588.472 207.994 588.006 208.346C586.722 209.379 585.344 210.292 583.892 211.073C579.078 213.702 573.619 214.919 568.144 214.583C562.669 214.247 557.401 212.371 552.945 209.172C551.6 208.223 550.347 207.151 549.201 205.97C548.783 205.562 548.498 205.21 548.251 205.02C548.138 204.908 548.042 204.78 547.966 204.64C547.966 204.64 548.441 205.077 549.287 205.875C550.473 206.989 551.743 208.008 553.087 208.925C557.525 212.003 562.72 213.807 568.11 214.142C573.5 214.477 578.879 213.33 583.664 210.826C585.115 210.079 586.507 209.221 587.826 208.26C588.311 207.858 588.819 207.484 589.346 207.139Z" fill="white"/>
<path d="M625.224 262.8C625.097 262.684 624.976 262.56 624.863 262.429C624.635 262.154 624.331 261.755 623.913 261.242C622.729 259.705 621.426 258.262 620.017 256.928L618.516 255.598L617.718 254.885L616.768 254.21L614.867 252.785L612.654 251.426C609.152 249.368 605.386 247.796 601.461 246.752C596.703 245.482 591.764 245.038 586.856 245.44C581.224 245.938 575.762 247.632 570.836 250.41C565.639 253.355 560.793 257.375 555.634 261.337C553.016 263.382 550.274 265.264 547.424 266.971C544.461 268.742 541.262 270.082 537.922 270.953C534.577 271.769 531.122 272.048 527.689 271.779C524.364 271.505 521.079 270.868 517.893 269.879C511.907 267.972 506.119 265.493 500.609 262.477C495.288 259.721 490.262 257.061 485.34 255.056C480.797 253.107 475.997 251.827 471.087 251.255C467.04 250.863 462.956 251.184 459.02 252.206C456.044 252.948 453.226 254.215 450.696 255.949C449.111 257.068 447.675 258.384 446.421 259.864L445.518 261.08C445.309 261.356 445.195 261.489 445.195 261.489C445.195 261.489 445.28 261.337 445.47 261.052L446.345 259.807C447.568 258.284 448.994 256.935 450.582 255.797C453.113 254.011 455.951 252.703 458.953 251.94C462.92 250.89 467.041 250.552 471.125 250.942C476.057 251.509 480.88 252.79 485.444 254.743C490.404 256.738 495.45 259.398 500.771 262.135C506.261 265.125 512.023 267.588 517.978 269.489C521.133 270.449 524.383 271.064 527.67 271.323C531.053 271.591 534.456 271.315 537.751 270.506C541.034 269.644 544.178 268.323 547.092 266.582C549.927 264.889 552.653 263.02 555.254 260.985C560.422 257.042 565.297 253.013 570.542 250.049C571.837 249.318 573.176 248.667 574.552 248.101C575.226 247.816 575.882 247.512 576.566 247.265L578.618 246.619C581.271 245.83 583.995 245.311 586.752 245.07C591.708 244.671 596.697 245.127 601.499 246.419C605.448 247.482 609.233 249.081 612.749 251.17L614.963 252.548L616.863 254.011L617.813 254.686L618.611 255.417L620.103 256.766C621.487 258.124 622.758 259.592 623.904 261.156C624.284 261.688 624.588 262.106 624.797 262.382L625.224 262.8Z" fill="white"/>
<path d="M602.363 306.138C602.217 306.216 602.065 306.279 601.907 306.328L600.558 306.793C599.847 307.041 599.124 307.254 598.391 307.43C597.527 307.639 596.567 307.924 595.465 308.104L593.754 308.427C593.156 308.532 592.529 308.589 591.854 308.675C590.562 308.865 589.165 308.931 587.692 309.026C584.517 309.122 581.339 308.96 578.191 308.542C575.036 308.063 571.927 307.319 568.898 306.318C567.511 305.824 566.19 305.368 565.002 304.817C564.403 304.551 563.814 304.323 563.273 304.057L561.724 303.268C560.717 302.783 559.871 302.242 559.111 301.795C558.456 301.424 557.822 301.018 557.211 300.579L556.042 299.752C555.899 299.665 555.768 299.559 555.652 299.439C555.811 299.494 555.961 299.57 556.099 299.667L557.315 300.418C557.828 300.75 558.474 301.149 559.215 301.558C559.957 301.966 560.831 302.508 561.838 302.954L563.396 303.705C563.938 303.971 564.527 304.19 565.126 304.446C566.313 304.969 567.625 305.396 569.002 305.891C572.04 306.856 575.151 307.574 578.305 308.038C581.437 308.461 584.599 308.636 587.759 308.56C589.213 308.475 590.609 308.437 591.883 308.256C592.519 308.18 593.146 308.133 593.783 308.038L595.493 307.753C596.586 307.601 597.546 307.335 598.41 307.154C599.275 306.974 599.997 306.774 600.586 306.594L601.964 306.223C602.093 306.18 602.227 306.152 602.363 306.138Z" fill="white"/>
<path d="M556.365 368.849C557.181 367.073 558.417 365.522 559.965 364.331C561.514 363.139 563.33 362.341 565.255 362.008C567.181 361.674 569.159 361.813 571.018 362.414C572.878 363.015 574.563 364.059 575.929 365.457C573.927 368.688 570.816 371.08 567.178 372.184C565.256 372.861 563.168 372.902 561.221 372.302C559.274 371.701 557.572 370.491 556.365 368.849Z" fill="#0057FF"/>
<path d="M549.619 370.407C550.492 370.017 551.407 369.729 552.346 369.552C554.066 369.134 556.46 368.668 559.111 368.231C561.762 367.794 564.176 367.462 565.934 367.281C566.876 367.125 567.829 367.052 568.784 367.063C567.871 367.331 566.936 367.522 565.991 367.633L559.197 368.745C556.555 369.182 554.161 369.6 552.432 369.923C551.504 370.137 550.565 370.299 549.619 370.407Z" fill="#263238"/>
<path d="M216.744 308.693C218.77 310.362 220.35 312.508 221.34 314.939C222.331 317.37 222.701 320.008 222.418 322.618C222.136 325.227 221.209 327.725 219.721 329.888C218.232 332.05 216.23 333.808 213.894 335.004C210.407 326.063 209.067 316.437 216.744 308.693Z" fill="#0057FF"/>
<path d="M229.961 315.554C230.148 318.943 231.175 322.232 232.949 325.126C234.723 328.02 237.188 330.428 240.123 332.133C243.059 333.837 246.372 334.785 249.764 334.892C253.157 334.998 256.523 334.26 259.559 332.742C252.908 322.29 243.91 313.482 229.961 315.535" fill="#0057FF"/>
<path d="M199.679 282.507C199.847 282.646 199.997 282.806 200.126 282.982L201.314 284.398C202.321 285.642 203.793 287.438 205.656 289.614C209.361 293.985 214.597 299.933 220.764 306.138C223.852 309.235 226.883 312.095 229.695 314.623C232.508 317.15 235.168 319.307 237.449 321.036C239.24 322.409 241.109 323.678 243.045 324.837C244.423 325.654 245.24 325.996 245.221 326.044C245.009 325.995 244.804 325.919 244.613 325.816C244.042 325.582 243.487 325.312 242.95 325.008C240.969 323.905 239.064 322.67 237.249 321.312C234.931 319.602 232.27 317.445 229.41 314.955C226.55 312.466 223.519 309.577 220.422 306.48C214.245 300.265 209.019 294.27 205.399 289.833C203.565 287.619 202.14 285.785 201.171 284.512L200.05 283.029C199.91 282.867 199.786 282.692 199.679 282.507Z" fill="#263238"/>
<path d="M216.013 322.205C215.927 322.205 216.241 320.875 216.516 318.718C217.221 313.077 216.623 307.349 214.768 301.976C214.055 299.923 213.476 298.698 213.552 298.66C213.749 298.909 213.912 299.184 214.036 299.477C214.433 300.249 214.788 301.042 215.1 301.852C216.125 304.535 216.796 307.339 217.096 310.195C217.391 313.043 217.312 315.919 216.858 318.746C216.717 319.621 216.527 320.487 216.288 321.34C216.23 321.638 216.138 321.928 216.013 322.205Z" fill="#263238"/>
<path d="M635.315 129.918C634.139 128.359 633.359 126.536 633.044 124.608C632.729 122.68 632.888 120.704 633.507 118.851C634.127 116.999 635.187 115.324 636.598 113.973C638.009 112.622 639.728 111.634 641.606 111.095C643.502 114.385 644.134 118.253 643.382 121.975C643.068 123.989 642.114 125.849 640.661 127.279C639.208 128.709 637.334 129.635 635.315 129.918Z" fill="#0057FF"/>
<path d="M633.51 136.598C633.576 135.645 633.758 134.704 634.051 133.795C634.498 132.085 635.22 129.757 636.094 127.21C636.968 124.664 637.824 122.383 638.47 120.739C638.774 119.834 639.162 118.959 639.629 118.126C639.43 119.06 639.153 119.975 638.802 120.863C638.175 122.678 637.406 124.901 636.56 127.372C635.714 129.842 634.916 132.218 634.384 133.89C634.139 134.807 633.847 135.711 633.51 136.598Z" fill="#263238"/>
<path d="M593.508 200.611C592.525 196.962 592.444 193.129 593.274 189.443C594.104 185.756 595.819 182.327 598.271 179.451C600.723 176.576 603.838 174.34 607.347 172.938C610.856 171.536 614.653 171.009 618.412 171.403C619.732 178.586 617.461 185.959 613.708 192.202C609.233 199.566 600.339 202.654 593.508 200.611Z" fill="#0057FF"/>
<path d="M565.392 228.736C565.511 228.552 565.648 228.38 565.801 228.223L567.026 226.826C568.119 225.629 569.715 223.919 571.701 221.829C575.692 217.648 581.26 211.937 587.455 205.676C593.65 199.414 599.285 193.76 603.39 189.703L608.273 184.905L609.623 183.622C609.927 183.337 610.098 183.185 610.117 183.204C609.99 183.382 609.847 183.547 609.689 183.698L608.407 185.047L603.656 189.941L587.807 206.018L571.958 222.076L567.207 226.959L565.915 228.29C565.758 228.458 565.583 228.608 565.392 228.736Z" fill="#263238"/>
<g opacity="0.3">
<path d="M593.508 200.611C592.525 196.962 592.444 193.129 593.274 189.443C594.104 185.756 595.819 182.327 598.271 179.451C600.723 176.576 603.838 174.34 607.347 172.938C610.856 171.536 614.653 171.009 618.412 171.403C619.732 178.586 617.461 185.959 613.708 192.202C609.233 199.566 600.339 202.654 593.508 200.611Z" fill="black"/>
</g>
<path d="M580.481 203.433C578.411 202.379 576.63 200.834 575.293 198.935C573.957 197.035 573.105 194.837 572.812 192.533C572.519 190.228 572.793 187.887 573.611 185.713C574.429 183.539 575.767 181.598 577.506 180.059C581.307 182.434 583.74 186.492 585.003 190.786C586.505 195.86 584.243 201.238 580.481 203.433Z" fill="#0057FF"/>
<g opacity="0.3">
<path d="M580.481 203.433C578.411 202.379 576.63 200.834 575.293 198.935C573.957 197.035 573.105 194.837 572.812 192.533C572.519 190.228 572.793 187.887 573.611 185.713C574.429 183.539 575.767 181.598 577.506 180.059C581.307 182.434 583.74 186.492 585.003 190.786C586.505 195.86 584.243 201.238 580.481 203.433Z" fill="black"/>
</g>
<path d="M581.963 211.529C581.832 211.25 581.736 210.957 581.678 210.654C581.516 210.094 581.336 209.267 581.136 208.232C580.737 206.179 580.319 203.31 579.939 200.146C579.559 196.981 579.293 194.093 579.132 192.003C578.994 190.881 578.95 189.749 578.999 188.62C579.236 189.726 579.398 190.846 579.483 191.974C579.74 194.178 580.072 196.981 580.433 200.089C580.794 203.196 581.174 206.113 581.479 208.175C581.783 210.236 582.039 211.51 581.963 211.529Z" fill="#263238"/>
<path d="M402.522 313.558C403.975 310.113 406.263 307.084 409.18 304.746C412.097 302.407 415.551 300.833 419.23 300.165C422.909 299.497 426.696 299.757 430.249 300.921C433.802 302.085 437.009 304.116 439.579 306.831C428.804 315.183 416.233 320.884 402.598 313.558" fill="#0057FF"/>
<g opacity="0.3">
<path d="M402.522 313.558C403.975 310.113 406.263 307.084 409.18 304.746C412.097 302.407 415.551 300.833 419.23 300.165C422.909 299.497 426.696 299.757 430.249 300.921C433.802 302.085 437.009 304.116 439.579 306.831C428.804 315.183 416.233 320.884 402.598 313.558" fill="black"/>
</g>
<path d="M396.47 316.903C396.726 316.647 397.013 316.423 397.325 316.238C397.895 315.829 398.741 315.288 399.824 314.661C405.471 311.396 411.729 309.329 418.21 308.589C419.445 308.456 420.452 308.389 421.146 308.38C421.505 308.331 421.87 308.331 422.229 308.38C422.229 308.456 420.699 308.551 418.248 308.912C415.058 309.379 411.915 310.116 408.851 311.116C405.795 312.127 402.832 313.398 399.995 314.917C397.771 316.133 396.517 316.969 396.47 316.903Z" fill="#263238"/>
<path d="M152.085 189.751C154.694 188.534 157.565 187.984 160.439 188.152C163.314 188.32 166.101 189.199 168.551 190.712C171.001 192.224 173.037 194.322 174.475 196.816C175.913 199.31 176.708 202.123 176.789 205.001C166.29 204.222 156.133 201.001 152.085 189.751Z" fill="#0057FF"/>
<g opacity="0.3">
<path d="M152.085 189.751C154.694 188.534 157.565 187.984 160.439 188.152C163.314 188.32 166.101 189.199 168.551 190.712C171.001 192.224 173.037 194.322 174.475 196.816C175.913 199.31 176.708 202.123 176.789 205.001C166.29 204.222 156.133 201.001 152.085 189.751Z" fill="black"/>
</g>
<path d="M146.868 188.525C147.145 188.479 147.428 188.479 147.704 188.525C148.461 188.606 149.212 188.727 149.956 188.886C152.417 189.4 154.818 190.167 157.121 191.176C159.421 192.195 161.612 193.446 163.658 194.91C164.437 195.48 165.045 195.965 165.444 196.326C165.669 196.495 165.87 196.693 166.043 196.915C165.986 196.981 165.093 196.25 163.458 195.205C159.305 192.464 154.712 190.455 149.88 189.266C148.027 188.8 146.859 188.601 146.868 188.525Z" fill="#263238"/>
<path d="M492.561 301.919C492.251 299.361 492.582 296.767 493.525 294.37C494.467 291.973 495.99 289.847 497.958 288.185C499.925 286.522 502.276 285.375 504.797 284.847C507.318 284.319 509.931 284.425 512.4 285.158C508.818 293.871 503.25 301.615 492.561 301.919Z" fill="#0057FF"/>
<path d="M490.062 306.014C490.352 305.126 490.751 304.277 491.25 303.487C493.492 299.567 496.539 296.166 500.191 293.51C500.923 292.929 501.724 292.441 502.576 292.056C501.879 292.671 501.149 293.248 500.39 293.785C496.902 296.552 493.908 299.89 491.535 303.658C491.089 304.471 490.598 305.257 490.062 306.014Z" fill="#263238"/>
<path d="M567.331 252.557C566.546 250.104 566.384 247.494 566.858 244.962C567.333 242.431 568.43 240.057 570.049 238.055C571.669 236.052 573.762 234.484 576.138 233.491C578.515 232.498 581.101 232.111 583.664 232.366C581.764 241.602 577.773 250.248 567.331 252.557Z" fill="#0057FF"/>
<g opacity="0.3">
<path d="M567.331 252.557C566.546 250.104 566.384 247.494 566.858 244.962C567.333 242.431 568.43 240.057 570.049 238.055C571.669 236.052 573.762 234.484 576.138 233.491C578.515 232.498 581.101 232.111 583.664 232.366C581.764 241.602 577.773 250.248 567.331 252.557Z" fill="black"/>
</g>
<path d="M565.648 257.051C565.764 256.126 565.997 255.219 566.342 254.353C567.069 252.22 568.025 250.171 569.193 248.243C570.349 246.311 571.712 244.511 573.259 242.875C573.866 242.159 574.558 241.521 575.321 240.975C574.757 241.709 574.154 242.413 573.516 243.084C572.072 244.775 570.766 246.58 569.611 248.481C568.477 250.39 567.495 252.385 566.675 254.448C566.383 255.335 566.04 256.204 565.648 257.051Z" fill="#263238"/>
<path d="M3.71509 184.61C4.27372 182.095 5.44894 179.759 7.13496 177.811C8.82098 175.864 10.9649 174.366 13.3737 173.453C15.7824 172.539 18.3805 172.24 20.934 172.58C23.4874 172.921 25.9162 173.891 28.0016 175.403C21.7304 182.425 13.901 187.879 3.71509 184.61Z" fill="#0057FF"/>
<path d="M0 187.641C0.571548 186.904 1.2286 186.238 1.95736 185.655C3.66112 184.197 5.51483 182.923 7.48738 181.855C9.46162 180.767 11.5485 179.897 13.711 179.261C14.5912 178.951 15.5078 178.756 16.438 178.681C15.5817 179.045 14.7063 179.362 13.8155 179.631C9.60491 181.076 5.67174 183.229 2.1854 185.997C1.48988 186.588 0.76015 187.137 0 187.641Z" fill="#263238"/>
</svg>
