<svg width="42" height="42" viewBox="0 0 42 42" fill="none" xmlns="http://www.w3.org/2000/svg">
<rect width="42" height="42" rx="10" fill="url(#paint0_linear_1025_4600)"/>
<path fill-rule="evenodd" clip-rule="evenodd" d="M26.1404 29.9765C24.9741 30.3506 23.7334 30.4397 22.5247 30.2363C22.2091 30.2363 21.67 30.0934 21.1047 29.9765L20.1712 33.4451L17.9886 32.8735L18.9353 29.4309L17.2918 28.9892L16.3582 32.4058L14.202 31.8342L15.1355 28.4176L10.8887 27.3004L12.0194 24.8451L13.3342 25.1959C13.7681 25.2998 13.9653 25.3128 14.1888 25.1959C14.2915 25.1303 14.3796 25.0445 14.4474 24.944C14.5152 24.8434 14.5615 24.7302 14.5833 24.6113L16.9762 15.7905C17.0596 15.625 17.103 15.4427 17.103 15.2578C17.103 15.073 17.0596 14.8907 16.9762 14.7252C16.7921 14.3615 16.2005 14.1666 15.8586 14.0757L14.557 13.8418L15.1618 11.6204L19.4086 12.7506L20.3289 9.33398L22.4852 9.90558L21.5649 13.3222L23.2084 13.7509L24.1287 10.3343L26.2981 10.9059L25.3515 14.3745C26.7273 14.7305 27.9608 15.4917 28.8883 16.5569C29.2386 17.0529 29.4591 17.6269 29.5302 18.2276C29.6013 18.8283 29.5208 19.437 29.2959 19.9995C29.0753 20.5872 28.7198 21.1164 28.2572 21.5454C27.792 21.8586 27.2762 22.0914 26.732 22.2339C27.3334 22.5411 27.8692 22.9602 28.3098 23.4681C28.6507 23.9329 28.8709 24.4733 28.9511 25.0418C29.0314 25.6103 28.9692 26.1896 28.77 26.7288C28.6331 27.441 28.3219 28.1094 27.8636 28.6755C27.4052 29.2416 26.8136 29.6882 26.1404 29.9765ZM21.6569 22.5717C20.8549 22.3119 20.0397 22.104 19.2114 21.9222L17.9886 26.495C17.9886 26.495 19.4086 26.9107 20.3947 27.0925C21.2592 27.2783 22.1515 27.3004 23.0243 27.1575C23.3957 27.093 23.7397 26.9219 24.0133 26.6654C24.2868 26.409 24.4779 26.0786 24.5626 25.7155C24.6676 25.3573 24.6611 24.9761 24.5438 24.6216C24.4266 24.2671 24.2041 23.9557 23.9052 23.7279C23.2392 23.2163 22.487 22.8249 21.6832 22.5717H21.6569ZM21.5912 20.3373C22.3702 20.5118 23.1788 20.5118 23.9578 20.3373C24.2994 20.2672 24.6126 20.0992 24.8581 19.8543C25.1036 19.6094 25.2707 19.2984 25.3383 18.9602C25.4254 18.5564 25.3776 18.1356 25.2022 17.7609C25.0268 17.3861 24.7332 17.0777 24.3654 16.8817C23.726 16.4807 23.0242 16.1867 22.288 16.0113C21.8337 15.8835 21.3729 15.7795 20.9075 15.6995L19.7899 19.8176C19.7899 19.8176 20.7891 20.0904 21.5912 20.3373Z" fill="white"/>
<defs>
<linearGradient id="paint0_linear_1025_4600" x1="42" y1="42" x2="0.0117893" y2="-0.0117827" gradientUnits="userSpaceOnUse">
<stop stop-color="#FF9400"/>
<stop offset="1" stop-color="#FFD36F"/>
</linearGradient>
</defs>
</svg>
