<svg width="42" height="42" viewBox="0 0 42 42" fill="none" xmlns="http://www.w3.org/2000/svg">
<g clip-path="url(#clip0_1529_494)">
<path d="M0 10L0 32C0 37.5228 4.47715 42 10 42H32C37.5228 42 42 37.5228 42 32V10C42 4.47715 37.5228 0 32 0H10C4.47715 0 0 4.47715 0 10Z" fill="url(#paint0_linear_1529_494)"/>
<path d="M20.4243 18.1518C20.4613 18.448 20.7194 18.6548 20.9981 18.6548L21.0004 18.6548C21.0151 18.6549 21.0555 18.655 21.1016 18.643L31.5033 17.1021C31.821 17.055 32.0402 16.7526 31.9936 16.4381C31.9466 16.1202 31.6441 15.9011 31.3295 15.9476L20.9151 17.4905C20.5982 17.5375 20.3794 17.8383 20.4243 18.1518Z" fill="white" stroke="white" stroke-width="0.394953"/>
<path d="M20.6257 18.5267L10.2116 10.0405L10.2077 10.0374C9.96466 9.82903 9.93156 9.47057 10.126 9.2189L10.1288 9.21537C10.3254 8.9725 10.6976 8.92069 10.9488 9.13395L21.361 17.618C21.3609 17.6179 21.3611 17.6181 21.361 17.618L20.6257 18.5267ZM20.6257 18.5267L20.6375 18.535C20.7407 18.6072 20.8643 18.6556 20.9976 18.6556C21.1646 18.6556 21.3351 18.5881 21.4472 18.4323L20.6257 18.5267Z" fill="white"/>
<path d="M20.6257 18.5267L10.2116 10.0405L10.2077 10.0374C9.96466 9.82903 9.93156 9.47057 10.126 9.2189L10.1288 9.21537C10.3254 8.9725 10.6976 8.92069 10.9488 9.13395L21.361 17.618M20.6257 18.5267L21.361 17.618M20.6257 18.5267L20.6375 18.535C20.7407 18.6072 20.8643 18.6556 20.9976 18.6556C21.1646 18.6556 21.3351 18.5881 21.4472 18.4323L20.6257 18.5267ZM21.361 17.618C21.3611 17.6181 21.3609 17.6179 21.361 17.618Z" stroke="white" stroke-width="0.394953"/>
<path d="M18.987 32.5396L19.0014 32.5418H19.016H19.018H19.02H19.0221H19.0241H19.0262H19.0282H19.0303H19.0324H19.0345H19.0364H19.0385H19.0405H19.0425H19.0446H19.0466H19.0486H19.0506H19.0526H19.0547H19.0568H19.0588H19.0608H19.0629H19.0649H19.0669H19.069C19.3602 32.5418 19.6047 32.3313 19.6507 32.0437L19.6513 32.0398L21.5467 18.3808L27.7093 12.9675L27.7115 12.9656C27.9514 12.7485 27.9772 12.3876 27.7675 12.1429L27.764 12.139C27.5469 11.899 27.186 11.8732 26.9413 12.0829L26.9395 12.0845L20.6137 17.6388C20.5098 17.7312 20.4408 17.8578 20.4181 17.9939L20.4173 17.9992L18.4887 31.8852L18.488 31.8905C18.4532 32.2033 18.6725 32.493 18.987 32.5396Z" fill="white" stroke="white" stroke-width="0.394953"/>
<path d="M10.036 9.78684L18.5214 32.1575C18.5921 32.3548 18.7628 32.4907 18.9615 32.5286C19.0076 32.5414 19.0438 32.5414 19.0665 32.5414H19.0694C19.2459 32.5414 19.4095 32.4595 19.5154 32.3301L19.5167 32.3283L31.8598 16.8995C32.0476 16.6647 32.0226 16.3279 31.8144 16.1197L27.7291 12.1115C27.639 12.0118 27.5274 11.9668 27.4242 11.9462L27.4196 11.9453L10.6796 9.01388C10.4859 8.97976 10.2627 9.04526 10.1274 9.21749C10.0012 9.3781 9.96481 9.59692 10.036 9.78684ZM19.2547 30.7931L11.493 10.3346L27.0442 13.0643L30.6298 16.5763L19.2547 30.7931Z" fill="white"/>
<path d="M10.6796 9.01388L27.4196 11.9453L27.4242 11.9462C27.5274 11.9668 27.639 12.0118 27.7291 12.1115L31.8144 16.1197C32.0226 16.3279 32.0476 16.6647 31.8598 16.8995L19.5167 32.3283L19.5154 32.3301C19.4095 32.4595 19.2459 32.5414 19.0694 32.5414H19.0665C19.0438 32.5414 19.0076 32.5414 18.9615 32.5286C18.7628 32.4907 18.5921 32.3548 18.5214 32.1575L10.036 9.78684C9.96481 9.59692 10.0012 9.3781 10.1274 9.21749C10.2627 9.04526 10.4859 8.97976 10.6796 9.01388ZM10.6796 9.01388L10.6452 9.20835M19.2547 30.7931L11.493 10.3346L27.0442 13.0643L30.6298 16.5763L19.2547 30.7931Z" stroke="white" stroke-width="0.394953"/>
</g>
<defs>
<linearGradient id="paint0_linear_1529_494" x1="42" y1="42" x2="0.011799" y2="-0.0117999" gradientUnits="userSpaceOnUse">
<stop stop-color="#DC3545"/>
</linearGradient>
<clipPath id="clip0_1529_494">
<rect width="42" height="42" fill="white"/>
</clipPath>
</defs>
</svg>
