<svg width="935" height="225" viewBox="0 0 935 225" fill="none" xmlns="http://www.w3.org/2000/svg">
<path d="M0 138.511C0 113.491 0 88.2235 0 62.4604C35.6721 58.2491 57.224 38.4312 61.4353 0.777344C86.9508 0.777344 112.714 0.777344 138.477 0.777344C142.193 78.0669 69.6101 142.97 0 138.511Z" fill="#EEF7FF"/>
<path d="M138.973 224.222C112.714 224.222 87.4463 224.222 61.6831 224.222C61.6831 195.982 61.6831 168.238 61.6831 139.749C87.4463 139.749 112.962 139.749 138.973 139.749C138.973 167.742 138.973 195.487 138.973 224.222Z" fill="#EEF7FF"/>
<path d="M339.47 96.9557C336 103.062 330.865 108.059 323.787 111.806C316.709 115.553 307.966 117.496 297.557 117.496H278.265V163.434H247.039V35.4736H297.557C307.827 35.4736 316.431 37.2778 323.51 40.7475C330.588 44.2171 335.861 49.0746 339.331 55.32C342.801 61.5654 344.605 68.6434 344.605 76.693C344.605 84.0487 342.94 90.8492 339.47 96.9557ZM308.521 88.4898C311.435 85.7141 312.962 81.6893 312.962 76.693C312.962 71.6967 311.435 67.6719 308.521 64.8962C305.606 62.1205 301.165 60.7326 295.197 60.7326H278.265V92.7922H295.197C301.165 92.6534 305.606 91.2655 308.521 88.4898Z" fill="#EEF7FF"/>
<path d="M360.565 84.881C364.451 76.9702 369.864 70.8636 376.665 66.7001C383.465 62.3977 391.098 60.3159 399.425 60.3159C406.642 60.3159 412.888 61.7038 418.3 64.7571C423.713 67.6716 427.877 71.5576 430.791 76.2763V61.7038H462.018V163.434H430.791V149C427.738 153.719 423.574 157.605 418.162 160.519C412.749 163.434 406.504 164.961 399.287 164.961C390.96 164.961 383.465 162.74 376.665 158.438C369.864 154.135 364.451 148.029 360.565 139.979C356.679 132.068 354.598 122.77 354.598 112.361C354.598 101.952 356.541 92.7918 360.565 84.881ZM424.407 94.1796C420.105 89.7385 414.831 87.3791 408.585 87.3791C402.34 87.3791 397.066 89.5997 392.764 94.0409C388.461 98.482 386.241 104.589 386.241 112.361C386.241 120.133 388.461 126.378 392.764 130.819C397.066 135.399 402.34 137.62 408.585 137.62C414.831 137.62 420.105 135.399 424.407 130.819C428.709 126.378 430.93 120.133 430.93 112.361C430.93 104.589 428.709 98.6208 424.407 94.1796Z" fill="#EEF7FF"/>
<path d="M588.59 61.7036L524.749 211.731H491.163L514.479 159.964L473.121 61.7036H507.956L531.411 125.406L554.727 61.7036H588.59Z" fill="#EEF7FF"/>
<path d="M619.262 158.576C611.351 154.274 605.106 148.306 600.526 140.395C595.946 132.485 593.726 123.325 593.726 112.638C593.726 102.229 596.085 92.9306 600.665 85.0198C605.245 77.109 611.629 71.0024 619.679 66.7001C627.728 62.3977 636.749 60.3159 646.603 60.3159C656.596 60.3159 665.617 62.3977 673.527 66.7001C681.577 71.0024 687.822 77.109 692.541 85.0198C697.121 92.9306 699.48 102.229 699.48 112.638C699.48 123.047 697.121 132.346 692.402 140.257C687.684 148.167 681.299 154.274 673.25 158.576C665.2 162.879 656.179 164.961 646.187 164.961C636.194 164.961 627.173 162.74 619.262 158.576ZM661.314 131.374C665.478 126.933 667.56 120.688 667.56 112.638C667.56 104.589 665.478 98.2044 661.453 93.9021C657.428 89.4609 652.432 87.3791 646.464 87.3791C640.358 87.3791 635.361 89.5997 631.337 93.9021C627.312 98.2044 625.369 104.45 625.369 112.777C625.369 120.965 627.312 127.211 631.337 131.513C635.223 135.954 640.219 138.036 646.187 138.036C652.154 137.897 657.151 135.677 661.314 131.374Z" fill="#EEF7FF"/>
<path d="M806.484 72.2518C813.562 80.0238 817.171 90.5715 817.171 104.034V163.434H786.222V108.197C786.222 101.397 784.417 96.1229 780.948 92.3757C777.478 88.6285 772.621 86.6855 766.792 86.6855C760.824 86.6855 756.105 88.6285 752.635 92.3757C749.166 96.1229 747.362 101.397 747.362 108.197V163.434H716.135V61.704H747.223V75.1663C750.415 70.7251 754.578 67.1167 759.991 64.4798C765.404 61.8428 771.371 60.5938 778.033 60.5938C789.83 60.5938 799.406 64.4797 806.484 72.2518Z" fill="#EEF7FF"/>
<path d="M934.306 119.994H863.803C864.219 126.378 866.301 131.097 869.909 134.428C873.518 137.758 877.959 139.424 883.094 139.424C890.866 139.424 896.279 136.093 899.332 129.57H932.502C930.836 136.232 927.783 142.339 923.342 147.613C918.901 153.025 913.349 157.189 906.688 160.242C900.026 163.295 892.531 164.822 884.204 164.822C874.212 164.822 865.329 162.74 857.557 158.438C849.785 154.135 843.679 148.168 839.376 140.257C834.935 132.346 832.854 123.186 832.854 112.499C832.854 101.952 835.074 92.6531 839.376 84.7423C843.679 76.8315 849.785 70.725 857.557 66.5614C865.329 62.259 874.212 60.1772 884.343 60.1772C894.197 60.1772 902.94 62.259 910.574 66.4226C918.207 70.5862 924.175 76.4152 928.477 84.0484C932.779 91.6816 935 100.703 935 110.834C934.722 113.887 934.584 116.941 934.306 119.994ZM902.94 102.784C902.94 97.3718 901.136 93.2083 897.528 90.0162C893.919 86.8241 889.339 85.2975 883.788 85.2975C878.514 85.2975 874.212 86.8241 870.603 89.8774C866.995 92.9307 864.774 97.2331 863.942 102.784H902.94Z" fill="#EEF7FF"/>
</svg>
