<?xml version="1.0" encoding="utf-8"?>
<!-- Generator: Adobe Illustrator 27.8.1, SVG Export Plug-In . SVG Version: 6.00 Build 0)  -->
<svg version="1.1" id="Layer_1" xmlns="http://www.w3.org/2000/svg" xmlns:xlink="http://www.w3.org/1999/xlink" x="0px" y="0px"
	 viewBox="0 0 533 560" style="enable-background:new 0 0 533 560;" xml:space="preserve">
<style type="text/css">
	.st0{fill:#FFFFFF;stroke:#000000;stroke-miterlimit:10;}
</style>
<path class="st0" d="M459.1,220.4c-17.9-16.5-42.7-41.8-62.9-59.7l-1.2-0.8c-2-1.6-4.2-2.8-6.6-3.7c-48.7-9.1-275.3-51.4-279.7-50.9
	c-1.2,0.2-2.4,0.6-3.5,1.3l-1.1,0.9c-1.4,1.4-2.5,3.1-3.1,5l-0.3,0.8v4.2v0.7c25.5,71,126.2,303.7,146.1,358.3
	c1.2,3.7,3.5,10.8,7.7,11.1h1c2.3,0,11.9-12.8,11.9-12.8s173-209.8,190.5-232.1c2.3-2.8,4.3-5.7,6-8.8c0.4-2.4,0.2-5-0.6-7.3
	C462.4,224.1,461,222,459.1,220.4z M311.7,244.8l73.8-61.2l43.3,39.9L311.7,244.8z M283.1,240.8L155.9,136.6l205.7,37.9L283.1,240.8
	z M294.5,268.1l130.1-21L275.9,426.4L294.5,268.1z M138.7,147l133.8,113.5l-19.4,166L138.7,147z"/>
</svg>
