<svg width="137" height="148" viewBox="0 0 137 148" fill="none" xmlns="http://www.w3.org/2000/svg">
<g clip-path="url(#clip0_581_1050)">
<path fill-rule="evenodd" clip-rule="evenodd" d="M116.7 127.9C90 154.6 46.7 154.6 20 127.9C-6.69999 101.2 -6.69999 57.9001 20 31.2001C46.7 4.50005 90 4.50005 116.7 31.2001C143.4 57.9001 143.4 101.2 116.7 127.9Z" fill="#BFE1FF"/>
<path fill-rule="evenodd" clip-rule="evenodd" d="M115 107.4C115 107.4 120.4 110.7 125.2 117.6C122.8 121.2 119.9 124.7 116.7 127.9C113 131.6 109 134.8 104.8 137.4C104.9 126.8 107 114.4 115 107.4Z" fill="#FF75CA"/>
<path fill-rule="evenodd" clip-rule="evenodd" d="M23.4 97.8999C19.2 99.4999 13.2 106.3 8.20001 112C11 117.2 14.6 122.1 18.8 126.6L23.4 97.8999Z" fill="#FF75CA"/>
<path fill-rule="evenodd" clip-rule="evenodd" d="M82.8 93.6001L83.1 131.5L81.9 146.6C68.4 149.3 54.3 147.9 41.5 142.5L40.7 131.6L41 93.6001C65.7 108.9 58.1 108.9 82.8 93.6001Z" fill="#2C81FE"/>
<path fill-rule="evenodd" clip-rule="evenodd" d="M82.8 93.6001L82.9 112.2C60 117.2 44.8 103.4 44.8 103.4C44.8 103.4 51.5 100.3 51 101C51 101 51.3 100.9 52 100.7C64 108.3 62.8 106 82.8 93.6001Z" fill="#12006C"/>
<path d="M53.8 146.8C53.6 146.8 53.4 146.6 53.4 146.4C53.3 139.5 55.3 131.3 57.6 121.7C58.8 116.7 60.1 111.1 61.3 105.1C61.3 104.9 61.6 104.7 61.8 104.8C62 104.8 62.2 105.1 62.1 105.3C60.9 111.3 59.6 117 58.4 122C56.1 131.5 54.2 139.7 54.2 146.5C54.3 146.6 54.1 146.8 53.8 146.8Z" fill="#12006C"/>
<path fill-rule="evenodd" clip-rule="evenodd" d="M41.5 94.1001C41.5 94.1001 28.9 94.9001 23.4 97.9001C21.2 105.3 18.7 114.7 16.9 124.6C17.9 125.7 18.9 126.8 20 127.9C27.4 135.2 36 140.6 45.1 143.9C43.3 119.3 41.5 94.1001 41.5 94.1001Z" fill="#FF75CA"/>
<path fill-rule="evenodd" clip-rule="evenodd" d="M82.8 93.6001C82.8 93.6001 106.4 102.4 114.9 107.3C114.9 107.3 110.3 119.5 108.8 134.5C97.7 142.7 84.7 147.1 71.5 147.7C76.6 123.1 82.8 93.6001 82.8 93.6001Z" fill="#FF75CA"/>
<path fill-rule="evenodd" clip-rule="evenodd" d="M82.8 93.6001C82.8 93.6001 94.9 98.1001 105 102.5C95.7 108.7 86.3 111.8 78.8 112.9C80.7 101.6 82.8 93.6001 82.8 93.6001Z" fill="#E33BA3"/>
<path fill-rule="evenodd" clip-rule="evenodd" d="M34.3 97.3C31.1 94.7 33.1 89.9 37.8 85.8C26.2 76.1 20.8 62.8 30 44C37 -20.8 114.3 -9.99998 103.3 54.2C107.1 74.8 106.7 82.8 92.9 88.9C95.6 93.3 96.3 99.8 91.7 101.8C67.1 112 45.4 106.5 34.3 97.3Z" fill="#FF75CA"/>
<path fill-rule="evenodd" clip-rule="evenodd" d="M37.3 63.5C39.3 97.4 76.3 103.2 88.6 71.5C94.5 54.1 91.5 20.9 70.8 17.2C50 14.4 37.1 45.2 37.3 63.5Z" fill="#E33BA3"/>
<path fill-rule="evenodd" clip-rule="evenodd" d="M36.5 60.2999C38.7 94.2999 76.7 100.2 89.1 68.4999C95.1 51.0999 91.9 17.8999 70.6 14.0999C49.3 11.2999 36.1 41.9999 36.5 60.2999Z" fill="#59B2FF"/>
<path fill-rule="evenodd" clip-rule="evenodd" d="M91.6 46.2C91.5 45 91.4 43.8 91.2 42.5C88.9 30 82.4 18.8 70.2 16.7C58 15 48.4 23.7 42.4 34.9C41.9 36 41.4 37.1 40.9 38.3C47.3 27.8 57 20.1 69.5 21.8C81.8 23.9 88.8 34.3 91.6 46.2Z" fill="#2C81FE"/>
<path fill-rule="evenodd" clip-rule="evenodd" d="M64.1 55.4C64.1 55.5 64.1 55.5 64 55.6L63.8 55.9C62.9 57.5 60.2 62.6 60.2 63.1C60.2 63.5 61.7 64.6 62.1 64.9C62.8 65.4 64.6 64.7 65.2 64.4C67.9 63.3 63.5 66.9 62.4 66.6C61.5 66.4 60.9 66 60.3 65.4C59.7 64.9 58.9 64 58.9 63.2C58.8 62.4 61.6 57 62.6 55.3C63.5 53.6 63.5 52.5 63.3 51.8C63.1 51.4 63.1 50.7 63.7 51.5C64.3 52.3 64.9 53.6 64.1 55.4Z" fill="#2C81FE"/>
<path fill-rule="evenodd" clip-rule="evenodd" d="M58.5 37.7C58.4 38.1 58.3 38.3 58.2 38.4C58.2 37.8 57.8 37.3 57.2 37C53.2 34.9 46.4 35.6 43.2 37.6V37.7C43.2 37.7 43.2 37.8 43.3 37.8C45.6 37.2 47.9 37.2 49.9 37.5C53.1 38 55.6 39.2 56.5 39.8C56.8 40 57.2 40.2 57.5 40.3C57.9 40.3 58.3 40.2 58.7 39.7C58.8 39.5 58.9 39.4 59 39.2C59.2 38.8 59.2 38.5 59.1 38.2C59.1 37.9 59 37.7 58.9 37.7C58.6 37.4 58.5 37.7 58.5 37.7Z" fill="#12006C"/>
<path fill-rule="evenodd" clip-rule="evenodd" d="M55.1 53.3L55.3 52.5C55.6 45.8 46.1 40.6 40.7 49.2C39.5 51.2 40.8 51.9 42.1 52.6C42.1 52.6 43.8 48.7 47 47.7C50.2 46.6 53.3 48 55.1 53.3Z" fill="#2C81FE"/>
<path fill-rule="evenodd" clip-rule="evenodd" d="M55.1 52C54.1 49.2 52.7 47.6 51.2 46.8C50.1 46.3 49 46.1 48 46.3C46.9 46.5 45.9 47 45 47.7C43.4 49 42.2 50.9 42 53C42 53.1 42.1 53.2 42.2 53.2C42.3 53.2 42.4 53.1 42.4 53C42.7 51.7 43.6 50.4 44.8 49.5C45.7 48.8 46.8 48.4 47.9 48.2C49 48.1 50.2 48.3 51.2 48.9C52.5 49.6 53.6 51 54.5 53.1C54.7 53.6 54.9 54.1 54.9 54.7C55 55.2 55 55.7 55 56.2C55 56.3 55.1 56.4 55.2 56.4C55.3 56.4 55.4 56.3 55.4 56.2C55.5 55.5 55.6 54.8 55.5 54.1C55.5 53.4 55.4 52.7 55.1 52Z" fill="#12006C"/>
<path fill-rule="evenodd" clip-rule="evenodd" d="M53.9 50.7999C53.7 50.3999 53.6 49.9999 53.4 49.6999C52.6 48.8999 51.5 48.1999 50.2 47.9999C47.3 47.4999 44.6 49.2999 44.2 51.9999C43.5 56.3999 49.1 58.4999 52.4 56.9999C53 56.5999 53.6 56.0999 54 55.5999C54.6 54.1999 54.5 52.2999 53.9 50.7999Z" fill="#12006C"/>
<path fill-rule="evenodd" clip-rule="evenodd" d="M43.7 50.3001C43.9 50.2001 43.9 49.9001 43.8 49.7001C43.7 49.5001 43.4 49.5001 43.2 49.6001C43.2 49.6001 42.7 49.9001 42.2 49.6001C42 49.5001 41.7 49.5001 41.6 49.7001C41.5 49.9001 41.5 50.2001 41.7 50.3001C42.7 51.0001 43.7 50.3001 43.7 50.3001Z" fill="#12006C"/>
<path fill-rule="evenodd" clip-rule="evenodd" d="M43.1 51.1C43.3 50.9 43.4 50.7 43.2 50.6C43 50.4 42.7 50.5 42.6 50.7C42.6 50.7 42.2 51.2 41.7 51C41.5 50.9 41.2 51.1 41.1 51.3C41 51.5 41.2 51.8 41.4 51.9C42.1 52.1 42.6 51.9 42.9 51.6C43.1 51.3 43.1 51.1 43.1 51.1Z" fill="#12006C"/>
<path d="M41.5 55.2001C41.3 55.2001 41.1 55.0001 41.1 54.8001C41.1 54.6001 41.2 54.4001 41.5 54.3001C41.8 54.3001 42 54.1001 42 54.1001C42.2 54.0001 42.5 54.0001 42.6 54.2001C42.7 54.4001 42.7 54.6001 42.5 54.8001C42.4 54.9001 42.1 55.2001 41.5 55.2001C41.6 55.2001 41.6 55.2001 41.5 55.2001Z" fill="#2C81FE"/>
<path d="M42.7 56.4001C42.5 56.4001 42.4 56.3001 42.3 56.2001C42.2 56.0001 42.3 55.7001 42.5 55.6001C42.7 55.5001 42.8 55.4001 42.8 55.4001C42.9 55.2001 43.2 55.2001 43.4 55.3001C43.6 55.4001 43.7 55.7001 43.5 55.9001C43.5 55.9001 43.3 56.2001 42.9 56.4001C42.8 56.4001 42.7 56.4001 42.7 56.4001Z" fill="#2C81FE"/>
<path fill-rule="evenodd" clip-rule="evenodd" d="M47.3 50.1C47.8 50.1 48.2 50.6 48.2 51.1C48.2 51.6 47.7 52 47.2 52C46.7 52 46.3 51.5 46.3 51C46.4 50.4 46.8 50 47.3 50.1Z" fill="white"/>
<path fill-rule="evenodd" clip-rule="evenodd" d="M69.9 19.1999C82.4 21.3999 89.1 32.6999 91.6 45.1999C90.4 30.6999 84.2 16.4999 70.7 14.0999C57.1 12.3999 46.9 23.9999 41.3 37.3999C47.4 26.1999 57.2 17.4999 69.9 19.1999Z" fill="white"/>
<path d="M78.8 101.1C58.2 101.1 42.1 89.1 41.9 89C41.9 89 41.8 89 41.8 88.9C39 87.3 37.4 86.1 37.4 86C37.2 85.8 37.2 85.6 37.3 85.4C37.5 85.2 37.7 85.2 37.9 85.3C38.1 85.5 59.9 103.1 92.7 88.4C92.9 88.3 93.2 88.4 93.3 88.6C93.4 88.8 93.3 89.1 93.1 89.2C73.4 98 57.6 95.3 47.9 91.6C56.7 96.5 75.1 104.2 94.6 97.5C94.8 97.4 95.1 97.5 95.1 97.8C95.2 98 95.1 98.3 94.8 98.3C89.4 100.4 84 101.1 78.8 101.1ZM74.4 89.2C74.2 89.2 74.1 89.1 74 88.9C73.9 88.7 74 88.4 74.2 88.3C96.1 78.9 102.3 56.6 102.9 54.1C103 53.9 103.2 53.7 103.4 53.8C103.6 53.9 103.8 54.1 103.7 54.3C103.1 56.9 96.8 79.5 74.5 89.1C74.5 89.2 74.4 89.2 74.4 89.2ZM32.3 58.8C32.1 58.8 32 58.7 31.9 58.5C28.7 51.4 29.5 44.2 29.6 43.9C29.6 43.7 29.8 43.5 30.1 43.5C30.3 43.5 30.5 43.7 30.5 44C30.5 44.1 29.7 51.2 32.8 58.2C32.9 58.4 32.8 58.7 32.6 58.8C32.4 58.8 32.4 58.8 32.3 58.8Z" fill="#E33BA3"/>
<path fill-rule="evenodd" clip-rule="evenodd" d="M31.2 55.4C29.4 49.4 30 44 30 44C28.9 46.3 28 48.4 27.3 50.5C28.6 50.7 30.1 51.8 31.2 55.4Z" fill="#E33BA3"/>
<path fill-rule="evenodd" clip-rule="evenodd" d="M103.4 54.2C102.8 56.6 101.3 61.1 98.5 66.3C101 62.5 103.1 61 104.5 60.5C104.1 58.6 103.8 56.5 103.4 54.2Z" fill="#E33BA3"/>
<path fill-rule="evenodd" clip-rule="evenodd" d="M66.6 94.9C55.4 94.8 47.1 91.4 42.3 88.7C42.3 88.7 51.3 95.6 64.6 98.9C64.6 98.9 56.2 95 66.6 94.9Z" fill="#E33BA3"/>
<path d="M79.9 69.1001C79.1 69.1001 78.2 69.0001 77.4 68.8001C73.3 67.7001 69.8 64.4001 68.1 60.0001C66.9 56.9001 66.8 53.6001 67.7 50.8001C65.2 49.4001 63 49.7001 62.1 49.9001C62.1 52.9001 61 56.0001 58.9 58.6001C55.9 62.3001 51.6 64.4001 47.4 64.2001C43.3 64.0001 39.4 61.1001 37.2 56.6001C35 52.1001 35 47.3001 37.3 44.0001C39.6 40.6001 46.4 39.9001 51.7 40.8001C57.1 41.7001 60.9 43.9001 61.7 46.8001C61.9 47.4001 62 48.0001 62.1 48.6001C63.2 48.4001 65.5 48.2001 68.2 49.6001C68.5 49.0001 68.8 48.4001 69.1 47.9001C70.7 45.4001 75 44.4001 80.4 45.2001C85.7 46.0001 92 48.7001 93.2 52.6001C94.3 56.4001 92.9 61.0001 89.5 64.6001C86.7 67.6001 83.2 69.1001 79.9 69.1001ZM76.8 46.3001C73.5 46.3001 71.1 47.1001 70 48.7001C68 51.7001 67.7 55.8001 69.2 59.6001C70.8 63.7001 73.9 66.7001 77.7 67.7001C81.3 68.6001 85.4 67.2001 88.6 63.9001C91.7 60.7001 93 56.5001 92 53.1001C91 49.8001 85.3 47.3001 80.2 46.5001C79 46.3001 77.9 46.3001 76.8 46.3001ZM47.4 62.9001C51.3 63.1001 55.2 61.2001 57.9 57.8001C60.5 54.6001 61.4 50.6001 60.4 47.1001C59.7 44.7001 56.3 42.8001 51.4 42.0001C46.3 41.2001 40.1 41.8001 38.1 44.7001C36.1 47.6001 36.1 52.0001 38.1 56.0001C40.2 60.1001 43.8 62.7001 47.4 62.9001Z" fill="white"/>
<path fill-rule="evenodd" clip-rule="evenodd" d="M74.5 47.6C74.4 48.1 74.5 48.4 74.6 48.5C74.8 47.9 75.3 47.5 76 47.3C80.7 46.4 87.1 49.3 89.6 52.5V52.6C89.6 52.6 89.5 52.7 89.5 52.6C87.5 51.2 85.2 50.4 83.2 50.1C79.9 49.6 77 50.1 75.9 50.4C75.5 50.5 75.1 50.6 74.7 50.6C74.3 50.5 73.9 50.2 73.8 49.6C73.7 49.4 73.7 49.2 73.7 49C73.7 48.5 73.8 48.2 73.9 47.9C74 47.6 74.2 47.4 74.3 47.4C74.5 47.3 74.5 47.6 74.5 47.6Z" fill="#12006C"/>
<path d="M87.2 62.9C87.1 62.9 87.1 62.9 87 62.9C86.5 62.6 86.3 62.3 86.3 62.3C86.2 62.1 86.2 61.8 86.4 61.7C86.6 61.6 86.9 61.6 87 61.8C87 61.8 87.1 62 87.4 62.1C87.6 62.2 87.7 62.5 87.6 62.7C87.5 62.8 87.3 62.9 87.2 62.9Z" fill="#2C81FE"/>
<path d="M85.6 63.7001C85.5 63.7001 85.4 63.7 85.3 63.5C85 63.1 84.9 62.8 84.9 62.8C84.9 62.6 85 62.3 85.2 62.3C85.4 62.3 85.7 62.4 85.7 62.6C85.7 62.6 85.7 62.8001 85.9 62.9001C86.1 63.1001 86 63.4 85.9 63.5C85.8 63.7 85.7 63.7001 85.6 63.7001Z" fill="#2C81FE"/>
<path fill-rule="evenodd" clip-rule="evenodd" d="M72.6 57.2999L70.8 58.4999C72.1 49.6999 89.8 50.1999 86.3 58.8999C86.3 58.8999 85 60.2999 83.8 59.9999C82.5 59.6999 73.9 56.6999 73.9 56.6999L72.6 57.2999Z" fill="#2C81FE"/>
<path fill-rule="evenodd" clip-rule="evenodd" d="M78.9 59.7001C76.1 58.3001 73 57.1001 70.5 58.7001H70.4C70.4 58.7001 70.3 58.6001 70.4 58.6001C72.4 54.8001 77.7 55.7001 81.3 57.6001C82.2 58.1001 82.9 58.5001 83.6 58.9001L84 59.1001C85.9 60.2001 86.2 59.8001 86.2 59.8001H86.3C86.3 59.8001 86.4 59.9001 86.3 59.9001C86.2 60.0001 86 60.5001 85.2 60.9001C84.7 61.1001 84.1 61.3001 83.3 61.3001C82.1 61.3001 80.5 60.5001 78.9 59.7001Z" fill="#12006C"/>
<path fill-rule="evenodd" clip-rule="evenodd" d="M83.8 59.8C83.6 59.8 83.3 59.6 83.3 59.3C83.3 59 83.5 58.8 83.8 58.8C83.8 58.8 84.4 58.8 84.6 58.1C84.7 57.8 84.9 57.7 85.2 57.8C85.4 57.9 85.6 58.1 85.5 58.4C85.1 59.8 83.8 59.8 83.8 59.8Z" fill="#12006C"/>
<path fill-rule="evenodd" clip-rule="evenodd" d="M84.8 60.0999C84.6 59.9999 84.3 59.9999 84.4 59.6999C84.5 59.3999 84.7 59.2999 85 59.2999C85 59.2999 85.6 59.4999 86 58.8999C86.1 58.6999 86.4 58.5999 86.6 58.7999C86.8 58.8999 86.9 59.2999 86.7 59.4999C86.3 60.1999 85.7 60.2999 85.2 60.2999C84.9 60.2999 84.8 60.0999 84.8 60.0999Z" fill="#12006C"/>
<path fill-rule="evenodd" clip-rule="evenodd" d="M63 74.2999C62.2 74.0999 62.4 73.3999 63.2 73.5999C63.2 73.5999 65.2 73.7999 67.2 73.3999C67.5 73.3999 67.8 73.5999 67.8 73.8999C67.8 74.1999 67.6 74.4999 67.3 74.4999C64.9 74.6999 63 74.2999 63 74.2999Z" fill="#2C81FE"/>
<path fill-rule="evenodd" clip-rule="evenodd" d="M57.3 70.2C56.5 69.9 56.7 69.1 57.5 69.4C57.5 69.4 66.3 72.8 70.4 68.6C70.6 68.4 71 68.3 71.3 68.6C71.5 68.8 71.6 69.2 71.3 69.5C66.6 74.3 57.3 70.2 57.3 70.2Z" fill="#2C81FE"/>
<path fill-rule="evenodd" clip-rule="evenodd" d="M69.4 68.9C69.1 68.9 68.8 68.5 68.9 68.2C68.9 67.9 69.3 67.6 69.6 67.7C69.6 67.7 72.1 68 71.7 70.3C71.6 70.6 71.3 70.9 71 70.8C70.7 70.8 70.4 70.4 70.5 70.1C70.7 69.1 69.4 68.9 69.4 68.9Z" fill="#2C81FE"/>
<path d="M85 146.2H84.9C84.7 146.1 84.6 145.9 84.6 145.7C91.8 125.2 99.8 102.8 99.8 102.8C99.9 102.6 100.1 102.5 100.3 102.5C100.5 102.6 100.6 102.8 100.6 103C100.6 103 92.7 125.5 85.4 145.9C85.4 146.1 85.2 146.2 85 146.2ZM36.7 140.5C36.5 140.5 36.3 140.3 36.3 140.1C34.3 126.4 32.4 113.6 31.3 105.7L30 97.5C30 97.3 30.1 97 30.4 97C30.6 97 30.9 97.1 30.9 97.4L32.1 105.6C33.3 113.5 35.2 126.4 37.1 140C37.1 140.3 36.9 140.5 36.7 140.5ZM16.9 125C16.6 125 16.4 124.7 16.5 124.5C16.7 123.6 16.8 122.7 17 121.9C17 121.7 17.3 121.5 17.5 121.6C17.7 121.6 17.9 121.9 17.8 122.1C17.6 123 17.5 123.8 17.3 124.7C17.3 124.8 17.1 125 16.9 125Z" fill="#E33BA3"/>
<path d="M34.3 97.7C34.2 97.7 34.1 97.7 34 97.6C32.9 96.7 32.3 95.5 32.3 94.1C32.3 91.6 34 88.6 37.1 85.7C24 74.6 21.4 60.6 29.6 43.9C33 12.9 52.2 -0.49996 69.8 4.00227e-05C70 4.00227e-05 70.2 0.20004 70.2 0.40004C70.2 0.60004 70 0.90004 69.8 0.80004C52.6 0.30004 33.8 13.5 30.5 44V44.1C22.4 60.5 25 74.4 38.1 85.3C38.2 85.4 38.3 85.5 38.3 85.6C38.3 85.7 38.2 85.8 38.2 85.9C35.1 88.7 33.3 91.6 33.3 93.9C33.3 95.1 33.8 96 34.7 96.8C34.9 96.9 34.9 97.2 34.8 97.4C34.5 97.6 34.4 97.7 34.3 97.7Z" fill="white"/>
</g>
<defs>
<clipPath id="clip0_581_1050">
<rect width="136.7" height="147.9" fill="white"/>
</clipPath>
</defs>
</svg>
