<svg width="427" height="418" viewBox="0 0 427 418" fill="none" xmlns="http://www.w3.org/2000/svg">
<g clip-path="url(#clip0_581_1142)">
<mask id="mask0_581_1142" style="mask-type:luminance" maskUnits="userSpaceOnUse" x="0" y="0" width="427" height="417">
<path d="M426.5 0.5H0.5V416.7H426.5V0.5Z" fill="white"/>
</mask>
<g mask="url(#mask0_581_1142)">
<path d="M217.7 384.9C117.4 384.9 35.8 303.3 35.8 203C35.8 102.7 117.4 21.1001 217.7 21.1001C318 21.1001 399.6 102.7 399.6 203C399.6 303.3 318 384.9 217.7 384.9ZM217.7 22.9001C118.4 22.9001 37.6 103.7 37.6 203C37.6 302.3 118.4 383.1 217.7 383.1C317 383.1 397.8 302.3 397.8 203C397.8 103.7 317 22.9001 217.7 22.9001Z" fill="#BFE1FF"/>
<path d="M213.5 389.6C313.464 389.6 394.5 308.564 394.5 208.6C394.5 108.636 313.464 27.6001 213.5 27.6001C113.536 27.6001 32.5 108.636 32.5 208.6C32.5 308.564 113.536 389.6 213.5 389.6Z" fill="#BFE1FF"/>
<path fill-rule="evenodd" clip-rule="evenodd" d="M99.5999 402.1H33.3999C32.2999 402.1 31.3999 403 31.3999 404.1C31.3999 405.2 32.2999 406.1 33.3999 406.1H99.5999C100.7 406.1 101.6 405.2 101.6 404.1C101.6 403 100.7 402.1 99.5999 402.1Z" fill="#59B2FF"/>
<path fill-rule="evenodd" clip-rule="evenodd" d="M24.7 402.1H2.5C1.4 402.1 0.5 403 0.5 404.1C0.5 405.2 1.4 406.1 2.5 406.1H24.7C25.8 406.1 26.7 405.2 26.7 404.1C26.8 403 25.9 402.1 24.7 402.1Z" fill="#59B2FF"/>
<path fill-rule="evenodd" clip-rule="evenodd" d="M12.8 391.6H9.5C8.4 391.6 7.5 392.5 7.5 393.6C7.5 394.7 8.4 395.6 9.5 395.6H12.8C13.9 395.6 14.8 394.7 14.8 393.6C14.9 392.5 13.9 391.6 12.8 391.6Z" fill="#BFE1FF"/>
<path fill-rule="evenodd" clip-rule="evenodd" d="M25.1999 391.6H21.8999C20.7999 391.6 19.8999 392.5 19.8999 393.6C19.8999 394.7 20.7999 395.6 21.8999 395.6H25.1999C26.2999 395.6 27.1999 394.7 27.1999 393.6C27.1999 392.5 26.2999 391.6 25.1999 391.6Z" fill="#BFE1FF"/>
<path fill-rule="evenodd" clip-rule="evenodd" d="M44.9 391.6H34.2C33.1 391.6 32.2 392.5 32.2 393.6C32.2 394.7 33.1 395.6 34.2 395.6H44.9C46 395.6 46.9 394.7 46.9 393.6C47 392.5 46 391.6 44.9 391.6Z" fill="#BFE1FF"/>
<path fill-rule="evenodd" clip-rule="evenodd" d="M72.1 391.6H54.3C53.2 391.6 52.3 392.5 52.3 393.6C52.3 394.7 53.2 395.6 54.3 395.6H72.1C73.2 395.6 74.1 394.7 74.1 393.6C74.1 392.5 73.2 391.6 72.1 391.6Z" fill="#BFE1FF"/>
<path fill-rule="evenodd" clip-rule="evenodd" d="M31.5 412.6H28.2C27.1 412.6 26.2 413.5 26.2 414.6C26.2 415.7 27.1 416.6 28.2 416.6H31.5C32.6 416.6 33.5 415.7 33.5 414.6C33.6 413.5 32.6 412.6 31.5 412.6Z" fill="#BFE1FF"/>
<path fill-rule="evenodd" clip-rule="evenodd" d="M43.9 412.6H40.5C39.4 412.6 38.5 413.5 38.5 414.6C38.5 415.7 39.4 416.6 40.5 416.6H43.8C44.9 416.6 45.8 415.7 45.8 414.6C45.9 413.5 45 412.6 43.9 412.6Z" fill="#BFE1FF"/>
<path fill-rule="evenodd" clip-rule="evenodd" d="M63.5999 412.6H52.8999C51.7999 412.6 50.8999 413.5 50.8999 414.6C50.8999 415.7 51.7999 416.6 52.8999 416.6H63.5999C64.6999 416.6 65.5999 415.7 65.5999 414.6C65.6999 413.5 64.6999 412.6 63.5999 412.6Z" fill="#BFE1FF"/>
<path fill-rule="evenodd" clip-rule="evenodd" d="M90.8 412.6H73C71.9 412.6 71 413.5 71 414.6C71 415.7 71.9 416.6 73 416.6H90.8C91.9 416.6 92.8 415.7 92.8 414.6C92.8 413.5 91.9 412.6 90.8 412.6Z" fill="#BFE1FF"/>
<path fill-rule="evenodd" clip-rule="evenodd" d="M415.9 99.5999V33.3999C415.9 32.2999 415 31.3999 413.9 31.3999C412.8 31.3999 411.9 32.2999 411.9 33.3999V99.5999C411.9 100.7 412.8 101.6 413.9 101.6C415 101.6 415.9 100.7 415.9 99.5999Z" fill="#59B2FF"/>
<path fill-rule="evenodd" clip-rule="evenodd" d="M415.9 24.7V2.5C415.9 1.4 415 0.5 413.9 0.5C412.8 0.5 411.9 1.4 411.9 2.5V24.7C411.9 25.8 412.8 26.7 413.9 26.7C415 26.8 415.9 25.9 415.9 24.7Z" fill="#59B2FF"/>
<path fill-rule="evenodd" clip-rule="evenodd" d="M426.5 12.8V9.5C426.5 8.4 425.6 7.5 424.5 7.5C423.4 7.5 422.5 8.4 422.5 9.5V12.8C422.5 13.9 423.4 14.8 424.5 14.8C425.5 14.9 426.5 13.9 426.5 12.8Z" fill="#BFE1FF"/>
<path fill-rule="evenodd" clip-rule="evenodd" d="M426.5 25.1999V21.8999C426.5 20.7999 425.6 19.8999 424.5 19.8999C423.4 19.8999 422.5 20.7999 422.5 21.8999V25.1999C422.5 26.2999 423.4 27.1999 424.5 27.1999C425.5 27.1999 426.5 26.2999 426.5 25.1999Z" fill="#BFE1FF"/>
<path fill-rule="evenodd" clip-rule="evenodd" d="M426.5 44.9002V34.2002C426.5 33.1002 425.6 32.2002 424.5 32.2002C423.4 32.2002 422.5 33.1002 422.5 34.2002V44.9002C422.5 46.0002 423.4 46.9002 424.5 46.9002C425.5 47.0002 426.5 46.0002 426.5 44.9002Z" fill="#BFE1FF"/>
<path fill-rule="evenodd" clip-rule="evenodd" d="M426.5 72.1V54.3C426.5 53.2 425.6 52.3 424.5 52.3C423.4 52.3 422.5 53.2 422.5 54.3V72.1C422.5 73.2 423.4 74.1 424.5 74.1C425.5 74.1 426.5 73.2 426.5 72.1Z" fill="#BFE1FF"/>
<path fill-rule="evenodd" clip-rule="evenodd" d="M405.4 31.5002V28.2002C405.4 27.1002 404.5 26.2002 403.4 26.2002C402.3 26.2002 401.4 27.1002 401.4 28.2002V31.5002C401.4 32.6002 402.3 33.5002 403.4 33.5002C404.5 33.6002 405.4 32.6002 405.4 31.5002Z" fill="#BFE1FF"/>
<path fill-rule="evenodd" clip-rule="evenodd" d="M405.4 43.9V40.5C405.4 39.4 404.5 38.5 403.4 38.5C402.3 38.5 401.4 39.4 401.4 40.5V43.8C401.4 44.9 402.3 45.8 403.4 45.8C404.5 45.9 405.4 45 405.4 43.9Z" fill="#BFE1FF"/>
<path fill-rule="evenodd" clip-rule="evenodd" d="M405.4 63.5999V52.8999C405.4 51.7999 404.5 50.8999 403.4 50.8999C402.3 50.8999 401.4 51.7999 401.4 52.8999V63.5999C401.4 64.6999 402.3 65.5999 403.4 65.5999C404.5 65.6999 405.4 64.6999 405.4 63.5999Z" fill="#BFE1FF"/>
<path fill-rule="evenodd" clip-rule="evenodd" d="M405.4 90.8V73C405.4 71.9 404.5 71 403.4 71C402.3 71 401.4 71.9 401.4 73V90.8C401.4 91.9 402.3 92.8 403.4 92.8C404.5 92.8 405.4 91.9 405.4 90.8Z" fill="#BFE1FF"/>
<path fill-rule="evenodd" clip-rule="evenodd" d="M136.7 17.8V14.5C136.7 13.4 135.8 12.5 134.7 12.5C133.6 12.5 132.7 13.4 132.7 14.5V17.8C132.7 18.9 133.6 19.8 134.7 19.8C135.8 19.9 136.7 19 136.7 17.8Z" fill="#BFE1FF"/>
<path fill-rule="evenodd" clip-rule="evenodd" d="M122.8 17.8V14.5C122.8 13.4 121.9 12.5 120.8 12.5C119.7 12.5 118.8 13.4 118.8 14.5V17.8C118.8 18.9 119.7 19.8 120.8 19.8C121.9 19.9 122.8 19 122.8 17.8Z" fill="#FEDB39"/>
<path fill-rule="evenodd" clip-rule="evenodd" d="M108.9 17.8V14.5C108.9 13.4 108 12.5 106.9 12.5C105.8 12.5 104.9 13.4 104.9 14.5V17.8C104.9 18.9 105.8 19.8 106.9 19.8C108 19.9 108.9 19 108.9 17.8Z" fill="#BFE1FF"/>
<path fill-rule="evenodd" clip-rule="evenodd" d="M95 17.8V14.5C95 13.4 94.1 12.5 93 12.5C91.9 12.5 91 13.4 91 14.5V17.8C91 18.9 91.9 19.8 93 19.8C94.1 19.9 95 19 95 17.8Z" fill="#BFE1FF"/>
<path fill-rule="evenodd" clip-rule="evenodd" d="M81.1001 17.8V14.5C81.1001 13.4 80.2001 12.5 79.1001 12.5C78.0001 12.5 77.1001 13.4 77.1001 14.5V17.8C77.1001 18.9 78.0001 19.8 79.1001 19.8C80.2001 19.9 81.1001 19 81.1001 17.8Z" fill="#BFE1FF"/>
<path fill-rule="evenodd" clip-rule="evenodd" d="M398.4 331.9H395.1C394 331.9 393.1 332.8 393.1 333.9C393.1 335 394 335.9 395.1 335.9H398.4C399.5 335.9 400.4 335 400.4 333.9C400.4 332.8 399.5 331.9 398.4 331.9Z" fill="#BFE1FF"/>
<path fill-rule="evenodd" clip-rule="evenodd" d="M398.4 345.8H395.1C394 345.8 393.1 346.7 393.1 347.8C393.1 348.9 394 349.8 395.1 349.8H398.4C399.5 349.8 400.4 348.9 400.4 347.8C400.4 346.7 399.5 345.8 398.4 345.8Z" fill="#FEDB39"/>
<path fill-rule="evenodd" clip-rule="evenodd" d="M398.4 359.7H395.1C394 359.7 393.1 360.6 393.1 361.7C393.1 362.8 394 363.7 395.1 363.7H398.4C399.5 363.7 400.4 362.8 400.4 361.7C400.4 360.6 399.5 359.7 398.4 359.7Z" fill="#BFE1FF"/>
<path fill-rule="evenodd" clip-rule="evenodd" d="M398.4 373.6H395.1C394 373.6 393.1 374.5 393.1 375.6C393.1 376.7 394 377.6 395.1 377.6H398.4C399.5 377.6 400.4 376.7 400.4 375.6C400.4 374.5 399.5 373.6 398.4 373.6Z" fill="#BFE1FF"/>
<path fill-rule="evenodd" clip-rule="evenodd" d="M398.4 387.5H395.1C394 387.5 393.1 388.4 393.1 389.5C393.1 390.6 394 391.5 395.1 391.5H398.4C399.5 391.5 400.4 390.6 400.4 389.5C400.4 388.4 399.5 387.5 398.4 387.5Z" fill="#BFE1FF"/>
<path fill-rule="evenodd" clip-rule="evenodd" d="M305.2 268.5C306.3 268.5 307.3 268.7 308.2 269C308.6 268.5 309.2 268.2 309.9 268.2C310.2 268.2 310.5 268.3 310.8 268.4C311 266.4 312.6 264.8 314.7 264.8C315.6 264.8 316.4 265.1 317.1 265.6C317.2 265.4 317.4 265.2 317.6 265.1C317.2 264.4 317 263.7 317 262.9C317 261.6 317.5 260.5 318.3 259.7C319.1 258.9 320.3 258.4 321.5 258.4C322.2 258 323 257.8 323.8 257.8C324.3 257.8 324.8 257.9 325.3 258C325.5 257.5 325.9 257.2 326.3 256.9C326.2 256.3 326.1 255.7 326.1 255.1C326.1 252.8 327 250.7 328.5 249.2C330 247.7 332.1 246.8 334.4 246.8C335.1 246.8 335.8 246.9 336.5 247.1C341.4 247.2 345.4 251.2 345.4 256.1C345.4 256.2 345.4 256.2 345.4 256.3C345.8 256.2 346.3 256.1 346.8 256.1C347.7 256.1 348.6 256.3 349.4 256.7C350.7 254.9 352.8 253.7 355.2 253.7C359.2 253.7 362.4 256.9 362.4 260.9C362.4 261.7 362.3 262.4 362 263.1C362.1 263.1 362.1 263.1 362.2 263.1C364.2 263.1 365.8 264.7 365.8 266.7C365.8 266.9 365.8 267.2 365.7 267.4C365.7 267.4 365.7 267.4 365.8 267.4C366.9 267.4 367.8 268.3 367.9 269.4C368.2 269.3 368.5 269.3 368.9 269.3C370.2 269.3 371.4 269.7 372.3 270.6C374.6 272.8 372.1 273.4 369.7 273.4H366.5H364H312.9H308.9H302.5C300 273.4 296.3 273.8 298.9 271.2C300.5 269.5 302.7 268.5 305.2 268.5ZM327.2 256.7C327.3 256.7 327.5 256.7 327.6 256.7H327.7C327.7 256.5 327.7 256.3 327.7 256.2C327.7 252.2 330.3 248.9 333.8 247.6C332.1 247.8 330.5 248.6 329.3 249.8C327.9 251.2 327.1 253.1 327.1 255.2C327 255.7 327.1 256.2 327.2 256.7ZM318.3 264.8C318.5 264.7 318.8 264.7 319 264.7C319.1 264.7 319.3 264.7 319.4 264.7C319.1 264.1 319 263.4 319 262.7C319 261.3 319.6 260 320.5 259.1C319.9 259.3 319.4 259.6 318.9 260.1C318.2 260.8 317.8 261.8 317.8 262.9C317.7 263.6 317.9 264.3 318.3 264.8Z" fill="white"/>
<path fill-rule="evenodd" clip-rule="evenodd" d="M261 86.5999C262.1 86.5999 263.1 86.7999 264 87.0999C264.4 86.5999 265 86.2999 265.7 86.2999C266 86.2999 266.3 86.3999 266.6 86.4999C266.8 84.4999 268.4 82.8999 270.5 82.8999C271.4 82.8999 272.2 83.1999 272.9 83.6999C273 83.4999 273.2 83.2999 273.4 83.1999C273 82.4999 272.8 81.7999 272.8 80.9999C272.8 79.6999 273.3 78.5999 274.1 77.7999C274.9 76.9999 276.1 76.4999 277.3 76.4999C278 76.0999 278.8 75.8999 279.6 75.8999C280.1 75.8999 280.6 75.9999 281.1 76.0999C281.3 75.5999 281.7 75.2999 282.1 74.9999C282 74.3999 281.9 73.7999 281.9 73.1999C281.9 70.8999 282.8 68.7999 284.3 67.2999C285.8 65.7999 287.9 64.8999 290.2 64.8999C290.9 64.8999 291.6 64.9999 292.3 65.1999C297.2 65.2999 301.2 69.2999 301.2 74.1999C301.2 74.2999 301.2 74.2999 301.2 74.3999C301.6 74.2999 302.1 74.1999 302.6 74.1999C303.5 74.1999 304.4 74.3999 305.2 74.7999C306.5 72.9999 308.6 71.7999 311 71.7999C315 71.7999 318.2 74.9999 318.2 78.9999C318.2 79.7999 318.1 80.4999 317.8 81.1999C317.9 81.1999 317.9 81.1999 318 81.1999C320 81.1999 321.6 82.7999 321.6 84.7999C321.6 84.9999 321.6 85.2999 321.5 85.4999C321.5 85.4999 321.5 85.4999 321.6 85.4999C322.7 85.4999 323.6 86.3999 323.7 87.4999C324 87.3999 324.3 87.3999 324.7 87.3999C326 87.3999 327.2 87.7999 328 88.6999C330.3 90.8999 327.8 91.4999 325.4 91.4999H322.2H319.7H268.6H264.6H258.1C255.6 91.4999 251.9 91.8999 254.5 89.2999C256.3 87.5999 258.5 86.5999 261 86.5999ZM282.9 74.7999C283 74.7999 283.2 74.7999 283.3 74.7999H283.4C283.4 74.5999 283.4 74.3999 283.4 74.2999C283.4 70.2999 286 66.9999 289.5 65.6999C287.8 65.8999 286.2 66.6999 285 67.8999C283.6 69.2999 282.8 71.1999 282.8 73.2999C282.8 73.6999 282.8 74.2999 282.9 74.7999ZM274 82.8999C274.2 82.7999 274.5 82.7999 274.7 82.7999C274.8 82.7999 275 82.7999 275.1 82.7999C274.8 82.1999 274.7 81.4999 274.7 80.7999C274.7 79.3999 275.3 78.0999 276.2 77.1999C275.6 77.3999 275.1 77.6999 274.6 78.1999C273.9 78.8999 273.5 79.8999 273.5 80.9999C273.5 81.6999 273.7 82.2999 274 82.8999Z" fill="white"/>
<path fill-rule="evenodd" clip-rule="evenodd" d="M195 215.3C195 215.3 180.4 217.3 171 230.9C161.6 244.5 130.4 288.1 130.4 288.1L196.2 289.2L195 215.3Z" fill="#12006C"/>
<path fill-rule="evenodd" clip-rule="evenodd" d="M233.3 179.9C233.3 179.9 232.5 183.7 231.9 187C231.2 190.3 231.3 200.4 231.3 200.4C230.8 203.1 230.3 209.9 226.3 209.7C219.5 209.5 230.5 233.1 239.6 235.6C250.1 238.5 272.1 226.4 284.1 219.3C285.6 218.4 284.1 214.2 285.4 213.6C285.4 213.6 279.6 211.4 279.1 206C278.5 200.6 280.6 181.2 280.6 181.2L233.3 179.9Z" fill="#59B2FF"/>
<path fill-rule="evenodd" clip-rule="evenodd" d="M233.3 179.9C233.3 179.9 232.5 183.7 231.9 187C231.2 190.3 231.3 200.4 231.3 200.4C231.1 201.6 230.9 203.5 230.4 205.3C234.7 209 239.4 213 241.9 214.4C245 216.2 249 217 252.9 217C256.8 217 260.7 216.2 263.9 214.4C267.1 212.6 274.1 206.6 279 202.2C279.2 194.5 280.6 181.4 280.6 181.4L233.3 179.9Z" fill="#2C81FE"/>
<path fill-rule="evenodd" clip-rule="evenodd" d="M285.3 213.7L323.1 226.7C323.1 226.7 291.1 275 306.8 316.4L308.6 350.2L301.4 366.9C275.4 381.4 245.4 389.7 213.5 389.7C200.9 389.7 188.6 388.4 176.7 386L178.1 371.2L174 318.9C166.8 287.3 172.2 268.4 195.1 215.6L226.3 210C227.8 229.1 258.4 231.4 285.3 213.7Z" fill="white"/>
<path fill-rule="evenodd" clip-rule="evenodd" d="M285.3 213.7L323.1 226.7C323.1 226.7 315.3 238.4 309.3 255.3C302.2 257.6 298.2 260.8 298.2 260.8C302.5 246.3 297 237.5 287.4 233C282.9 230.9 277.5 228.2 277.3 228C277.2 227.8 269.6 226.2 261.2 224.4C269.1 222.4 277.4 218.9 285.3 213.7ZM183.1 244.1C185.8 237.2 185.2 232.8 188.8 224.3C189.6 222.4 194.2 217.3 195.1 215.3L226.3 209.7C226.7 214.5 228.8 218.2 232.2 220.9C224.1 222.5 210.3 225.2 201.4 227.8C188.5 231.4 183.4 243.2 183.1 244.1Z" fill="#12006C"/>
<path fill-rule="evenodd" clip-rule="evenodd" d="M285.3 213.7L293.6 216.5C263.3 246.6 217.4 238.3 219.3 211L226.3 209.7C227.8 229.1 258.4 231.4 285.3 213.7Z" fill="#12006C"/>
<path fill-rule="evenodd" clip-rule="evenodd" d="M297.6 151.9C297.6 151.9 302.5 148 305.2 148.8C307.9 149.6 310.2 156.4 308.9 161.1C307.7 165.7 299.5 181.2 291.6 173.3C283.7 165.5 297.6 151.9 297.6 151.9Z" fill="#59B2FF"/>
<path fill-rule="evenodd" clip-rule="evenodd" d="M293.6 156.3C293.2 156.6 293 157.1 293.2 157.5C293.3 157.9 293.7 158 294 157.8C294 157.8 293.8 172.8 296.2 170.9C298.6 169 301.2 167.2 302.7 163.7C304.2 160.2 301.8 156.2 303 155.5C304.2 154.8 305.1 156.4 305.2 156.6C305.9 158 306 159.5 306 159.6C306 160 306.4 160.3 306.8 160.1C307.2 159.9 307.5 159.4 307.4 159C307.4 159 306.8 153.2 303 152.7C299.4 152.1 293.6 156.3 293.6 156.3Z" fill="#2C81FE"/>
<path fill-rule="evenodd" clip-rule="evenodd" d="M214.4 144.9C214.4 144.9 211.4 140.7 209.1 140.7C206.8 140.7 203.4 145.6 203.3 149.6C203.2 153.6 206.1 167.8 214.2 163.3C222.3 158.9 214.4 144.9 214.4 144.9Z" fill="#59B2FF"/>
<path fill-rule="evenodd" clip-rule="evenodd" d="M215.8 149.2C216 149.5 216.1 150 215.9 150.3C215.7 150.6 215.4 150.6 215.2 150.4C215.2 150.4 211.9 162.3 210.4 160.3C208.9 158.2 207.3 156.2 206.9 153.1C206.5 149.9 209.4 147.4 208.5 146.5C207.7 145.6 206.6 146.7 206.5 146.8C205.6 147.8 205.2 149 205.2 149C205.1 149.3 204.7 149.4 204.5 149.2C204.2 149 204.1 148.5 204.3 148.2C204.3 148.2 206.1 143.7 209.3 144.2C212.2 144.4 215.8 149.2 215.8 149.2Z" fill="#2C81FE"/>
<path fill-rule="evenodd" clip-rule="evenodd" d="M262.1 77C205.5 71.8 208.8 119.5 209.7 157.8C211.2 217.4 282 225 296.1 167.1C305.2 129.8 318.5 83.9 262.1 77Z" fill="#59B2FF"/>
<path fill-rule="evenodd" clip-rule="evenodd" d="M209.6 128.9C209.4 133.5 209.4 138.1 209.4 142.7C210 143 210.6 143.3 211.3 143.5C223 147.9 230.9 133.7 230.9 133.7L233.1 127.9C233.1 128 217.8 128.6 209.6 128.9ZM300.4 149.4C301.2 146 301.9 142.6 302.5 139.1C299 133.6 292.9 127.8 292.9 127.8L284.4 124.5C284.4 124.5 280 149.2 298 149.5C298.9 149.6 299.7 149.5 300.4 149.4Z" fill="#2C81FE"/>
<path fill-rule="evenodd" clip-rule="evenodd" d="M297.1 163.1C298.3 158.1 299.7 152.4 300.8 147.3C308.3 112.6 308.6 86.5999 261.7 80.8999C214.7 76.5999 209.4 102 209.4 137.5C209.4 142.8 209.5 148.6 209.7 153.8C209.7 153.8 215.8 148.8 215.8 137.7C215.8 137.7 227.5 139 224.7 119.4C221.9 99.7 246.8 101 259.4 102.3C272.1 103.7 296.6 107.7 289.7 126.3C282.8 144.9 294.5 146.1 294.5 146.1C292.2 156.9 297.1 163.1 297.1 163.1Z" fill="#12006C"/>
<path fill-rule="evenodd" clip-rule="evenodd" d="M284.4 124.3C284.4 124.3 280.7 126.6 278 132.9C275.3 139.3 271.2 145 263.1 144.2C255 143.3 252.5 134.9 252.5 134.9C252.5 134.9 242.2 148.7 230.9 133.8C230.9 133.8 224.9 141 214 139.4C177.5 134.1 214 59.6001 268.1 68.6001C288.9 72.1001 299.5 84.2001 301.3 91.6001C301.1 77.7001 313.4 81.0001 308.5 100.3C337.1 114.5 286.5 179 284.4 124.3Z" fill="#12006C"/>
<path fill-rule="evenodd" clip-rule="evenodd" d="M220.1 83.3999C218.6 91.7999 219.4 110.5 257.9 105L258.8 104.9C259.5 104.8 259.8 104.7 259.8 105C259.8 105.1 259.7 105.1 259.6 105.1C259.4 105.2 259 105.3 258.4 105.4L257.9 105.5C255.2 106.1 249.8 107.2 243.9 107.8C240.1 108.2 236.1 108.4 232.4 108.2C227.9 107.9 224.3 106.9 221.5 105.6C218.7 104.3 216.7 102.8 215.2 101.4C214.9 101.1 214.7 100.9 214.5 100.7C212 98.3999 210.8 97.2999 207.8 97.5999C211 92.6999 215.2 87.7999 220.1 83.3999ZM263.4 104.2C263.4 104.2 276.7 99.9999 283.7 103.7C283.8 103.7 283.8 103.8 283.8 103.9C283.8 104 283.7 104 283.6 104C283.6 104 280.7 102.9 278.6 104.4C276.8 105.7 275.3 105.3 273.4 104.8C272.9 104.7 272.5 104.6 272 104.4C270.6 104.1 269.2 103.9 267.7 104C266.3 104 264.9 104.2 263.6 104.6C263.5 104.6 263.4 104.6 263.4 104.5C263.3 104.3 263.4 104.2 263.4 104.2Z" fill="#2C81FE"/>
<path fill-rule="evenodd" clip-rule="evenodd" d="M244.6 154.3C244.6 154.4 244.5 154.5 244.5 154.6L244.2 155.1C242.8 157.4 238.3 164.9 238.3 165.7C238.3 166.3 240.5 168.1 241 168.5C242.1 169.3 244.8 168.3 245.7 168C249.9 166.5 243 171.6 241.4 171.1C240.1 170.7 239.3 170.1 238.3 169.1C237.5 168.3 236.4 166.9 236.3 165.7C236.2 164.5 240.9 156.7 242.4 154.1C243.9 151.6 243.9 149.9 243.6 148.9C243.4 148.2 243.4 147.2 244.3 148.5C245.1 149.6 245.9 151.6 244.6 154.3Z" fill="#2C81FE"/>
<path fill-rule="evenodd" clip-rule="evenodd" d="M260.2 139.4C260.3 140.1 260.5 140.5 260.6 140.6C260.7 139.6 261.3 139 262.4 138.5C269.2 135.9 280 138 285 141.7C285 141.7 285.1 141.8 285 141.8C285 141.9 284.9 141.9 284.8 141.9C281.2 140.5 277.5 140.1 274.2 140.3C269 140.5 264.7 142.1 263.3 142.9C262.8 143.2 262.2 143.5 261.5 143.5C260.9 143.5 260.2 143.2 259.7 142.4C259.5 142.1 259.4 141.8 259.3 141.6C259.1 141 259.1 140.4 259.2 140C259.3 139.6 259.5 139.3 259.6 139.2C260.1 139 260.2 139.4 260.2 139.4Z" fill="#12006C"/>
<path fill-rule="evenodd" clip-rule="evenodd" d="M237.6 136.9C237.4 137.5 237.1 137.8 237 137.9C237.2 137 236.8 136.2 236 135.5C231 131.6 221.7 131.1 216.8 133.5L216.7 133.6C216.7 133.7 216.7 133.7 216.8 133.7C220.1 133.2 223.2 133.7 225.8 134.6C230 136 233.2 138.4 234.2 139.4C234.6 139.8 235 140.2 235.5 140.3C236 140.5 236.6 140.3 237.2 139.7C237.4 139.5 237.6 139.2 237.7 139C238 138.5 238.1 137.9 238.1 137.5C238.1 137.1 238 136.8 238 136.7C237.8 136.6 237.6 136.9 237.6 136.9Z" fill="#12006C"/>
<path fill-rule="evenodd" clip-rule="evenodd" d="M261.1 152.3C263.9 148.7 266.9 146.9 269.6 146.6C271.5 146.3 273.2 146.7 274.7 147.5C276.2 148.3 277.6 149.5 278.6 151C280.5 153.7 281.4 157.1 280.6 160.2C280.6 160.3 280.5 160.3 280.4 160.3C280.3 160.3 280.3 160.2 280.3 160.1C280.5 157.9 279.7 155.6 278.3 153.6C277.2 152.1 275.7 150.9 274 150.1C272.3 149.3 270.4 149 268.3 149.4C265.9 149.9 263.5 151.3 261.1 154.1C260.5 154.8 260 155.5 259.6 156.3C259.2 157 258.9 157.8 258.7 158.6C258.7 158.7 258.6 158.7 258.5 158.7C258.4 158.7 258.4 158.6 258.4 158.5C258.5 157.4 258.8 156.3 259.3 155.3C259.7 154.2 260.3 153.2 261.1 152.3Z" fill="#12006C"/>
<path fill-rule="evenodd" clip-rule="evenodd" d="M263 150.9C263.5 150.4 263.9 149.9 264.4 149.5C266.1 148.6 268.1 148.3 270.2 148.7C274.9 149.5 278.2 153.5 277.6 157.7C276.5 164.6 266.8 164.9 262.4 160.9C261.6 160 261 159 260.7 158C260.1 155.6 261.2 152.9 263 150.9Z" fill="#12006C"/>
<path d="M280.5 163.7C280.4 163.7 280.4 163.7 280.3 163.7C279.6 163.4 279.2 162.9 279.2 162.9C279.1 162.7 279.1 162.4 279.3 162.3C279.5 162.2 279.8 162.2 279.9 162.4C279.9 162.4 280.1 162.7 280.6 162.9C280.8 163 280.9 163.3 280.8 163.5C280.8 163.6 280.7 163.7 280.5 163.7Z" fill="#BFE1FF"/>
<path d="M278.2 164.9C278.1 164.9 278 164.9 277.9 164.8C277.4 164.3 277.3 163.9 277.3 163.8C277.2 163.6 277.4 163.3 277.6 163.3C277.8 163.2 278.1 163.4 278.1 163.6C278.1 163.6 278.2 163.9 278.5 164.2C278.7 164.4 278.7 164.7 278.5 164.8C278.4 164.8 278.3 164.9 278.2 164.9Z" fill="#BFE1FF"/>
<path fill-rule="evenodd" clip-rule="evenodd" d="M266.6 152.2C267.4 152.3 268 153 268 153.8C267.9 154.6 267.2 155.3 266.4 155.2C265.6 155.1 265 154.4 265 153.6C265.1 152.8 265.8 152.2 266.6 152.2Z" fill="white"/>
<path fill-rule="evenodd" clip-rule="evenodd" d="M229.6 140.7C231.8 141.9 233.9 144.3 235.3 148.5C235.7 149.6 235.9 150.7 236 151.8C236.1 152.9 236 154 235.8 155C235.8 155.1 235.7 155.1 235.6 155.1C235.5 155.1 235.4 155 235.5 154.9C235.6 154.1 235.6 153.3 235.4 152.6C235.3 151.8 235.1 151 234.8 150.2C233.5 147 231.8 144.9 229.9 143.8C228.3 142.8 226.5 142.5 224.8 142.7C223.1 142.9 221.4 143.6 220 144.6C218.2 145.9 216.8 147.8 216.3 149.9C216.3 150 216.2 150 216.1 150C216 150 215.9 149.9 216 149.8C216.3 146.8 218.1 143.9 220.5 142C221.8 141 223.4 140.3 224.9 140C226.4 139.7 228 139.9 229.6 140.7Z" fill="#12006C"/>
<path fill-rule="evenodd" clip-rule="evenodd" d="M232.6 146C232.4 145.4 232.1 144.8 231.8 144.3C230.6 143 228.9 142.1 227 141.8C222.6 141.1 218.5 143.7 217.9 147.7C216.8 154.4 225.2 157.5 230.2 155.3C231.1 154.8 232 154 232.6 153.2C233.7 151.1 233.5 148.4 232.6 146Z" fill="#12006C"/>
<path d="M215 153C214.8 153 214.6 152.8 214.6 152.6C214.6 152.4 214.7 152.1 215 152.1C215.5 152 215.8 151.8 215.8 151.8C216 151.7 216.3 151.7 216.4 151.9C216.5 152.1 216.5 152.4 216.3 152.5C216.2 152.6 215.8 152.9 215 153Z" fill="#BFE1FF"/>
<path d="M216.7 154.8C216.5 154.8 216.4 154.7 216.3 154.6C216.2 154.4 216.3 154.1 216.5 154C216.8 153.8 217 153.6 217 153.6C217.1 153.4 217.4 153.3 217.6 153.5C217.8 153.6 217.9 153.9 217.7 154.1C217.7 154.1 217.4 154.5 216.9 154.8C216.8 154.8 216.7 154.8 216.7 154.8Z" fill="#BFE1FF"/>
<path fill-rule="evenodd" clip-rule="evenodd" d="M223.6 145.9C224.4 146 225 146.6 224.9 147.4C224.8 148.2 224.2 148.8 223.4 148.7C222.6 148.7 222 148 222.1 147.2C222.1 146.4 222.8 145.8 223.6 145.9Z" fill="white"/>
<path fill-rule="evenodd" clip-rule="evenodd" d="M252.9 180.1C253.4 180 253.7 179.4 253.6 178.9C253.5 178.4 253 178 252.4 178.2C252.4 178.2 249.5 179.4 245.9 179.1C244.6 179 244.6 180.5 245.8 180.6C249.8 180.9 252.9 180.1 252.9 180.1Z" fill="#2C81FE"/>
<path fill-rule="evenodd" clip-rule="evenodd" d="M255.8 174.4C256.3 174.1 256.5 173.5 256.3 173C256.1 172.5 255.5 172.2 255.1 172.5C255.1 172.5 247.8 176.5 238 174.8C236.8 174.6 236.7 175.9 237.9 176.2C246.8 178.5 255.8 174.4 255.8 174.4Z" fill="#2C81FE"/>
<path fill-rule="evenodd" clip-rule="evenodd" d="M255.5 170.7C255.3 170.4 254.7 170.3 254.2 170.5C253.7 170.7 253.5 171.2 253.7 171.5C253.7 171.5 255.4 173.3 255.9 176C256.1 177 257.5 176.6 257.3 175.7C256.9 172.7 255.5 170.7 255.5 170.7Z" fill="#2C81FE"/>
<path fill-rule="evenodd" clip-rule="evenodd" d="M299.5 356.3L328.7 348.2C338.5 340.1 347.4 331 355.2 321.1C351.4 301.6 349.2 267.8 345.4 250.1C341.6 232.3 323.1 226.7 323.1 226.7C296.9 227.7 292.4 277.7 302.6 296.5L306.6 339.6L299.5 356.3Z" fill="#12006C"/>
<path d="M224 164.9C223.4 164.9 222.9 164.9 222.3 164.8C217.5 164.3 213.1 162 210 158.3C206.9 154.6 205.5 149.8 205.9 145C206.8 135 215.5 127.7 225.7 128.6C235.7 129.5 243 138.4 242.1 148.4C241.2 157.8 233.4 164.9 224 164.9ZM223.9 129.8C215.1 129.8 207.9 136.4 207.1 145.1C206.7 149.6 208 154 210.9 157.5C213.8 161 217.8 163.1 222.3 163.6C231.7 164.5 239.8 157.6 240.7 148.3C241.6 139 234.7 130.8 225.4 129.9C225 129.8 224.5 129.8 223.9 129.8Z" fill="white"/>
<path d="M270.3 174.5C269.6 174.5 268.9 174.5 268.3 174.4C262.5 173.9 257.4 171.1 253.7 166.7C250 162.3 248.3 156.6 248.8 150.9C249.8 139.7 259.1 131.3 270.3 131.3C271 131.3 271.7 131.3 272.3 131.4C284.2 132.5 292.9 143.1 291.8 155C290.8 166.1 281.5 174.5 270.3 174.5ZM270.3 132.5C259.7 132.5 251 140.4 250 151C249.5 156.4 251.1 161.7 254.6 165.9C258.1 170.1 263 172.7 268.4 173.2C269 173.3 269.7 173.3 270.3 173.3C280.9 173.3 289.6 165.4 290.6 154.8C291.7 143.6 283.4 133.7 272.2 132.6C271.6 132.5 270.9 132.5 270.3 132.5Z" fill="white"/>
<path d="M250.9 145.2C250.8 145.2 250.7 145.2 250.6 145.1C249.2 144.5 247.6 144.1 246 143.9C244.4 143.8 242.8 143.9 241.3 144.2C241 144.3 240.6 144.1 240.5 143.7C240.4 143.4 240.6 143 241 142.9C242.7 142.5 244.4 142.4 246.1 142.6C247.8 142.8 249.5 143.2 251.1 143.9C251.4 144 251.6 144.4 251.4 144.7C251.4 145 251.1 145.2 250.9 145.2Z" fill="white"/>
<path d="M255.3 161C255.1 161 255 160.9 254.9 160.8C253.4 157.9 252.8 154.6 253.1 151.3C253.3 149.1 253.9 147 254.9 145.1C255 144.9 255.3 144.8 255.5 144.9C255.7 145 255.8 145.3 255.7 145.5C254.8 147.3 254.2 149.3 254 151.4C253.7 154.5 254.3 157.6 255.7 160.4C255.8 160.6 255.7 160.9 255.5 161C255.5 161 255.4 161 255.3 161ZM256.3 144C256.2 144 256.1 144 256.1 143.9C255.9 143.8 255.8 143.5 256 143.3C256.3 142.8 256.7 142.3 257.1 141.8C257.3 141.6 257.5 141.6 257.7 141.7C257.9 141.9 257.9 142.1 257.8 142.3C257.4 142.7 257.1 143.2 256.8 143.7C256.6 143.9 256.5 144 256.3 144Z" fill="white"/>
<path d="M210.2 150.1C210 150.1 209.8 150 209.8 149.7C209.7 149.3 209.7 148.9 209.6 148.6C209.6 148.4 209.7 148.1 210 148.1C210.2 148.1 210.5 148.2 210.5 148.5C210.5 148.9 210.6 149.2 210.7 149.6C210.7 149.8 210.6 150 210.2 150.1C210.3 150.1 210.3 150 210.2 150.1ZM209.9 147.3C209.7 147.3 209.5 147.1 209.5 146.9C209.5 146.4 209.5 145.9 209.6 145.4C209.9 141.7 211.7 138.4 214.4 135.9C214.6 135.7 214.9 135.8 215 135.9C215.2 136.1 215.1 136.4 215 136.5C212.4 138.8 210.8 141.9 210.5 145.4C210.5 145.9 210.4 146.3 210.4 146.8C210.4 147.1 210.2 147.3 209.9 147.3Z" fill="white"/>
<path fill-rule="evenodd" clip-rule="evenodd" d="M125.8 202.5C125.8 202.5 127.6 209.6 126.9 215.9C122.9 251.7 109.5 260 105.5 289.5C103.8 301.8 112.6 319 117.8 325.1C122.9 331.2 137 327.3 145.7 307.4C154.4 287.5 144.3 237.1 152.9 211.2L125.8 202.5Z" fill="#59B2FF"/>
<path fill-rule="evenodd" clip-rule="evenodd" d="M125.8 202.5C125.8 202.5 127.6 209.6 126.9 215.9C126.8 216.7 126.7 217.5 126.6 218.3C131.4 221.8 139 224.3 147.2 214.7C148.6 213.1 149.4 211.6 149.7 210.3L125.8 202.5Z" fill="#2C81FE"/>
<path fill-rule="evenodd" clip-rule="evenodd" d="M100.7 175.9C98.6 178.2 94 183.5 92.4 185.2C88.4 189.9 93.4 193.1 99.1 189.2C98.9 190.1 97.8 195.1 97.3 197.5C95.9 203.7 103.2 203.1 105.1 194.6L106.1 190.2L109.9 186.5L118 188.9C118.9 200.8 127.7 204.4 127.7 204.4C127.7 204.6 127.7 204.8 127.7 205C129 222.1 160.7 222.9 156.3 193C153.5 173.9 146.6 157.4 143.5 137C141.4 123 131.6 130.7 132 139C132.4 146.8 135.2 167.8 135.2 167.8C135.4 169.1 132.9 169.4 131.7 168.3C130.5 167.1 125.3 160.8 122.5 157.9C119.7 155 114.4 157.9 114.4 157.9L107 162C107 162 99.7 166.2 96.4 168.1C90.2 171.7 93.6 176.9 100.7 175.9Z" fill="#59B2FF"/>
<path d="M127.8 204.9C127.5 204.9 127.3 204.7 127.4 204.4C127.4 204.3 127.8 198.8 133.1 197.3C132.1 194.1 131.9 190.9 132.6 187.9C133.4 184.5 135.4 181.6 138 180.2C139.9 179.1 141.6 178.8 142.8 179.4C144.2 180 144.6 181.5 144.6 181.5C144.8 189.4 150.8 196.2 150.9 196.3C151.1 196.5 151 196.8 150.9 196.9C150.7 197.1 150.4 197 150.3 196.9C150 196.6 144 189.7 143.8 181.6C143.8 181.6 143.5 180.6 142.5 180.2C141.5 179.8 140.2 180.1 138.5 181C136.2 182.3 134.3 185 133.6 188.2C132.5 192.7 133.6 197.7 136.6 202.3C136.7 202.5 136.7 202.8 136.5 202.9C136.3 203 136 203 135.9 202.8C134.9 201.3 134.2 199.8 133.6 198.3C128.9 199.6 128.5 204.4 128.5 204.6C128.3 204.8 128.1 204.9 127.8 204.9ZM99.0999 189.7C98.9999 189.7 98.8999 189.7 98.7999 189.6C98.5999 189.4 98.5999 189.1 98.7999 189C98.7999 189 100.7 187.2 102.5 185.3C104.3 183.3 109.1 178.5 109.3 178.3L112.3 175.1C112.5 174.9 112.8 174.9 112.9 175.1C113.1 175.3 113.1 175.6 112.9 175.7L110.4 178.4L121 181.9C122 180.6 123.2 179.2 124.9 177.6L116.7 168.7C115 169.6 107 174 105.2 175C103.1 176.1 100.8 176.3 100.7 176.3C100.5 176.3 100.2 176.1 100.2 175.9C100.2 175.7 100.4 175.4 100.6 175.4C100.6 175.4 102.8 175.2 104.7 174.2C106.7 173.1 116.5 167.7 116.5 167.7C116.7 167.6 116.9 167.6 117 167.8L125.4 176.9C127.8 174.7 131 172.4 135.1 170C135.3 169.9 135.6 170 135.7 170.2C135.8 170.4 135.7 170.7 135.5 170.8C119.3 180.2 118.3 188.9 118.3 189C118.3 189.2 118.1 189.4 117.8 189.4C117.6 189.4 117.4 189.2 117.4 188.9C117.4 188.7 117.7 186.2 120.3 182.6L109.6 179C108.7 179.9 104.6 184 103 185.8C101.2 187.8 99.2999 189.6 99.1999 189.6C99.2999 189.6 99.1999 189.7 99.0999 189.7ZM109.9 187C109.8 187 109.7 187 109.6 186.9C109.4 186.7 109.4 186.4 109.6 186.3L111.2 184.7C111.4 184.5 111.7 184.5 111.8 184.7C112 184.9 112 185.2 111.8 185.3L110.2 186.9C110.2 187 110.1 187 109.9 187Z" fill="#2C81FE"/>
<path fill-rule="evenodd" clip-rule="evenodd" d="M345.3 332.6C342 330.5 337.7 329.1 332.6 328.8C315.9 327.8 284.9 358.9 264.1 360.4L266.3 381.7C296.9 372.4 324 355.3 345.3 332.6Z" fill="#59B2FF"/>
<path fill-rule="evenodd" clip-rule="evenodd" d="M78.7998 276.4H253.5C255.4 276.4 257.2 277.9 257.6 279.8L277.2 378.1C258.1 385.3 237.5 389.3 216.1 389.6H101.3C99.3998 389.6 97.5998 388.1 97.1998 386.2L76.0998 279.8C75.6998 277.9 76.8998 276.4 78.7998 276.4Z" fill="#FEDB39"/>
<path fill-rule="evenodd" clip-rule="evenodd" d="M252.8 279.8L272 376.3L272.7 379.7C274.2 379.2 275.7 378.7 277.1 378.1L257.5 279.8C257.1 277.9 255.3 276.4 253.4 276.4H248.6C250.5 276.4 252.4 277.9 252.8 279.8Z" fill="#12006C"/>
<path fill-rule="evenodd" clip-rule="evenodd" d="M78.7998 276.4H94.4998L197.1 389.6H173.4L76.6998 282.8L76.0998 279.8C75.6998 277.9 76.8998 276.4 78.7998 276.4Z" fill="#FFD617"/>
<path fill-rule="evenodd" clip-rule="evenodd" d="M110.7 276.4H160.2L257.8 384.1C244.4 387.5 230.3 389.4 215.9 389.5H213.2L110.7 276.4Z" fill="#FFD617"/>
<path fill-rule="evenodd" clip-rule="evenodd" d="M169.7 306.8C182.7 306.8 195.2 318.5 197.6 333C200 347.5 191.4 359.2 178.3 359.2C165.3 359.2 152.8 347.5 150.4 333C148 318.5 156.6 306.8 169.7 306.8Z" fill="#FEDB39"/>
<path fill-rule="evenodd" clip-rule="evenodd" d="M183.3 351L158.4 342.7C157 342.2 156.2 340.7 156.7 339.3C156.8 339.1 156.9 338.9 157 338.7L173.3 313.6C174.1 312.4 175.8 312 177 312.8C177.6 313.2 178 313.7 178.1 314.4L186.8 347.8C187.2 349.2 186.3 350.7 184.9 351C184.4 351.3 183.8 351.2 183.3 351Z" fill="white"/>
<path fill-rule="evenodd" clip-rule="evenodd" d="M190.3 346.3L164.3 349.2C163.5 349.3 162.6 349 162 348.5C161.4 348 160.9 347.3 160.8 346.4C160.8 346.3 160.8 346.1 160.8 346C160.8 345.9 160.8 345.8 160.8 345.7L165.1 316.1C165.2 315.2 165.7 314.5 166.3 314.1C166.9 313.6 167.8 313.4 168.6 313.5C169 313.6 169.4 313.7 169.7 313.9C170 314.1 170.3 314.3 170.6 314.6L192.4 341.2C192.4 341.2 192.4 341.2 192.4 341.3C192.9 342 193.1 342.8 193.1 343.5C193 344.3 192.6 345 192 345.6C191.8 345.8 191.5 346 191.2 346.1C191 346.2 190.6 346.3 190.3 346.3ZM164.2 348.3L190.2 345.4C190.4 345.4 190.7 345.3 190.9 345.3C191.1 345.2 191.3 345.1 191.5 345C192 344.6 192.3 344.1 192.3 343.5C192.4 342.9 192.2 342.3 191.8 341.9L169.9 315.2C169.7 315 169.5 314.8 169.3 314.7C169.1 314.6 168.8 314.5 168.5 314.4C167.9 314.3 167.3 314.5 166.9 314.8C166.4 315.1 166.1 315.7 166 316.3L161.7 345.8C161.7 345.9 161.7 346 161.7 346.1C161.7 346.2 161.7 346.3 161.7 346.4C161.8 347 162.1 347.5 162.5 347.9C163 348.2 163.6 348.4 164.2 348.3Z" fill="white"/>
<path d="M89.7999 349.5C89.5999 349.5 89.3999 349.4 89.3999 349.1L75.5999 279.9C75.3999 278.9 75.5999 277.9 76.1999 277.1C76.7999 276.4 77.6999 276 78.6999 276H166.2C166.4 276 166.6 276.2 166.6 276.4C166.6 276.6 166.4 276.8 166.2 276.8H78.7999C77.9999 276.8 77.3999 277.1 76.9999 277.6C76.5999 278.1 76.3999 278.9 76.5999 279.7L90.3999 348.9C90.2999 349.2 90.1999 349.4 89.7999 349.5C89.8999 349.5 89.8999 349.5 89.7999 349.5ZM247.1 206.8C228.8 204.3 210 188.2 209.3 157.8V157.1C209.3 156.9 209.5 156.6 209.7 156.6C210 156.6 210.1 156.8 210.2 157V157.7C210.9 187.6 229.3 203.4 247.2 205.8C247.4 205.8 247.6 206.1 247.6 206.3C247.6 206.6 247.4 206.8 247.1 206.8ZM208.7 138.3C208.6 138.3 208.6 138.3 208.5 138.3C199.7 134.5 196.7 124.7 200.4 112.1C206.9 90 234.1 62.5 268.2 68.1C277.3 69.6 285.5 73.0002 291.7 77.8002C291.9 78.0002 291.9 78.2002 291.8 78.4002C291.6 78.6002 291.4 78.6 291.2 78.5C285.1 73.7 277.1 70.4002 268.1 68.9002C234.5 63.3002 207.7 90.5 201.3 112.2C197.7 124.3 200.5 133.7 208.9 137.3C209.1 137.4 209.2 137.7 209.1 137.9C209.1 138.2 208.9 138.3 208.7 138.3Z" fill="white"/>
<g opacity="0.25">
<path fill-rule="evenodd" clip-rule="evenodd" d="M23.2 83.3H174.4C178.4 83.3 181.8 86.6 181.8 90.7V196.8C181.8 200.9 178.5 204.2 174.4 204.2H23.2C19.1 204.2 15.8 200.9 15.8 196.8V90.7C15.9 86.7 19.2 83.3 23.2 83.3Z" fill="white"/>
</g>
<path d="M32.8 205H23.3C18.7 205 15 201.3 15 196.7V90.6999C15 86.0999 18.7 82.3999 23.3 82.3999H81.1C81.6 82.3999 82 82.7999 82 83.2999C82 83.7999 81.6 84.1999 81.1 84.1999H23.2C19.6 84.1999 16.7 87.0999 16.7 90.6999V196.8C16.7 200.4 19.6 203.3 23.2 203.3H32.7C33.2 203.3 33.6 203.7 33.6 204.2C33.6 204.7 33.2 205 32.8 205Z" fill="#BFE1FF"/>
<path fill-rule="evenodd" clip-rule="evenodd" d="M134.4 140.5C136.6 140.5 138.5 138.7 138.5 136.4C138.5 134.1 136.7 132.3 134.4 132.3C132.2 132.3 130.3 134.1 130.3 136.4C130.3 138.7 132.1 140.5 134.4 140.5Z" fill="white"/>
<path d="M134.4 151.9C125.9 151.9 119 145 119 136.5C119 128 125.9 121.1 134.4 121.1C142.9 121.1 149.8 128 149.8 136.5C149.8 144.9 142.9 151.9 134.4 151.9ZM134.4 122.8C126.9 122.8 120.8 128.9 120.8 136.4C120.8 143.9 126.9 150 134.4 150C141.9 150 148 143.9 148 136.4C148 128.9 141.9 122.8 134.4 122.8Z" fill="white"/>
<path d="M130.6 151.4C130.5 151.4 130.4 151.4 130.4 151.4C122.2 149.2 117.3 140.7 119.5 132.5C119.6 132 120.1 131.7 120.6 131.9C121.1 132 121.4 132.5 121.2 133C119.3 140.3 123.6 147.8 130.8 149.7C131.3 149.8 131.6 150.3 131.4 150.8C131.4 151.1 131 151.4 130.6 151.4ZM148.4 141.1C148.3 141.1 148.2 141.1 148.2 141.1C147.7 141 147.4 140.5 147.6 140C149.5 132.7 145.2 125.2 138 123.3C137.5 123.2 137.2 122.7 137.4 122.2C137.5 121.7 138 121.4 138.5 121.6C146.7 123.8 151.6 132.3 149.4 140.5C149.2 140.8 148.8 141.1 148.4 141.1Z" fill="#59B2FF"/>
<path d="M134.4 157.4C122.8 157.4 113.4 148 113.4 136.4C113.4 124.8 122.8 115.4 134.4 115.4C146 115.4 155.4 124.8 155.4 136.4C155.3 148 145.9 157.4 134.4 157.4ZM134.4 117.3C123.8 117.3 115.2 125.9 115.2 136.5C115.2 147.1 123.8 155.7 134.4 155.7C145 155.7 153.6 147.1 153.6 136.5C153.6 125.9 145 117.3 134.4 117.3Z" fill="white"/>
<path d="M131.1 157.1H131C130.3 157 129.7 156.8 129 156.7C128.5 156.6 128.2 156.1 128.4 155.6C128.5 155.1 129 154.8 129.5 155C130.1 155.2 130.7 155.3 131.3 155.4C131.8 155.5 132.1 155.9 132 156.4C131.9 156.8 131.5 157.1 131.1 157.1ZM149.1 151C148.9 151 148.7 150.9 148.5 150.8C148.1 150.5 148.1 149.9 148.5 149.5C150.6 147.2 152.2 144.4 153 141.4C153.1 140.9 153.6 140.6 154.1 140.8C154.6 140.9 154.9 141.4 154.7 141.9C153.8 145.2 152.1 148.3 149.8 150.7C149.6 150.9 149.3 151 149.1 151ZM115 132.1C114.9 132.1 114.8 132.1 114.8 132.1C114.3 132 114 131.5 114.2 131C116 124.4 120.8 119.1 127.3 116.7C127.8 116.5 128.3 116.8 128.4 117.2C128.6 117.7 128.3 118.2 127.9 118.3C122 120.4 117.6 125.3 115.9 131.4C115.7 131.9 115.4 132.1 115 132.1ZM139.6 117.9C139.5 117.9 139.4 117.9 139.4 117.9C137.2 117.3 134.8 117.1 132.5 117.3C132 117.3 131.6 117 131.5 116.5C131.5 116 131.8 115.6 132.3 115.5C134.8 115.2 137.3 115.5 139.8 116.1C140.3 116.2 140.6 116.7 140.4 117.2C140.3 117.7 140 117.9 139.6 117.9Z" fill="#FEDB39"/>
<path d="M174.4 205H32.7999C32.2999 205 31.8999 204.6 31.8999 204.1C31.8999 203.6 32.2999 203.2 32.7999 203.2H174.4C178 203.2 180.9 200.3 180.9 196.7V90.6999C180.9 87.0999 178 84.1999 174.4 84.1999H80.9999C80.4999 84.1999 80.0999 83.7999 80.0999 83.2999C80.0999 82.7999 80.4999 82.3999 80.9999 82.3999H174.4C179 82.3999 182.7 86.0999 182.7 90.6999V196.8C182.7 201.3 178.9 205 174.4 205Z" fill="white"/>
<path fill-rule="evenodd" clip-rule="evenodd" d="M44.2999 169.7L60.7999 163.2L44.2999 156.7L27.8999 163.2L44.2999 169.7Z" fill="white"/>
<path d="M44.2999 170.6C44.1999 170.6 44.0999 170.6 43.9999 170.5L27.4999 164C27.1999 163.9 26.8999 163.5 26.8999 163.2C26.8999 162.8 27.0999 162.5 27.4999 162.4L43.9999 155.9C44.1999 155.8 44.3999 155.8 44.6999 155.9L61.1999 162.4C61.4999 162.5 61.7999 162.9 61.7999 163.2C61.7999 163.6 61.5999 163.9 61.1999 164L44.6999 170.5C44.5999 170.6 44.3999 170.6 44.2999 170.6ZM30.2999 163.2L44.3999 168.8L58.4999 163.2L44.3999 157.6L30.2999 163.2Z" fill="#59B2FF"/>
<path fill-rule="evenodd" clip-rule="evenodd" d="M27.8999 163.2L44.2999 156.7V134.5L27.8999 141V163.2Z" fill="#59B2FF"/>
<path d="M27.9 164.1C27.7 164.1 27.5 164 27.4 163.9C27.2 163.7 27 163.5 27 163.2V141C27 140.6 27.2 140.3 27.6 140.2L44.1 133.7C44.4 133.6 44.7 133.6 44.9 133.8C45.1 134 45.3 134.2 45.3 134.5V156.7C45.3 157.1 45.1 157.4 44.7 157.5L28.2 164C28.1 164.1 28 164.1 27.9 164.1ZM28.7 141.6V161.9L43.4 156.1V135.8L28.7 141.6Z" fill="#59B2FF"/>
<path fill-rule="evenodd" clip-rule="evenodd" d="M60.7998 163.2L44.2998 156.7V134.5L60.7998 141V163.2Z" fill="#BFE1FF"/>
<path d="M60.7999 164.1C60.6999 164.1 60.5999 164.1 60.4999 164L43.9999 157.5C43.6999 157.4 43.3999 157 43.3999 156.7V134.5C43.3999 134.2 43.4999 133.9 43.7999 133.8C43.9999 133.6 44.3999 133.6 44.5999 133.7L61.0999 140.2C61.3999 140.3 61.6999 140.7 61.6999 141V163.2C61.6999 163.5 61.5999 163.8 61.2999 163.9C61.1999 164 60.9999 164.1 60.7999 164.1ZM45.1999 156.1L59.8999 161.9V141.6L45.1999 135.8V156.1Z" fill="#59B2FF"/>
<path fill-rule="evenodd" clip-rule="evenodd" d="M81.3999 136.2L97.8999 129.7L81.3999 123.2L64.8999 129.7L81.3999 136.2Z" fill="#BFE1FF"/>
<path d="M81.4 137.1C81.3 137.1 81.2 137.1 81.1 137L64.6 130.5C64.3 130.4 64 130 64 129.7C64 129.3 64.2 129 64.6 128.9L81.1 122.4C81.3 122.3 81.5 122.3 81.8 122.4L98.3 128.9C98.6 129 98.9 129.4 98.9 129.7C98.9 130.1 98.7 130.4 98.3 130.5L81.8 137C81.7 137.1 81.5 137.1 81.4 137.1ZM67.4 129.7L81.5 135.3L95.6 129.7L81.5 124.1L67.4 129.7Z" fill="#59B2FF"/>
<path fill-rule="evenodd" clip-rule="evenodd" d="M64.8999 129.7L81.3999 123.2V101L64.8999 107.5V129.7Z" fill="white"/>
<path d="M64.9 130.6C64.7 130.6 64.5 130.5 64.4 130.4C64.2 130.2 64 130 64 129.7V107.5C64 107.1 64.2 106.8 64.6 106.7L81.1 100.2C81.4 100.1 81.7 100.1 81.9 100.3C82.1 100.5 82.3 100.7 82.3 101V123.2C82.3 123.6 82.1 123.9 81.7 124L65.3 130.5C65.2 130.6 65.1 130.6 64.9 130.6ZM65.8 108.1V128.4L80.5 122.6V102.3L65.8 108.1Z" fill="#59B2FF"/>
<path fill-rule="evenodd" clip-rule="evenodd" d="M97.8999 129.7L81.3999 123.2V101L97.8999 107.5V129.7Z" fill="#59B2FF"/>
<path d="M97.9 130.6C97.8 130.6 97.7 130.6 97.6 130.5L81.1 124C80.8 123.9 80.5 123.5 80.5 123.2V101C80.5 100.7 80.6 100.4 80.9 100.3C81.1 100.1 81.5 100.1 81.7 100.2L98.2 106.7C98.5 106.8 98.8 107.2 98.8 107.5V129.7C98.8 130 98.7 130.3 98.4 130.4C98.3 130.6 98.1 130.6 97.9 130.6ZM82.3 122.6L97 128.4V108.1L82.3 102.3V122.6Z" fill="#59B2FF"/>
<path d="M76 179.5H49.8C46.3 179.5 43.7 176.9 43.7 173.5L43.5 163.3C43.5 162.8 43.9 162.4 44.4 162.4C44.9 162.4 45.3 162.8 45.3 163.3L45.5 173.5C45.5 176 47.4 177.8 49.9 177.8H76.2C78.7 177.8 80.7 175.8 80.7 173.3V129.8C80.7 129.3 81.1 128.9 81.6 128.9C82.1 128.9 82.5 129.3 82.5 129.8V173.3C82.3 176.6 79.5 179.5 76 179.5ZM44.4 136.8C43.9 136.8 43.5 136.4 43.5 135.9L43.6 122.1C43.6 118.5 46.4 115.5 49.7 115.5H64.9C65.4 115.5 65.8 115.9 65.8 116.4C65.8 116.9 65.4 117.3 64.9 117.3H49.8C47.4 117.3 45.4 119.5 45.4 122.1L45.3 135.9C45.3 136.4 44.9 136.8 44.4 136.8Z" fill="#59B2FF"/>
<path fill-rule="evenodd" clip-rule="evenodd" d="M44.2997 165.3C45.4997 165.3 46.3997 164.3 46.3997 163.2C46.3997 162 45.3997 161.1 44.2997 161.1C43.1997 161.1 42.1997 162.1 42.1997 163.2C42.1997 164.4 43.1997 165.3 44.2997 165.3Z" fill="#59B2FF"/>
<path d="M44.2998 166.2C42.5998 166.2 41.2998 164.8 41.2998 163.2C41.2998 161.5 42.6998 160.2 44.2998 160.2C45.9998 160.2 47.2998 161.6 47.2998 163.2C47.3998 164.9 45.9998 166.2 44.2998 166.2ZM44.2998 162C43.5998 162 43.0998 162.6 43.0998 163.2C43.0998 163.9 43.6998 164.4 44.2998 164.4C44.9998 164.4 45.4998 163.8 45.4998 163.2C45.5998 162.5 44.9998 162 44.2998 162Z" fill="#59B2FF"/>
<path fill-rule="evenodd" clip-rule="evenodd" d="M81.3998 131.9C82.5998 131.9 83.4998 130.9 83.4998 129.8C83.4998 128.6 82.4998 127.7 81.3998 127.7C80.1998 127.7 79.2998 128.7 79.2998 129.8C79.2998 130.9 80.2998 131.9 81.3998 131.9Z" fill="#59B2FF"/>
<path d="M81.3999 132.7C79.6999 132.7 78.3999 131.3 78.3999 129.7C78.3999 128 79.7999 126.7 81.3999 126.7C83.0999 126.7 84.3999 128.1 84.3999 129.7C84.4999 131.4 83.0999 132.7 81.3999 132.7ZM81.3999 128.5C80.6999 128.5 80.1999 129.1 80.1999 129.7C80.1999 130.4 80.7999 130.9 81.3999 130.9C82.0999 130.9 82.5999 130.3 82.5999 129.7C82.6999 129 82.0999 128.5 81.3999 128.5Z" fill="#59B2FF"/>
<path d="M109 115.6C108.5 115.6 108.1 115.2 108.1 114.7L108.2 100.9C108.2 97.3 111 94.3 114.3 94.3H129.5C130 94.3 130.4 94.7 130.4 95.2C130.4 95.7 130 96.1 129.5 96.1H114.3C111.9 96.1 109.9 98.3 109.9 100.9L109.8 114.7C109.9 115.2 109.5 115.6 109 115.6Z" fill="#59B2FF"/>
<path d="M167.2 197.4C166.7 197.4 166.3 197 166.3 196.5C166.3 196 166.7 195.6 167.2 195.6C169.6 195.6 171.6 193.4 171.6 190.8L171.7 109.5C171.7 109 172.1 108.6 172.6 108.6C173.1 108.6 173.5 109 173.5 109.5L173.4 190.8C173.3 194.5 170.5 197.4 167.2 197.4Z" fill="#59B2FF"/>
<path fill-rule="evenodd" clip-rule="evenodd" d="M109 116.3C109.9 116.3 110.6 115.6 110.6 114.7C110.6 113.8 109.9 113.1 109 113.1C108.1 113.1 107.4 113.8 107.4 114.7C107.4 115.6 108.1 116.3 109 116.3Z" fill="#59B2FF"/>
<path d="M109 117.2C107.6 117.2 106.5 116.1 106.5 114.7C106.5 113.3 107.6 112.2 109 112.2C110.4 112.2 111.5 113.3 111.5 114.7C111.4 116.1 110.3 117.2 109 117.2ZM109 114C108.6 114 108.3 114.3 108.3 114.7C108.3 115.1 108.6 115.4 109 115.4C109.4 115.4 109.7 115.1 109.7 114.7C109.7 114.3 109.4 114 109 114Z" fill="#59B2FF"/>
<path fill-rule="evenodd" clip-rule="evenodd" d="M129.5 96.8001C130.4 96.8001 131.1 96.1001 131.1 95.2001C131.1 94.3001 130.4 93.6001 129.5 93.6001C128.6 93.6001 127.9 94.3001 127.9 95.2001C127.9 96.1001 128.6 96.8001 129.5 96.8001Z" fill="#59B2FF"/>
<path d="M129.5 97.7C128.1 97.7 127 96.6 127 95.2C127 93.8 128.1 92.7 129.5 92.7C130.9 92.7 132 93.8 132 95.2C132 96.6 130.9 97.7 129.5 97.7ZM129.5 94.6C129.1 94.6 128.8 94.9 128.8 95.3C128.8 95.7 129.1 96 129.5 96C129.9 96 130.2 95.7 130.2 95.3C130.2 94.9 129.9 94.6 129.5 94.6Z" fill="#59B2FF"/>
<path fill-rule="evenodd" clip-rule="evenodd" d="M172.5 111.2C173.4 111.2 174.1 110.5 174.1 109.6C174.1 108.7 173.4 108 172.5 108C171.6 108 170.9 108.7 170.9 109.6C170.9 110.5 171.6 111.2 172.5 111.2Z" fill="#59B2FF"/>
<path d="M172.5 112C171.1 112 170 110.9 170 109.5C170 108.1 171.1 107 172.5 107C173.9 107 175 108.1 175 109.5C174.9 110.9 173.8 112 172.5 112ZM172.5 108.9C172.1 108.9 171.8 109.2 171.8 109.6C171.8 110 172.1 110.3 172.5 110.3C172.9 110.3 173.2 110 173.2 109.6C173.2 109.2 172.9 108.9 172.5 108.9Z" fill="#59B2FF"/>
<path fill-rule="evenodd" clip-rule="evenodd" d="M167.2 198.1C168.1 198.1 168.8 197.4 168.8 196.5C168.8 195.6 168.1 194.9 167.2 194.9C166.3 194.9 165.6 195.6 165.6 196.5C165.6 197.4 166.3 198.1 167.2 198.1Z" fill="#59B2FF"/>
<path d="M167.2 199C165.8 199 164.7 197.9 164.7 196.5C164.7 195.1 165.8 194 167.2 194C168.6 194 169.7 195.1 169.7 196.5C169.6 197.9 168.5 199 167.2 199ZM167.2 195.9C166.8 195.9 166.5 196.2 166.5 196.6C166.5 197 166.8 197.3 167.2 197.3C167.6 197.3 167.9 197 167.9 196.6C167.8 196.2 167.5 195.9 167.2 195.9Z" fill="#59B2FF"/>
<path fill-rule="evenodd" clip-rule="evenodd" d="M366.9 209.2C388.7 209.2 406.6 191.4 406.6 169.5C406.6 147.6 388.8 129.8 366.9 129.8C345 129.8 327.2 147.6 327.2 169.5C327.2 191.4 345 209.2 366.9 209.2Z" fill="#FEDB39"/>
<path d="M366.9 210.1C344.5 210.1 326.3 191.9 326.3 169.5C326.3 147.1 344.5 128.9 366.9 128.9C389.3 128.9 407.5 147.1 407.5 169.5C407.4 191.9 389.2 210.1 366.9 210.1ZM366.9 130.8C345.5 130.8 328.1 148.2 328.1 169.6C328.1 191 345.5 208.4 366.9 208.4C388.3 208.4 405.7 191 405.7 169.6C405.6 148.2 388.2 130.8 366.9 130.8Z" fill="white"/>
<path d="M366.8 203.1C358.2 203.1 349.6 199.8 343.1 193.2C336.8 186.9 333.3 178.5 333.3 169.5C333.3 160.5 336.8 152.1 343.1 145.8C343.3 145.6 343.6 145.6 343.7 145.8C343.9 146 343.9 146.3 343.7 146.4C337.5 152.6 334.1 160.8 334.1 169.5C334.1 178.2 337.5 186.4 343.7 192.6C355.1 204 372.8 205.4 385.8 196C386 195.9 386.3 195.9 386.4 196.1C386.5 196.3 386.5 196.6 386.3 196.7C380.5 201 373.7 203.1 366.8 203.1ZM390.2 193.4C390.1 193.4 390 193.4 389.9 193.3C389.7 193.1 389.7 192.8 389.9 192.7C396.1 186.5 399.5 178.3 399.5 169.6C399.5 160.9 396.1 152.7 389.9 146.5C378.5 135.1 360.8 133.7 347.8 143.1C347.6 143.2 347.3 143.2 347.2 143C347.1 142.8 347.1 142.5 347.3 142.4C360.7 132.8 378.9 134.3 390.5 145.9C396.8 152.2 400.3 160.6 400.3 169.6C400.3 178.6 396.8 187 390.5 193.3C390.5 193.3 390.4 193.4 390.2 193.4Z" fill="#FFD617"/>
<path fill-rule="evenodd" clip-rule="evenodd" d="M391.6 194.3C390.9 195 389.7 195 388.9 194.3C388.2 193.6 388.2 192.4 388.9 191.6C389.6 190.9 390.8 190.9 391.6 191.6C392.3 192.3 392.3 193.5 391.6 194.3Z" fill="#FFD617"/>
<path fill-rule="evenodd" clip-rule="evenodd" d="M344.8 147.5C344.1 148.2 342.9 148.2 342.1 147.5C341.4 146.8 341.4 145.6 342.1 144.8C342.8 144.1 344 144.1 344.8 144.8C345.5 145.6 345.5 146.7 344.8 147.5Z" fill="#FFD617"/>
<g opacity="0.25">
<path fill-rule="evenodd" clip-rule="evenodd" d="M59.8999 231.2H130.9C132 231.2 132.9 232.1 132.9 233.2V262C132.9 263.1 132 264 130.9 264H59.8999C58.7999 264 57.8999 263.1 57.8999 262V233.2C57.8999 232.1 58.7999 231.2 59.8999 231.2Z" fill="white"/>
</g>
<path d="M130.9 264.9H59.9C58.3 264.9 57 263.6 57 262V233.2C57 231.6 58.3 230.3 59.9 230.3H130.9C132.5 230.3 133.8 231.6 133.8 233.2V262C133.7 263.6 132.4 264.9 130.9 264.9ZM59.9 232.1C59.3 232.1 58.8 232.6 58.8 233.2V262C58.8 262.6 59.3 263.1 59.9 263.1H130.9C131.5 263.1 132 262.6 132 262V233.2C132 232.6 131.5 232.1 130.9 232.1H59.9Z" fill="white"/>
<path d="M64.2001 252.6C63.7001 252.6 63.3 252.2 63.3 251.7L63.4002 241.1C63.4002 238.2 65.6002 235.8 68.3002 235.8H80C80.5 235.8 80.9002 236.2 80.9002 236.7C80.9002 237.2 80.5 237.6 80 237.6H68.3002C66.6002 237.6 65.2 239.2 65.1 241.1L65 251.7C65.1 252.2 64.7001 252.6 64.2001 252.6Z" fill="#59B2FF"/>
<path d="M122.4 259.3H110.7C110.2 259.3 109.8 258.9 109.8 258.4C109.8 257.9 110.2 257.5 110.7 257.5H122.4C124.1 257.5 125.5 255.9 125.6 254L125.7 243.4C125.7 242.9 126.1 242.5 126.6 242.5C127.1 242.5 127.5 242.9 127.5 243.4L127.4 254C127.4 256.9 125.1 259.3 122.4 259.3Z" fill="#59B2FF"/>
<path d="M95.4 254.1C95.2 254.1 95 253.9 95 253.7V250.7C95 250.5 95.2 250.3 95.4 250.3C95.6 250.3 95.8 250.5 95.8 250.7V253.7C95.8 253.9 95.6 254.1 95.4 254.1ZM78.6 253.7C78.4 253.7 78.2 253.5 78.2 253.3V241.9C78.2 241.7 78.4 241.5 78.6 241.5C78.8 241.5 79 241.7 79 241.9V253.3C79 253.5 78.8 253.7 78.6 253.7ZM100.5 252.3C100.3 252.3 100.1 252.1 100.1 251.9V247.7C100.1 247.5 100.3 247.3 100.5 247.3C100.7 247.3 100.9 247.5 100.9 247.7V251.9C100.9 252.1 100.7 252.3 100.5 252.3ZM90.3 252.3C90.1 252.3 89.9 252.1 89.9 251.9V250.4C89.9 250.2 90.1 250 90.3 250C90.5 250 90.7 250.2 90.7 250.4V251.9C90.7 252.1 90.5 252.3 90.3 252.3ZM83.7 250.2C83.5 250.2 83.3 250 83.3 249.8V245.5C83.3 245.3 83.5 245.1 83.7 245.1C83.9 245.1 84.1 245.3 84.1 245.5V249.8C84.1 250 83.9 250.2 83.7 250.2ZM95.4 249.2C95.2 249.2 95 249 95 248.8V241.5C95 241.3 95.2 241.1 95.4 241.1C95.6 241.1 95.8 241.3 95.8 241.5V248.8C95.8 249 95.6 249.2 95.4 249.2ZM90.3 248.9C90.1 248.9 89.9 248.7 89.9 248.5V243.3C89.9 243.1 90.1 242.9 90.3 242.9C90.5 242.9 90.7 243.1 90.7 243.3V248.5C90.7 248.7 90.5 248.9 90.3 248.9ZM100.5 246.1C100.3 246.1 100.1 245.9 100.1 245.7V243.3C100.1 243.1 100.3 242.9 100.5 242.9C100.7 242.9 100.9 243.1 100.9 243.3V245.7C100.9 245.9 100.7 246.1 100.5 246.1Z" fill="white"/>
<path d="M114.7 254.3H114.5C113.2 254.3 110.1 254.3 104.6 248C99.5 242.1 96.8 242.1 95.6 242.1H95.4H95.2C94.1 242.1 91.4 242.1 86.2 248C80.7 254.3 77.6 254.3 76.3 254.3H76.1C75.8 254.3 75.5 254 75.5 253.7C75.5 253.4 75.8 253.1 76.1 253.1H76.3C77.5 253.1 80.1 253.1 85.3 247.2C90.8 240.9 93.9 240.9 95.2 240.9H95.4H95.6C96.9 240.9 100 240.9 105.5 247.2C110.6 253.1 113.3 253.1 114.5 253.1H114.7C115 253.1 115.3 253.4 115.3 253.7C115.3 254 115 254.3 114.7 254.3Z" fill="white"/>
<path d="M95.4 254.3H95.2C93.9 254.3 90.8 254.3 85.3 248C80.2 242.1 77.5 242.1 76.3 242.1H76.1C75.8 242.1 75.5 241.8 75.5 241.5C75.5 241.2 75.8 240.8 76.1 240.9H76.3C77.6 240.9 80.7 240.9 86.2 247.2C91.3 253.1 94 253.1 95.2 253.1H95.4H95.6C96.8 253.1 99.4 253.1 104.6 247.2C110.1 240.9 113.2 240.9 114.5 240.9H114.7C115.1 240.9 115.3 241.2 115.3 241.5C115.3 241.8 115 242.1 114.7 242.1H114.5C113.4 242.1 110.7 242.1 105.5 248C100 254.3 96.9 254.3 95.6 254.3H95.4Z" fill="white"/>
<path fill-rule="evenodd" clip-rule="evenodd" d="M151.3 61.3999H146.9L149.1 64.8999L151.3 61.3999Z" fill="white"/>
<path d="M149.1 65.2999C148.9 65.2999 148.8 65.1999 148.7 65.0999L146.5 61.5999C146.4 61.4999 146.4 61.2999 146.5 61.0999C146.6 60.9999 146.7 60.8999 146.9 60.8999H151.3C151.5 60.8999 151.6 60.9999 151.7 61.0999C151.8 61.1999 151.8 61.3999 151.7 61.5999L149.5 65.0999C149.4 65.2999 149.3 65.2999 149.1 65.2999ZM147.7 61.7999L149.1 63.9999L150.5 61.7999H147.7Z" fill="white"/>
<path d="M153.3 59.6H148.9C148.7 59.6 148.6 59.5 148.5 59.4C148.4 59.3 148.4 59.1 148.5 58.9L150.7 55.4C150.9 55.1 151.3 55.1 151.5 55.4L153.6 58.8C153.7 58.9 153.8 59 153.8 59.1C153.7 59.4 153.5 59.6 153.3 59.6ZM149.7 58.7H152.5L151.1 56.5L149.7 58.7Z" fill="#59B2FF"/>
<path fill-rule="evenodd" clip-rule="evenodd" d="M370.5 241.7H366.1L368.3 245.2L370.5 241.7Z" fill="white"/>
<path d="M368.3 245.6C368.1 245.6 368 245.5 367.9 245.4L365.7 241.9C365.6 241.8 365.6 241.6 365.7 241.4C365.8 241.3 365.9 241.2 366.1 241.2H370.5C370.7 241.2 370.8 241.3 370.9 241.4C371 241.5 371 241.7 370.9 241.9L368.7 245.4C368.6 245.6 368.4 245.6 368.3 245.6ZM366.9 242.1L368.3 244.3L369.7 242.1H366.9Z" fill="white"/>
<path d="M372.5 239.9H368.1C367.9 239.9 367.8 239.8 367.7 239.7C367.6 239.6 367.6 239.4 367.7 239.2L369.9 235.7C370.1 235.4 370.5 235.4 370.7 235.7L372.8 239.1C372.9 239.2 373 239.3 373 239.4C372.9 239.7 372.7 239.9 372.5 239.9ZM368.9 239H371.7L370.3 236.8L368.9 239Z" fill="#59B2FF"/>
<path fill-rule="evenodd" clip-rule="evenodd" d="M198.8 194.9H194.5L196.7 198.4L198.8 194.9Z" fill="white"/>
<path d="M196.7 198.9C196.5 198.9 196.4 198.8 196.3 198.7L194.1 195.2C194 195.1 194 194.9 194.1 194.7C194.2 194.6 194.3 194.5 194.5 194.5H198.9C199.1 194.5 199.2 194.6 199.3 194.7C199.4 194.8 199.4 195 199.3 195.2L197.1 198.7C196.9 198.8 196.8 198.9 196.7 198.9ZM195.3 195.4L196.7 197.6L198.1 195.4H195.3Z" fill="white"/>
<path d="M200.8 193.2H196.5C196.3 193.2 196.2 193.1 196.1 193C196 192.9 196 192.7 196.1 192.5L198.3 189C198.5 188.7 198.9 188.7 199.1 189L201.2 192.4C201.3 192.5 201.4 192.6 201.4 192.7C201.3 193 201.1 193.2 200.8 193.2ZM197.3 192.3H200.1L198.7 190.1L197.3 192.3Z" fill="#59B2FF"/>
<path fill-rule="evenodd" clip-rule="evenodd" d="M349.9 171.5C348.8 172.7 346.5 175.4 345.7 176.3C343.6 178.7 346.2 180.3 349.1 178.4C349 178.9 348.4 181.4 348.2 182.6C347.5 185.8 351.2 185.5 352.2 181.1L352.7 178.9L354.6 177L358.7 178.2C359.2 184.3 363.7 186.1 363.7 186.1C363.7 186.2 363.7 186.3 363.7 186.4C364.4 195.1 380.5 195.5 378.3 180.3C376.9 170.5 373.4 162.2 371.8 151.7C370.7 144.6 365.7 148.5 365.9 152.7C366.1 156.7 367.5 167.4 367.5 167.4C367.6 168.1 366.3 168.2 365.7 167.6C365.1 167 362.5 163.8 361 162.3C359.6 160.8 356.9 162.3 356.9 162.3L353.1 164.4C353.1 164.4 349.4 166.5 347.7 167.5C344.5 169.4 346.3 172 349.9 171.5Z" fill="white"/>
<path d="M370.7 192.9C367.3 192.9 363.6 190.7 363.3 186.4C363.3 186.4 363.3 186.4 363.3 186.3C362.3 185.8 358.9 183.7 358.3 178.4L354.7 177.3L353 178.9L352.5 181C351.9 183.6 350.3 184.9 349.1 184.9C348.6 184.9 348.2 184.7 347.9 184.4C347.6 184.1 347.4 183.4 347.6 182.3C347.8 181.5 348.1 180.1 348.3 179.1C346.7 179.8 345 179.6 344.5 178.5C344.3 178.1 344.1 177.1 345.2 175.9C345.8 175.2 347.5 173.3 348.7 171.9C347 171.9 345.8 171.1 345.5 170C345.4 169.5 345.3 168.2 347.3 167C349 166 352.7 163.9 352.7 163.9L356.5 161.8C356.6 161.8 357.8 161.1 359.2 161.1C360 161.1 360.7 161.4 361.2 161.9C362.1 162.8 363.4 164.3 364.4 165.5C365.1 166.3 365.7 167 365.9 167.2C366.1 167.4 366.3 167.4 366.6 167.4C366.8 167.4 367 167.3 367 167.3C367 167.2 365.5 156.5 365.4 152.6C365.3 151 365.9 149.3 367 148.2C367.7 147.5 368.4 147.1 369.1 147.1C370 147.1 371.6 147.7 372.1 151.4C372.9 156.6 374.2 161.4 375.4 166C376.7 170.7 377.9 175.1 378.6 180C379.4 185.3 377.9 188.4 376.5 190C375.2 191.9 373 192.9 370.7 192.9ZM354.6 176.5H354.7L358.8 177.7C359 177.8 359.1 177.9 359.1 178.1C359.5 183.8 363.6 185.6 363.8 185.6C364 185.7 364.1 185.8 364.1 186C364.1 186.1 364.1 186.2 364.1 186.3C364.4 190 367.6 192 370.6 192C372.7 192 374.6 191.2 375.9 189.6C377.2 188.1 378.5 185.3 377.8 180.3C377.1 175.5 375.9 171.1 374.6 166.4C373.3 161.8 372 157 371.2 151.7C370.9 149.4 370.1 148.1 369 148.1C368.5 148.1 368 148.4 367.5 148.9C366.6 149.8 366.1 151.3 366.2 152.6C366.4 156.5 367.8 167.1 367.8 167.2C367.8 167.5 367.8 167.7 367.6 167.9C367.1 168.4 365.9 168.4 365.3 167.8C365 167.5 364.5 166.9 363.8 166C362.8 164.8 361.5 163.3 360.7 162.5C360.4 162.2 359.9 162 359.3 162C358.2 162 357.1 162.6 357.1 162.6L353.3 164.7C353.3 164.7 349.6 166.8 347.9 167.8C346.9 168.4 346.3 169.1 346.5 169.8C346.7 170.4 347.5 171 349 171C349.3 171 349.5 171 349.8 170.9C350 170.9 350.2 171 350.3 171.1C350.4 171.3 350.4 171.5 350.2 171.6C349.1 172.8 346.8 175.5 346 176.4C345.5 177 345.2 177.6 345.4 178.1C345.7 178.8 347.4 178.8 348.8 177.8C349 177.7 349.1 177.7 349.3 177.8C349.5 177.9 349.5 178.1 349.5 178.3C349.4 178.9 348.8 181.3 348.6 182.5C348.5 183.1 348.5 183.6 348.7 183.9C348.8 184 349 184.1 349.2 184.1C349.9 184.1 351.2 183.2 351.8 180.8L352.3 178.6C352.3 178.5 352.4 178.4 352.4 178.4L354.3 176.5C354.4 176.5 354.5 176.5 354.6 176.5Z" fill="#2C81FE"/>
<path d="M363.7 186.5C363.4 186.5 363.2 186.3 363.3 186C363.4 185 364.1 183 366.2 182.2C365.7 180.6 365.6 179 366 177.5C366.4 175.7 367.5 174.2 368.8 173.4C369.9 172.8 370.7 172.7 371.4 173C372.2 173.4 372.4 174.2 372.4 174.2C372.5 178.2 375.5 181.6 375.6 181.7C375.8 181.9 375.7 182.2 375.6 182.3C375.4 182.5 375.1 182.4 375 182.3C374.9 182.1 371.7 178.6 371.6 174.4C371.6 174.4 371.5 174 371.1 173.9C370.7 173.7 370 173.9 369.3 174.3C368.2 174.9 367.3 176.2 366.9 177.8C366.4 180 366.9 182.5 368.4 184.8C368.5 185 368.5 185.3 368.3 185.4C368.1 185.5 367.8 185.5 367.7 185.3C367.2 184.6 366.9 183.9 366.6 183.1C364.5 183.8 364.3 186 364.3 186.1C364.2 186.4 364 186.5 363.7 186.5ZM349.1 178.7C349 178.7 348.9 178.7 348.8 178.6C348.6 178.4 348.6 178.1 348.8 178C348.8 178 349.8 177.1 350.7 176.1C351.6 175.1 354 172.7 354.2 172.5L355.7 170.9C355.9 170.7 356.1 170.7 356.3 170.9C356.5 171.1 356.5 171.3 356.3 171.5L355.3 172.6L360.3 174.2C360.8 173.6 361.3 173 362 172.3L358.1 168.1C357 168.7 353.3 170.8 352.4 171.2C351.3 171.8 350.1 171.9 350 171.9C349.8 171.9 349.5 171.7 349.5 171.5C349.5 171.3 349.7 171 349.9 171C349.9 171 351 170.9 351.9 170.4C352.9 169.8 357.9 167.1 357.9 167.1C358.1 167 358.3 167 358.4 167.2L362.5 171.7C363.2 171.1 363.9 170.5 364.8 169.9C365 169.8 365.3 169.8 365.4 170C365.5 170.2 365.5 170.5 365.3 170.6C359.5 174.6 359.1 178.1 359.1 178.1C359.1 178.3 358.9 178.5 358.6 178.5C358.4 178.5 358.2 178.3 358.2 178C358.2 177.9 358.3 176.7 359.5 174.9L354.4 173.2C353.8 173.8 351.9 175.7 351.2 176.6C350.3 177.6 349.3 178.5 349.3 178.5C349.3 178.7 349.2 178.7 349.1 178.7ZM354.6 177.4C354.5 177.4 354.4 177.4 354.3 177.3C354.1 177.1 354.1 176.8 354.3 176.7L355.1 175.9C355.3 175.7 355.6 175.7 355.7 175.9C355.9 176.1 355.9 176.4 355.7 176.5L354.9 177.3C354.8 177.3 354.7 177.4 354.6 177.4Z" fill="#2C81FE"/>
<path fill-rule="evenodd" clip-rule="evenodd" d="M369.4 162.3C374.3 162.3 378.3 158.3 378.3 153.4C378.3 148.5 374.3 144.5 369.4 144.5C364.5 144.5 360.5 148.5 360.5 153.4C360.5 158.3 364.5 162.3 369.4 162.3Z" fill="#2C81FE"/>
<path d="M369.4 162.8C364.3 162.8 360.1 158.6 360.1 153.5C360.1 148.4 364.3 144.2 369.4 144.2C374.5 144.2 378.7 148.4 378.7 153.5C378.7 158.6 374.5 162.8 369.4 162.8ZM369.4 145.1C364.8 145.1 361 148.9 361 153.5C361 158.1 364.8 161.9 369.4 161.9C374 161.9 377.8 158.1 377.8 153.5C377.8 148.8 374 145.1 369.4 145.1Z" fill="white"/>
<path fill-rule="evenodd" clip-rule="evenodd" d="M367.8 155.2L371.2 148.4C371.3 148.2 371.5 148.1 371.7 148.2L374.2 149.7C374.4 149.8 374.5 150 374.4 150.2L369.1 158.6C369.1 158.7 369 158.8 368.9 158.8C368.8 158.8 368.7 158.8 368.6 158.8L364.6 156C364.4 155.9 364.4 155.7 364.5 155.5L365.2 153.8C365.3 153.6 365.5 153.6 365.7 153.7L367.8 155.2Z" fill="white"/>
</g>
</g>
<defs>
<clipPath id="clip0_581_1142">
<rect width="426" height="417" fill="white" transform="translate(0.5 0.5)"/>
</clipPath>
</defs>
</svg>
