<svg width="74" height="70" viewBox="0 0 74 70" fill="none" xmlns="http://www.w3.org/2000/svg">
<g clip-path="url(#clip0_575_325)">
<mask id="mask0_575_325" style="mask-type:luminance" maskUnits="userSpaceOnUse" x="0" y="0" width="74" height="70">
<path d="M73.9635 0H0.0361328V70H73.9635V0Z" fill="white"/>
</mask>
<g mask="url(#mask0_575_325)">
<path d="M70.0361 70H3.96353C1.76881 70 0.0361328 68.1518 0.0361328 65.9571C0.0361328 65.033 0.382667 64.1088 0.960225 63.4157L11.7028 50.9406L13.6665 52.6733L3.03943 65.1484C2.92392 65.2639 2.6929 65.6105 2.6929 65.9571C2.6929 66.6502 3.27046 67.2276 3.96353 67.2276H69.9206C70.6137 67.2276 71.1912 66.6502 71.1912 65.9571C71.1912 65.6105 71.0757 65.3794 70.8447 65.1484L55.0196 46.6666C54.7886 46.32 54.4421 46.2046 53.98 46.2046H21.1747V43.5479H54.2111C55.3662 43.5479 56.5213 44.0098 57.2143 44.9339L73.0394 63.4157C73.617 64.1088 73.9635 65.033 73.9635 65.9571C73.9635 68.1518 72.2309 70 70.0361 70Z" fill="#293462"/>
<path d="M18.5181 54.1749H15.8613V3.92737L21.0593 1.73265C21.7524 1.38612 22.4455 1.1551 23.1386 0.924072L23.8316 3.46533C23.2541 3.69635 22.6765 3.92737 21.9834 4.1584L18.5181 5.66005V54.1749Z" fill="#0057FF"/>
<path d="M65.993 9.24093H63.3363V5.19803L58.2538 7.50826C52.3627 10.165 45.2009 9.70298 39.6564 6.35314L38.1547 5.31354C34.8049 3.23433 30.6465 2.31024 26.7191 2.77228L26.3726 0.115517C30.8775 -0.462041 35.6135 0.577563 39.5409 3.00331L41.158 4.04291C45.894 7.04621 52.1316 7.39275 57.2141 5.08251L65.993 1.03961V9.24093Z" fill="#0057FF"/>
<path d="M66.1089 9.24097H63.4521V27.7229H66.1089V9.24097Z" fill="#0057FF"/>
<path d="M56.1748 37.3103L55.3662 34.7691C55.9438 34.5381 56.6368 34.307 57.2144 34.076L63.3365 31.3037V27.7229H65.9933V33.0364L58.254 36.6173C57.6764 36.8483 56.9834 37.0793 56.1748 37.3103Z" fill="#0057FF"/>
<path d="M50.1681 38.2343C46.4717 38.2343 42.8908 37.1947 39.772 35.231L38.1549 34.3069C33.4189 31.3036 27.1813 30.8416 21.9832 33.1518L17.5938 35L16.5542 32.5742L20.9436 30.726C26.9502 28.0693 33.9964 28.6468 39.541 32.1122L41.1582 33.1518C44.508 35.231 48.5509 36.1551 52.4783 35.5775L52.8248 38.2343C52.0163 38.2343 51.0922 38.2343 50.1681 38.2343Z" fill="#0057FF"/>
<path d="M13.2046 15.8252H10.5479V33.0364H13.2046V15.8252Z" fill="#0057FF"/>
<path d="M13.2046 6.58423H10.5479V13.1684H13.2046V6.58423Z" fill="#0057FF"/>
<path d="M12.2801 62.3764L11.9336 59.7196C13.0887 59.6041 14.5904 59.1421 16.2075 58.3335L17.2471 60.7592C15.3989 61.6833 13.7818 62.2609 12.2801 62.3764Z" fill="#0057FF"/>
<path d="M20.8282 59.0263L19.5576 56.7161C20.9438 55.9075 22.4454 54.9834 24.0626 53.9438L25.5642 56.1385C23.8315 57.1781 22.3299 58.2177 20.8282 59.0263Z" fill="#0057FF"/>
<path d="M32.033 54.9836C31.3399 54.406 30.4158 54.175 29.6073 54.175C29.2607 54.175 28.7987 54.175 28.4521 54.2905L27.6436 51.7493C29.6073 51.1717 31.9175 51.5183 33.6502 52.9044L32.033 54.9836Z" fill="#0057FF"/>
<path d="M35.7294 61.6832C35.2673 61.2211 35.0363 60.6436 34.6898 60.066L33.5347 57.4092L35.9604 56.3696L37.1155 59.0264C37.231 59.3729 37.4621 59.604 37.5776 59.835L35.7294 61.6832Z" fill="#0057FF"/>
<path d="M39.6567 63.416V60.7592C40.2343 60.7592 40.8119 60.5282 41.2739 60.2972L43.6996 58.5645L45.2013 60.7592L42.7755 62.3764C41.8515 63.0694 40.8119 63.416 39.6567 63.416Z" fill="#0057FF"/>
<path d="M48.4352 58.3333L46.9336 56.1386L47.2801 55.9076C49.2438 54.5215 51.6696 53.9439 54.0953 54.2904L53.7488 56.9472C52.0161 56.7162 50.2834 57.0627 48.7818 58.1023L48.4352 58.3333Z" fill="#0057FF"/>
<path d="M60.911 61.2211L56.8681 58.2178C56.6371 58.1023 56.5216 57.9868 56.2905 57.8713L57.6767 55.561C57.9077 55.6765 58.2542 55.9076 58.4852 56.1386L62.5281 59.1419L60.911 61.2211Z" fill="#0057FF"/>
</g>
</g>
<defs>
<clipPath id="clip0_575_325">
<rect width="74" height="70" fill="white"/>
</clipPath>
</defs>
</svg>
