<svg xmlns="http://www.w3.org/2000/svg" viewBox="0 0 425.96 416.2"><defs><style>.a,.c{fill:#bfe1ff;}.b,.n{fill:#59b2ff;}.b,.c,.d,.e,.f,.g,.h{fill-rule:evenodd;}.d{fill:#fccb37;}.e,.j{fill:#fff;}.f,.k{fill:#2c81fe;}.g,.i{fill:#12006c;}.h,.m{fill:#fedb39;}.l{fill:#eac736;}</style></defs><path class="a" d="M254.22,426.26c-100.28,0-181.87-81.58-181.87-181.87S153.94,62.52,254.22,62.52,436.1,144.11,436.1,244.39,354.51,426.26,254.22,426.26Zm0-362c-99.3,0-180.09,80.79-180.09,180.09s80.79,180.09,180.09,180.09,180.09-80.79,180.09-180.09S353.53,64.3,254.22,64.3Z" transform="translate(-37.02 -41.9)"/><circle class="a" cx="212.98" cy="208.1" r="180.98"/><path class="b" d="M363.89,443.48h66.17a2.05,2.05,0,0,1,2,2h0a2,2,0,0,1-2,2H363.89a2,2,0,0,1-2-2h0A2.05,2.05,0,0,1,363.89,443.48Z" transform="translate(-37.02 -41.9)"/><path class="b" d="M438.75,443.48h22.18a2.05,2.05,0,0,1,2.05,2h0a2.05,2.05,0,0,1-2.05,2H438.75a2,2,0,0,1-2-2h0A2,2,0,0,1,438.75,443.48Z" transform="translate(-37.02 -41.9)"/><path class="c" d="M450.67,433H454a2.05,2.05,0,0,1,2,2.05h0a2.05,2.05,0,0,1-2,2h-3.31a2.05,2.05,0,0,1-2.05-2h0A2.05,2.05,0,0,1,450.67,433Z" transform="translate(-37.02 -41.9)"/><path class="c" d="M438.32,433h3.32a2.05,2.05,0,0,1,2,2.05h0a2,2,0,0,1-2,2h-3.32a2.05,2.05,0,0,1-2.05-2h0A2.05,2.05,0,0,1,438.32,433Z" transform="translate(-37.02 -41.9)"/><path class="c" d="M418.56,433h10.73a2.05,2.05,0,0,1,2,2.05h0a2,2,0,0,1-2,2H418.56a2,2,0,0,1-2-2h0A2.05,2.05,0,0,1,418.56,433Z" transform="translate(-37.02 -41.9)"/><path class="c" d="M391.41,433h17.76a2.05,2.05,0,0,1,2,2.05h0a2,2,0,0,1-2,2H391.41a2,2,0,0,1-2-2h0A2.05,2.05,0,0,1,391.41,433Z" transform="translate(-37.02 -41.9)"/><path class="c" d="M432,454h3.32a2.05,2.05,0,0,1,2,2.05h0a2,2,0,0,1-2,2H432a2,2,0,0,1-2-2h0A2.05,2.05,0,0,1,432,454Z" transform="translate(-37.02 -41.9)"/><path class="c" d="M419.61,454h3.32a2.05,2.05,0,0,1,2.05,2.05h0a2.05,2.05,0,0,1-2.05,2h-3.32a2,2,0,0,1-2-2h0A2.05,2.05,0,0,1,419.61,454Z" transform="translate(-37.02 -41.9)"/><path class="c" d="M399.86,454h10.73a2.05,2.05,0,0,1,2,2.05h0a2,2,0,0,1-2,2H399.86a2,2,0,0,1-2-2h0A2.05,2.05,0,0,1,399.86,454Z" transform="translate(-37.02 -41.9)"/><path class="c" d="M372.71,454h17.76a2.05,2.05,0,0,1,2,2.05h0a2,2,0,0,1-2,2H372.71a2.05,2.05,0,0,1-2-2h0A2.05,2.05,0,0,1,372.71,454Z" transform="translate(-37.02 -41.9)"/><path class="b" d="M47.55,141V74.82a2.05,2.05,0,0,1,2-2h0a2.05,2.05,0,0,1,2,2V141a2.05,2.05,0,0,1-2,2h0A2,2,0,0,1,47.55,141Z" transform="translate(-37.02 -41.9)"/><path class="b" d="M47.55,66.13V43.94a2,2,0,0,1,2-2h0a2.05,2.05,0,0,1,2,2V66.13a2.05,2.05,0,0,1-2,2h0A2,2,0,0,1,47.55,66.13Z" transform="translate(-37.02 -41.9)"/><path class="c" d="M37,54.21V50.89a2.05,2.05,0,0,1,2-2h0a2,2,0,0,1,2,2v3.32a2,2,0,0,1-2,2h0A2,2,0,0,1,37,54.21Z" transform="translate(-37.02 -41.9)"/><path class="c" d="M37,66.56V63.24a2.05,2.05,0,0,1,2-2h0a2,2,0,0,1,2,2v3.32a2,2,0,0,1-2,2h0A2.05,2.05,0,0,1,37,66.56Z" transform="translate(-37.02 -41.9)"/><path class="c" d="M37,86.31V75.59a2.05,2.05,0,0,1,2-2h0a2.05,2.05,0,0,1,2,2V86.31a2.05,2.05,0,0,1-2,2h0A2.05,2.05,0,0,1,37,86.31Z" transform="translate(-37.02 -41.9)"/><path class="c" d="M37,113.47V95.71a2.05,2.05,0,0,1,2-2h0a2.05,2.05,0,0,1,2,2v17.76a2,2,0,0,1-2,2h0A2.05,2.05,0,0,1,37,113.47Z" transform="translate(-37.02 -41.9)"/><path class="c" d="M58.08,72.91V69.6a2.05,2.05,0,0,1,2.05-2h0a2.05,2.05,0,0,1,2,2v3.31a2.05,2.05,0,0,1-2,2h0A2.05,2.05,0,0,1,58.08,72.91Z" transform="translate(-37.02 -41.9)"/><path class="c" d="M58.08,85.26V81.94a2.05,2.05,0,0,1,2.05-2h0a2,2,0,0,1,2,2v3.32a2,2,0,0,1-2,2h0A2,2,0,0,1,58.08,85.26Z" transform="translate(-37.02 -41.9)"/><path class="c" d="M58.08,105V94.29a2.05,2.05,0,0,1,2.05-2h0a2,2,0,0,1,2,2V105a2,2,0,0,1-2,2h0A2.05,2.05,0,0,1,58.08,105Z" transform="translate(-37.02 -41.9)"/><path class="c" d="M58.08,132.17V114.41a2.05,2.05,0,0,1,2.05-2h0a2,2,0,0,1,2,2v17.76a2,2,0,0,1-2,2h0A2.05,2.05,0,0,1,58.08,132.17Z" transform="translate(-37.02 -41.9)"/><path class="c" d="M326.74,59.24V55.92a2,2,0,0,1,2-2h0a2.05,2.05,0,0,1,2.05,2v3.32a2.05,2.05,0,0,1-2.05,2h0A2.05,2.05,0,0,1,326.74,59.24Z" transform="translate(-37.02 -41.9)"/><path class="d" d="M340.65,59.24V55.92a2,2,0,0,1,2-2h0a2.05,2.05,0,0,1,2.05,2v3.32a2.05,2.05,0,0,1-2.05,2h0A2.05,2.05,0,0,1,340.65,59.24Z" transform="translate(-37.02 -41.9)"/><path class="c" d="M354.56,59.24V55.92a2,2,0,0,1,2-2h0a2.05,2.05,0,0,1,2,2v3.32a2.05,2.05,0,0,1-2,2h0A2.05,2.05,0,0,1,354.56,59.24Z" transform="translate(-37.02 -41.9)"/><path class="c" d="M368.47,59.24V55.92a2,2,0,0,1,2-2h0a2.05,2.05,0,0,1,2.05,2v3.32a2.05,2.05,0,0,1-2.05,2h0A2.05,2.05,0,0,1,368.47,59.24Z" transform="translate(-37.02 -41.9)"/><path class="c" d="M382.38,59.24V55.92a2,2,0,0,1,2-2h0a2.05,2.05,0,0,1,2.05,2v3.32a2.05,2.05,0,0,1-2.05,2h0A2.05,2.05,0,0,1,382.38,59.24Z" transform="translate(-37.02 -41.9)"/><path class="c" d="M65.12,373.28h3.32a2.05,2.05,0,0,1,2,2.05h0a2.05,2.05,0,0,1-2,2H65.12a2,2,0,0,1-2-2h0A2.05,2.05,0,0,1,65.12,373.28Z" transform="translate(-37.02 -41.9)"/><path class="d" d="M65.12,387.19h3.32a2.05,2.05,0,0,1,2,2.05h0a2.05,2.05,0,0,1-2,2H65.12a2,2,0,0,1-2-2h0A2.05,2.05,0,0,1,65.12,387.19Z" transform="translate(-37.02 -41.9)"/><path class="c" d="M65.12,401.1h3.32a2.05,2.05,0,0,1,2,2h0a2.05,2.05,0,0,1-2,2H65.12a2,2,0,0,1-2-2h0A2.05,2.05,0,0,1,65.12,401.1Z" transform="translate(-37.02 -41.9)"/><path class="c" d="M65.12,415h3.32a2.05,2.05,0,0,1,2,2.05h0a2.05,2.05,0,0,1-2,2H65.12a2,2,0,0,1-2-2h0A2.05,2.05,0,0,1,65.12,415Z" transform="translate(-37.02 -41.9)"/><path class="c" d="M65.12,428.92h3.32a2.05,2.05,0,0,1,2,2.05h0a2.05,2.05,0,0,1-2,2H65.12a2,2,0,0,1-2-2h0A2.05,2.05,0,0,1,65.12,428.92Z" transform="translate(-37.02 -41.9)"/><path class="e" d="M135.32,173.24h0a2.58,2.58,0,0,1,2.58,2.57v26.44a2.59,2.59,0,0,1-2.58,2.58h0a2.59,2.59,0,0,1-2.58-2.58V175.81A2.58,2.58,0,0,1,135.32,173.24Z" transform="translate(-37.02 -41.9)"/><path class="e" d="M130.3,184.45h0a2.45,2.45,0,0,1,2.44,2.45v14.36a2.45,2.45,0,0,0-2.44-2.44h0a2.45,2.45,0,0,0-2.44,2.44V186.9A2.45,2.45,0,0,1,130.3,184.45Z" transform="translate(-37.02 -41.9)"/><path class="e" d="M124.39,185.68h0a3.48,3.48,0,0,1,3.47,3.47v21.22a3.47,3.47,0,0,1-3.47,3.46h0a3.47,3.47,0,0,1-3.47-3.46V189.15A3.48,3.48,0,0,1,124.39,185.68Z" transform="translate(-37.02 -41.9)"/><path class="e" d="M117.46,185.54h0a3.47,3.47,0,0,1,3.46,3.47v12.21a3.47,3.47,0,0,0-3.46-3.47h0a3.48,3.48,0,0,0-3.47,3.47V189A3.48,3.48,0,0,1,117.46,185.54Z" transform="translate(-37.02 -41.9)"/><path class="e" d="M108.15,185.54h0a5.86,5.86,0,0,1,5.84,5.85v12.12a5.86,5.86,0,0,1-5.84,5.84h0a5.86,5.86,0,0,1-5.85-5.84V191.39A5.86,5.86,0,0,1,108.15,185.54Z" transform="translate(-37.02 -41.9)"/><path class="f" d="M132.32,137c12.7,7.33,15.81,25.72,7,41.07s-26.35,21.84-39,14.5l-5.58-3.22.48-.82c-8.27-8.79-9.38-24-1.86-37s21.24-19.66,33-16.9l.48-.82Z" transform="translate(-37.02 -41.9)"/><path class="g" d="M135.65,183.33a34,34,0,0,1-16.4,11.17L98.58,182.57l8.94-15.48Z" transform="translate(-37.02 -41.9)"/><path class="b" d="M126.74,133.81c12.7,7.33,15.82,25.72,7,41.06s-26.35,21.84-39,14.51-15.82-25.72-7-41.07S114,126.47,126.74,133.81Z" transform="translate(-37.02 -41.9)"/><path class="h" d="M122.8,140.62c9.59,5.53,11.94,19.41,5.25,31s-19.88,16.48-29.47,10.95-11.94-19.42-5.25-31S113.21,135.08,122.8,140.62Z" transform="translate(-37.02 -41.9)"/><path class="i" d="M107.24,185.29A17.44,17.44,0,0,1,98.36,183a18.81,18.81,0,0,1-9-13.54A27.26,27.26,0,0,1,93,151.34c4.71-8.16,13-13.45,21.2-13.45a17.56,17.56,0,0,1,8.88,2.34c9.78,5.65,12.21,19.83,5.41,31.61C123.72,180,115.4,185.29,107.24,185.29Zm6.91-46.5c-7.85,0-15.87,5.1-20.43,13a26.35,26.35,0,0,0-3.43,17.47,17.94,17.94,0,0,0,8.52,12.92,16.62,16.62,0,0,0,8.43,2.22c7.85,0,15.87-5.11,20.43-13,6.55-11.35,4.27-25-5.09-30.39A16.66,16.66,0,0,0,114.15,138.79Z" transform="translate(-37.02 -41.9)"/><path class="j" d="M89.64,149.88a.37.37,0,0,1-.22-.06.43.43,0,0,1-.16-.6c.39-.68.79-1.33,1.21-2a.45.45,0,0,1,.62-.12.44.44,0,0,1,.12.62c-.41.62-.8,1.26-1.18,1.91A.44.44,0,0,1,89.64,149.88Zm2.52-3.78a.44.44,0,0,1-.27-.09.45.45,0,0,1-.09-.63c8.88-11.71,23.1-15.75,33.8-9.6a.45.45,0,0,1-.45.77c-10.3-5.92-24-2-32.64,9.37A.44.44,0,0,1,92.16,146.1Z" transform="translate(-37.02 -41.9)"/><path class="k" d="M106.45,190.2a21.17,21.17,0,0,1-10.66-2.79.44.44,0,1,1,.44-.77c10.35,6,24.58,1.66,33.11-10a.45.45,0,1,1,.72.53C124,185.52,115,190.2,106.45,190.2ZM131,175.45a.4.4,0,0,1-.24-.07.45.45,0,0,1-.14-.62c.26-.4.51-.82.76-1.24a.45.45,0,0,1,.77.45c-.25.43-.51.86-.78,1.27A.43.43,0,0,1,131,175.45Z" transform="translate(-37.02 -41.9)"/><path class="l" d="M107.79,181.59a15,15,0,0,1-7-1.7A15.53,15.53,0,0,1,93,169.65a.44.44,0,0,1,.86-.22,14.72,14.72,0,0,0,7.3,9.67,15.16,15.16,0,0,0,12.46.51c8-3,13.85-11.18,14.36-20a.45.45,0,0,1,.89,0c-.53,9.16-6.67,17.7-14.94,20.77A17.66,17.66,0,0,1,107.79,181.59ZM92.92,164h0a.43.43,0,0,1-.42-.47c.52-9.16,6.66-17.7,14.93-20.78a16,16,0,0,1,13.2.56,15.57,15.57,0,0,1,7.74,10.24.44.44,0,0,1-.32.54.45.45,0,0,1-.54-.33,14.72,14.72,0,0,0-7.3-9.67,15.13,15.13,0,0,0-12.46-.5c-8,2.95-13.86,11.17-14.36,20A.45.45,0,0,1,92.92,164Z" transform="translate(-37.02 -41.9)"/><path class="l" d="M128,157.07a1.61,1.61,0,0,1-1.6-1.4,2.28,2.28,0,0,1,1.43-2.46,1.64,1.64,0,0,1,2.22,1.28,2.29,2.29,0,0,1-1.42,2.47A2,2,0,0,1,128,157.07Zm.46-3.09a.87.87,0,0,0-.32.06,1.41,1.41,0,0,0-.86,1.48.75.75,0,0,0,1,.6,1.42,1.42,0,0,0,.85-1.48A.72.72,0,0,0,128.45,154Z" transform="translate(-37.02 -41.9)"/><path class="l" d="M92.94,170.09a1.61,1.61,0,0,1-1.6-1.4,2.28,2.28,0,0,1,1.43-2.46A1.64,1.64,0,0,1,95,167.51,2.29,2.29,0,0,1,93.57,170,1.74,1.74,0,0,1,92.94,170.09ZM93.4,167a.88.88,0,0,0-.32.07,1.4,1.4,0,0,0-.86,1.47.74.74,0,0,0,1,.6,1.41,1.41,0,0,0,.85-1.48A.72.72,0,0,0,93.4,167Z" transform="translate(-37.02 -41.9)"/><path class="e" d="M110.34,145.75l7.75,4.47a21.19,21.19,0,0,1,3.3,2.22,5.34,5.34,0,0,1,1.47,2.13,6.69,6.69,0,0,1,.36,2.81,7.12,7.12,0,0,1-1,3.08,7.2,7.2,0,0,1-2.47,2.58,5.57,5.57,0,0,1-3.17.91,6,6,0,0,1,1.49,3.7,7.52,7.52,0,0,1-1.1,4.08,9.49,9.49,0,0,1-2.41,2.76,7.06,7.06,0,0,1-3.08,1.45,5.8,5.8,0,0,1-3.27-.4c-.69-.3-2.3-1.15-4.8-2.57l-6.6-3.81,13.51-23.41Zm1.68,6.16-3.11,5.39,2.56,1.48a32.59,32.59,0,0,0,2.88,1.56,2.73,2.73,0,0,0,2.06.07,3.2,3.2,0,0,0,1.63-1.48,3.42,3.42,0,0,0,.51-2.05,2.41,2.41,0,0,0-1-1.67c-.36-.28-1.46-1-3.29-2L112,151.91Zm-5.36,9.28L103,167.47l3.63,2.09a18.36,18.36,0,0,0,2.77,1.41,2.67,2.67,0,0,0,2-.12,3.82,3.82,0,0,0,1.7-1.67,4.08,4.08,0,0,0,.61-2,2.84,2.84,0,0,0-.6-1.78,12.61,12.61,0,0,0-3.28-2.34Z" transform="translate(-37.02 -41.9)"/><rect class="j" x="111.79" y="146.88" width="4.95" height="2.27" transform="translate(-108.06 131.17) rotate(-60.03)"/><rect class="j" x="115.71" y="149.15" width="4.95" height="2.27" transform="translate(-108.08 135.56) rotate(-59.99)"/><rect class="j" x="98.28" y="170.29" width="4.95" height="2.27" transform="translate(-135.1 131.02) rotate(-59.99)"/><rect class="j" x="102.2" y="172.55" width="4.95" height="2.26" transform="translate(-135.1 135.67) rotate(-60.02)"/><path class="j" d="M111.69,196.08A23.19,23.19,0,0,1,100,193a.44.44,0,1,1,.44-.77c6,3.48,13.34,3.91,20.59,1.22a35.05,35.05,0,0,0,17.85-15.57.45.45,0,0,1,.77.45,36,36,0,0,1-18.31,16A27.62,27.62,0,0,1,111.69,196.08Z" transform="translate(-37.02 -41.9)"/><path class="e" d="M124.39,216.71h0a3.48,3.48,0,0,1,3.47,3.47v.75a3.48,3.48,0,0,1-3.47,3.47h0a3.48,3.48,0,0,1-3.47-3.47v-.75A3.48,3.48,0,0,1,124.39,216.71Z" transform="translate(-37.02 -41.9)"/><rect class="j" x="365.04" y="171.39" width="5.16" height="31.59" rx="2.58"/><path class="e" d="M399.62,224.5h0a2.45,2.45,0,0,1,2.45,2.44v14.37a2.45,2.45,0,0,0-2.45-2.44h0a2.45,2.45,0,0,0-2.44,2.44V226.94A2.45,2.45,0,0,1,399.62,224.5Z" transform="translate(-37.02 -41.9)"/><path class="e" d="M393.71,225.73h0a3.48,3.48,0,0,1,3.47,3.47v21.22a3.47,3.47,0,0,1-3.47,3.46h0a3.47,3.47,0,0,1-3.46-3.46V229.2A3.48,3.48,0,0,1,393.71,225.73Z" transform="translate(-37.02 -41.9)"/><path class="e" d="M386.78,225.59h0a3.48,3.48,0,0,1,3.47,3.47v12.21a3.47,3.47,0,0,0-3.47-3.46h0a3.47,3.47,0,0,0-3.46,3.46V229.06A3.48,3.48,0,0,1,386.78,225.59Z" transform="translate(-37.02 -41.9)"/><path class="e" d="M377.47,214.83h0a5.86,5.86,0,0,1,5.85,5.84v22.89a5.86,5.86,0,0,1-5.85,5.84h0a5.85,5.85,0,0,1-5.84-5.84V220.67A5.85,5.85,0,0,1,377.47,214.83Z" transform="translate(-37.02 -41.9)"/><path class="e" d="M393.71,256.76h0a3.48,3.48,0,0,1,3.47,3.46V261a3.48,3.48,0,0,1-3.47,3.47h0a3.48,3.48,0,0,1-3.46-3.47v-.76A3.47,3.47,0,0,1,393.71,256.76Z" transform="translate(-37.02 -41.9)"/><path class="f" d="M407.46,228.9c-7.45,8.13-23.71,5.36-36.33-6.19s-16.81-27.5-9.36-35.63L365,183.5l.68.62c8.34-4.13,21.67-.66,32.37,9.14s15.35,22.77,12,31.45l.68.62Z" transform="translate(-37.02 -41.9)"/><path class="g" d="M366.88,218.29a37.15,37.15,0,0,1-8.35-16.43l12.11-13.23,12.73,11.65Z" transform="translate(-37.02 -41.9)"/><path class="b" d="M410.73,225.33c-7.44,8.13-23.71,5.36-36.32-6.19s-16.82-27.5-9.37-35.64,23.71-5.36,36.32,6.19S418.17,217.19,410.73,225.33Z" transform="translate(-37.02 -41.9)"/><path class="h" d="M405.13,220.2c-5.62,6.14-17.9,4.05-27.42-4.67s-12.69-20.76-7.07-26.9,17.9-4,27.42,4.67S410.75,214.06,405.13,220.2Z" transform="translate(-37.02 -41.9)"/><path class="i" d="M396.14,224.17c-6.05,0-13.05-3.11-18.73-8.31a31.2,31.2,0,0,1-9.34-14.63c-1.38-5.23-.58-9.81,2.24-12.9a12.22,12.22,0,0,1,9.32-3.67c6,0,13.05,3.11,18.73,8.31a31.2,31.2,0,0,1,9.34,14.63c1.38,5.23.58,9.81-2.24,12.9A12.22,12.22,0,0,1,396.14,224.17Zm-16.51-38.62a11.34,11.34,0,0,0-8.66,3.38c-2.61,2.86-3.34,7.14-2,12.07A30.37,30.37,0,0,0,378,215.2c5.52,5.06,12.3,8.08,18.13,8.08a11.34,11.34,0,0,0,8.66-3.38c2.61-2.86,3.34-7.14,2-12.07a30.37,30.37,0,0,0-9.08-14.2C392.24,188.57,385.46,185.55,379.63,185.55Z" transform="translate(-37.02 -41.9)"/><path class="j" d="M408.79,224a.44.44,0,0,1-.3-.12.45.45,0,0,1,0-.63c6-6.56,3.66-18.71-5.48-28.9a.44.44,0,0,1,0-.63.45.45,0,0,1,.63,0c9.46,10.54,11.77,23.2,5.48,30.1A.44.44,0,0,1,408.79,224Zm-7-31.09a.44.44,0,0,1-.32-.13c-.51-.51-1-1-1.57-1.51a.45.45,0,0,1,0-.63.44.44,0,0,1,.63,0c.55.5,1.09,1,1.6,1.54a.43.43,0,0,1,0,.63A.42.42,0,0,1,401.81,192.91Z" transform="translate(-37.02 -41.9)"/><path class="k" d="M375.55,218.34a.42.42,0,0,1-.3-.12c-.36-.33-.7-.65-1-1a.44.44,0,1,1,.62-.63l1,1a.45.45,0,0,1,0,.63A.44.44,0,0,1,375.55,218.34ZM373,215.79a.43.43,0,0,1-.33-.14c-9.77-10.56-12.36-23.75-6-30.67a.44.44,0,0,1,.63,0,.45.45,0,0,1,0,.63c-6,6.58-3.44,19.25,6,29.47a.44.44,0,0,1,0,.63A.43.43,0,0,1,373,215.79Z" transform="translate(-37.02 -41.9)"/><path class="l" d="M394.83,221.1c-.49,0-1,0-1.51-.08a.44.44,0,1,1,.09-.88c3.76.36,6.91-.69,8.84-3s2.56-5.88,1.51-9.87c-1.91-7.27-8.59-14.41-16.25-17.35a.46.46,0,0,1-.26-.58.45.45,0,0,1,.58-.25c7.91,3,14.81,10.42,16.79,18,1.12,4.27.52,8.06-1.7,10.67A10.24,10.24,0,0,1,394.83,221.1Zm-6.73-1.36a.41.41,0,0,1-.16,0c-7.91-3-14.81-10.43-16.79-18-1.13-4.27-.52-8.06,1.69-10.67s5.54-3.66,9.61-3.27a.45.45,0,0,1,.4.48.44.44,0,0,1-.49.4c-3.77-.35-6.91.69-8.84,3s-2.56,5.88-1.51,9.87c1.91,7.27,8.59,14.41,16.25,17.35a.45.45,0,0,1,.25.58A.42.42,0,0,1,388.1,219.74Z" transform="translate(-37.02 -41.9)"/><path class="l" d="M392.64,222.14l-.3,0a2.64,2.64,0,0,1-2-1.81,1.34,1.34,0,0,1,.18-1.17,1.27,1.27,0,0,1,1.28-.42,2.65,2.65,0,0,1,2,1.81,1.34,1.34,0,0,1-.19,1.17A1.19,1.19,0,0,1,392.64,222.14Zm-1.1-2.57a.35.35,0,0,0-.28.11.47.47,0,0,0,0,.4,1.81,1.81,0,0,0,1.26,1.16.46.46,0,0,0,.43-.09.54.54,0,0,0,0-.41,1.78,1.78,0,0,0-1.27-1.15Z" transform="translate(-37.02 -41.9)"/><path class="l" d="M384.23,190.15l-.29,0a2.65,2.65,0,0,1-2-1.81,1.31,1.31,0,0,1,.19-1.17,1.25,1.25,0,0,1,1.27-.42,2.66,2.66,0,0,1,2,1.8,1.33,1.33,0,0,1-.19,1.18A1.19,1.19,0,0,1,384.23,190.15Zm-1.1-2.57a.37.37,0,0,0-.28.1.54.54,0,0,0,0,.41,1.78,1.78,0,0,0,1.27,1.15.4.4,0,0,0,.42-.09.51.51,0,0,0,0-.4,1.81,1.81,0,0,0-1.27-1.16Z" transform="translate(-37.02 -41.9)"/><path class="e" d="M401.7,208.68l-4.54,5a12.57,12.57,0,0,1-2.2,2,3.83,3.83,0,0,1-2,.57,6.53,6.53,0,0,1-2.48-.52,9.19,9.19,0,0,1-4.64-4.41,5,5,0,0,1-.52-2.81,4.85,4.85,0,0,1-3.35.13,8.9,8.9,0,0,1-3.46-2,11.33,11.33,0,0,1-2.2-2.73,7.28,7.28,0,0,1-1-2.9,3.88,3.88,0,0,1,.63-2.52,36.4,36.4,0,0,1,2.63-3.14l3.87-4.22,19.24,17.61Zm-5.5-.41-4.43-4.06-1.5,1.64a19.93,19.93,0,0,0-1.6,1.87,2,2,0,0,0-.24,1.64,3.7,3.7,0,0,0,1.16,1.74,4,4,0,0,0,1.74,1,1.74,1.74,0,0,0,1.53-.33,24,24,0,0,0,2-2.08l1.31-1.43Zm-7.63-7-5.16-4.73-2.13,2.33a10.13,10.13,0,0,0-1.45,1.82,2.09,2.09,0,0,0-.06,1.62,4.44,4.44,0,0,0,1.31,1.85,5.08,5.08,0,0,0,1.72,1.08,2.41,2.41,0,0,0,1.61,0,7.72,7.72,0,0,0,2.31-2Z" transform="translate(-37.02 -41.9)"/><rect class="j" x="398.55" y="208.8" width="1.7" height="4.78" transform="translate(-63.2 320.98) rotate(-47.49)"/><rect class="j" x="396.25" y="211.32" width="1.7" height="4.78" transform="translate(-65.67 320.47) rotate(-47.54)"/><rect class="j" x="379.31" y="191.19" width="1.7" height="4.78" transform="translate(-56.57 300.77) rotate(-47.44)"/><rect class="j" x="377.01" y="193.71" width="1.7" height="4.78" transform="translate(-58.87 300.69) rotate(-47.56)"/><path class="j" d="M395.59,234a26.47,26.47,0,0,1-4.43-.39c-6.94-1.19-14.16-4.94-20.33-10.59a.44.44,0,0,1,0-.63.45.45,0,0,1,.63,0c6,5.53,13.09,9.21,19.87,10.37s12.33-.33,15.82-4.15a.44.44,0,0,1,.63,0,.45.45,0,0,1,0,.63C404.89,232.36,400.65,234,395.59,234Z" transform="translate(-37.02 -41.9)"/><path class="g" d="M151.84,287.65s-16.14,9.46-24.53,14.75-10.06,26.47-9,36.43,8.2,14.56,22.57,19.59,23.73-10.24,32.5-22Z" transform="translate(-37.02 -41.9)"/><path class="g" d="M189.48,237.29a25.73,25.73,0,0,0-15.1,11c-5.71,9.08-36.92,51.73-36.92,51.73L167,333.54s26.49-28.31,26.4-36S189.48,237.29,189.48,237.29Z" transform="translate(-37.02 -41.9)"/><path class="g" d="M365.09,315c-4.91-7.37-14.83-32.81-26.17-50.22-6.44-9.9-12.41-14.62-17.82-17.14l-7.85,3.73-8,18.47-9.55,20.69s1,16.13,1.07,17.43,19.19,13.45,19.19,13.45Z" transform="translate(-37.02 -41.9)"/><path class="g" d="M335.34,298.74s17.83,9.08,27.11,14.17,11.59,26.22,10.65,36.2-8.61,14.75-24.17,20.12S322.8,359.55,313,348Z" transform="translate(-37.02 -41.9)"/><path class="b" d="M230.89,202s-.74,3.81-1.37,7.1-.41,13.37-.41,13.37c-.48,2.74-.91,9.47-4.89,9.38-6.75-.16,4.45,23.31,13.52,25.74C248.23,260.37,270,248,282,240.76c1.5-.92,0-5.07,1.22-5.67,0,0-5.8-2.13-6.41-7.47S278,202.86,278,202.86Z" transform="translate(-37.02 -41.9)"/><path class="f" d="M230.89,202s-.74,3.81-1.37,7.1-.41,13.37-.41,13.37c-.21,1.17-.4,3.08-.87,4.87,4.33,3.69,9.09,7.55,11.6,8.93a24.47,24.47,0,0,0,21.91-.24c3.19-1.86,10.05-7.93,14.92-12.38.1-7.64,1.34-20.75,1.34-20.75Z" transform="translate(-37.02 -41.9)"/><path class="g" d="M283.2,235.09l37.9,12.51s-30.62,42.78-5.4,90.21l-10.22,73.13s4.22,5,1.65,10.83a181.49,181.49,0,0,1-136.83-9.25l-2.57-71.06c-5.52-56.29.84-50.44,21.75-104.17l34.74-5.48C225.94,251.18,256.52,253.16,283.2,235.09Z" transform="translate(-37.02 -41.9)"/><path class="k" d="M356,309.89a.54.54,0,0,1-.21-.05c-9.19-4.87-20.54-10.65-20.65-10.71a.44.44,0,0,1-.2-.59.45.45,0,0,1,.6-.2c.09,0,6.43,3.28,13.47,6.94l2.61-.49a.45.45,0,0,1,.52.36.44.44,0,0,1-.36.52l-1.49.27,5.92,3.11a.45.45,0,0,1,.19.6A.46.46,0,0,1,356,309.89ZM246.2,255.81a38.81,38.81,0,0,1-14-2.35c-9-3.54-13.8-10.72-13.91-20.77a.44.44,0,0,1,.44-.45h0a.44.44,0,0,1,.45.44c.1,9.66,4.72,16.56,13.34,19.95,16.26,6.39,44.46-1.06,58-15.33a.45.45,0,0,1,.63,0,.44.44,0,0,1,0,.63C280.76,248.83,261.93,255.81,246.2,255.81Z" transform="translate(-37.02 -41.9)"/><path class="b" d="M324.49,278.64l-12.23-25.53s-3.49-3.73-6.44-.09-.16,13,1.57,20.4,3.7,15,3.7,15l-24.56-34s-2.87-4-6.29-.64.77,12.47,7,23.87,14.5,25.66,14.5,25.66a34.62,34.62,0,0,0,2.79,11.88s.28,11.14-5.27,13.48c0,0-5.95,1.48-11,.36s-17.7-2.47-22.56-2.26-6.17,3-6.68,6.28.62,7.06,10.93,9.14,21.37,1.33,30.51,3.9,20.16,12.72,32.35,7.56a21.69,21.69,0,0,0,17.91.43c9.37-4.19,6.5-21.9,6.5-21.9s2.87-10.4,3.92-14.26-3.22-7.89-7.83-5.4a27.79,27.79,0,0,0-6.85,4.94s-8-35-10.3-42.67S324.69,269.9,324.49,278.64Z" transform="translate(-37.02 -41.9)"/><path class="f" d="M280.27,327.77a112.67,112.67,0,0,0-14.53-1c-4.87.21-6.17,3-6.68,6.28s.62,7.06,10.93,9.14c2.42.49,4.89.82,7.35,1.08A60.68,60.68,0,0,0,280.27,327.77Z" transform="translate(-37.02 -41.9)"/><path class="k" d="M332.85,354.1a.44.44,0,0,1-.44-.4c-1.11-10.74-4-18.46-7.61-24-.46-.64-.83-1.19-1.09-1.59-8.23-11.44-19-12.46-19.2-12.47a.45.45,0,0,1-.41-.48.46.46,0,0,1,.48-.41c.16,0,10.83,1,19.22,12a.37.37,0,0,1,.21.18l.39.62c.4.56.81,1.15,1.2,1.77a44.4,44.4,0,0,0,10.57,10.77.44.44,0,0,1,.12.62.43.43,0,0,1-.61.12,38.78,38.78,0,0,1-7.46-6.75,60.48,60.48,0,0,1,5.08,19.56.46.46,0,0,1-.4.49Zm20-19.58a11.12,11.12,0,0,1-4.28-1,.45.45,0,0,1,.34-.83c5.61,2.35,7.92-.68,8-.81a.45.45,0,0,1,.62-.1.44.44,0,0,1,.1.62A5.89,5.89,0,0,1,352.83,334.52ZM342,323.93a.45.45,0,0,1-.38-.22c-.45-.72-.9-1.43-1.35-2.12l0,0v0q-6.37-9.68-13.27-14.81a.37.37,0,0,1-.2-.15,27.88,27.88,0,0,0-10.72-5A19.48,19.48,0,0,0,302,303.65a.45.45,0,0,1-.51-.73,19.52,19.52,0,0,1,12.25-2.6l-3.08-11.76a.44.44,0,0,1,.86-.22l3.17,12.1c.51.07,1,.16,1.55.27a28.23,28.23,0,0,1,10.35,4.65L324,278.68a.45.45,0,0,1,.4-.48.44.44,0,0,1,.49.4l2.63,27.45a58.52,58.52,0,0,1,13.2,14.66l5.49-3.62a.45.45,0,0,1,.62.13.44.44,0,0,1-.13.62l-5.49,3.61c.38.59.76,1.18,1.14,1.79a.45.45,0,0,1-.14.62A.55.55,0,0,1,342,323.93Z" transform="translate(-37.02 -41.9)"/><path class="b" d="M130.06,273.64l10.82-24s3.17-3.54,6-.22.43,12.11-1,19-3.13,14-3.13,14l22.11-32.13s2.58-3.74,5.82-.72-.45,11.61-6,22.32-12.93,24.14-12.93,24.14a32.1,32.1,0,0,1-2.34,11.09s0,10.35,5.17,12.41c0,0,5.56,1.25,10.22.1s16.38-2.66,20.9-2.57,5.79,2.64,6.34,5.7-.44,6.57-10,8.71-19.82,1.69-28.25,4.26-18.46,12.24-29.89,7.7a20.16,20.16,0,0,1-16.62.78c-8.8-3.7-6.5-20.21-6.5-20.21l-3.95-13.16c-1.06-3.56,2.84-7.4,7.17-5.18a25.57,25.57,0,0,1,6.46,4.45s6.71-32.68,8.67-39.85S129.69,265.52,130.06,273.64Z" transform="translate(-37.02 -41.9)"/><path class="f" d="M169.41,318.77a116.92,116.92,0,0,1,16.22-1.66c4.53.1,5.79,2.64,6.34,5.69s-.44,6.58-10,8.72a98.8,98.8,0,0,1-12,1.73,57.78,57.78,0,0,1-.8-9.55C169.2,322,169.28,320.4,169.41,318.77Z" transform="translate(-37.02 -41.9)"/><path class="k" d="M123.86,343.93h0a.45.45,0,0,1-.41-.48,56.42,56.42,0,0,1,4.22-18.08,35.65,35.65,0,0,1-6.65,6.26.44.44,0,0,1-.62-.1.45.45,0,0,1,.11-.62,41.11,41.11,0,0,0,9.58-10.22c.36-.58.72-1.14,1.09-1.68.22-.36.34-.56.34-.58a.49.49,0,0,1,.2-.18c7.57-10.38,17.47-11.51,17.62-11.53a.45.45,0,0,1,.08.89c-.15,0-10.15,1.18-17.54,12-.24.38-.56.89-1,1.5-3.2,5.22-5.76,12.45-6.57,22.44A.45.45,0,0,1,123.86,343.93Zm-19.12-17.77a5.49,5.49,0,0,1-4.36-1.84.45.45,0,0,1,.09-.63.46.46,0,0,1,.62.09c.09.12,2.29,2.86,7.42.58a.44.44,0,0,1,.58.23.45.45,0,0,1-.22.59A10.24,10.24,0,0,1,104.74,326.16Zm10-10.06a.45.45,0,0,1-.39-.68l1-1.66-5.15-3.22a.45.45,0,0,1-.14-.62.44.44,0,0,1,.61-.14l5.15,3.22a54.25,54.25,0,0,1,11.94-13.85l1.87-25.54a.45.45,0,0,1,.47-.42.44.44,0,0,1,.41.48l-1.81,24.76a26.36,26.36,0,0,1,9.48-4.5c.48-.11,1-.2,1.42-.28l2.68-11.29a.45.45,0,0,1,.54-.32.44.44,0,0,1,.33.53l-2.6,10.95a18,18,0,0,1,11.4,2.16.44.44,0,0,1,.13.61.45.45,0,0,1-.62.14,18,18,0,0,0-13.1-1.62,25.78,25.78,0,0,0-9.82,4.86.4.4,0,0,1-.19.14c-4.64,3.62-9.07,9-13.24,16.07A.44.44,0,0,1,114.72,316.1Z" transform="translate(-37.02 -41.9)"/><path class="e" d="M121.24,252.09a1.89,1.89,0,0,1,3.78-.26l.32,4.31a1.9,1.9,0,0,1-3.79.26l-.31-4.31Zm-5,6.35a1.9,1.9,0,0,1-2.78,2.59l-7.85-8.5a1.89,1.89,0,1,1,2.77-2.58l7.86,8.49Zm-6.69,8.73a1.89,1.89,0,1,1-.65,3.73l-4.75-.82a1.89,1.89,0,0,1,.66-3.73l4.74.82Z" transform="translate(-37.02 -41.9)"/><path class="e" d="M328.32,237.06a1.89,1.89,0,1,0-3.78-.26l-.31,4.31a1.89,1.89,0,1,0,3.78.26l.31-4.31Zm5.06,6.35a1.89,1.89,0,1,0,2.77,2.58L344,237.5a1.9,1.9,0,1,0-2.78-2.58l-7.85,8.49Zm6.68,8.72a1.9,1.9,0,0,0,.66,3.74l4.74-.82a1.9,1.9,0,0,0-.66-3.74l-4.74.82Z" transform="translate(-37.02 -41.9)"/><path class="b" d="M289.36,169.5s3.68-4.53,6.31-4.37,6.09,6,5.9,10.51S297,196,288.2,190.37,289.36,169.5,289.36,169.5Z" transform="translate(-37.02 -41.9)"/><path class="f" d="M286.6,174.35a1.05,1.05,0,0,0-.15,1.19.5.5,0,0,0,.8.11h0s2.85,13.77,4.7,11.54,3.8-4.39,4.47-7.94-2.38-6.66-1.35-7.62,2.12.42,2.22.55h0a9.68,9.68,0,0,1,1.35,2.55.52.52,0,0,0,.83.3,1.08,1.08,0,0,0,.35-1.15s-1.69-5.22-5.32-4.91C291.05,169.26,286.61,174.34,286.6,174.35Z" transform="translate(-37.02 -41.9)"/><path class="b" d="M203.5,172.91s-4-4.21-6.64-3.85-5.6,6.46-5,10.95,6.15,19.92,14.5,13.62S203.5,172.91,203.5,172.91Z" transform="translate(-37.02 -41.9)"/><path class="f" d="M206.64,177.53a1.06,1.06,0,0,1,.24,1.17.51.51,0,0,1-.79.18h0s-1.74,14-3.76,11.87-4.14-4.07-5.1-7.55,1.85-6.83.75-7.7-2.08.58-2.17.71h0a9.51,9.51,0,0,0-1.14,2.65.52.52,0,0,1-.81.36,1.09,1.09,0,0,1-.44-1.12s1.27-5.34,4.91-5.32C201.8,172.81,206.63,177.52,206.64,177.53Z" transform="translate(-37.02 -41.9)"/><path class="b" d="M243.56,96.83c-58.92,3.25-48.31,51.75-41.54,90.92,10.53,61,84.51,58,90.16-3.58C295.82,144.58,302.54,95.39,243.56,96.83Z" transform="translate(-37.02 -41.9)"/><path class="f" d="M258.91,172.75c2-4.26,4.52-6.59,7-7.52a8,8,0,0,1,5.15-.15,10.8,10.8,0,0,1,4.45,2.7,12.4,12.4,0,0,1,3.78,8.84.17.17,0,0,1-.34,0,10.23,10.23,0,0,0-3.26-6.1,10.79,10.79,0,0,0-4.8-2.62,8.71,8.71,0,0,0-5.59.5,13.44,13.44,0,0,0-6.07,6.19,11.3,11.3,0,0,0-1,2.48h0a9.67,9.67,0,0,0-.37,2.48.17.17,0,0,1-.18.17.17.17,0,0,1-.17-.16,11.82,11.82,0,0,1,.21-3.39A14.25,14.25,0,0,1,258.91,172.75Z" transform="translate(-37.02 -41.9)"/><path class="f" d="M222.07,167.08c2.52.71,5.11,2.77,7.41,6.74a13.74,13.74,0,0,1,1.36,3.23,11.63,11.63,0,0,1,.46,3.27.16.16,0,0,1-.15.16.17.17,0,0,1-.18-.15,10,10,0,0,0-.55-2.37,11.7,11.7,0,0,0-1.16-2.32,13.07,13.07,0,0,0-6.35-5.52,8.42,8.42,0,0,0-5.45-.06A10.4,10.4,0,0,0,213,173a9.83,9.83,0,0,0-2.68,6.15.17.17,0,0,1-.15.16.16.16,0,0,1-.19-.15,12,12,0,0,1,3-8.84,10.55,10.55,0,0,1,4.1-2.95A7.78,7.78,0,0,1,222.07,167.08Z" transform="translate(-37.02 -41.9)"/><path class="f" d="M217.64,135.54l4.43,4c17.31-2.41,47.63,15.62,62.38,3.57,9-7.38-7-13.27-8.27-13.59S217.64,135.54,217.64,135.54Z" transform="translate(-37.02 -41.9)"/><path class="g" d="M292.85,180c.5-5.36,1-11.34,1.41-16.83C296.7,126.3,293,99.6,244,100.8c-49,2.7-50.92,28.71-45.57,65.22.8,5.44,2,12.26,2.88,17.57h0s3-5.35,1.28-16.8c0,0,10.21-6.89,7.79-21.49-3.38-20.36,21.28-21.69,34.51-22.22s39-.09,34.8,20.11,9,24.1,9,24.1c-.79,11.55,4.15,12.66,4.15,12.66Z" transform="translate(-37.02 -41.9)"/><path class="f" d="M243.72,173.38a1.31,1.31,0,0,1-.09.28l-.25.5h0c-1.27,2.53-5.31,10.65-5.25,11.51.08.62,2.47,2.33,3,2.66,1.2.76,3.89-.48,4.85-.92,4.17-1.91-2.45,3.94-4.2,3.56a7.59,7.59,0,0,1-3.4-1.78c-.91-.74-2.19-2.13-2.35-3.3s4-9.75,5.38-12.53,1.24-4.47.84-5.46c-.27-.67-.33-1.7.68-.46A5.75,5.75,0,0,1,243.72,173.38Z" transform="translate(-37.02 -41.9)"/><path class="g" d="M230.85,158.44a2.33,2.33,0,0,1-.34,1.21,2.46,2.46,0,0,0-1.55-2.06c-5.87-2.43-15.1-.13-19.27,3.62h0a.13.13,0,0,0,0,.15.09.09,0,0,0,.13.07,19.61,19.61,0,0,1,9-1.79,21.75,21.75,0,0,1,9.42,2.35,3.19,3.19,0,0,0,1.51.53,1.71,1.71,0,0,0,1.52-1.14,4.47,4.47,0,0,0,.31-.83,3.52,3.52,0,0,0,.07-1.59,1.52,1.52,0,0,0-.35-.8l0,0h0c-.31-.1-.39.29-.39.29h0Z" transform="translate(-37.02 -41.9)"/><path class="g" d="M258.94,173.45c2-4.25,4.52-6.58,7.05-7.52a8.06,8.06,0,0,1,5.15-.14,10.7,10.7,0,0,1,4.44,2.7,12.35,12.35,0,0,1,3.79,8.83.17.17,0,0,1-.34,0,10.2,10.2,0,0,0-3.26-6.1,10.69,10.69,0,0,0-4.8-2.62,8.65,8.65,0,0,0-5.59.5,13.44,13.44,0,0,0-6.07,6.19,11.22,11.22,0,0,0-1,2.47h0a10.3,10.3,0,0,0-.38,2.49.17.17,0,0,1-.17.17.17.17,0,0,1-.17-.16,12.18,12.18,0,0,1,.2-3.39A15,15,0,0,1,258.94,173.45Z" transform="translate(-37.02 -41.9)"/><path class="g" d="M222.19,167.91c2.52.71,5.11,2.77,7.4,6.73a14.47,14.47,0,0,1,1.37,3.24,11.51,11.51,0,0,1,.46,3.26.17.17,0,0,1-.15.17.16.16,0,0,1-.18-.15,10.13,10.13,0,0,0-.55-2.38,11.14,11.14,0,0,0-1.17-2.31A12.93,12.93,0,0,0,223,171a8.39,8.39,0,0,0-5.44-.06,10.25,10.25,0,0,0-4.44,2.91,9.83,9.83,0,0,0-2.68,6.15.18.18,0,0,1-.16.16.17.17,0,0,1-.18-.15,12,12,0,0,1,3-8.84,10.57,10.57,0,0,1,4.1-3A7.78,7.78,0,0,1,222.19,167.91Z" transform="translate(-37.02 -41.9)"/><path class="g" d="M261,171.84a19,19,0,0,1,1-1.67,9.05,9.05,0,0,1,5.44-2c4.74-.19,8.72,3.17,8.89,7.5.29,7.22-9.06,9.46-14.08,6.42a8.09,8.09,0,0,1-2.22-2.59C259.15,177.17,259.66,174.25,261,171.84Z" transform="translate(-37.02 -41.9)"/><path class="g" d="M227.44,173.54A17.39,17.39,0,0,0,226.3,172a8.73,8.73,0,0,0-5.42-1.57c-4.6.18-8.19,3.74-8,7.95.28,7,9.5,8.45,14.12,5.12a7.77,7.77,0,0,0,2-2.68C229.65,178.56,228.93,175.77,227.44,173.54Z" transform="translate(-37.02 -41.9)"/><path class="a" d="M279.08,180.7H279a2.77,2.77,0,0,1-1.2-.6.44.44,0,0,1,0-.63.43.43,0,0,1,.62,0,2,2,0,0,0,.78.37.45.45,0,0,1-.1.88Z" transform="translate(-37.02 -41.9)"/><path class="a" d="M277.13,182.33a.47.47,0,0,1-.25-.07,2.23,2.23,0,0,1-.75-.83.45.45,0,0,1,.81-.38,1.36,1.36,0,0,0,.45.47.45.45,0,0,1,.11.62A.42.42,0,0,1,277.13,182.33Z" transform="translate(-37.02 -41.9)"/><path class="a" d="M209.83,183.46a.45.45,0,0,1-.42-.31.44.44,0,0,1,.28-.56,1.93,1.93,0,0,0,.75-.44.45.45,0,0,1,.67.59,2.74,2.74,0,0,1-1.14.69A.35.35,0,0,1,209.83,183.46Z" transform="translate(-37.02 -41.9)"/><path class="a" d="M211.9,184.93a.46.46,0,0,1-.35-.17.44.44,0,0,1,.07-.62,1.42,1.42,0,0,0,.41-.51.44.44,0,0,1,.83.32,2.27,2.27,0,0,1-.68.88A.42.42,0,0,1,211.9,184.93Z" transform="translate(-37.02 -41.9)"/><path class="e" d="M265.21,176.87a1.52,1.52,0,0,1,1.69,1.33,1.54,1.54,0,0,1-1.29,1.73,1.51,1.51,0,0,1-1.69-1.32A1.54,1.54,0,0,1,265.21,176.87Z" transform="translate(-37.02 -41.9)"/><path class="e" d="M218.91,179.27a1.46,1.46,0,0,1,1.64,1.28,1.46,1.46,0,1,1-1.64-1.28Z" transform="translate(-37.02 -41.9)"/><path class="f" d="M250.57,216.77a1.26,1.26,0,0,0,1.07-1.46,1.3,1.3,0,0,0-1.51-1,22.7,22.7,0,0,1-8.79.59c-1.72-.22-1.91,1.64-.2,1.86A36.93,36.93,0,0,0,250.57,216.77Z" transform="translate(-37.02 -41.9)"/><path class="g" d="M210.07,142.34c-3.56-.56-5.61-1.84-8.11-3.12C178,127,200,86.11,209.81,98c.11.13.27.59.33.42,8.11-26.68,52.84-27.81,40.43-11.14,0,0,32.52-9.54,34.34,13.87,6.61-17.14,27.31,38.72-5.23,42.06C252.47,146,234.4,134.12,210.07,142.34Z" transform="translate(-37.02 -41.9)"/><path class="g" d="M255.93,154.14a2.22,2.22,0,0,0,.38,1.23,2.6,2.6,0,0,1,1.55-2.19c6-2.74,15.53-.75,19.89,2.95h0a.14.14,0,0,1,0,.15.09.09,0,0,1-.13.08,20.16,20.16,0,0,0-9.32-1.48,22.86,22.86,0,0,0-9.65,2.81,3.23,3.23,0,0,1-1.54.61,1.69,1.69,0,0,1-1.58-1.12,4,4,0,0,1-.34-.83,3.81,3.81,0,0,1-.1-1.64,1.54,1.54,0,0,1,.35-.84l0,0h0c.32-.13.4.27.4.27h0Z" transform="translate(-37.02 -41.9)"/><path class="b" d="M273.52,151a.72.72,0,0,1,1.06.23.93.93,0,0,1-.2,1.2L268,157.22A.72.72,0,0,1,267,157a.93.93,0,0,1,.2-1.2Z" transform="translate(-37.02 -41.9)"/><path class="g" d="M295,186.18a1.12,1.12,0,0,1,.09,2.23,1.12,1.12,0,1,1-.09-2.23Z" transform="translate(-37.02 -41.9)"/><path class="f" d="M199.24,99.36c1.21,8.64,7.85,22.11,39.67,9.93l.82-.32c.6-.22.92-.36.93-.14h0a.15.15,0,0,1-.14.13h0c-.18.11-.53.28-1.07.54l-.43.2a120.9,120.9,0,0,1-12.59,5.15,64.76,64.76,0,0,1-10.69,2.79,29.75,29.75,0,0,1-10.7-.08,22.58,22.58,0,0,1-6.79-2.54l-.82-.47h0c-2.17-1.26-3.47-2-5.19-1.85a31.6,31.6,0,0,1,7-13.35Zm44.67,8s11.48-6.75,18.83-4.8a.13.13,0,0,1,.1.17.13.13,0,0,1-.15.09h0s-2.92-.47-4.58,1.41c-1.42,1.61-2.87,1.55-4.78,1.49-.44,0-.92,0-1.41,0a18.49,18.49,0,0,0-4.13.5,16.29,16.29,0,0,0-3.73,1.39h0a.14.14,0,0,1-.19-.06.14.14,0,0,1,0-.18Z" transform="translate(-37.02 -41.9)"/><path class="g" d="M231,195c3.38,1.07,8.64,1.1,13.85.37s10.32-2.21,13.35-4.18a1.3,1.3,0,0,1,1.8.39,1.27,1.27,0,0,1,.2.88h0c-1.1,7.73-3.62,13.29-6.84,16.56a11.3,11.3,0,0,1-6.65,3.49,11.06,11.06,0,0,1-7.25-1.79c-3.75-2.36-7.33-7-10.06-14a1.3,1.3,0,0,1,.74-1.68,1.34,1.34,0,0,1,.86,0Z" transform="translate(-37.02 -41.9)"/><path class="e" d="M231.84,195.21c3.37.83,8.2.8,13,.13,5.22-.73,10.32-2.21,13.35-4.18a1.3,1.3,0,0,1,1.8.39,1.27,1.27,0,0,1,.2.88h0c-.09.63-.19,1.24-.3,1.84-9,6.16-22.88,5.86-25.53,4.65A4.71,4.71,0,0,1,231.84,195.21Z" transform="translate(-37.02 -41.9)"/><path class="f" d="M235.89,207.71c2.14-1.5,5.57-2.72,10.61-1.33,0,0,5.07-6.29,11.85-6.09a22.85,22.85,0,0,1-5,8.7,11.3,11.3,0,0,1-6.65,3.49,11.06,11.06,0,0,1-7.25-1.79A18.26,18.26,0,0,1,235.89,207.71Z" transform="translate(-37.02 -41.9)"/><path class="i" d="M245,210.28h-.07a.43.43,0,0,1-.37-.5,8.59,8.59,0,0,1,2.17-5.05.44.44,0,0,1,.63,0,.45.45,0,0,1,0,.63,7.94,7.94,0,0,0-1.89,4.51A.44.44,0,0,1,245,210.28Z" transform="translate(-37.02 -41.9)"/><circle class="m" cx="189.16" cy="272.4" r="53.21"/><path class="f" d="M226.18,354.46A40.16,40.16,0,1,0,186,314.3,40.24,40.24,0,0,0,226.18,354.46Z" transform="translate(-37.02 -41.9)"/><path class="i" d="M226.18,354.9a40.61,40.61,0,1,1,40.61-40.6A40.64,40.64,0,0,1,226.18,354.9Zm0-80.32A39.72,39.72,0,1,0,265.9,314.3,39.77,39.77,0,0,0,226.18,274.58Z" transform="translate(-37.02 -41.9)"/><path class="l" d="M177.49,314.75a.45.45,0,0,1-.44-.45c0-1.26,0-2.55.14-3.82a.45.45,0,0,1,.48-.4.44.44,0,0,1,.41.47c-.09,1.25-.14,2.51-.14,3.75A.45.45,0,0,1,177.49,314.75Zm.57-7.53H178a.45.45,0,0,1-.37-.51,48.8,48.8,0,0,1,48.56-41.54h0a.44.44,0,0,1,.45.44.46.46,0,0,1-.45.45,47.93,47.93,0,0,0-47.68,40.78A.44.44,0,0,1,178.06,307.22Z" transform="translate(-37.02 -41.9)"/><path class="l" d="M226.18,363.44a.45.45,0,0,1-.44-.45.44.44,0,0,1,.44-.44A48.38,48.38,0,0,0,274,320.42a.45.45,0,0,1,.89.12A49.3,49.3,0,0,1,226.18,363.44Zm48.62-46.25h0a.44.44,0,0,1-.42-.46c0-.81.06-1.61.07-2.42a.45.45,0,0,1,.45-.45h0a.46.46,0,0,1,.44.45c0,.83,0,1.65-.07,2.46A.45.45,0,0,1,274.8,317.19Z" transform="translate(-37.02 -41.9)"/><path class="n" d="M226.15,348.47A34,34,0,0,1,204,340.33a.45.45,0,1,1,.58-.68A33.33,33.33,0,0,0,254.68,297a.45.45,0,1,1,.76-.47,34.17,34.17,0,0,1-29.29,51.94Zm-28.84-16.19a.43.43,0,0,1-.38-.21,34.23,34.23,0,0,1,51.47-43.8.45.45,0,0,1,0,.63.44.44,0,0,1-.62.05,33.33,33.33,0,0,0-50.13,42.65.45.45,0,0,1-.15.62A.46.46,0,0,1,197.31,332.28Z" transform="translate(-37.02 -41.9)"/><path class="n" d="M250.06,293.53a3.09,3.09,0,0,1-2.2-.91,3.12,3.12,0,0,1,0-4.4,3.19,3.19,0,0,1,4.41,0,3.11,3.11,0,0,1,0,4.4A3.09,3.09,0,0,1,250.06,293.53Zm0-5.33a2.22,2.22,0,0,0-1.57,3.79,2.28,2.28,0,0,0,3.15,0,2.22,2.22,0,0,0-1.58-3.79Z" transform="translate(-37.02 -41.9)"/><path class="n" d="M202.3,341.3a3.12,3.12,0,0,1,0-6.23h0a3.07,3.07,0,0,1,2.2.91,3.12,3.12,0,0,1-2.2,5.32Zm0-5.34a2.21,2.21,0,0,0-1.57.65,2.23,2.23,0,0,0,0,3.14,2.28,2.28,0,0,0,3.15,0A2.22,2.22,0,0,0,202.3,336Z" transform="translate(-37.02 -41.9)"/><path class="e" d="M209.71,291.84h17.92a52.53,52.53,0,0,1,7.94.44,11.77,11.77,0,0,1,4.68,1.85,11.58,11.58,0,0,1,3.45,3.73,10.13,10.13,0,0,1,1.38,5.24,10.61,10.61,0,0,1-6.29,9.69,11.91,11.91,0,0,1,6.29,4.08,10.87,10.87,0,0,1,2.18,6.77,13.31,13.31,0,0,1-1.41,6,12,12,0,0,1-3.9,4.63,12.84,12.84,0,0,1-6.07,2.13q-2.25.24-10.91.3H209.71V291.84Zm9.07,7.45v10.33h5.93q5.28,0,6.56-.16a5.9,5.9,0,0,0,3.65-1.59,4.71,4.71,0,0,0,1.33-3.49A4.94,4.94,0,0,0,235.1,301a5.13,5.13,0,0,0-3.4-1.56q-1.35-.17-7.72-.16Zm0,17.78v12h8.39a43.34,43.34,0,0,0,6.21-.27,5.62,5.62,0,0,0,3.28-1.8,5.53,5.53,0,0,0,1.28-3.82,5.81,5.81,0,0,0-1-3.43,5.48,5.48,0,0,0-2.83-2q-1.84-.64-8-.65Z" transform="translate(-37.02 -41.9)"/><rect class="j" x="179.49" y="245.84" width="4.54" height="8.21"/><rect class="j" x="188.57" y="245.84" width="4.54" height="8.21"/><rect class="j" x="179.49" y="290.65" width="4.54" height="8.21"/><rect class="j" x="188.57" y="290.65" width="4.54" height="8.21"/><path class="j" d="M350.76,354.52a.45.45,0,0,1-.41-.26.45.45,0,0,1,.23-.59c8.95-4,6.27-21.25,6.24-21.42a.61.61,0,0,1,0-.19s2.87-10.39,3.92-14.25a4.39,4.39,0,0,0-1.6-4.59,5,5,0,0,0-5.59-.31,27.55,27.55,0,0,0-6.73,4.86.46.46,0,0,1-.77-.21c-.08-.35-8-35.07-10.28-42.64-.86-2.86-2.87-4.45-5.26-4.12-2.69.36-5.48,3.18-5.59,7.85a.45.45,0,0,1-.35.43.46.46,0,0,1-.5-.25l-12.19-25.46a4.93,4.93,0,0,0-3.24-1.5,3.4,3.4,0,0,0-2.48,1.43c-2.47,3.06-.61,10.71,1,17.45.21.88.42,1.73.61,2.56,1.71,7.28,3.68,14.95,3.7,15a.42.42,0,0,1-.24.51.45.45,0,0,1-.55-.14l-24.56-34a4.6,4.6,0,0,0-2.87-1.78,3.58,3.58,0,0,0-2.75,1.2.45.45,0,1,1-.62-.64,4.39,4.39,0,0,1,3.45-1.45,5.47,5.47,0,0,1,3.51,2.14l23.19,32.14c-.71-2.83-2-7.89-3.12-12.77l-.62-2.56c-1.69-6.94-3.61-14.81-.86-18.22a4.21,4.21,0,0,1,3.14-1.76,5.78,5.78,0,0,1,4,1.82.36.36,0,0,1,.08.12L324.19,277c.67-4.19,3.48-6.71,6.21-7.07,2.24-.3,5.05.79,6.23,4.75,2.07,6.95,8.93,36.7,10.12,41.92a31.45,31.45,0,0,1,6.39-4.47,5.83,5.83,0,0,1,6.57.41,5.28,5.28,0,0,1,1.9,5.51c-1,3.65-3.61,13.13-3.89,14.17.24,1.57,2.53,18.11-6.78,22.28ZM107.24,344.7l-.18,0c-8.75-3.68-7-19.07-6.78-20.58-.3-1-2.91-9.71-3.91-13.07a5,5,0,0,1,1.66-5.2,5.46,5.46,0,0,1,6.13-.51,28.84,28.84,0,0,1,6,4c1-5,6.74-32.62,8.51-39.1,1-3.72,3.63-4.79,5.72-4.56,2.54.28,5.19,2.53,5.93,6.36l10.16-22.51a.41.41,0,0,1,.07-.11,5.46,5.46,0,0,1,3.68-1.79,4,4,0,0,1,3,1.59c2.63,3.11,1,10.47-.42,17-.18.82-.35,1.62-.52,2.39-.94,4.47-2,9.1-2.6,11.77l20.78-30.2a5.14,5.14,0,0,1,3.24-2.07,4,4,0,0,1,3.26,1.28.45.45,0,1,1-.61.65,3.23,3.23,0,0,0-2.55-1,4.26,4.26,0,0,0-2.61,1.7l-22.1,32.12a.44.44,0,0,1-.8-.35c0-.08,1.69-7.25,3.12-14,.17-.78.34-1.58.52-2.4,1.39-6.29,3-13.42.6-16.2a3.09,3.09,0,0,0-2.3-1.27,4.74,4.74,0,0,0-3,1.45l-10.78,23.9a.45.45,0,0,1-.49.26.46.46,0,0,1-.37-.42c-.19-4.32-2.82-6.87-5.32-7.14-2.21-.25-4,1.25-4.77,3.91-1.93,7.07-8.59,39.49-8.66,39.82a.42.42,0,0,1-.31.33.46.46,0,0,1-.45-.11,25.46,25.46,0,0,0-6.35-4.37,4.58,4.58,0,0,0-5.15.41,4.06,4.06,0,0,0-1.38,4.26c1.06,3.56,3.94,13.15,3.94,13.15a.41.41,0,0,1,0,.19c0,.16-2.15,16.22,6.23,19.73a.47.47,0,0,1,.24.59A.46.46,0,0,1,107.24,344.7ZM240.77,231.9h-.07c-14.19-2.27-30.72-13.07-37.38-36.4a5.93,5.93,0,0,1-4.5-1.15c-4.44-3.12-7.09-11.36-7.45-14.27-.56-4.61,2.48-11,5.43-11.45a3.91,3.91,0,0,1,1.58.17c-1.72-11.33-2.82-22.55-1.79-32.84-5.71-5.6-6.14-13.15-5.76-17.7.85-10.1,6.92-20.65,13-22.55a5.57,5.57,0,0,1,6.32,2,.45.45,0,0,1-.06.63.43.43,0,0,1-.62-.06,4.7,4.7,0,0,0-5.38-1.71c-5.77,1.81-11.55,12-12.37,21.78-.46,5.43.29,15.32,10.45,20.5a.45.45,0,0,1-.41.79,21.4,21.4,0,0,1-4.35-2.91c-1.31,14.53,1.56,30.95,4.33,46.85l.72,4.12c4.87,28.2,23,40.87,38.38,43.33a.45.45,0,0,1-.07.89ZM197.2,169.49a1.14,1.14,0,0,0-.27,0c-2.26.32-5.21,6.08-4.67,10.45.34,2.79,2.87,10.69,7.08,13.65a5.1,5.1,0,0,0,3.74,1c-.58-2.16-1.09-4.42-1.5-6.79l-.71-4.11c-.81-4.62-1.62-9.28-2.34-13.93A3.68,3.68,0,0,0,197.2,169.49Z" transform="translate(-37.02 -41.9)"/><path class="j" d="M226.18,373.09a58.64,58.64,0,0,1-39.77-15.5.45.45,0,0,1,0-.63.44.44,0,0,1,.63,0,57.9,57.9,0,0,0,81-2.65.44.44,0,0,1,.63,0,.45.45,0,0,1,0,.63A58.29,58.29,0,0,1,226.18,373.09Zm-56.69-72.16h-.11a.44.44,0,0,1-.32-.54,59,59,0,0,1,45-43.61.45.45,0,0,1,.53.35.44.44,0,0,1-.34.52,58.11,58.11,0,0,0-44.29,42.95A.45.45,0,0,1,169.49,300.93Z" transform="translate(-37.02 -41.9)"/><path class="b" d="M323.79,124.4H382a6.29,6.29,0,0,1,4.45,1.85h0a6.31,6.31,0,0,1,1.85,4.45v22.64a6.33,6.33,0,0,1-6.31,6.31H323.79a6.33,6.33,0,0,1-4.46-1.85h0a6.29,6.29,0,0,1-1.85-4.45V130.71a6.32,6.32,0,0,1,6.31-6.31Z" transform="translate(-37.02 -41.9)"/><rect class="n" x="275.92" y="78.56" width="69.08" height="33.48" rx="5.42"/><path class="e" d="M333.26,136.85a2.57,2.57,0,0,0,1.46-2.37c0-1.69-1.4-2.86-4.28-2.86h-5.59v10.93h5.91c2.93,0,4.49-1.1,4.49-3a2.77,2.77,0,0,0-2-2.71Zm-3.22-3c1,0,1.56.36,1.56,1.05S331.07,136,330,136h-2.13v-2.11Zm.47,6.47h-2.6V138.1h2.6c1.06,0,1.62.36,1.62,1.11s-.56,1.11-1.62,1.11Zm11.4,2.45c3.23,0,5.14-1.82,5.14-5.09v-6.06H344v6c0,1.87-.78,2.62-2.06,2.62s-2.08-.75-2.08-2.62v-6h-3.09v6.06c0,3.27,1.91,5.09,5.14,5.09ZM359,131.62h-3L353.44,136l-2.59-4.34h-3.27l4.17,7v4h3.1v-3.92Z" transform="translate(-37.02 -41.9)"/><polygon class="e" points="344.56 110.62 355.95 107.06 334.06 100.12 341 122.02 344.56 110.62"/><path class="j" d="M378,165.25a1.35,1.35,0,0,1-1.28-.93l-6.95-21.9a1.34,1.34,0,0,1,1.68-1.68l21.9,6.95a1.35,1.35,0,0,1,.93,1.28,1.33,1.33,0,0,1-.94,1.27l-10.72,3.35-3.35,10.72a1.33,1.33,0,0,1-1.27.94Zm-4.9-21.18L378,159.46l2.29-7.34a1.33,1.33,0,0,1,.87-.87l7.34-2.29Z" transform="translate(-37.02 -41.9)"/><path class="j" d="M365.39,137.22a.89.89,0,0,1-.63-.26l-.84-.84a.89.89,0,0,1,1.26-1.26l.84.84a.89.89,0,0,1,0,1.26A.85.85,0,0,1,365.39,137.22Z" transform="translate(-37.02 -41.9)"/><path class="j" d="M363,142.91h-1.19a.89.89,0,0,1,0-1.78H363a.89.89,0,1,1,0,1.78Z" transform="translate(-37.02 -41.9)"/><path class="j" d="M364.55,149.44a.91.91,0,0,1-.63-.26.9.9,0,0,1,0-1.27l.84-.84a.89.89,0,1,1,1.26,1.26l-.84.85A.89.89,0,0,1,364.55,149.44Z" transform="translate(-37.02 -41.9)"/><path class="j" d="M371.08,134.87a.89.89,0,0,1-.89-.89v-1.19a.89.89,0,0,1,1.78,0V134A.89.89,0,0,1,371.08,134.87Z" transform="translate(-37.02 -41.9)"/><path class="j" d="M376.76,137.22a.89.89,0,0,1-.63-.26.91.91,0,0,1,0-1.26l.85-.84a.89.89,0,0,1,1.26,0,.91.91,0,0,1,0,1.26l-.85.84A.85.85,0,0,1,376.76,137.22Z" transform="translate(-37.02 -41.9)"/><path class="j" d="M367.36,154.83h-49a6.33,6.33,0,0,1-6.32-6.32V125.88a6.32,6.32,0,0,1,6.32-6.31H376.6a6.32,6.32,0,0,1,6.32,6.31v22.63a.9.9,0,1,1-1.79,0V125.88a4.53,4.53,0,0,0-4.53-4.53H318.37a4.53,4.53,0,0,0-4.53,4.53v22.63a4.54,4.54,0,0,0,4.53,4.54h49a.89.89,0,0,1,0,1.78Z" transform="translate(-37.02 -41.9)"/><polygon class="e" points="128.81 89.02 122.31 89.02 125.56 83.78 128.81 89.02"/><path class="j" d="M165.85,131.36h-6.51a.44.44,0,0,1-.39-.23.43.43,0,0,1,0-.45l3.25-5.24a.46.46,0,0,1,.75,0l3.19,5.14a.45.45,0,0,1,.15.34A.45.45,0,0,1,165.85,131.36Zm-5.71-.89H165l-2.45-4Z" transform="translate(-37.02 -41.9)"/><path class="n" d="M165.54,139.89h0a.44.44,0,0,1-.38-.21l-3.25-5.24a.45.45,0,0,1,.38-.68h6.49a.44.44,0,0,1,.39.23.43.43,0,0,1,0,.45l-3.25,5.24A.44.44,0,0,1,165.54,139.89Zm-2.45-5.24,2.45,3.95,2.44-3.95Z" transform="translate(-37.02 -41.9)"/><polygon class="e" points="291.43 156.64 284.94 156.64 288.19 161.88 291.43 156.64"/><path class="j" d="M325.21,204.23a.44.44,0,0,1-.38-.21l-3.25-5.24a.45.45,0,0,1,0-.45.43.43,0,0,1,.39-.23h6.49a.42.42,0,0,1,.39.23.43.43,0,0,1,0,.45L325.59,204A.47.47,0,0,1,325.21,204.23ZM322.76,199l2.45,3.95,2.44-3.95Z" transform="translate(-37.02 -41.9)"/><path class="n" d="M331.43,195.7h-6.52a.45.45,0,0,1-.38-.68l3.25-5.24a.47.47,0,0,1,.76,0l3.18,5.14a.41.41,0,0,1,.15.33A.45.45,0,0,1,331.43,195.7Zm-5.72-.9h4.89l-2.44-3.94Z" transform="translate(-37.02 -41.9)"/><polygon class="e" points="299.09 346.49 292.6 346.49 295.85 341.25 299.09 346.49"/><path class="j" d="M336.14,388.83h-6.52a.44.44,0,0,1-.38-.68l3.25-5.24a.44.44,0,0,1,.38-.21h0a.47.47,0,0,1,.38.21l3.18,5.15a.45.45,0,0,1,.15.33A.44.44,0,0,1,336.14,388.83Zm-5.72-.89h4.89L332.87,384Z" transform="translate(-37.02 -41.9)"/><path class="n" d="M335.82,397.37a.43.43,0,0,1-.38-.22l-3.25-5.23a.47.47,0,0,1,0-.46.45.45,0,0,1,.39-.23h6.5a.45.45,0,0,1,.39.23.47.47,0,0,1,0,.46l-3.24,5.23A.44.44,0,0,1,335.82,397.37Zm-2.45-5.24,2.45,3.94,2.44-3.94Z" transform="translate(-37.02 -41.9)"/><polygon class="e" points="114.37 344.1 107.87 344.1 111.12 349.34 114.37 344.1"/><path class="j" d="M148.14,391.69a.47.47,0,0,1-.38-.21l-3.24-5.24a.43.43,0,0,1,0-.45.42.42,0,0,1,.39-.23h6.49a.43.43,0,0,1,.39.23.45.45,0,0,1,0,.45l-3.25,5.24A.44.44,0,0,1,148.14,391.69Zm-2.44-5.24,2.44,3.94,2.45-3.94Z" transform="translate(-37.02 -41.9)"/><path class="n" d="M154.36,383.16h-6.51a.45.45,0,0,1-.39-.23.45.45,0,0,1,0-.46l3.25-5.23a.44.44,0,0,1,.38-.21h0a.44.44,0,0,1,.37.21l3.19,5.14a.45.45,0,0,1-.3.78Zm-5.71-.9h4.89l-2.44-3.94Z" transform="translate(-37.02 -41.9)"/></svg>