<svg width="78" height="70" viewBox="0 0 78 70" fill="none" xmlns="http://www.w3.org/2000/svg">
<g clip-path="url(#clip0_575_293)">
<mask id="mask0_575_293" style="mask-type:luminance" maskUnits="userSpaceOnUse" x="0" y="0" width="78" height="70">
<path d="M77.2907 0H0.709473V70H77.2907V0Z" fill="white"/>
</mask>
<g mask="url(#mask0_575_293)">
<path d="M0.709473 62.1025V9.45296L22.2479 0.598261L42.3505 8.97433L63.889 0.119629V52.7692L42.3505 61.6239L22.2479 53.2478L0.709473 62.1025ZM22.2479 50.2564L42.3505 58.6325L61.1368 50.8547V4.06835L42.3505 11.8461L22.2479 3.47006L3.34195 11.2478V58.0342L22.2479 50.2564Z" fill="#293462"/>
<path d="M43.6667 47.1453H41.0342V60.0683H43.6667V47.1453Z" fill="#293462"/>
<path d="M43.6667 10.4102H41.0342V44.5128H43.6667V10.4102Z" fill="#293462"/>
<path d="M77.2907 13.5215H74.6582V16.2736H77.2907V13.5215Z" fill="#0057FF"/>
<path d="M70.59 13.5215H67.8379V16.2736H70.59V13.5215Z" fill="#0057FF"/>
<path d="M77.2907 20.2222H74.6582V22.9743H77.2907V20.2222Z" fill="#0057FF"/>
<path d="M77.2907 26.9231H74.6582V29.6753H77.2907V26.9231Z" fill="#0057FF"/>
<path d="M77.2907 33.7434H74.6582V36.3759H77.2907V33.7434Z" fill="#0057FF"/>
<path d="M77.2907 40.4443H74.6582V43.0768H77.2907V40.4443Z" fill="#0057FF"/>
<path d="M77.2907 47.1453H74.6582V49.7777H77.2907V47.1453Z" fill="#0057FF"/>
<path d="M77.2907 53.8462H74.6582V56.4787H77.2907V53.8462Z" fill="#0057FF"/>
<path d="M77.2907 60.5471H74.6582V63.2992H77.2907V60.5471Z" fill="#0057FF"/>
<path d="M77.2907 67.2478H74.6582V69.9999H77.2907V67.2478Z" fill="#0057FF"/>
<path d="M70.59 67.2478H67.8379V69.9999H70.59V67.2478Z" fill="#0057FF"/>
<path d="M63.8889 67.2478H61.1367V69.9999H63.8889V67.2478Z" fill="#0057FF"/>
<path d="M57.1882 67.2478H54.436V69.9999H57.1882V67.2478Z" fill="#0057FF"/>
<path d="M50.3673 67.2478H47.7349V69.9999H50.3673V67.2478Z" fill="#0057FF"/>
<path d="M43.6667 67.2478H41.0342V69.9999H43.6667V67.2478Z" fill="#0057FF"/>
<path d="M36.966 67.2478H34.3335V69.9999H36.966V67.2478Z" fill="#0057FF"/>
<path d="M30.2648 67.2478H27.6323V69.9999H30.2648V67.2478Z" fill="#0057FF"/>
<path d="M23.5641 67.2478H20.812V69.9999H23.5641V67.2478Z" fill="#0057FF"/>
<path d="M16.8635 67.2478H14.1113V69.9999H16.8635V67.2478Z" fill="#0057FF"/>
<path d="M16.8635 60.5471H14.1113V63.2992H16.8635V60.5471Z" fill="#0057FF"/>
<path d="M49.0514 13.5215H46.4189V29.6753H49.0514V13.5215Z" fill="#0057FF"/>
<path d="M28.9489 32.3076H26.1968V48.4614H28.9489V32.3076Z" fill="#0057FF"/>
<path d="M23.4445 2.03418H20.812V10.8889H23.4445V2.03418Z" fill="#293462"/>
<path d="M23.4445 13.5215H20.812V51.6924H23.4445V13.5215Z" fill="#293462"/>
</g>
</g>
<defs>
<clipPath id="clip0_575_293">
<rect width="78" height="70" fill="white"/>
</clipPath>
</defs>
</svg>
