<svg width="42" height="42" viewBox="0 0 42 42" fill="none" xmlns="http://www.w3.org/2000/svg">
<rect y="42" width="42" height="42" rx="10" transform="rotate(-90 0 42)" fill="url(#paint0_linear_1025_4659)"/>
<path fill-rule="evenodd" clip-rule="evenodd" d="M23.2369 18.7158V16.056H29.4032V12H12.6139V16.056H18.7802V18.7146C13.7688 18.9417 10 19.922 10 21.0956C10 22.2692 13.7688 23.2484 18.7802 23.4766V32H23.2369V23.4743C28.2403 23.2473 32 22.2681 32 21.0956C32 19.9231 28.2403 18.944 23.2369 18.7158ZM23.2369 22.7515V22.7493C23.1116 22.7582 22.4658 22.7965 21.0251 22.7965C19.8747 22.7965 19.0649 22.7627 18.7802 22.7493V22.7526C14.3519 22.5604 11.0467 21.7993 11.0467 20.8888C11.0467 19.9793 14.3519 19.2183 18.7802 19.0227V21.9949C19.0695 22.0152 19.8986 22.0635 21.0444 22.0635C22.4191 22.0635 23.1082 22.0073 23.2369 21.9961V19.0249C27.656 19.2194 30.9533 19.9804 30.9533 20.8888C30.9533 21.7993 27.656 22.5581 23.2369 22.7515Z" fill="white"/>
<defs>
<linearGradient id="paint0_linear_1025_4659" x1="-3.7541e-06" y1="84" x2="42.0118" y2="42.0118" gradientUnits="userSpaceOnUse">
<stop stop-color="#AF0000"/>
<stop offset="1" stop-color="#FF8989"/>
</linearGradient>
</defs>
</svg>
