<svg width="275" height="379" viewBox="0 0 275 379" fill="none" xmlns="http://www.w3.org/2000/svg">
<g clip-path="url(#clip0_616_1675)">
<path d="M70.5 379C70.5 359.8 70.5 340.5 70.5 320.7C46.9 320.7 23.6 320.7 0 320.7C2.4 306.6 4.7 293 7.1 279C14.2 279 21.3 279 28.3 279C42.2 279 45.8 275.4 45.8 261.4C45.8 212.3 45.8 163.2 45.8 114C45.8 102.2 39.1 94.9998 27.2 94.5998C18.3 94.2998 9.4 94.4998 0.3 94.4998C0.3 81.9998 0.3 69.8998 0.3 57.1998C23.6 57.1998 46.9 57.1998 70.4 57.1998C70.4 37.8998 70.4 19.0998 70.4 -0.100195C82.2 -0.100195 93.7 -0.100195 105.7 -0.100195C105.7 18.4998 105.7 36.9998 105.7 55.4998C115.2 55.4998 124.2 55.4998 133.5 55.4998C133.5 36.7998 133.5 18.4998 133.5 -0.200195C145.3 -0.200195 156.9 -0.200195 168.8 -0.200195C168.8 1.3998 168.8 2.8998 168.8 4.2998C168.8 20.6998 168.9 37.0998 168.7 53.5998C168.7 56.1998 169.3 57.1998 172.1 57.4998C188.1 59.1998 203.9 61.8998 218.8 68.4998C241.6 78.5998 253.1 95.9998 254 120.8C254.5 133.5 252.6 145.6 245.4 156.5C241.4 162.6 236.2 167.4 230.1 171.4C228.4 172.5 226.5 173.6 224.1 175.1C226.2 175.8 227.8 176.2 229.3 176.7C244.1 181.2 257 188.4 265.8 201.7C271.3 209.9 273.5 219.2 274.2 229C275.4 245.1 273.4 260.8 266.7 275.6C259 292.7 245.6 303.4 228.4 310.1C210.8 317 192.4 319.3 173.7 320.5C168.7 320.8 168.7 320.7 168.7 325.7C168.7 342 168.7 358.3 168.7 374.6C168.7 376.1 168.5 377.5 168.5 379C156.9 379 145.2 379 133.6 379C133.6 360.1 133.6 341.1 133.6 321.9C124.2 321.9 115.1 321.9 105.8 321.9C105.8 323.3 105.8 324.4 105.8 325.5C105.8 342.1 105.8 358.8 105.8 375.4C105.8 376.6 106 377.8 106.2 379C94.2 379 82.4 379 70.5 379ZM106.6 278.7C107 278.9 107.2 279.1 107.5 279.1C127 279.7 146.6 279.7 165.9 275.9C175.9 274 185.7 270.9 193.6 264.3C211.5 249.5 206.8 220.7 185.3 211C173.7 205.8 161.4 202.9 148.7 202.6C134.8 202.2 120.8 202.5 106.6 202.5C106.6 227.9 106.6 253.3 106.6 278.7ZM106.6 166.9C107.6 167 108.2 167.1 108.8 167.1C118.7 166.9 128.6 167.3 138.4 166.3C147.5 165.4 156.8 163.9 165.6 161.2C175.4 158.2 183.7 152.3 186.9 141.8C192.2 124.6 184 108.9 166.7 102.5C147.4 95.3998 127.3 96.5998 107.4 97.0998C107.2 97.0998 107 97.3998 106.6 97.5998C106.6 120.6 106.6 143.6 106.6 166.9Z" fill="white"/>
</g>
<defs>
<clipPath id="clip0_616_1675">
<rect width="274.6" height="379" fill="white"/>
</clipPath>
</defs>
</svg>
