<svg width="674" height="161" viewBox="0 0 674 161" fill="none" xmlns="http://www.w3.org/2000/svg">
<path d="M0 99.2421C0 81.2143 0 63.008 0 44.4448C25.703 41.4104 41.2319 27.1309 44.2663 0C62.6511 0 81.2143 0 99.7776 0C102.455 55.6898 50.1565 102.455 0 99.2421Z" fill="#0057FF"/>
<path d="M100.135 161C81.2143 161 63.008 161 44.4447 161C44.4447 140.652 44.4447 120.661 44.4447 100.134C63.008 100.134 81.3928 100.134 100.135 100.134C100.135 120.304 100.135 140.295 100.135 161Z" fill="#0057FF"/>
<path d="M244.6 69.3C242.1 73.7 238.4 77.3 233.3 80C228.2 82.7 221.9 84.1 214.4 84.1H200.5V117.2H178V25H214.4C221.8 25 228 26.3 233.1 28.8C238.2 31.3 242 34.8 244.5 39.3C247 43.8 248.3 48.9 248.3 54.7C248.3 60 247.1 64.9 244.6 69.3ZM222.3 63.2C224.4 61.2 225.5 58.3 225.5 54.7C225.5 51.1 224.4 48.2 222.3 46.2C220.2 44.2 217 43.2 212.7 43.2H200.5V66.3H212.7C217 66.2 220.2 65.2 222.3 63.2Z" fill="#0057FF"/>
<path d="M259.8 60.6C262.6 54.9 266.5 50.5 271.4 47.5C276.3 44.4 281.8 42.9 287.8 42.9C293 42.9 297.5 43.9 301.4 46.1C305.3 48.2 308.3 51 310.4 54.4V43.9H332.9V117.2H310.4V106.8C308.2 110.2 305.2 113 301.3 115.1C297.4 117.2 292.9 118.3 287.7 118.3C281.7 118.3 276.3 116.7 271.4 113.6C266.5 110.5 262.6 106.1 259.8 100.3C257 94.6 255.5 87.9 255.5 80.4C255.5 72.9 256.9 66.3 259.8 60.6ZM305.8 67.3C302.7 64.1 298.9 62.4 294.4 62.4C289.9 62.4 286.1 64 283 67.2C279.9 70.4 278.3 74.8 278.3 80.4C278.3 86 279.9 90.5 283 93.7C286.1 97 289.9 98.6 294.4 98.6C298.9 98.6 302.7 97 305.8 93.7C308.9 90.5 310.5 86 310.5 80.4C310.5 74.8 308.9 70.5 305.8 67.3Z" fill="#0057FF"/>
<path d="M424.1 43.9L378.1 152H353.9L370.7 114.7L340.9 43.9H366L382.9 89.8L399.7 43.9H424.1Z" fill="#0057FF"/>
<path d="M446.2 113.7C440.5 110.6 436 106.3 432.7 100.6C429.4 94.9 427.8 88.3 427.8 80.6C427.8 73.1 429.5 66.4 432.8 60.7C436.1 55 440.7 50.6 446.5 47.5C452.3 44.4 458.8 42.9 465.9 42.9C473.1 42.9 479.6 44.4 485.3 47.5C491.1 50.6 495.6 55 499 60.7C502.3 66.4 504 73.1 504 80.6C504 88.1 502.3 94.8 498.9 100.5C495.5 106.2 490.9 110.6 485.1 113.7C479.3 116.8 472.8 118.3 465.6 118.3C458.4 118.3 451.9 116.7 446.2 113.7ZM476.5 94.1C479.5 90.9 481 86.4 481 80.6C481 74.8 479.5 70.2 476.6 67.1C473.7 63.9 470.1 62.4 465.8 62.4C461.4 62.4 457.8 64 454.9 67.1C452 70.2 450.6 74.7 450.6 80.7C450.6 86.6 452 91.1 454.9 94.2C457.7 97.4 461.3 98.9 465.6 98.9C469.9 98.8 473.5 97.2 476.5 94.1Z" fill="#0057FF"/>
<path d="M581.1 51.5C586.2 57.1 588.8 64.7 588.8 74.4V117.2H566.5V77.4C566.5 72.5 565.2 68.7 562.7 66C560.2 63.3 556.7 61.9 552.5 61.9C548.2 61.9 544.8 63.3 542.3 66C539.8 68.7 538.5 72.5 538.5 77.4V117.2H516V43.9H538.4V53.6C540.7 50.4 543.7 47.8 547.6 45.9C551.5 44 555.8 43.1 560.6 43.1C569.1 43.1 576 45.9 581.1 51.5Z" fill="#0057FF"/>
<path d="M673.2 85.9H622.4C622.7 90.5 624.2 93.9 626.8 96.3C629.4 98.7 632.6 99.9 636.3 99.9C641.9 99.9 645.8 97.5 648 92.8H671.9C670.7 97.6 668.5 102 665.3 105.8C662.1 109.7 658.1 112.7 653.3 114.9C648.5 117.1 643.1 118.2 637.1 118.2C629.9 118.2 623.5 116.7 617.9 113.6C612.3 110.5 607.9 106.2 604.8 100.5C601.6 94.8 600.1 88.2 600.1 80.5C600.1 72.9 601.7 66.2 604.8 60.5C607.9 54.8 612.3 50.4 617.9 47.4C623.5 44.3 629.9 42.8 637.2 42.8C644.3 42.8 650.6 44.3 656.1 47.3C661.6 50.3 665.9 54.5 669 60C672.1 65.5 673.7 72 673.7 79.3C673.5 81.5 673.4 83.7 673.2 85.9ZM650.6 73.5C650.6 69.6 649.3 66.6 646.7 64.3C644.1 62 640.8 60.9 636.8 60.9C633 60.9 629.9 62 627.3 64.2C624.7 66.4 623.1 69.5 622.5 73.5H650.6Z" fill="#0057FF"/>
<path d="M578.4 9.6H590.5V12.7H581.9V17.4H589.1V20.2H581.9V27.7H578.4V9.6Z" fill="#0057FF"/>
<path d="M593.7 12.4V9H597.1V12.4H593.7ZM593.7 27.6V14.3H597.1V27.6H593.7Z" fill="#0057FF"/>
<path d="M613.6 27.6H610.2V20.2C610.2 19.1 610 18.4 609.6 17.9C609.2 17.4 608.7 17.2 608 17.2C607.5 17.2 607.1 17.3 606.6 17.5C606.1 17.7 605.7 18.1 605.3 18.5C604.9 18.9 604.7 19.4 604.5 19.9V27.6H601.1V14.4H604.2V16.9C604.5 16.3 605 15.8 605.5 15.5C606 15.1 606.6 14.8 607.3 14.6C608 14.4 608.7 14.3 609.5 14.3C610.3 14.3 611 14.4 611.5 14.7C612 15 612.4 15.4 612.7 15.9C613 16.4 613.2 17 613.3 17.6C613.4 18.2 613.5 18.8 613.5 19.5V27.6H613.6Z" fill="#0057FF"/>
<path d="M625.5 27C625.2 27.1 624.9 27.3 624.5 27.4C624.1 27.6 623.7 27.7 623.2 27.8C622.7 27.9 622.3 27.9 621.8 27.9C621.2 27.9 620.6 27.8 620.1 27.6C619.6 27.4 619.2 27 618.8 26.6C618.5 26.1 618.3 25.5 618.3 24.7V17H616.5V14.4H618.3V10.1H621.7V14.4H624.5V17H621.7V23.4C621.7 23.9 621.8 24.2 622.1 24.4C622.4 24.6 622.6 24.7 623 24.7C623.4 24.7 623.7 24.6 624 24.5C624.3 24.4 624.6 24.3 624.8 24.2L625.5 27Z" fill="#0057FF"/>
<path d="M634.3 27.9C633.2 27.9 632.3 27.7 631.4 27.4C630.5 27 629.8 26.5 629.2 25.9C628.6 25.3 628.1 24.6 627.8 23.7C627.5 22.8 627.3 22 627.3 21.1C627.3 19.8 627.6 18.7 628.2 17.7C628.8 16.7 629.6 15.8 630.6 15.2C631.7 14.6 632.9 14.3 634.4 14.3C635.9 14.3 637.1 14.6 638.1 15.2C639.1 15.8 639.9 16.7 640.5 17.7C641.1 18.7 641.3 19.8 641.3 21C641.3 21.2 641.3 21.4 641.3 21.6C641.3 21.8 641.3 22 641.2 22.1H630.9C631 22.8 631.2 23.3 631.5 23.8C631.8 24.3 632.3 24.7 632.8 24.9C633.3 25.1 633.9 25.3 634.5 25.3C635.2 25.3 635.8 25.1 636.4 24.8C637 24.5 637.4 24 637.6 23.5L640.5 24.3C640.2 25 639.7 25.6 639.1 26.1C638.5 26.6 637.8 27 637 27.3C636.2 27.6 635.3 27.9 634.3 27.9ZM630.8 20H637.8C637.7 19.3 637.5 18.8 637.2 18.3C636.9 17.8 636.5 17.4 636 17.2C635.5 16.9 634.9 16.8 634.3 16.8C633.7 16.8 633.1 16.9 632.6 17.2C632.1 17.5 631.7 17.9 631.4 18.3C631.1 18.7 630.9 19.3 630.8 20Z" fill="#0057FF"/>
<path d="M650.6 27.9C649.5 27.9 648.5 27.7 647.7 27.4C646.9 27.1 646.1 26.5 645.5 25.9C644.9 25.3 644.4 24.5 644.1 23.7C643.8 22.9 643.6 22 643.6 21.1C643.6 19.9 643.9 18.7 644.5 17.7C645.1 16.7 645.9 15.8 646.9 15.2C648 14.6 649.2 14.3 650.6 14.3C652 14.3 653.3 14.6 654.3 15.2C655.3 15.8 656.1 16.6 656.6 17.7L653.3 18.7C653 18.2 652.6 17.8 652.2 17.6C651.8 17.4 651.2 17.2 650.6 17.2C650 17.2 649.4 17.4 648.8 17.7C648.3 18 647.8 18.5 647.5 19.1C647.2 19.7 647 20.4 647 21.2C647 22 647.2 22.6 647.5 23.2C647.8 23.8 648.2 24.3 648.8 24.6C649.3 24.9 649.9 25.1 650.6 25.1C651 25.1 651.4 25 651.8 24.9C652.2 24.8 652.5 24.6 652.8 24.3C653.1 24 653.3 23.8 653.4 23.5L656.7 24.5C656.4 25.2 655.9 25.8 655.4 26.3C654.8 26.8 654.1 27.2 653.3 27.5C652.5 27.8 651.6 27.9 650.6 27.9Z" fill="#0057FF"/>
<path d="M668.7 27.6V20.2C668.7 19.2 668.5 18.4 668.1 17.9C667.7 17.4 667.2 17.1 666.5 17.1C666.1 17.1 665.7 17.2 665.2 17.4C664.7 17.6 664.3 18 664 18.4C663.6 18.8 663.4 19.3 663.2 19.8V27.5H659.8V9.1H663.2V16.9C663.7 16.1 664.4 15.4 665.2 14.9C666 14.4 667 14.2 668 14.2C668.9 14.2 669.6 14.3 670.1 14.6C670.6 14.9 671.1 15.3 671.4 15.8C671.7 16.3 671.9 16.8 672 17.5C672.1 18.1 672.2 18.7 672.2 19.4V27.6H668.7Z" fill="#0057FF"/>
</svg>
