<svg width="418" height="419" viewBox="0 0 418 419" fill="none" xmlns="http://www.w3.org/2000/svg">
<g clip-path="url(#clip0_581_1295)">
<mask id="mask0_581_1295" style="mask-type:luminance" maskUnits="userSpaceOnUse" x="0" y="0" width="417" height="419">
<path d="M416.8 0.5H0.5V418.5H416.8V0.5Z" fill="white"/>
</mask>
<g mask="url(#mask0_581_1295)">
<path d="M218.6 391.3C111.1 391.3 23.6 303.8 23.6 196.3C23.6 88.8002 111.1 1.30029 218.6 1.30029C326.1 1.30029 413.6 88.8002 413.6 196.3C413.6 303.8 326.1 391.3 218.6 391.3ZM218.6 3.30029C112.2 3.30029 25.5 89.9002 25.5 196.3C25.5 302.8 112.1 389.4 218.6 389.4C325.1 389.4 411.7 302.8 411.7 196.3C411.7 89.9002 325.1 3.30029 218.6 3.30029Z" fill="#BFE1FF"/>
<path d="M349.838 340.864C425.599 265.103 425.599 142.27 349.838 66.5087C274.077 -9.25226 151.245 -9.25226 75.4835 66.5087C-0.27739 142.27 -0.27739 265.103 75.4835 340.864C151.245 416.625 274.077 416.625 349.838 340.864Z" fill="#BFE1FF"/>
<path fill-rule="evenodd" clip-rule="evenodd" d="M72.6 6.2V2.7C72.6 1.5 71.6 0.5 70.4 0.5C69.2 0.5 68.2 1.5 68.2 2.7V6.3C68.2 7.5 69.2 8.5 70.4 8.5C71.6 8.4 72.6 7.5 72.6 6.2Z" fill="#BFE1FF"/>
<path fill-rule="evenodd" clip-rule="evenodd" d="M57.6999 6.2V2.7C57.6999 1.5 56.6999 0.5 55.4999 0.5C54.2999 0.5 53.2999 1.5 53.2999 2.7V6.3C53.2999 7.5 54.2999 8.5 55.4999 8.5C56.6999 8.4 57.6999 7.5 57.6999 6.2Z" fill="#BFE1FF"/>
<path fill-rule="evenodd" clip-rule="evenodd" d="M42.8 6.2V2.7C42.8 1.5 41.8 0.5 40.6 0.5C39.4 0.5 38.4 1.5 38.4 2.7V6.3C38.4 7.5 39.4 8.5 40.6 8.5C41.8 8.4 42.8 7.5 42.8 6.2Z" fill="#BFE1FF"/>
<path fill-rule="evenodd" clip-rule="evenodd" d="M27.8 6.2V2.7C27.8 1.5 26.8 0.5 25.6 0.5C24.4 0.5 23.5 1.5 23.5 2.7V6.3C23.5 7.5 24.5 8.5 25.7 8.5C26.9 8.4 27.8 7.5 27.8 6.2Z" fill="#FEDB39"/>
<path fill-rule="evenodd" clip-rule="evenodd" d="M12.9 6.2V2.7C12.9 1.5 11.9 0.5 10.7 0.5C9.49997 0.5 8.59998 1.5 8.59998 2.7V6.3C8.59998 7.5 9.59998 8.5 10.8 8.5C11.9 8.4 12.9 7.5 12.9 6.2Z" fill="#BFE1FF"/>
<path fill-rule="evenodd" clip-rule="evenodd" d="M414.6 342.9H411C409.8 342.9 408.8 343.9 408.8 345.1C408.8 346.3 409.8 347.3 411 347.3H414.6C415.8 347.3 416.8 346.3 416.8 345.1C416.8 343.9 415.8 342.9 414.6 342.9Z" fill="#BFE1FF"/>
<path fill-rule="evenodd" clip-rule="evenodd" d="M414.6 357.9H411C409.8 357.9 408.8 358.9 408.8 360.1C408.8 361.3 409.8 362.3 411 362.3H414.6C415.8 362.3 416.8 361.3 416.8 360.1C416.8 358.8 415.8 357.9 414.6 357.9Z" fill="#BFE1FF"/>
<path fill-rule="evenodd" clip-rule="evenodd" d="M414.6 372.8H411C409.8 372.8 408.8 373.8 408.8 375C408.8 376.2 409.8 377.2 411 377.2H414.6C415.8 377.2 416.8 376.2 416.8 375C416.8 373.8 415.8 372.8 414.6 372.8Z" fill="#BFE1FF"/>
<path fill-rule="evenodd" clip-rule="evenodd" d="M414.6 387.7H411C409.8 387.7 408.8 388.7 408.8 389.9C408.8 391.1 409.8 392.1 411 392.1H414.6C415.8 392.1 416.8 391.1 416.8 389.9C416.8 388.7 415.8 387.7 414.6 387.7Z" fill="#FEDB39"/>
<path fill-rule="evenodd" clip-rule="evenodd" d="M414.6 402.6H411C409.8 402.6 408.8 403.6 408.8 404.8C408.8 406 409.8 407 411 407H414.6C415.8 407 416.8 406 416.8 404.8C416.8 403.6 415.8 402.6 414.6 402.6Z" fill="#BFE1FF"/>
<path fill-rule="evenodd" clip-rule="evenodd" d="M367.2 239.6C365.9 239.6 364.6 239.8 363.4 240.3C362.9 239.7 362.1 239.3 361.2 239.3C360.8 239.3 360.4 239.4 360.1 239.5C359.9 237 357.8 235 355.2 235C354.1 235 353 235.4 352.2 236C352 235.8 351.8 235.5 351.6 235.4C352.1 234.6 352.3 233.6 352.3 232.6C352.3 231 351.7 229.6 350.6 228.5C349.6 227.5 348.1 226.8 346.5 226.8C345.6 226.3 344.6 226.1 343.6 226.1C343 226.1 342.3 226.2 341.7 226.4C341.4 225.8 341 225.4 340.4 225.1C340.6 224.4 340.6 223.6 340.6 222.9C340.6 220 339.4 217.4 337.5 215.5C335.6 213.6 333 212.4 330.1 212.4C329.2 212.4 328.3 212.5 327.4 212.7C321.2 212.8 316.2 217.8 316.2 224.1C316.2 224.2 316.2 224.3 316.2 224.4C315.7 224.3 315.1 224.2 314.5 224.2C313.3 224.2 312.2 224.5 311.2 225C309.5 222.7 306.9 221.3 303.9 221.3C298.9 221.3 294.8 225.4 294.8 230.4C294.8 231.4 295 232.3 295.3 233.2C295.2 233.2 295.1 233.2 295 233.2C292.5 233.2 290.5 235.2 290.5 237.7C290.5 238 290.5 238.3 290.6 238.6H290.5C289.1 238.6 288 239.7 287.9 241.1C287.5 241 287.1 241 286.7 241C285.1 241 283.6 241.6 282.5 242.6C279.6 245.4 282.8 246.1 285.8 246.1H289.8H292.9H357.2H362.2H370.4C373.6 246.1 378.2 246.6 375 243.3C373.2 240.9 370.3 239.6 367.2 239.6ZM339.6 224.7C339.4 224.7 339.3 224.7 339.1 224.7H339C339 224.5 339 224.2 339 224C339 219 335.8 214.8 331.3 213.2C333.5 213.5 335.5 214.5 336.9 215.9C338.6 217.6 339.7 220 339.7 222.7C339.8 223.4 339.7 224.1 339.6 224.7ZM350.8 234.9C350.5 234.8 350.2 234.7 349.9 234.7C349.7 234.7 349.6 234.7 349.4 234.7C349.7 233.9 349.9 233.1 349.9 232.2C349.9 230.4 349.2 228.8 348 227.7C348.8 227.9 349.4 228.4 350 228.9C350.9 229.8 351.4 231 351.4 232.4C351.4 233.4 351.2 234.2 350.8 234.9Z" fill="white"/>
<path fill-rule="evenodd" clip-rule="evenodd" d="M212.4 60.8001C211.1 60.8001 209.8 61.0001 208.6 61.5001C208.1 60.9001 207.3 60.5001 206.4 60.5001C206 60.5001 205.6 60.6001 205.3 60.7001C205.1 58.2001 203 56.2001 200.4 56.2001C199.3 56.2001 198.2 56.6001 197.4 57.2001C197.2 57.0001 197 56.7001 196.8 56.6001C197.3 55.8001 197.5 54.8001 197.5 53.8001C197.5 52.2001 196.9 50.8001 195.8 49.7001C194.8 48.7001 193.3 48.0001 191.7 48.0001C190.8 47.5001 189.8 47.3001 188.8 47.3001C188.1 47.3001 187.5 47.4001 186.9 47.6001C186.6 47.0001 186.2 46.6001 185.6 46.3001C185.8 45.6001 185.8 44.8001 185.8 44.1001C185.8 41.2001 184.6 38.6001 182.7 36.7001C180.8 34.8001 178.2 33.6001 175.3 33.6001C174.4 33.6001 173.5 33.7001 172.6 33.9001C166.4 34.0001 161.4 39.0001 161.4 45.3001C161.4 45.4001 161.4 45.5001 161.4 45.6001C160.9 45.5001 160.3 45.4001 159.7 45.4001C158.5 45.4001 157.4 45.7001 156.4 46.2001C154.7 43.9001 152.1 42.5001 149.1 42.5001C144.1 42.5001 140 46.6001 140 51.6001C140 52.6001 140.2 53.5001 140.4 54.4001C140.3 54.4001 140.2 54.4001 140.1 54.4001C137.6 54.4001 135.6 56.4001 135.6 58.9001C135.6 59.2001 135.6 59.5001 135.7 59.8001H135.6C134.2 59.8001 133.1 60.9001 133 62.3001C132.6 62.2001 132.2 62.2001 131.8 62.2001C130.2 62.2001 128.7 62.8001 127.6 63.8001C124.7 66.6001 127.9 67.3001 130.9 67.3001H134.9H138H202.3H207.3H215.5C218.7 67.3001 223.3 67.8001 220.1 64.5001C218.4 62.1001 215.6 60.8001 212.4 60.8001ZM184.8 46.0001C184.6 46.0001 184.5 46.0001 184.3 46.0001H184.2C184.2 45.8001 184.2 45.5001 184.2 45.3001C184.2 40.3001 181 36.1001 176.5 34.5001C178.7 34.8001 180.7 35.8001 182.1 37.2001C183.8 38.9001 184.9 41.3001 184.9 44.0001C185 44.7001 185 45.3001 184.8 46.0001ZM196 56.2001C195.7 56.1001 195.4 56.0001 195.1 56.0001C194.9 56.0001 194.8 56.0001 194.6 56.0001C194.9 55.2001 195.1 54.4001 195.1 53.5001C195.1 51.7001 194.4 50.1001 193.2 49.0001C194 49.2001 194.6 49.7001 195.2 50.2001C196.1 51.1001 196.6 52.3001 196.6 53.7001C196.7 54.7001 196.5 55.5001 196 56.2001Z" fill="white"/>
<path d="M160.3 177.9C151.1 177.9 143.9 174 143.8 174C143.6 173.9 143.5 173.6 143.6 173.4C143.7 173.2 144 173.1 144.2 173.2C144.3 173.3 156.1 179.6 168.7 175.8C177.1 173.2 184 166.8 189.2 156.8C191 153.3 193 149.3 195 145C203.4 127.8 213.8 106.4 228.5 89.1001C250.9 62.7001 281.2 52.6001 309.5 62.2001C333.1 70.2001 349 90.2001 350.2 113.1C350.2 113.4 350 113.6 349.7 113.6C349.4 113.6 349.2 113.4 349.2 113.1C348.1 90.6001 332.4 71.0001 309.2 63.1001C281.3 53.6001 251.4 63.5001 229.2 89.7001C214.6 106.9 204.2 128.2 195.9 145.4C193.8 149.7 191.9 153.7 190 157.2C184.7 167.5 177.6 174.1 168.9 176.7C166 177.6 163.1 177.9 160.3 177.9Z" fill="#59B2FF"/>
<path fill-rule="evenodd" clip-rule="evenodd" d="M304.3 215.9C304.3 215.9 316.5 221.8 323.8 230.6C331.1 239.4 369.4 289 369.4 289L352.1 344.5C352.1 344.5 304.9 305.5 300.2 303C295.5 300.6 289.9 303.7 289.9 303.7L253.6 256L304.3 215.9Z" fill="#12006C"/>
<path fill-rule="evenodd" clip-rule="evenodd" d="M160.6 215.3L158.1 207C158.1 207 149.3 209.6 145.5 216.1C141.7 222.6 125.9 255.5 125.9 255.5C125.9 255.5 169.9 248.2 169.7 247.3C169.5 246.5 160.6 215.3 160.6 215.3Z" fill="#12006C"/>
<path fill-rule="evenodd" clip-rule="evenodd" d="M193.5 168.4C193.5 168.4 198.9 170.8 199.5 176C199.8 178.2 201.7 194.1 195.4 194.9C191.2 195.4 194.1 201.4 194.1 201.4C194.1 201.4 191 203.6 191.3 206.4C191.6 209.1 193 216.7 206.1 217.6C219.2 218.5 241.6 213.1 247.5 208.8C253.4 204.4 254 194 254 194C254 194 249 191.9 249.8 184.4C250.5 176.9 251.3 162.5 251.3 162.5C251.3 162.5 193.3 168.3 193.5 168.4Z" fill="#59B2FF"/>
<path fill-rule="evenodd" clip-rule="evenodd" d="M193.5 168.4C193.5 168.4 198.9 170.8 199.5 176C199.7 177.6 200.8 186.9 198.7 191.9C215.5 201 236 198 249.7 184C250.4 176.4 251.1 162.6 251.1 162.6C251.1 162.6 193.3 168.3 193.5 168.4Z" fill="#2C81FE"/>
<path fill-rule="evenodd" clip-rule="evenodd" d="M253 194.8L296.8 212.8C277.2 255.9 271.4 256.8 286.1 293.7L263.1 331.3C263.1 331.3 269.9 337.8 264.7 345.8L275.3 387.7C255.9 394.2 235.2 397.7 213.7 397.7C190.2 397.7 167.6 393.5 146.7 385.8L147.4 382C147.4 382 143.9 376.8 148.3 368.8C145.4 344.4 144.4 303.3 144.3 282.1C144.3 276.7 166.7 204.1 166.7 204.1L195.4 194.8L209.8 213.1L253 194.8Z" fill="white"/>
<path fill-rule="evenodd" clip-rule="evenodd" d="M140.6 383.5C138 357.7 137.4 304.5 137.2 284.1C137.2 278.7 158.1 207 158.1 207L187.8 197.2L190.5 205C174.4 268.6 173.3 318.7 172.2 393.3C161.3 390.9 150.7 387.6 140.6 383.5Z" fill="#12006C"/>
<path fill-rule="evenodd" clip-rule="evenodd" d="M253 194.8L304.3 215.9C284.7 259 287.8 280.2 292.9 307.8L281.8 363.5C281.8 363.5 290.4 370.9 285.7 384C263.6 392.8 239.5 397.7 214.3 397.8C213.9 352.6 215 305.9 218.3 285.8C221.8 264.6 230.1 234.2 240.8 209.6C242.9 204.8 251.4 199 253 194.8Z" fill="#12006C"/>
<path d="M172.2 393.8C171.9 393.8 171.7 393.6 171.7 393.3C172.7 324.2 173.4 274.3 188 213C188.1 212.7 188.3 212.6 188.6 212.6C188.9 212.7 189 212.9 189 213.2C174.5 274.4 173.7 324.3 172.7 393.3C172.7 393.6 172.4 393.8 172.2 393.8ZM171.1 393.5C170.9 393.5 170.7 393.3 170.6 393.1C161.9 339.8 161.8 290.7 162.5 258.4C162.5 258.1 162.7 257.9 163 257.9C163.3 257.9 163.5 258.1 163.5 258.4C162.8 290.7 162.9 339.7 171.6 392.9C171.6 393.2 171.5 393.5 171.1 393.5Z" fill="#2C81FE"/>
<path fill-rule="evenodd" clip-rule="evenodd" d="M201.5 351.4C225.2 348.3 203.5 263.3 210.5 229.5L208.7 226L204.4 225.9L202.6 229.3C190.1 252.9 203.7 332.1 176.4 339.7L195.9 351.1C195.9 351.2 199.3 352 201.5 351.4Z" fill="#FEDB39"/>
<path fill-rule="evenodd" clip-rule="evenodd" d="M205.5 214.1C205.7 214.1 206.6 213.3 208.6 213.2C209.3 213.2 210.2 213.3 211.2 213.5C215 214.3 219.6 219.9 219.6 219.9L210.5 229.5C210.5 229.5 205.9 227.9 202.6 229.3L200.8 216.8L205.5 214.1Z" fill="#FEDB39"/>
<path fill-rule="evenodd" clip-rule="evenodd" d="M176.2 347.4C177.9 336.4 188.7 330.9 192.3 331.9C198 333.4 196 352.6 201.5 351.5C201.5 351.4 182.8 353.8 176.2 347.4Z" fill="#FFD617"/>
<path fill-rule="evenodd" clip-rule="evenodd" d="M192.3 331.9C186.6 330.4 183 379.1 187.7 399.6C187.7 399.6 188.3 401 187.2 402.1C186.2 403.2 162.3 417.8 162.3 417.8C162.3 417.8 160.9 418.8 159.8 418.4C158.7 418 146.3 404.3 144 398C144 398 143.3 396.3 143.8 395C144.3 393.7 146 340.1 155.8 330.7C157.5 329.1 158.8 328.7 161.5 328.7C164.3 328.6 181.9 329.2 192.3 331.9Z" fill="#FEDB39"/>
<path d="M210.5 230C210.4 230 210.4 230 210.3 230C210.3 230 205.8 228.5 202.7 229.8C202.5 229.9 202.2 229.8 202.1 229.5C202 229.3 202.1 229 202.4 228.9C205.8 227.5 210.4 229 210.6 229.1C210.9 229.2 211 229.5 210.9 229.7C210.9 229.9 210.7 230 210.5 230Z" fill="#FFD617"/>
<path fill-rule="evenodd" clip-rule="evenodd" d="M209.9 213.2L221 227.1C221 227.1 223.8 229.4 226.6 227C229.4 224.6 263 198.9 263 198.9L254.1 194L209.9 213.2Z" fill="white"/>
<path fill-rule="evenodd" clip-rule="evenodd" d="M209.9 213.2L199.9 221.5C196.4 224.6 192.3 227.3 191.2 221C190 214.2 186.4 197.7 186.4 197.7L195.4 194.9L209.9 213.2Z" fill="white"/>
<path d="M223.9 228.6C222.1 228.6 220.7 227.5 220.7 227.5L209.8 213.9L200.2 221.9C198.2 223.7 195.4 225.9 193.2 225.2C191.9 224.8 191.1 223.4 190.7 221.1C189.5 214.4 186 197.9 185.9 197.8C185.8 197.5 186 197.3 186.3 197.2C186.6 197.1 186.8 197.3 186.9 197.6C186.9 197.8 190.5 214.2 191.7 221C192 222.9 192.7 224 193.6 224.3C194.9 224.7 196.9 223.7 199.6 221.2L209.6 212.9C209.7 212.9 209.7 212.8 209.8 212.8H209.9C210 212.8 210.1 212.8 210.2 212.9L210.3 213L221.4 226.9C221.4 226.9 223.9 228.8 226.3 226.8C229.1 224.4 261.3 199.7 262.7 198.7C262.9 198.5 263.2 198.6 263.4 198.8C263.6 199 263.5 199.3 263.3 199.5C263 199.8 229.7 225.3 226.9 227.6C225.9 228.3 224.8 228.6 223.9 228.6Z" fill="#BFE1FF"/>
<path fill-rule="evenodd" clip-rule="evenodd" d="M285 238.1L106.9 251.5C105 251.6 103.6 253.3 103.8 255.1L112.9 376.2C113 378.1 114.7 379.5 116.5 379.3L294.6 365.9C296.5 365.8 297.9 364.1 297.7 362.3L288.6 241.2C288.5 239.3 286.9 237.9 285 238.1Z" fill="white"/>
<path fill-rule="evenodd" clip-rule="evenodd" d="M111 350.2L112.1 364.4C130.3 364.7 125.9 348.9 125.9 348.9L123.4 342.8C123.3 342.9 116.9 346.2 111 350.2ZM291.6 280.5L291 272.3C286.1 270.8 280.8 269.9 280.8 269.9L274.5 276.5C274.5 276.5 274.5 283.9 291.6 280.5Z" fill="#BFE1FF"/>
<path fill-rule="evenodd" clip-rule="evenodd" d="M364.6 272.7C379.2 266.5 390.7 303.4 392.5 311.8C398.4 340.1 380.6 350.2 367.2 350C353.9 349.8 337.3 333.4 332.2 325.9C327.1 318.4 333.9 302.5 333.9 302.5L364.6 272.7Z" fill="#12006C"/>
<path fill-rule="evenodd" clip-rule="evenodd" d="M357 272.6C357 272.6 363.2 269.3 369.9 275.6C376.7 282 377.8 297.4 372.4 310.7C367 323.9 348.1 324.5 341.1 311C334.1 297.5 357 272.6 357 272.6Z" fill="white"/>
<path fill-rule="evenodd" clip-rule="evenodd" d="M300.5 275.4C300.5 275.4 298.6 281.2 305.3 285C305.3 285 302.7 292.2 310.5 295.9C310.5 295.9 309.2 301.1 312.4 303.7C315.6 306.4 327.6 310.4 336.1 311.1C362.1 313.5 375 289.5 364.7 274.8C357.5 264.6 348 255.1 344.6 251C341.2 247 337.1 240.3 337.1 240.3C337.1 240.3 338.9 234.7 338.7 232.2C338.4 229.7 330.2 228.7 326.9 234.6C323.6 240.5 324.3 248.4 331.6 255.9C331.6 255.9 332.7 258.3 329.6 259.1C326.5 260 286.7 263.5 277.7 264.8C268.7 266 266.7 277.2 276.4 276.6C285.9 276 300.5 275.4 300.5 275.4Z" fill="#59B2FF"/>
<path d="M321.2 299.3H321.1L310.3 296.2C310 296.1 309.9 295.9 310 295.6C310.1 295.3 310.3 295.2 310.6 295.3L321.4 298.4C321.7 298.5 321.8 298.7 321.7 299C321.6 299.2 321.4 299.3 321.2 299.3ZM317.8 286.6L305.2 285.3C304.9 285.3 304.7 285 304.8 284.8C304.8 284.5 305 284.3 305.3 284.4L317.9 285.7C318.2 285.7 318.4 286 318.3 286.2C318.3 286.5 318.1 286.6 317.8 286.6ZM300.5 275.8C300.2 275.8 300 275.6 300 275.3C300 275 300.2 274.8 300.5 274.8L319.1 274C319.4 274 319.6 274.2 319.6 274.5C319.6 274.8 319.4 275 319.1 275L300.5 275.8ZM327.8 259.9C327.6 259.9 327.4 259.7 327.3 259.5C327.3 259.2 327.5 259 327.7 259L339.8 257.7C340.1 257.7 340.3 257.9 340.3 258.1C340.3 258.4 340.1 258.6 339.9 258.6L327.8 259.9ZM336.5 242.7H336.4C336.1 242.6 336 242.4 336.1 242.1L336.7 240.2C336.8 239.9 337 239.8 337.3 239.9C337.6 240 337.7 240.2 337.6 240.5L337 242.4C336.9 242.5 336.7 242.7 336.5 242.7Z" fill="#2C81FE"/>
<path fill-rule="evenodd" clip-rule="evenodd" d="M265.2 123.1C265.2 123.1 268.8 118.3 271.5 118.4C274.2 118.5 278 124.3 278 128.9C278 133.5 274.2 149.9 264.9 144.5C255.6 139.2 265.2 123.1 265.2 123.1Z" fill="#59B2FF"/>
<path fill-rule="evenodd" clip-rule="evenodd" d="M262.6 128.2C262.3 128.5 262.3 129.1 262.5 129.4C262.7 129.7 263.1 129.7 263.3 129.5C263.3 129.5 266.8 143.5 268.6 141.1C270.4 138.7 272.3 136.4 272.8 132.8C273.3 129.1 270.1 126.1 271.1 125.1C272.1 124.1 273.3 125.4 273.4 125.6C274.4 126.7 274.9 128.1 274.9 128.1C275.1 128.5 275.4 128.6 275.8 128.4C276.1 128.1 276.3 127.6 276.1 127.2C276.1 127.2 274.1 121.9 270.5 122.4C266.9 122.8 262.6 128.2 262.6 128.2Z" fill="#2C81FE"/>
<path fill-rule="evenodd" clip-rule="evenodd" d="M177.5 130.3C177.5 130.3 173.2 126.2 170.6 126.6C168 127.1 165.1 133.4 165.9 138C166.7 142.6 173 158.1 181.3 151.3C189.5 144.6 177.5 130.3 177.5 130.3Z" fill="#59B2FF"/>
<path fill-rule="evenodd" clip-rule="evenodd" d="M180.9 134.9C181.2 135.2 181.4 135.7 181.2 136.1C181 136.4 180.7 136.5 180.4 136.3C180.4 136.3 179.2 150.7 177.1 148.6C174.9 146.6 172.7 144.6 171.6 141.1C170.5 137.6 173.2 134 172 133.2C170.9 132.4 169.9 133.9 169.8 134C169 135.3 168.7 136.7 168.7 136.8C168.6 137.2 168.2 137.4 167.9 137.2C167.5 137 167.3 136.5 167.4 136.1C167.4 136.1 168.5 130.6 172.2 130.5C175.8 130.3 180.9 134.9 180.9 134.9Z" fill="#2C81FE"/>
<path fill-rule="evenodd" clip-rule="evenodd" d="M215.2 50.8002C155.1 56.6002 168 105.8 176.6 145.6C190 207.5 265.5 201.4 268.7 138.1C270.7 97.4002 275.5 46.8002 215.2 50.8002Z" fill="#59B2FF"/>
<path fill-rule="evenodd" clip-rule="evenodd" d="M232.4 124.3C234.3 119.9 236.7 117.4 239.3 116.3C241.1 115.6 242.9 115.5 244.6 115.9C246.3 116.3 247.9 117.2 249.3 118.5C251.8 120.8 253.5 124.1 253.5 127.4C253.5 127.5 253.4 127.6 253.3 127.6C253.2 127.6 253.1 127.5 253.1 127.5C252.7 125.2 251.4 123 249.5 121.4C248.1 120.2 246.3 119.3 244.5 118.9C242.7 118.5 240.7 118.7 238.8 119.7C236.6 120.8 234.5 122.9 232.9 126.3C232.5 127.1 232.2 128 232 128.9C231.8 129.8 231.7 130.6 231.7 131.5C231.7 131.6 231.6 131.7 231.5 131.7C231.4 131.7 231.3 131.6 231.3 131.5C231.2 130.4 231.2 129.2 231.4 128C231.5 126.6 231.9 125.4 232.4 124.3Z" fill="#2C81FE"/>
<path fill-rule="evenodd" clip-rule="evenodd" d="M190.4 90.6L195.1 94.5C212.7 91.3 244.5 108.4 259.1 95.5C268 87.6 251.4 82.2 250.1 82C248.6 81.6 190.4 90.6 190.4 90.6Z" fill="#2C81FE"/>
<path fill-rule="evenodd" clip-rule="evenodd" d="M269.2 133.7C269.5 128.2 269.8 122.1 269.9 116.4C270.8 78.6 265.9 51.5 215.8 54.8C165.8 59.7 164.9 86.3 172 123.5C173 129 174.5 136 175.7 141.3C175.7 141.3 178.5 135.7 176.3 124.1C176.3 124.1 186.5 116.6 183.4 101.8C179.1 81.1 204.2 78.7 217.8 77.6C231.3 76.5 257.7 75.8 254.3 96.7C250.8 117.5 264.6 121 264.6 121C264.1 132.8 269.2 133.7 269.2 133.7Z" fill="#12006C"/>
<path fill-rule="evenodd" clip-rule="evenodd" d="M218.7 125.6C218.7 125.7 218.7 125.8 218.6 125.9L218.4 126.4C217.2 129 213.4 137.5 213.5 138.4C213.6 139 216.1 140.7 216.7 141C218 141.7 220.6 140.3 221.6 139.9C225.8 137.8 219.3 144 217.5 143.7C216.1 143.4 215.1 142.9 214 142C213 141.3 211.7 139.9 211.5 138.7C211.3 137.5 215.1 128.6 216.5 125.7C217.7 122.8 217.6 121.1 217.1 120.1C216.8 119.4 216.7 118.4 217.8 119.6C218.5 120.6 219.7 122.6 218.7 125.6Z" fill="#2C81FE"/>
<path fill-rule="evenodd" clip-rule="evenodd" d="M232.4 125C234.3 120.6 236.7 118.1 239.3 117C241.1 116.3 242.9 116.2 244.6 116.6C246.3 117 247.9 117.9 249.3 119.2C251.8 121.4 253.5 124.8 253.5 128.1C253.5 128.2 253.4 128.3 253.3 128.3C253.2 128.3 253.1 128.2 253.1 128.2C252.7 125.9 251.4 123.7 249.5 122.1C248.1 120.9 246.3 120 244.5 119.6C242.7 119.2 240.7 119.4 238.8 120.4C236.6 121.5 234.5 123.6 232.9 127C232.5 127.8 232.2 128.7 232 129.6C231.8 130.5 231.7 131.3 231.7 132.2C231.7 132.3 231.6 132.4 231.5 132.4C231.4 132.4 231.3 132.3 231.3 132.2C231.2 131.1 231.2 129.9 231.4 128.7C231.6 127.3 231.9 126.1 232.4 125Z" fill="#12006C"/>
<path fill-rule="evenodd" clip-rule="evenodd" d="M234.5 123.3C234.8 122.7 235.2 122.1 235.5 121.5C236.9 120.2 238.8 119.3 241 119.2C245.8 118.8 250.1 122.1 250.4 126.5C251 133.9 241.5 136.6 236.3 133.7C235.3 133 234.5 132.2 233.9 131.1C232.8 128.8 233.2 125.8 234.5 123.3Z" fill="#12006C"/>
<path d="M253.3 131.6C252.4 131.4 252 131.1 252 131C251.8 130.8 251.8 130.5 252 130.3C252.2 130.1 252.5 130.1 252.7 130.3C252.7 130.3 253 130.5 253.5 130.6C253.8 130.7 253.9 130.9 253.9 131.2C253.7 131.4 253.5 131.6 253.3 131.6Z" fill="#BFE1FF"/>
<path d="M251.4 133.3C251.3 133.3 251.2 133.3 251.1 133.2C250.5 132.8 250.3 132.4 250.3 132.4C250.2 132.2 250.3 131.9 250.5 131.8C250.7 131.7 251 131.8 251.1 132C251.1 132 251.2 132.2 251.6 132.5C251.8 132.6 251.9 132.9 251.8 133.2C251.7 133.3 251.6 133.3 251.4 133.3Z" fill="#BFE1FF"/>
<path fill-rule="evenodd" clip-rule="evenodd" d="M239 128.2C239.8 128 240.6 128.6 240.8 129.5C241 130.4 240.4 131.2 239.6 131.3C238.8 131.5 238 130.9 237.8 130C237.6 129.2 238.1 128.4 239 128.2Z" fill="white"/>
<path fill-rule="evenodd" clip-rule="evenodd" d="M227.5 169.7C228.2 169.5 228.7 168.9 228.5 168.2C228.3 167.5 227.6 167.1 226.9 167.2C226.9 167.2 222.9 168.6 217.9 168.2C216.1 168 216 170 217.8 170.1C223.2 170.5 227.5 169.7 227.5 169.7Z" fill="#2C81FE"/>
<path fill-rule="evenodd" clip-rule="evenodd" d="M182.9 98.7C179.2 98.3 177.1 97.1 174.5 95.9C149.5 84.4 170.2 41.7 180.8 53.4C180.9 53.5 181.1 54 181.2 53.8C188.4 26.2 234.1 23.1 222.1 40.7C222.1 40.7 255 29.5 257.8 53.4C263.8 35.6 287.4 91.8 254.2 96.6C226.4 100.6 207.5 89.3 182.9 98.7Z" fill="#12006C"/>
<path fill-rule="evenodd" clip-rule="evenodd" d="M230.3 104.7C230.4 105.4 230.6 105.8 230.7 105.9C230.7 104.9 231.3 104.1 232.2 103.6C238.2 100.5 248 102.2 252.7 105.8C252.7 105.8 252.8 105.9 252.8 106C252.8 106.1 252.7 106.1 252.7 106.1C249.4 104.8 246 104.7 243.1 105C238.4 105.5 234.6 107.4 233.4 108.3C232.9 108.6 232.4 108.9 231.8 109C231.2 109 230.6 108.8 230.1 107.9C229.9 107.6 229.8 107.3 229.7 107.1C229.5 106.5 229.5 105.9 229.5 105.4C229.6 104.9 229.7 104.6 229.8 104.5C230.2 104.3 230.3 104.7 230.3 104.7Z" fill="#12006C"/>
<path fill-rule="evenodd" clip-rule="evenodd" d="M248.2 101.4C248.5 101.1 249 101.2 249.3 101.6C249.6 102 249.5 102.5 249.2 102.8L242.9 108C242.6 108.3 242.1 108.2 241.8 107.8C241.5 107.4 241.6 106.9 242 106.6L248.2 101.4Z" fill="#59B2FF"/>
<path fill-rule="evenodd" clip-rule="evenodd" d="M271.7 140C272.3 139.9 272.9 140.4 272.9 141C273 141.6 272.5 142.2 271.9 142.2C271.3 142.3 270.7 141.8 270.7 141.1C270.6 140.6 271.1 140 271.7 140Z" fill="#12006C"/>
<path fill-rule="evenodd" clip-rule="evenodd" d="M170 55.2002C171.6 64.0002 179 77.5002 211 63.7002L211.8 63.3002C212.4 63.0002 212.7 62.9002 212.7 63.1002C212.7 63.2002 212.6 63.2002 212.6 63.2002C212.4 63.3002 212.1 63.5002 211.5 63.8002L211.1 64.0002C208.7 65.3002 203.9 67.7002 198.4 69.8002C194.9 71.2002 191.1 72.4002 187.6 73.1002C183.2 74.0002 179.6 74.0002 176.7 73.5002C173.7 73.0002 171.4 72.1002 169.7 71.2002C169.4 71.0002 169.1 70.9002 168.8 70.8002C166.5 69.6002 165.2 68.9002 163.4 69.1002C164.6 63.6002 167.1 58.5002 170 55.2002ZM216 61.5002C216 61.5002 227.5 54.1002 235.1 55.8002C235.2 55.8002 235.2 55.9002 235.2 56.0002C235.2 56.1002 235.1 56.1002 235 56.1002C235 56.1002 232 55.7002 230.4 57.7002C229 59.4002 227.5 59.4002 225.6 59.4002C225.1 59.4002 224.7 59.4002 224.2 59.4002C222.8 59.5002 221.4 59.7002 220 60.1002C218.7 60.5002 217.4 61.0002 216.2 61.7002C216.1 61.7002 216 61.7002 216 61.6002V61.5002Z" fill="#2C81FE"/>
<path fill-rule="evenodd" clip-rule="evenodd" d="M206.5 148.2C210 149.2 215.4 149 220.7 148C226 147 231.2 145.3 234.2 143.2C234.8 142.8 235.6 142.9 236.1 143.5C236.3 143.8 236.4 144.1 236.3 144.4C235.5 152.4 233.2 158.1 230 161.6C228 163.8 225.8 165 223.3 165.4C220.9 165.8 218.3 165.3 215.8 163.9C211.9 161.7 208 157.1 204.9 150C204.6 149.3 204.9 148.5 205.6 148.2C206 148.1 206.3 148.1 206.5 148.2Z" fill="#12006C"/>
<path fill-rule="evenodd" clip-rule="evenodd" d="M207.4 148.4C210.9 149.1 215.8 148.9 220.7 148C226 147 231.2 145.3 234.2 143.2C234.8 142.8 235.6 142.9 236.1 143.5C236.3 143.8 236.4 144.1 236.3 144.4C236.2 145 236.2 145.7 236.1 146.3C227.2 153 212.9 153.3 210.2 152.2C208.4 151.4 207.7 149.6 207.4 148.4Z" fill="white"/>
<path fill-rule="evenodd" clip-rule="evenodd" d="M212.1 161C214.2 159.4 217.7 158 222.9 159.2C222.9 159.2 227.8 152.6 234.8 152.5C233.6 156.4 232 159.5 230 161.6C228 163.8 225.8 165 223.3 165.4C220.9 165.8 218.3 165.3 215.8 163.9C214.6 163.2 213.3 162.2 212.1 161Z" fill="#2C81FE"/>
<path d="M221.5 163.3C221.2 163.3 221 163 221 162.8C221.4 159.2 222.9 157.6 223 157.5C223.2 157.3 223.5 157.3 223.7 157.5C223.9 157.7 223.9 158 223.7 158.2C223.7 158.2 222.3 159.7 222 162.9C221.9 163.1 221.7 163.3 221.5 163.3Z" fill="#12006C"/>
<path fill-rule="evenodd" clip-rule="evenodd" d="M207.7 120C207.7 120.8 207.5 121.1 207.3 121.3C207.2 120.3 206.4 119.6 205.3 119.1C198 116.6 186.9 119.2 181.9 123.4C181.9 123.4 181.8 123.5 181.9 123.6C181.9 123.7 182 123.7 182.1 123.7C185.8 122.1 189.6 121.5 193.1 121.6C198.6 121.7 203.1 123.2 204.7 124C205.3 124.3 205.9 124.6 206.6 124.5C207.3 124.5 207.9 124.2 208.4 123.2C208.6 122.9 208.7 122.6 208.7 122.3C208.9 121.6 208.8 121 208.7 120.6C208.6 120.1 208.4 119.8 208.2 119.7C208.2 119.7 208.2 119.7 208.1 119.7C207.8 119.5 207.7 119.9 207.7 120Z" fill="#12006C"/>
<path d="M182.9 139.2C182.7 139.2 182.6 139.1 182.5 138.9C182.4 138.7 182.5 138.4 182.7 138.3C183.2 138 183.4 137.7 183.4 137.7C183.5 137.5 183.8 137.4 184.1 137.6C184.3 137.7 184.4 138 184.2 138.3C184.2 138.4 183.8 138.8 183.1 139.2C183 139.2 183 139.2 182.9 139.2Z" fill="#BFE1FF"/>
<path d="M185.4 140.5C185.3 140.5 185.2 140.5 185.1 140.4C184.9 140.2 184.9 139.9 185.1 139.7C185.4 139.4 185.5 139.1 185.5 139.1C185.6 138.8 185.8 138.7 186.1 138.7C186.4 138.8 186.5 139 186.5 139.3C186.5 139.4 186.4 139.8 185.9 140.3C185.6 140.4 185.5 140.5 185.4 140.5Z" fill="#BFE1FF"/>
<path fill-rule="evenodd" clip-rule="evenodd" d="M186.6 136.2C184.2 130.2 192.8 125.4 198.9 127.9C203.5 129.8 206.5 131.2 207.4 131C207.4 131 206.2 133.3 205.8 133.1C205.3 132.9 192.6 133.2 191.9 133.2C191.1 133.3 186.6 136.2 186.6 136.2Z" fill="#2C81FE"/>
<path fill-rule="evenodd" clip-rule="evenodd" d="M197.9 134.2C193.6 133.8 189.1 133.8 186.6 136.9L186.5 137C186.4 137 186.4 136.9 186.4 136.9C187.3 131.4 194.5 129.9 200.1 130.6C201.4 130.8 202.6 131 203.7 131.1L204.3 131.2C207.2 131.7 207.5 131 207.5 131C207.5 130.9 207.6 130.9 207.6 130.9C207.7 130.9 207.7 131 207.7 131C207.6 132.4 206.2 134.1 205 134.6C203.4 135.2 200.5 134.4 197.9 134.2Z" fill="#12006C"/>
<path fill-rule="evenodd" clip-rule="evenodd" d="M108.1 315.5C101.4 317.4 94.9 317.3 96.1 325.9C89.6 328.2 91.2 332.5 92.1 338C92.2 338.8 87.1 343.2 92.7 350.1V350.2C89.4 365.2 113 372.9 112.9 372.4L111.5 358C120.3 356.3 121.8 354.3 123 348.5C123 348.4 129.1 349.6 132.1 349C135.4 348.4 139.4 341.8 131.4 340.1C135.3 336.4 132.3 333 126.4 330.4C121.1 328.1 108.6 323 108.6 323L108.1 315.5Z" fill="#59B2FF"/>
<path d="M106.3 362.3C106.2 362.3 106.2 362.3 106.1 362.3C105.9 362.2 105.8 361.9 105.9 361.7L106.8 359.9L103 360.9C102.7 361 102.5 360.8 102.4 360.6C102.3 360.3 102.5 360.1 102.7 360L107.5 358.7L111.4 357.7C111.7 357.6 111.9 357.8 112 358C112.1 358.3 111.9 358.5 111.7 358.6L108 359.6L106.8 362.1C106.7 362.2 106.5 362.3 106.3 362.3ZM92.8 350.7C92.6 350.7 92.4 350.6 92.3 350.4C92.2 350.1 92.4 349.9 92.6 349.8C92.6 349.8 96.5 348.6 100.9 347.2C101.8 346.9 102.6 346.7 103.4 346.4C106.5 345.4 108.4 344.8 109.6 345C110.9 345.2 118.8 346.6 121 347.3C123.5 348 123.6 348.3 123.6 348.6C123.6 348.9 123.4 349.1 123.2 349.1C123 349.1 122.9 349 122.8 348.9C122.7 348.8 122.3 348.6 120.8 348.2C118.6 347.6 110.7 346.1 109.5 345.9C108.6 345.7 106.6 346.4 103.8 347.3C103 347.5 102.2 347.8 101.3 348.1C96.9 349.5 93 350.7 93 350.7C92.9 350.7 92.8 350.7 92.8 350.7ZM131.5 340.7H131.4C131.2 340.7 115.2 336.1 110.9 334.7C106.5 333.3 105.3 333.5 102.8 334C100.2 334.6 92.5 338.3 92.4 338.3C92.2 338.4 91.9 338.3 91.8 338.1C91.7 337.9 91.8 337.6 92 337.5C92.3 337.3 99.9 333.7 102.6 333.1C105.4 332.5 106.8 332.4 111.2 333.8C115.5 335.2 131.6 339.7 131.7 339.8C132 339.9 132.1 340.1 132 340.4C131.9 340.6 131.7 340.7 131.5 340.7ZM96.1 326.4C95.9 326.4 95.7 326.3 95.6 326.1C95.5 325.8 95.7 325.6 95.9 325.5L102 323.6C102.1 323.5 106.4 321.8 108.9 322.8C109.1 322.9 109.3 323.2 109.2 323.4C109.1 323.6 108.8 323.8 108.6 323.7C106.4 322.8 102.4 324.5 102.4 324.5L96.3 326.4C96.2 326.3 96.1 326.4 96.1 326.4Z" fill="#2C81FE"/>
<path fill-rule="evenodd" clip-rule="evenodd" d="M344.6 162.5H332.4V176.9C336.4 177.7 340.6 177.7 344.6 176.9V162.5Z" fill="#2C81FE"/>
<path fill-rule="evenodd" clip-rule="evenodd" d="M330.4 159.1C325.5 160.6 318.3 163.9 314.8 165.2C314.8 165.2 314.9 166.2 315.2 167.9C320.6 173.2 327.4 176.4 334.6 177.3L330.4 159.1Z" fill="#12006C"/>
<path fill-rule="evenodd" clip-rule="evenodd" d="M314.8 165.2C314.8 165.2 314.2 165.5 313.6 166.1C315 167.7 316.5 169.2 318.2 170.5L314.8 165.2Z" fill="#12006C"/>
<path fill-rule="evenodd" clip-rule="evenodd" d="M360.1 164.1C360.1 164.1 361.7 164.9 362.8 167C361.6 168.3 360.3 169.5 358.9 170.6C357.3 171.8 355.7 172.9 354 173.7L360.1 164.1Z" fill="#12006C"/>
<path d="M345.4 149.1H331.6V166H345.4V149.1Z" fill="#59B2FF"/>
<path fill-rule="evenodd" clip-rule="evenodd" d="M345.4 150.3H331.6V159.7C336.1 161.9 341.7 161 345.4 156.8V150.3Z" fill="#2C81FE"/>
<path fill-rule="evenodd" clip-rule="evenodd" d="M337.7 167.7L337.4 168.5L335.9 177.3C337.7 177.4 339.5 177.4 341.3 177.3L339.8 168.5L339.5 167.7H338.7H337.7Z" fill="#FEDB39"/>
<path fill-rule="evenodd" clip-rule="evenodd" d="M335.4 164.9L337.4 168.5C337.4 168.5 337.8 168.3 338.6 168.3C339.4 168.3 339.8 168.5 339.8 168.5L341.8 164.9L338.7 164.6L335.4 164.9Z" fill="#FEDB39"/>
<path fill-rule="evenodd" clip-rule="evenodd" d="M331.6 157.3C331.6 157.3 330.2 158.1 329.9 158.7C329.7 159.4 331.6 168 331.6 168C331.6 168 331.8 168.4 332.3 168.3C332.7 168.2 338.4 164.7 338.4 164.7L331.5 158.7L331.6 157.3Z" fill="white"/>
<path fill-rule="evenodd" clip-rule="evenodd" d="M347 158.9C351.9 160.4 356.7 162.8 360.1 164.1C360.1 164.1 359.7 166.6 359.2 170.3C359.1 170.4 359 170.5 358.9 170.6C353.8 174.6 347.8 176.8 341.8 177.4L347 158.9Z" fill="#12006C"/>
<path fill-rule="evenodd" clip-rule="evenodd" d="M345.4 157.3C345.4 157.3 346.8 158.1 347.1 158.7C347.3 159.4 345.4 168 345.4 168C345.4 168 345.2 168.4 344.7 168.3C344.3 168.2 338.6 164.7 338.6 164.7L345.5 158.7L345.4 157.3Z" fill="white"/>
<path fill-rule="evenodd" clip-rule="evenodd" d="M327.5 141.2C327.5 141.2 326.4 139.9 325.7 139.9C324.9 139.9 323.9 141.6 323.9 142.9C323.9 144.2 325.1 148.9 327.7 147.3C330.3 145.7 327.5 141.2 327.5 141.2Z" fill="#2C81FE"/>
<path fill-rule="evenodd" clip-rule="evenodd" d="M350.4 143.4C350.4 143.4 351.4 142.4 352 142.5C352.6 142.6 353.3 144.1 353.1 145.2C352.9 146.3 351.4 150 349.5 148.4C347.6 146.8 350.4 143.4 350.4 143.4Z" fill="#2C81FE"/>
<path fill-rule="evenodd" clip-rule="evenodd" d="M340.5 122.7C356 124.1 352.8 136.9 350.6 147.1C347.2 163.1 327.7 161.6 326.8 145.3C326.2 134.8 324.9 121.7 340.5 122.7Z" fill="#59B2FF"/>
<path fill-rule="evenodd" clip-rule="evenodd" d="M326.7 144.1C326.6 142.7 326.5 141.1 326.5 139.6C326.2 129.8 327.5 122.8 340.4 123.6C353.3 124.8 353.5 131.9 351.7 141.5C351.4 142.9 351.1 144.5 350.8 145.9C350.8 145.9 349.4 144.2 350 141.2C350 141.2 346.8 141 348.5 135.8C350.2 130.6 343.5 129.7 340 129.4C336.5 129.1 329.7 129 330.6 134.4C331.5 139.8 328.3 139.5 328.3 139.5C328.3 142.7 326.7 144.1 326.7 144.1Z" fill="#12006C"/>
<path fill-rule="evenodd" clip-rule="evenodd" d="M332.1 134.3C332.1 134.3 333 135.1 333.4 137C333.8 138.9 334.6 140.6 336.9 140.8C339.1 141 340.2 138.8 340.2 138.8C340.2 138.8 342.3 143.1 346.1 139.6C346.1 139.6 347.4 141.8 350.4 142C360.5 142.4 354.4 120.5 339.3 120.2C333.5 120.1 330 122.8 329.2 124.8C330 121.1 326.5 121.3 326.8 126.8C318.4 129 328.8 149 332.1 134.3Z" fill="#12006C"/>
<path d="M338.5 178.9C327.7 178.9 317.8 174 311.2 165.5C299.5 150.4 302.2 128.7 317.3 117C323.4 112.2 330.7 109.7 338.5 109.7C349.3 109.7 359.2 114.6 365.8 123.1C371.5 130.4 374 139.5 372.8 148.6C371.6 157.8 367 165.9 359.7 171.6C353.6 176.4 346.3 178.9 338.5 178.9ZM338.5 112.6C331.4 112.6 324.7 114.9 319.1 119.3C305.3 130 302.8 150 313.5 163.8C319.6 171.6 328.7 176.1 338.6 176.1C345.7 176.1 352.4 173.8 358 169.4C364.7 164.2 369 156.7 370 148.3C371.1 139.9 368.8 131.6 363.6 124.9C357.5 117.1 348.4 112.6 338.5 112.6Z" fill="#FEDB39"/>
<path fill-rule="evenodd" clip-rule="evenodd" d="M380.6 198.5C380.6 198.5 376.7 201.8 374.4 199.1C372.1 196.3 357.1 171.9 357.1 171.9L358.9 170.6L360.6 169.2C360.6 169.2 380.6 189.7 382.7 192.7C384.8 195.5 380.6 198.5 380.6 198.5Z" fill="#FEDB39"/>
<path d="M359.7 176.6C359.5 176.6 359.4 176.5 359.3 176.3C359.2 176.1 359.3 175.8 359.5 175.7C361.6 174.7 362.9 173.4 363.7 172.4C363.9 172.2 364.2 172.2 364.4 172.3C364.6 172.5 364.6 172.8 364.5 173C363.7 174 362.2 175.4 360 176.5C359.9 176.6 359.8 176.6 359.7 176.6Z" fill="white"/>
<path d="M361.2 179C361 179 360.8 178.9 360.8 178.7C360.7 178.5 360.8 178.2 361 178.1C363.3 177 364.8 175.6 365.6 174.5C365.8 174.3 366.1 174.3 366.3 174.4C366.5 174.6 366.6 174.9 366.4 175.1C365.5 176.3 363.9 177.9 361.4 179C361.3 178.9 361.3 179 361.2 179Z" fill="white"/>
<path d="M311.6 154.2C311.4 154.2 311.2 154.1 311.1 153.9C310.9 153.3 310.7 152.7 310.6 152.2C310.5 151.9 310.7 151.7 310.9 151.6C311.2 151.5 311.4 151.7 311.5 151.9C311.7 152.5 311.8 153 312 153.6C312.1 153.8 312 154.1 311.7 154.2H311.6ZM310.5 150.1C310.3 150.1 310.1 149.9 310 149.7C308 139 312.1 128.1 320.7 121.4C320.9 121.2 321.2 121.3 321.4 121.5C321.6 121.7 321.5 122 321.3 122.2C313 128.7 309 139.2 310.9 149.6C311 149.8 310.8 150 310.5 150.1Z" fill="white"/>
<path d="M374 161.6C373.9 161.6 373.9 161.6 373.8 161.6C373.6 161.5 373.5 161.2 373.6 161C379.5 148.5 378.3 133.6 370.4 122.2C370.2 122 370.3 121.7 370.5 121.5C370.7 121.3 371 121.4 371.2 121.6C379.3 133.2 380.6 148.5 374.5 161.3C374.4 161.5 374.2 161.6 374 161.6ZM367.8 118.6C367.7 118.6 367.5 118.5 367.4 118.4C366.1 117 364.7 115.6 363.2 114.4C363 114.2 363 113.9 363.1 113.7C363.3 113.5 363.6 113.5 363.8 113.6C365.3 114.9 366.7 116.2 368.1 117.7C368.3 117.9 368.3 118.2 368.1 118.4C368 118.6 367.9 118.6 367.8 118.6Z" fill="white"/>
<path fill-rule="evenodd" clip-rule="evenodd" d="M128.1 175.9L127.2 177.1L119.5 196.1C119.2 196.8 118.5 197.1 117.8 196.9L113 195.4C112.3 195.2 111.9 194.5 112.1 193.8L116 171.5C116.1 170.8 116.8 170.3 117.6 170.4C117.7 170.4 117.7 170.4 117.8 170.4L127.4 173.6C128.1 173.8 128.5 174.6 128.3 175.3C128.2 175.6 128.2 175.7 128.1 175.9Z" fill="#12006C"/>
<path fill-rule="evenodd" clip-rule="evenodd" d="M131.9 177L131 178.2L123.3 197.2C123 197.9 122.3 198.2 121.6 198L116.8 196.5C116.1 196.3 115.7 195.6 115.9 194.9L119.8 172.6C119.9 171.9 120.6 171.4 121.4 171.5C121.5 171.5 121.5 171.5 121.6 171.5L131.2 174.7C131.9 174.9 132.3 175.7 132.1 176.4C132.1 176.8 132 176.9 131.9 177Z" fill="#2C81FE"/>
<path fill-rule="evenodd" clip-rule="evenodd" d="M139.9 161.1C141.4 162.8 143.2 164.6 145.5 166.3C145.5 166.3 145.6 166.3 145.6 166.4C145.8 166.5 146 166.7 146.2 166.9C147.7 168.5 147.7 171.8 145.9 174.9C144.1 178 141.3 179.7 139.1 179.1C138.8 179 138.6 178.9 138.4 178.8L138.3 178.7C135.7 177.6 133.3 176.9 131.1 176.5L139.9 161.1Z" fill="white"/>
<path fill-rule="evenodd" clip-rule="evenodd" d="M141.4 178.8C140.6 179.1 139.8 179.1 139.1 179C138.8 178.9 138.6 178.8 138.4 178.7L138.3 178.6C135.7 177.5 133.3 176.8 131.1 176.4L131.2 176.2C134.6 174.8 139.7 173 139.7 173L144.1 168.8C144.1 168.8 145.4 174.5 141.4 178.8Z" fill="#59B2FF"/>
<path fill-rule="evenodd" clip-rule="evenodd" d="M122.1 129.1C122.1 129.1 123.7 145.8 141.6 159.1C141.7 159.1 141.8 159.2 141.8 159.2C142.2 159.4 142.5 159.7 142.8 160C145.3 162.5 145.2 167.8 142.4 172.7C139.6 177.6 135 180.3 131.6 179.4C131.2 179.3 130.8 179.1 130.4 178.9C130.3 178.9 130.2 178.8 130.2 178.8C109.7 170 94.5 176.9 94.5 176.9C94.5 176.9 103 149.9 103.6 150.3C103 150 122.1 129.1 122.1 129.1Z" fill="#FEDB39"/>
<path fill-rule="evenodd" clip-rule="evenodd" d="M141.4 174.3C138.6 178.2 134.7 180.2 131.6 179.5C131.2 179.4 130.8 179.2 130.4 179C130.3 179 130.2 178.9 130.2 178.9C109.7 170.1 94.5 177 94.5 177C94.5 177 97 168.9 99.4 161.7L108.6 155.3C108.6 155.3 106.6 159.9 111.1 161.7C115.5 163.5 126.8 168.4 132.4 171.9C136.7 174.7 139.1 175.6 141.4 174.3Z" fill="#FFD617"/>
<path fill-rule="evenodd" clip-rule="evenodd" d="M107.5 104.9C123.4 114.1 127.1 137.6 115.7 157.3C104.3 177.1 82.1001 185.6 66.2001 176.4L107.5 104.9Z" fill="white"/>
<path fill-rule="evenodd" clip-rule="evenodd" d="M112.5 162.3C102.8 175.4 87.9 182.1 74.9 179.7C81.1 173.9 98.5 162.4 98.5 162.4L108.7 155.4C108.7 155.4 106.7 160 111.2 161.8C111.5 161.8 112 162 112.5 162.3Z" fill="#59B2FF"/>
<path fill-rule="evenodd" clip-rule="evenodd" d="M64.2001 127.5C75.6001 107.7 95.0001 97.6001 107.5 104.8C120 112 120.9 133.9 109.5 153.7C98.1001 173.5 78.7001 183.6 66.2001 176.4C53.7001 169.2 52.8001 147.3 64.2001 127.5Z" fill="#12006C"/>
<path fill-rule="evenodd" clip-rule="evenodd" d="M64.2001 127.5C75.6001 107.7 95.0001 97.6001 107.5 104.8C108.3 105.3 109.1 105.8 109.8 106.4C97.3001 101.8 79.7001 111.8 69.1001 130.3C58.5001 148.7 58.5001 169 68.8001 177.5C67.9001 177.2 67.0001 176.8 66.2001 176.3C53.7001 169.2 52.8001 147.3 64.2001 127.5Z" fill="#2C81FE"/>
<path fill-rule="evenodd" clip-rule="evenodd" d="M115.4 140.1C111.2 139.5 106.6 138.3 101.8 136.2C101.7 136.2 101.7 136.1 101.6 136.1C101.2 135.9 100.8 135.7 100.4 135.6C97 134.7 92.4 137.5 89.6 142.3C86.8 147.2 86.7 152.5 89.2 155C89.5 155.3 89.8 155.6 90.2 155.8C90.3 155.8 90.4 155.9 90.4 155.9C94.7 159.1 98 162.5 100.6 165.8C103.9 162.4 106.9 158.4 109.5 153.8C112.1 149.2 114.1 144.6 115.4 140.1Z" fill="#FFD617"/>
<path fill-rule="evenodd" clip-rule="evenodd" d="M102.8 163.3C105.2 160.4 107.5 157.3 109.5 153.8C110.8 151.6 111.9 149.4 112.8 147.2C112.7 147.5 111.2 149.9 101.8 145.2C91.9 140.3 93.1 155.6 93.1 155.6C93.1 155.6 97.3 157.8 102.8 163.3Z" fill="#12006C"/>
<path fill-rule="evenodd" clip-rule="evenodd" d="M102.1 149.5C105.2 144.1 105 138 101.5 136C98 134 92.7 136.8 89.6 142.2C86.5 147.6 86.7 153.7 90.2 155.7C93.6 157.7 99 154.9 102.1 149.5Z" fill="#FEDB39"/>
<path fill-rule="evenodd" clip-rule="evenodd" d="M77.6 113.5L88.3 135.2V135.3C88.5 135.8 88.5 136.2 88.4 136.7C88.3 137.2 88 137.7 87.5 138C87 138.4 86.4 138.5 85.8 138.4C85.2 138.3 84.7 138 84.3 137.5L74.7 125.4L70.4 131C70.4 131.1 70.3 131.1 70.2 131.2L70.1 131.3C70 131.4 69.9 131.5 69.7 131.5C69.2 131.8 68.5 131.9 68 131.7C67.9 131.7 67.9 131.7 67.9 131.7C67.4 131.5 67 131.2 66.7 130.7L54.8 108.6C54.8 108.5 54.7 108.5 54.7 108.4C54.5 108 54.5 107.5 54.5 107.1C54.6 106.6 54.9 106.1 55.3 105.7C55.8 105.3 56.4 105.2 56.9 105.3C57.5 105.4 58 105.7 58.4 106.2L68.7 118.9L73.6 113.1C73.7 113 73.8 112.9 74 112.8C74.1 112.7 74.1 112.7 74.2 112.7C74.3 112.7 74.3 112.6 74.4 112.6C75 112.3 75.6 112.3 76.1 112.5C76.9 112.5 77.3 113 77.6 113.5Z" fill="white"/>
<path fill-rule="evenodd" clip-rule="evenodd" d="M65.7 150.8L50.5 144.8H50.4C50.1 144.7 49.9 144.4 49.7 144.2C49.5 143.9 49.5 143.5 49.6 143.1C49.7 142.7 49.9 142.4 50.3 142.2C50.6 142 51 141.9 51.4 142L61.7 143.7L61.3 138.9C61.3 138.8 61.3 138.8 61.3 138.7V138.6C61.3 138.5 61.3 138.4 61.4 138.3C61.5 137.9 61.8 137.6 62.2 137.4H62.3C62.6 137.3 63 137.2 63.4 137.4L79.4 143C79.4 143 79.5 143 79.5 143.1C79.8 143.2 80 143.4 80.2 143.7C80.4 144 80.5 144.4 80.4 144.8C80.3 145.2 80.1 145.6 79.8 145.8C79.5 146 79.1 146.1 78.7 146L67.8 144.4L68 149.5C68 149.6 68 149.7 68 149.8C68 149.9 68 149.9 68 150C68 150.1 68 150.1 67.9 150.2C67.7 150.6 67.4 150.9 67.1 151C66.5 151 66.1 151 65.7 150.8Z" fill="white"/>
<path fill-rule="evenodd" clip-rule="evenodd" d="M76.9 160L69.1 162.5C68.9 162.5 68.8 162.5 68.6 162.5C68.4 162.4 68.3 162.3 68.2 162.1C68.1 161.9 68.1 161.7 68.2 161.5C68.3 161.3 68.4 161.2 68.6 161.1L73.1 158.5L71.4 156.8C71.4 156.8 71.4 156.8 71.3 156.7C71.3 156.7 71.3 156.7 71.3 156.6C71.3 156.6 71.3 156.5 71.2 156.5C71.1 156.3 71.1 156.1 71.2 155.9C71.3 155.7 71.4 155.6 71.6 155.5L79.6 152.6C79.6 152.6 79.6 152.6 79.7 152.6C79.8 152.6 80 152.6 80.1 152.6C80.3 152.7 80.4 152.8 80.5 153C80.6 153.2 80.6 153.4 80.6 153.6C80.5 153.8 80.4 154 80.2 154.1L75.5 156.9L77.2 158.8L77.3 158.9V159V159.1C77.4 159.3 77.3 159.5 77.2 159.7C77.3 159.8 77.1 159.9 76.9 160Z" fill="white"/>
<path d="M67 185.2H66.9C50.1 180.5 49.4 157.3 49.4 157C49.4 156.7 49.6 156.5 49.9 156.5C50.2 156.5 50.4 156.7 50.4 157C50.4 157.2 51.1 179.8 67.2 184.3C67.5 184.4 67.6 184.6 67.5 184.9C67.4 185.1 67.2 185.2 67 185.2ZM58.6 168.1C58.4 168.1 58.2 168 58.2 167.8C55.6 161.9 55.1 154.1 56.7 145.8C56.8 145.5 57 145.4 57.3 145.4C57.6 145.5 57.7 145.7 57.7 146C56.1 154.1 56.6 161.6 59.1 167.4C59.2 167.6 59.1 167.9 58.9 168C58.7 168 58.6 168.1 58.6 168.1ZM142.8 160.5C142.7 160.5 142.6 160.5 142.6 160.4C133 154.9 122.7 139.4 121.7 129.1C121.7 128.8 121.9 128.6 122.1 128.6C122.4 128.6 122.6 128.8 122.6 129C123.6 139 133.7 154.1 143.1 159.5C143.3 159.6 143.4 159.9 143.3 160.2C143.1 160.4 143 160.5 142.8 160.5ZM87.8 159.3C87.7 159.3 87.7 159.3 87.6 159.3C85.5 158.5 84.7 156.7 84.7 156.7C84.6 156.5 84.7 156.2 84.9 156.1C85.1 156 85.4 156.1 85.5 156.3C85.5 156.3 86.2 157.8 87.9 158.4C88.1 158.5 88.3 158.8 88.2 159C88.2 159.2 88 159.3 87.8 159.3ZM87.9 153.4C87.7 153.4 87.5 153.3 87.5 153.1C86.4 150.1 87 145.8 89.2 142C90.8 139.3 92.9 137.1 95.2 135.9C97.6 134.6 99.9 134.5 101.7 135.6C103.8 136.8 104.8 139.3 104.7 142.5C104.7 142.8 104.5 143 104.2 143C103.9 143 103.7 142.8 103.7 142.5C103.8 139.7 102.9 137.5 101.2 136.5C99.7 135.6 97.7 135.7 95.6 136.8C93.4 137.9 91.4 140 89.9 142.5C87.8 146.1 87.2 150 88.3 152.8C88.4 153 88.3 153.3 88 153.4C88.1 153.4 88 153.4 87.9 153.4ZM91.2 133.6C91.1 133.6 90.9 133.5 90.8 133.4C90.6 133.2 90.6 132.9 90.8 132.7C90.9 132.7 96.6 127.8 102.6 130.7C102.8 130.8 102.9 131.1 102.8 131.3C102.7 131.5 102.4 131.6 102.2 131.5C96.8 129 91.5 133.5 91.5 133.5C91.4 133.6 91.3 133.6 91.2 133.6ZM72.9 116.3C72.8 116.3 72.7 116.3 72.6 116.2C72.4 116 72.4 115.7 72.6 115.5C79 108.7 86.5 104.1 93.6 102.6C93.9 102.5 94.1 102.7 94.2 103C94.3 103.3 94.1 103.5 93.8 103.6C86.9 105 79.6 109.5 73.3 116.2C73.1 116.2 73 116.3 72.9 116.3ZM113.5 99.9C113.4 99.9 113.3 99.9 113.3 99.8C97.8 90.7 83 99.5 82.9 99.6C82.7 99.7 82.4 99.7 82.2 99.4C82.1 99.2 82.1 98.9 82.4 98.7C82.6 98.6 97.8 89.6 113.8 98.9C114 99 114.1 99.3 114 99.6C113.8 99.8 113.6 99.9 113.5 99.9Z" fill="white"/>
<path fill-rule="evenodd" clip-rule="evenodd" d="M86.3 231.5C85 231.5 83.7 231.7 82.5 232.2C82 231.6 81.2 231.2 80.3 231.2C79.9 231.2 79.5 231.3 79.2 231.4C79 228.9 76.9 226.9 74.3 226.9C73.2 226.9 72.1 227.3 71.3 227.9C71.1 227.7 70.9 227.4 70.7 227.3C71.2 226.5 71.4 225.5 71.4 224.5C71.4 222.9 70.8 221.5 69.7 220.4C68.7 219.4 67.2 218.7 65.6 218.7C64.7 218.2 63.7 218 62.7 218C62 218 61.4 218.1 60.8 218.3C60.5 217.7 60.1 217.3 59.5 217C59.7 216.3 59.7 215.5 59.7 214.8C59.7 211.9 58.5 209.3 56.6 207.4C54.7 205.5 52.1 204.3 49.2 204.3C48.3 204.3 47.4 204.4 46.5 204.6C40.3 204.7 35.3 209.7 35.3 216C35.3 216.1 35.3 216.2 35.3 216.3C34.8 216.2 34.2 216.1 33.6 216.1C32.4 216.1 31.3 216.4 30.3 216.9C28.6 214.6 26 213.2 23 213.2C18 213.2 13.9 217.3 13.9 222.3C13.9 223.3 14.1 224.2 14.4 225.1C14.3 225.1 14.2 225.1 14.1 225.1C11.6 225.1 9.59999 227.1 9.59999 229.6C9.59999 229.9 9.59999 230.2 9.69999 230.4H9.59999C8.19999 230.4 7.09999 231.5 6.99999 232.9C6.59999 232.8 6.19999 232.8 5.79999 232.8C4.19999 232.8 2.69999 233.4 1.59999 234.4C-1.30001 237.2 1.89999 237.9 4.89999 237.9H8.89999H12H76.3H81.3H89.5C92.7 237.9 97.3 238.4 94.1 235.1C92.2 232.8 89.4 231.5 86.3 231.5ZM58.7 216.6C58.5 216.6 58.4 216.6 58.2 216.6H58.1C58.1 216.4 58.1 216.1 58.1 215.9C58.1 210.9 54.9 206.7 50.4 205.1C52.6 205.4 54.6 206.4 56 207.8C57.7 209.5 58.8 211.9 58.8 214.6C58.9 215.4 58.8 216 58.7 216.6ZM69.9 226.9C69.6 226.8 69.3 226.7 69 226.7C68.8 226.7 68.7 226.7 68.5 226.7C68.8 225.9 69 225.1 69 224.2C69 222.4 68.3 220.8 67.1 219.7C67.9 219.9 68.5 220.4 69.1 220.9C70 221.8 70.5 223 70.5 224.4C70.5 225.4 70.3 226.2 69.9 226.9Z" fill="white"/>
<path fill-rule="evenodd" clip-rule="evenodd" d="M66.2 276.9C66.2 280.7 69.3 283.8 73.1 283.8C69.3 283.8 66.2 286.9 66.2 290.7C66.2 286.9 63.1 283.8 59.3 283.8C63.1 283.8 66.2 280.7 66.2 276.9Z" fill="#59B2FF"/>
<path fill-rule="evenodd" clip-rule="evenodd" d="M79.2 297.2C79.2 299.6 81.2 301.6 83.6 301.6C81.2 301.6 79.2 303.6 79.2 306C79.2 303.6 77.2 301.6 74.8 301.6C77.2 301.6 79.2 299.6 79.2 297.2Z" fill="#59B2FF"/>
<path fill-rule="evenodd" clip-rule="evenodd" d="M289.4 166.1C289.4 169.9 292.5 173 296.3 173C292.5 173 289.4 176.1 289.4 179.9C289.4 176.1 286.3 173 282.5 173C286.3 173 289.4 169.9 289.4 166.1Z" fill="#59B2FF"/>
<path fill-rule="evenodd" clip-rule="evenodd" d="M302.4 186.4C302.4 188.8 304.4 190.8 306.8 190.8C304.4 190.8 302.4 192.8 302.4 195.2C302.4 192.8 300.4 190.8 298 190.8C300.4 190.8 302.4 188.8 302.4 186.4Z" fill="#59B2FF"/>
<path fill-rule="evenodd" clip-rule="evenodd" d="M98.9 208.7C98.9 211.1 100.9 213.1 103.3 213.1C100.9 213.1 98.9 215.1 98.9 217.5C98.9 215.1 96.9 213.1 94.5 213.1C96.9 213.1 98.9 211.2 98.9 208.7Z" fill="#59B2FF"/>
<path fill-rule="evenodd" clip-rule="evenodd" d="M295.8 89.5C295.8 91.9 297.8 93.9 300.2 93.9C297.8 93.9 295.8 95.9 295.8 98.3C295.8 95.9 293.8 93.9 291.4 93.9C293.8 93.9 295.8 91.9 295.8 89.5Z" fill="#59B2FF"/>
<path fill-rule="evenodd" clip-rule="evenodd" d="M136.8 94.3C136.8 96.7 138.8 98.7 141.2 98.7C138.8 98.7 136.8 100.7 136.8 103.1C136.8 100.7 134.8 98.7 132.4 98.7C134.8 98.8 136.8 96.8 136.8 94.3Z" fill="#59B2FF"/>
<path d="M213.3 188.2H213.2C197 184.4 184.3 171.6 178.2 153.4C176.7 153.7 175.1 153.4 173.6 152.5C168.9 149.5 165.8 141.2 165.3 138.1C164.5 133.4 167.4 126.7 170.4 126.1C170.9 126 171.4 126 172 126.2C169.8 114.7 168.2 103.3 168.8 92.7C162.3 86.9 161.8 78.6 162.2 73.6C163 63.2 169 52.7 175 51C175.3 50.9 175.5 51.1 175.6 51.3C175.7 51.6 175.5 51.8 175.3 51.9C169.7 53.4 164 63.6 163.2 73.6C162.8 78.4 163.3 86.5 169.5 92C169.6 92 169.6 92.1 169.7 92.2C171.1 93.4 172.7 94.5 174.7 95.4C174.9 95.5 175 95.8 174.9 96C174.8 96.2 174.5 96.3 174.3 96.2C172.6 95.4 171 94.5 169.8 93.4C169.3 103.9 170.9 115.2 173.2 126.6C173.2 126.7 173.2 126.7 173.2 126.8C174.1 131.6 175.2 136.3 176.2 141L177.1 145.2C177.6 147.6 178.3 150 179 152.3C179 152.3 179.1 152.4 179.1 152.5C179.1 152.6 179.1 152.6 179.1 152.7C185.1 170.7 197.5 183.4 213.4 187.1C213.7 187.2 213.8 187.4 213.8 187.7C213.8 188.1 213.6 188.2 213.3 188.2ZM171 127.1C170.9 127.1 170.7 127.1 170.6 127.1C168.3 127.5 165.6 133.5 166.3 138C166.8 140.8 169.8 148.9 174.2 151.7C175.5 152.5 176.7 152.8 178 152.5C177.3 150.3 176.7 148 176.2 145.6L175.3 141.4C174.3 136.7 173.3 132 172.3 127.3C171.8 127.2 171.4 127.1 171 127.1Z" fill="white"/>
</g>
</g>
<defs>
<clipPath id="clip0_581_1295">
<rect width="417" height="418" fill="white" transform="translate(0.5 0.5)"/>
</clipPath>
</defs>
</svg>
