<svg width="156" height="35" viewBox="0 0 156 35" fill="none" xmlns="http://www.w3.org/2000/svg">
<g clip-path="url(#clip0_574_269)">
<path d="M0 21.15C0 17.308 0 13.4279 0 9.47184C5.47769 8.82516 8.78712 5.782 9.4338 0C13.3519 0 17.308 0 21.2641 0C21.8347 11.8683 10.6891 21.8347 0 21.15Z" fill="#0057FF"/>
<path d="M21.3401 34.3116C17.3079 34.3116 13.4279 34.3116 9.4718 34.3116C9.4718 29.9751 9.4718 25.7146 9.4718 21.3401C13.4279 21.3401 17.346 21.3401 21.3401 21.3401C21.3401 25.6386 21.3401 29.899 21.3401 34.3116Z" fill="#293462"/>
<path d="M47.2263 12.8509C46.6935 13.7886 45.905 14.5558 44.8181 15.1312C43.7312 15.7066 42.3886 16.005 40.7902 16.005H37.8279V23.0591H33.0328V3.40991H40.7902C42.3673 3.40991 43.6886 3.68696 44.7755 4.21975C45.8623 4.75253 46.6722 5.49844 47.205 6.45745C47.7378 7.41647 48.0148 8.50335 48.0148 9.73942C48.0148 10.8689 47.7591 11.9132 47.2263 12.8509ZM42.4738 11.5509C42.9214 11.1247 43.1558 10.5066 43.1558 9.73942C43.1558 8.97221 42.9214 8.35417 42.4738 7.92794C42.0263 7.50171 41.3443 7.2886 40.4279 7.2886H37.8279V12.2116H40.4279C41.3443 12.1902 42.0263 11.9771 42.4738 11.5509Z" fill="#0057FF"/>
<path d="M50.4656 10.9967C51.0623 9.78199 51.8935 8.84428 52.9377 8.20494C53.982 7.54428 55.1541 7.22461 56.4328 7.22461C57.541 7.22461 58.5 7.43772 59.3312 7.90658C60.1623 8.35412 60.8017 8.95084 61.2492 9.67543V7.43772H66.0443V23.059H61.2492V20.8426C60.7803 21.5672 60.141 22.164 59.3098 22.6115C58.4787 23.059 57.5197 23.2935 56.4115 23.2935C55.1328 23.2935 53.982 22.9525 52.9377 22.2918C51.8935 21.6312 51.0623 20.6935 50.4656 19.4574C49.8689 18.2426 49.5492 16.8148 49.5492 15.2164C49.5492 13.6181 49.8476 12.2115 50.4656 10.9967ZM60.2689 12.4246C59.6082 11.7426 58.7984 11.3803 57.8394 11.3803C56.8803 11.3803 56.0705 11.7213 55.4099 12.4033C54.7492 13.0853 54.4082 14.023 54.4082 15.2164C54.4082 16.4099 54.7492 17.3689 55.4099 18.0508C56.0705 18.7541 56.8803 19.0951 57.8394 19.0951C58.7984 19.0951 59.6082 18.7541 60.2689 18.0508C60.9295 17.3689 61.2705 16.4099 61.2705 15.2164C61.2705 14.023 60.9295 13.1066 60.2689 12.4246Z" fill="#0057FF"/>
<path d="M85.4804 7.43774L75.6771 30.4754H70.5198L74.1001 22.5263L67.7493 7.43774H73.0984L76.7001 17.2197L80.2804 7.43774H85.4804Z" fill="#0057FF"/>
<path d="M90.1902 22.3131C88.9755 21.6525 88.0165 20.7361 87.3132 19.5213C86.6099 18.3066 86.2689 16.9 86.2689 15.259C86.2689 13.6607 86.6312 12.2328 87.3345 11.0181C88.0378 9.8033 89.0181 8.86559 90.2542 8.20494C91.4902 7.54428 92.8755 7.22461 94.3886 7.22461C95.923 7.22461 97.3083 7.54428 98.523 8.20494C99.7591 8.86559 100.718 9.8033 101.443 11.0181C102.146 12.2328 102.508 13.6607 102.508 15.259C102.508 16.8574 102.146 18.2853 101.421 19.5C100.697 20.7148 99.7165 21.6525 98.4804 22.3131C97.2443 22.9738 95.8591 23.2935 94.3247 23.2935C92.7902 23.2935 91.405 22.9525 90.1902 22.3131ZM96.6476 18.1361C97.2869 17.4541 97.6066 16.4951 97.6066 15.259C97.6066 14.023 97.287 13.0426 96.6689 12.382C96.0509 11.7 95.2837 11.3803 94.3673 11.3803C93.4296 11.3803 92.6624 11.7213 92.0443 12.382C91.4263 13.0426 91.1279 14.0017 91.1279 15.2803C91.1279 16.5377 91.4263 17.4967 92.0443 18.1574C92.6411 18.8394 93.4083 19.159 94.3247 19.159C95.2411 19.1377 96.0083 18.7967 96.6476 18.1361Z" fill="#0057FF"/>
<path d="M118.939 9.0575C120.026 10.2509 120.58 11.8706 120.58 13.9378V23.0591H115.828V14.5772C115.828 13.5329 115.551 12.7231 115.018 12.1477C114.485 11.5723 113.739 11.2739 112.844 11.2739C111.928 11.2739 111.203 11.5723 110.671 12.1477C110.138 12.7231 109.861 13.5329 109.861 14.5772V23.0591H105.066V7.43783H109.839V9.50504C110.33 8.82307 110.969 8.26897 111.8 7.86406C112.631 7.45914 113.548 7.26733 114.571 7.26733C116.382 7.26733 117.853 7.86406 118.939 9.0575Z" fill="#0057FF"/>
<path d="M138.567 16.3886H127.741C127.805 17.3689 128.125 18.0935 128.679 18.605C129.233 19.1165 129.915 19.3722 130.703 19.3722C131.897 19.3722 132.728 18.8607 133.197 17.8591H138.29C138.034 18.8821 137.566 19.8198 136.884 20.6296C136.202 21.4607 135.349 22.1001 134.326 22.5689C133.303 23.0378 132.152 23.2722 130.874 23.2722C129.339 23.2722 127.975 22.9525 126.782 22.2919C125.589 21.6312 124.651 20.7148 123.99 19.5001C123.308 18.2853 122.989 16.8788 122.989 15.2378C122.989 13.6181 123.33 12.1903 123.99 10.9755C124.651 9.76075 125.589 8.82304 126.782 8.1837C127.975 7.52304 129.339 7.20337 130.895 7.20337C132.408 7.20337 133.751 7.52304 134.923 8.16239C136.095 8.80173 137.011 9.69681 137.672 10.8689C138.333 12.0411 138.674 13.4263 138.674 14.9821C138.631 15.4509 138.61 15.9198 138.567 16.3886ZM133.751 13.746C133.751 12.9148 133.474 12.2755 132.92 11.7853C132.366 11.2952 131.662 11.0607 130.81 11.0607C130 11.0607 129.339 11.2952 128.785 11.764C128.231 12.2329 127.89 12.8935 127.762 13.746H133.751Z" fill="#0057FF"/>
<path d="M118.364 3.96399V0.12793H120.943V0.788586H119.11V1.79023H120.644V2.38695H119.11V3.98531H118.364V3.96399Z" fill="#293462"/>
<path d="M121.625 0.72459V0H122.349V0.72459H121.625ZM121.625 3.96393V1.12951H122.349V3.96393H121.625Z" fill="#293462"/>
<path d="M125.866 3.96382H125.141V2.38677C125.141 2.15235 125.098 2.00317 125.013 1.89661C124.928 1.79005 124.821 1.74743 124.672 1.74743C124.566 1.74743 124.48 1.76874 124.374 1.81136C124.267 1.85398 124.182 1.93923 124.097 2.02448C124.011 2.10972 123.969 2.21628 123.926 2.32284V3.96382H123.202V1.15071H123.862V1.68349C123.926 1.55562 124.033 1.44907 124.139 1.38513C124.246 1.29989 124.374 1.23595 124.523 1.19333C124.672 1.15071 124.821 1.12939 124.992 1.12939C125.162 1.12939 125.311 1.15071 125.418 1.21464C125.525 1.27858 125.61 1.36382 125.674 1.47038C125.738 1.57694 125.78 1.7048 125.802 1.83267C125.823 1.96054 125.844 2.08841 125.844 2.23759V3.96382H125.866Z" fill="#293462"/>
<path d="M128.402 3.83601C128.338 3.85733 128.274 3.89995 128.189 3.92126C128.103 3.96388 128.018 3.98519 127.912 4.00651C127.805 4.02782 127.72 4.02782 127.613 4.02782C127.485 4.02782 127.357 4.00651 127.251 3.96388C127.144 3.92126 127.059 3.83601 126.974 3.75077C126.91 3.64421 126.867 3.51634 126.867 3.34585V1.70487H126.484V1.15077H126.867V0.234375H127.592V1.15077H128.189V1.70487H127.592V3.0688C127.592 3.17536 127.613 3.23929 127.677 3.28192C127.741 3.32454 127.784 3.34585 127.869 3.34585C127.954 3.34585 128.018 3.32454 128.082 3.30323C128.146 3.28192 128.21 3.2606 128.253 3.23929L128.402 3.83601Z" fill="#293462"/>
<path d="M130.277 4.02776C130.043 4.02776 129.851 3.98513 129.659 3.9212C129.467 3.83595 129.318 3.72939 129.19 3.60153C129.062 3.47366 128.956 3.32448 128.892 3.13267C128.828 2.94087 128.785 2.77038 128.785 2.57857C128.785 2.30153 128.849 2.0671 128.977 1.85398C129.105 1.64087 129.275 1.44907 129.489 1.3212C129.723 1.19333 129.979 1.12939 130.298 1.12939C130.618 1.12939 130.874 1.19333 131.087 1.3212C131.3 1.44907 131.471 1.64087 131.598 1.85398C131.726 2.0671 131.769 2.30153 131.769 2.55726C131.769 2.59989 131.769 2.64251 131.769 2.68513C131.769 2.72775 131.769 2.77038 131.748 2.79169H129.552C129.574 2.94087 129.616 3.04743 129.68 3.15398C129.744 3.26054 129.851 3.34579 129.957 3.38841C130.064 3.43103 130.192 3.47366 130.32 3.47366C130.469 3.47366 130.597 3.43103 130.725 3.3671C130.852 3.30316 130.938 3.19661 130.98 3.09005L131.598 3.26054C131.534 3.40972 131.428 3.53759 131.3 3.64415C131.172 3.75071 131.023 3.83595 130.852 3.89989C130.682 3.96382 130.49 4.02776 130.277 4.02776ZM129.531 2.34415H131.023C131.002 2.19497 130.959 2.08841 130.895 1.98185C130.831 1.8753 130.746 1.79005 130.639 1.74743C130.533 1.68349 130.405 1.66218 130.277 1.66218C130.149 1.66218 130.021 1.68349 129.915 1.74743C129.808 1.81136 129.723 1.89661 129.659 1.98185C129.595 2.0671 129.552 2.19497 129.531 2.34415Z" fill="#293462"/>
<path d="M133.751 4.02776C133.516 4.02776 133.303 3.98513 133.133 3.9212C132.962 3.85726 132.792 3.72939 132.664 3.60153C132.536 3.47366 132.43 3.30317 132.366 3.13267C132.302 2.96218 132.259 2.77038 132.259 2.57857C132.259 2.32284 132.323 2.0671 132.451 1.85398C132.579 1.64087 132.749 1.44907 132.962 1.3212C133.197 1.19333 133.452 1.12939 133.751 1.12939C134.049 1.12939 134.326 1.19333 134.539 1.3212C134.752 1.44907 134.923 1.61956 135.03 1.85398L134.326 2.0671C134.262 1.96054 134.177 1.8753 134.092 1.83267C134.007 1.79005 133.879 1.74743 133.751 1.74743C133.623 1.74743 133.495 1.79005 133.367 1.85398C133.261 1.91792 133.154 2.02448 133.09 2.15235C133.026 2.28021 132.984 2.42939 132.984 2.59989C132.984 2.77038 133.026 2.89825 133.09 3.02612C133.154 3.15398 133.239 3.26054 133.367 3.32448C133.474 3.38841 133.602 3.43103 133.751 3.43103C133.836 3.43103 133.921 3.40972 134.007 3.38841C134.092 3.3671 134.156 3.32448 134.22 3.26054C134.284 3.19661 134.326 3.15398 134.348 3.09005L135.051 3.30317C134.987 3.45235 134.88 3.58021 134.774 3.68677C134.646 3.79333 134.497 3.87857 134.326 3.94251C134.156 4.00644 133.964 4.02776 133.751 4.02776Z" fill="#293462"/>
<path d="M138.333 3.96386H137.608V2.38681C137.608 2.1737 137.566 2.00321 137.48 1.89665C137.395 1.79009 137.289 1.72616 137.139 1.72616C137.054 1.72616 136.969 1.74747 136.862 1.79009C136.756 1.83272 136.671 1.91796 136.607 2.00321C136.521 2.08845 136.479 2.19501 136.436 2.30157V3.94255H135.712V0.0212402H136.436V1.68354C136.543 1.51304 136.692 1.36386 136.862 1.25731C137.033 1.15075 137.246 1.10813 137.459 1.10813C137.651 1.10813 137.8 1.12944 137.907 1.19337C138.013 1.25731 138.12 1.34255 138.184 1.44911C138.248 1.55567 138.29 1.66222 138.312 1.8114C138.333 1.93927 138.354 2.06714 138.354 2.21632V3.96386H138.333Z" fill="#293462"/>
</g>
<defs>
<clipPath id="clip0_574_269">
<rect width="156" height="34.3116" fill="white"/>
</clipPath>
</defs>
</svg>
