<svg width="166" height="50" viewBox="0 0 166 50" fill="none" xmlns="http://www.w3.org/2000/svg">
<rect width="166" height="50" rx="5" fill="#11202D"/>
<path fill-rule="evenodd" clip-rule="evenodd" d="M59.6698 12.9914C59.7093 13.8652 59.397 14.7173 58.8056 15.349C58.1448 16.0514 57.2231 16.4329 56.2709 16.3982C54.8103 16.3865 53.4989 15.4801 52.943 14.0982C52.3872 12.7163 52.6951 11.1281 53.7246 10.068C54.3934 9.36931 55.3152 8.98524 56.2709 9.00703C56.7579 9.00537 57.2402 9.10566 57.688 9.30174C58.1049 9.47379 58.4761 9.74445 58.7711 10.0915L58.1604 10.7163C57.6942 10.1489 56.9943 9.83891 56.2709 9.87935C55.5437 9.8757 54.8464 10.1753 54.3399 10.7092C53.8333 11.243 53.5612 11.9649 53.5863 12.7085C53.5709 13.8321 54.2177 14.8549 55.2258 15.301C56.2339 15.7471 57.4053 15.5288 58.195 14.7478C58.5495 14.3547 58.754 13.8443 58.7711 13.3097H56.2709V12.4609H59.6237C59.6544 12.636 59.6698 12.8135 59.6698 12.9914ZM64.9467 10.0444H61.8358V12.2841H64.6702V13.1329H61.8358V15.3726H64.9467V16.2449H60.9141V9.17207H64.9467V10.0444ZM68.7258 16.2449H67.8387V10.0444H65.903V9.17207H70.7076V10.0444H68.7258V16.2449ZM74.0949 16.2449V9.17207H74.9821V16.2449H74.0949ZM78.9225 16.2449H78.0354V10.0444H76.0997V9.17207H80.8467V10.0444H78.9225V16.2449ZM89.8451 15.3255C88.4429 16.7521 86.1778 16.7521 84.7756 15.3255C83.4163 13.8534 83.4163 11.5518 84.7756 10.0798C85.4461 9.38867 86.3586 9 87.3104 9C88.2621 9 89.1746 9.38867 89.8451 10.0798C91.2102 11.5494 91.2102 13.8558 89.8451 15.3255ZM85.4323 14.736C86.4708 15.7941 88.1499 15.7941 89.1884 14.736C90.2083 13.5857 90.2083 11.8313 89.1884 10.6809C88.1499 9.62289 86.4708 9.62289 85.4323 10.6809C84.4124 11.8313 84.4124 13.5857 85.4323 14.736ZM92.1149 16.2449V9.17207H93.1979L96.5623 14.6771V9.17207H97.4495V16.2449H96.5277L93.0136 10.4805V16.2449H92.1149ZM83.5428 26.5595C84.8511 26.5338 86.1136 27.0526 87.041 27.9971C87.9685 28.9415 88.4815 30.2308 88.4625 31.5694C88.4625 34.3333 86.2748 36.575 83.5734 36.5793C80.8721 36.5836 78.6776 34.3489 78.6691 31.5851C78.6606 28.8213 80.8414 26.5725 83.5428 26.5595ZM83.5428 34.6108C84.307 34.5926 85.0316 34.2594 85.5523 33.6868C86.073 33.1141 86.3455 32.3506 86.308 31.5694C86.305 30.3207 85.5562 29.2007 84.4198 28.7451C83.2833 28.2896 81.9902 28.5911 81.1589 29.5054C80.3275 30.4197 80.127 31.7611 80.6531 32.8879C81.1793 34.0147 82.3252 34.6979 83.5428 34.6108ZM72.816 26.5595H72.8045C74.1129 26.5338 75.3753 27.0526 76.3028 27.9971C77.2303 28.9415 77.7433 30.2308 77.7243 31.5694C77.7243 34.3348 75.5343 36.5772 72.8314 36.5794C70.1285 36.5815 67.9351 34.3427 67.9308 31.5773C67.9266 28.8119 70.1132 26.566 72.816 26.5595ZM72.816 34.6108H72.8045C73.5687 34.5926 74.2934 34.2594 74.8141 33.6868C75.3347 33.1141 75.6072 32.3506 75.5697 31.5694C75.5664 30.3197 74.8162 29.1992 73.6783 28.7447C72.5404 28.2901 71.2466 28.594 70.4164 29.5109C69.5863 30.4277 69.3889 31.7708 69.9187 32.8969C70.4486 34.023 71.5978 34.7028 72.816 34.6108ZM60.0385 28.1037L67.0321 28.0448C67.1125 28.484 67.1511 28.9301 67.1474 29.3769C67.2016 31.2108 66.5571 32.9945 65.35 34.3514C63.9705 35.8293 62.0337 36.6245 60.0385 36.5322C57.249 36.6433 54.6237 35.1841 53.1967 32.7293C51.7697 30.2746 51.7697 27.2178 53.1967 24.7631C54.6237 22.3083 57.249 20.8491 60.0385 20.9602C61.998 20.9428 63.8809 21.738 65.2578 23.1645L63.7945 24.6616C62.785 23.6644 61.43 23.1175 60.0269 23.141C56.9726 23.141 54.4965 25.6743 54.4965 28.7992C54.4965 31.9242 56.9726 34.4575 60.0269 34.4575C61.4632 34.5161 62.8567 33.9509 63.8637 32.9015C64.5317 32.168 64.9378 31.225 65.0158 30.2256H60.0385V28.1037ZM112.243 29.7541L112.485 30.2845L105.929 33.0547C106.34 34.0122 107.282 34.6152 108.303 34.5754C109.289 34.578 110.204 34.0496 110.711 33.1844L112.382 34.3632C111.472 35.7559 109.94 36.5884 108.303 36.5794C107.002 36.5989 105.748 36.0762 104.831 35.1313C103.914 34.1864 103.412 32.9007 103.441 31.5694C103.361 30.2687 103.811 28.9922 104.684 28.0431C105.557 27.094 106.776 26.557 108.049 26.5595C109.96 26.6315 111.628 27.9024 112.243 29.7541ZM105.561 31.428L109.939 29.5655C109.595 28.8708 108.878 28.4533 108.119 28.5045C107.398 28.5378 106.721 28.8665 106.239 29.4165C105.758 29.9664 105.514 30.6914 105.561 31.428ZM100.238 36.2847V21.5496H102.392V36.2847H100.238ZM96.7121 27.6794V26.8542H98.6938V35.7778C98.6938 39.4792 96.6084 40.9999 94.0851 40.9999C92.1831 41.0115 90.4646 39.8409 89.7414 38.0411L91.6195 37.2395C92.012 38.2899 92.9863 38.9932 94.0851 39.0195C95.6982 39.0195 96.7005 37.9939 96.7005 36.0725V35.3534H96.6314C95.9839 36.1176 95.0389 36.5492 94.0506 36.5322C91.4353 36.4025 89.38 34.1953 89.38 31.5164C89.38 28.8375 91.4353 26.6303 94.0506 26.5006C95.0357 26.4992 95.9746 26.9281 96.6314 27.6794H96.7121ZM94.2464 34.6108H94.2349C94.9837 34.5813 95.6881 34.2396 96.1843 33.6651C96.6806 33.0906 96.9254 32.3334 96.8619 31.5694C96.9187 30.809 96.6731 30.0573 96.1807 29.4847C95.6884 28.9121 94.9909 28.5672 94.2464 28.5281C92.7058 28.667 91.5243 29.9871 91.5243 31.5694C91.5243 33.1518 92.7058 34.4719 94.2464 34.6108ZM122.348 21.5496C124.022 21.4265 125.622 22.2704 126.496 23.7363C127.369 25.2022 127.369 27.0445 126.496 28.5104C125.622 29.9763 124.022 30.8201 122.348 30.6971H119.341V36.2847H117.186V21.5496H122.348ZM122.336 28.6224L122.382 28.6578C123.747 28.6578 124.854 27.5257 124.854 26.1292C124.854 24.7328 123.747 23.6007 122.382 23.6007H119.329V28.6224H122.336ZM135.621 26.5006L135.679 26.5359C138.133 26.5359 140.045 28.033 140.045 30.6146V36.2847H137.971V35.1059H137.902C137.303 36.0592 136.242 36.6016 135.137 36.5204C134.24 36.5883 133.355 36.282 132.682 35.6715C132.009 35.0609 131.606 34.1978 131.565 33.2787C131.565 31.1451 133.651 29.9663 135.713 29.9663C136.496 29.9629 137.268 30.1572 137.96 30.5321V30.3788C137.905 29.8125 137.63 29.2925 137.197 28.9356C136.763 28.5788 136.208 28.4149 135.655 28.481C134.85 28.4136 134.082 28.8389 133.697 29.5655L131.784 28.7521C132.511 27.2869 134.018 26.4025 135.621 26.5006ZM135.356 34.5754L135.414 34.6108C136.711 34.5784 137.788 33.5727 137.937 32.2532C137.339 31.9118 136.663 31.7408 135.978 31.7581C134.895 31.7581 133.674 32.1471 133.674 33.3259C133.674 34.21 134.653 34.5754 135.356 34.5754ZM147.603 26.8542H150L144.101 40.7524H141.854L144.043 35.7896L140.207 26.8542H142.511L145.069 33.2434H145.138L147.603 26.8542ZM128.235 36.2847V21.5496H130.39V36.2847H128.235ZM42.9226 24.0196C43.2138 24.188 43.3878 24.4895 43.3878 24.826C43.3878 25.1624 43.2137 25.464 42.9225 25.632L37.6359 28.6836L33.9248 25.0959L37.9854 21.1704L42.9226 24.0196ZM37.1473 20.6862L33.2557 24.4488L19.807 11.4471L31.7142 17.5494L37.1473 20.6862ZM20.0047 38.5529L33.2557 25.7429L36.7979 29.1677L31.7346 32.0909L20.0047 38.5529ZM19.0126 11.9734L32.5864 25.0956L19 38.2305L19.0126 11.9734Z" fill="white"/>
</svg>
