<svg width="150" height="50" viewBox="0 0 150 50" fill="none" xmlns="http://www.w3.org/2000/svg">
<rect width="150" height="50" rx="5" fill="#11202D"/>
<path fill-rule="evenodd" clip-rule="evenodd" d="M55.4096 32.3946H49.8727L48.543 36.4137H46.1978L51.4423 21.5443H53.8789L59.1233 36.4137H56.7381L55.4096 32.3946ZM50.4461 30.5401H54.835L52.6715 24.0175H52.6109L50.4461 30.5401ZM70.4496 30.9938C70.4496 34.3626 68.6881 36.5271 66.0299 36.5271C64.6559 36.6006 63.3616 35.864 62.6977 34.6304H62.6474V40H60.4735V25.5727H62.5778V27.3758H62.6177C63.3112 26.15 64.6068 25.4136 65.9899 25.4593C68.6778 25.4593 70.4496 27.6342 70.4496 30.9938ZM68.2152 30.9938C68.2152 28.7989 67.1071 27.3559 65.4164 27.3559C63.7555 27.3559 62.6383 28.8293 62.6383 30.9938C62.6383 33.1781 63.7555 34.6409 65.4164 34.6409C67.1071 34.6409 68.2152 33.2085 68.2152 30.9938ZM82.106 30.9938C82.106 34.3626 80.3445 36.5271 77.6863 36.5271C76.3123 36.6006 75.018 35.864 74.3541 34.6304H74.3038V40H72.1299V25.5727H74.2341V27.3758H74.2741C74.9675 26.15 76.2632 25.4136 77.6463 25.4593C80.3342 25.4593 82.106 27.6342 82.106 30.9938ZM79.8716 30.9938C79.8716 28.7989 78.7635 27.3559 77.0728 27.3559C75.4119 27.3559 74.2947 28.8293 74.2947 30.9938C74.2947 33.1781 75.4119 34.6409 77.0728 34.6409C78.7635 34.6409 79.8716 33.2085 79.8716 30.9938ZM89.8099 32.2707C89.971 33.7452 91.3703 34.7134 93.2826 34.7134C95.1149 34.7134 96.4331 33.7452 96.4331 32.4156C96.4331 31.2615 95.6381 30.5704 93.7555 30.0968L91.873 29.6326C89.2056 28.9731 87.9673 27.6962 87.9673 25.6241C87.9673 23.0586 90.1514 21.2964 93.2529 21.2964C96.3223 21.2964 98.4265 23.0586 98.4973 25.6241H96.3029C96.1715 24.1402 94.9732 23.2445 93.222 23.2445C91.4708 23.2445 90.2725 24.1507 90.2725 25.4697C90.2725 26.521 91.0379 27.1396 92.9102 27.6131L94.5106 28.0154C97.4909 28.7368 98.7292 29.9623 98.7292 32.1373C98.7292 34.9191 96.5645 36.6614 93.1215 36.6614C89.9001 36.6614 87.7251 34.9601 87.5846 32.2706L89.8099 32.2707ZM103.421 23.0072V25.5727H105.435V27.3349H103.421V33.3114C103.421 34.2398 103.824 34.6725 104.709 34.6725C104.948 34.6682 105.187 34.651 105.424 34.621V36.3727C105.026 36.4488 104.622 36.4833 104.217 36.4756C102.073 36.4756 101.237 35.6512 101.237 33.5487V27.3349H99.6968V25.5727H101.237V23.0072H103.421ZM106.601 30.9938C106.601 27.5828 108.564 25.4394 111.624 25.4394C114.695 25.4394 116.648 27.5828 116.648 30.9938C116.648 34.4141 114.705 36.5481 111.624 36.5481C108.544 36.5481 106.601 34.4141 106.601 30.9938ZM114.433 30.9938C114.433 28.6539 113.385 27.2729 111.624 27.2729C109.862 27.2729 108.816 28.6644 108.816 30.9938C108.816 33.343 109.862 34.7134 111.624 34.7134C113.385 34.7134 114.433 33.343 114.433 30.9938ZM118.44 25.5727H120.514V27.4179H120.564C120.853 26.2301 121.916 25.4125 123.111 25.4593C123.362 25.4584 123.612 25.4862 123.856 25.5423V27.6237C123.54 27.5248 123.21 27.4794 122.879 27.4892C122.24 27.4627 121.622 27.7234 121.186 28.2029C120.751 28.6825 120.542 29.3329 120.614 29.9834V36.4136H118.44L118.44 25.5727ZM133.879 33.2295C133.586 35.1975 131.714 36.5481 129.319 36.5481C126.238 36.5481 124.326 34.4351 124.326 31.0452C124.326 27.6448 126.248 25.4394 129.227 25.4394C132.157 25.4394 134 27.4998 134 30.7868V31.5492H126.52V31.6837C126.45 32.4907 126.722 33.2897 127.267 33.8772C127.813 34.4647 128.578 34.7841 129.369 34.7543C130.424 34.8555 131.419 34.2354 131.815 33.2295L133.879 33.2295ZM126.53 29.994L131.825 29.994C131.864 29.2687 131.607 28.5596 131.113 28.0373C130.62 27.515 129.937 27.2269 129.227 27.2425C128.512 27.2381 127.825 27.5263 127.319 28.043C126.812 28.5597 126.528 29.262 126.53 29.994ZM50.1737 10.352C51.0966 10.2842 52.0005 10.6437 52.6367 11.3314C53.2729 12.0191 53.5743 12.9626 53.4579 13.9021C53.4579 16.1847 52.2528 17.4968 50.1737 17.4968H47.6526V10.352H50.1737ZM48.7366 16.4863H50.0526C50.7121 16.5267 51.3543 16.2607 51.8009 15.7622C52.2474 15.2637 52.4507 14.5858 52.3544 13.9167C52.4437 13.2504 52.2374 12.5781 51.792 12.0836C51.3466 11.5892 50.7086 11.3244 50.0526 11.3617H48.7366V16.4863ZM54.6825 14.7984C54.5922 13.832 55.0449 12.8967 55.8508 12.3847C56.6566 11.8728 57.6764 11.8728 58.4822 12.3847C59.2881 12.8967 59.7408 13.832 59.6505 14.7984C59.7425 15.7659 59.2902 16.703 58.4837 17.216C57.6771 17.729 56.6559 17.729 55.8493 17.216C55.0428 16.703 54.5905 15.7659 54.6825 14.7984ZM58.5813 14.7984C58.5813 13.6297 58.0684 12.9462 57.1682 12.9462C56.2646 12.9462 55.7563 13.6297 55.7563 14.7984C55.7563 15.9765 56.2647 16.6547 57.1682 16.6547C58.0684 16.6547 58.5813 15.9718 58.5813 14.7984ZM66.2543 17.4966H65.176L64.0873 13.5256H64.0051L62.921 17.4966H61.8529L60.401 12.1048H61.4554L62.399 16.2191H62.4767L63.5596 12.1048H64.5569L65.6398 16.2191H65.722L66.661 12.1048H67.7005L66.2543 17.4966ZM68.9217 12.1048H69.9224V12.9614H70.0001C70.2702 12.3307 70.9014 11.945 71.5719 12.0007C72.0911 11.9608 72.5998 12.1647 72.9545 12.5548C73.3092 12.9449 73.4713 13.479 73.3951 14.0062V17.4966H72.3556V14.2734C72.3556 13.4069 71.9877 12.976 71.2189 12.976C70.8668 12.9592 70.5251 13.1007 70.2833 13.3633C70.0416 13.6259 69.9239 13.9835 69.9612 14.3424V17.4966H68.9217L68.9217 12.1048ZM75.0515 10H76.091V17.4966H75.0515V10ZM77.5361 14.7984C77.4458 13.8319 77.8986 12.8966 78.7045 12.3847C79.5105 11.8727 80.5302 11.8727 81.3362 12.3847C82.1421 12.8966 82.5949 13.8319 82.5046 14.7984C82.5966 15.7659 82.1442 16.703 81.3376 17.216C80.5309 17.729 79.5098 17.729 78.7032 17.216C77.8965 16.703 77.4441 15.7659 77.5361 14.7984ZM81.4348 14.7984C81.4348 13.6297 80.9219 12.9462 80.0218 12.9462C79.1182 12.9462 78.6099 13.6297 78.6099 14.7984C78.6099 15.9765 79.1182 16.6547 80.0218 16.6547C80.9219 16.6547 81.4348 15.9718 81.4348 14.7984ZM83.599 15.9718C83.599 15.0013 84.305 14.4418 85.5581 14.3622L86.9849 14.278V13.8127C86.9849 13.2432 86.6171 12.9216 85.9065 12.9216C85.3262 12.9216 84.9241 13.1397 84.8087 13.5209H83.8023C83.9086 12.5948 84.7596 12.0008 85.9545 12.0008C87.275 12.0008 88.0199 12.6737 88.0199 13.8127V17.4967H87.0192V16.7389H86.9369C86.597 17.2923 85.9926 17.6157 85.3548 17.5855C84.9076 17.6331 84.4617 17.4849 84.1271 17.1774C83.7926 16.87 83.6008 16.432 83.599 15.9718ZM86.9849 15.5111V15.0603L85.6986 15.1445C84.9732 15.1942 84.6442 15.4468 84.6442 15.9221C84.6442 16.4074 85.0555 16.6898 85.621 16.6898C85.9557 16.7245 86.2899 16.6186 86.547 16.3964C86.8041 16.1742 86.9622 15.8548 86.9849 15.5111ZM89.3861 14.7984C89.3861 13.0947 90.2417 12.0154 91.5725 12.0154C92.2445 11.9837 92.8739 12.3523 93.1878 12.9613H93.2654V10H94.305V17.4966H93.3089V16.6448H93.2266C92.889 17.2488 92.2519 17.6111 91.5725 17.5855C90.2326 17.5856 89.3861 16.5062 89.3861 14.7984ZM90.4599 14.7984C90.4599 15.942 90.9865 16.6302 91.8673 16.6302C92.7434 16.6302 93.2849 15.9321 93.2849 14.8031C93.2849 13.6793 92.7377 12.9713 91.8673 12.9713C90.9922 12.9713 90.4599 13.6641 90.4599 14.7984ZM98.6059 14.7984C98.5155 13.832 98.9683 12.8967 99.7741 12.3847C100.58 11.8728 101.6 11.8728 102.406 12.3847C103.211 12.8967 103.664 13.832 103.574 14.7984C103.666 15.7659 103.214 16.703 102.407 17.216C101.6 17.729 100.579 17.729 99.7727 17.216C98.9661 16.703 98.5138 15.7659 98.6059 14.7984ZM102.505 14.7984C102.505 13.6297 101.992 12.9462 101.092 12.9462C100.188 12.9462 99.6797 13.6297 99.6797 14.7984C99.6797 15.9765 100.188 16.6547 101.092 16.6547C101.992 16.6547 102.505 15.9718 102.505 14.7984ZM104.969 12.1048H105.969V12.9614H106.047C106.317 12.3307 106.948 11.945 107.619 12.0007C108.138 11.9608 108.647 12.1647 109.001 12.5548C109.356 12.9449 109.518 13.479 109.442 14.0062V17.4966H108.403V14.2734C108.403 13.4069 108.035 12.976 107.266 12.976C106.914 12.9592 106.572 13.1007 106.33 13.3633C106.089 13.6259 105.971 13.9835 106.008 14.3424V17.4966H104.969V12.1048ZM115.316 10.7624V12.1294H116.457V13.0257H115.316V15.7982C115.316 16.363 115.543 16.6103 116.061 16.6103C116.193 16.6099 116.326 16.6017 116.457 16.5857V17.4721C116.27 17.5063 116.081 17.5245 115.892 17.5265C114.736 17.5265 114.275 17.1102 114.275 16.0706V13.0256H113.439V12.1293H114.275V10.7624H115.316ZM117.877 10H118.907V12.9713H118.99C119.273 12.3351 119.915 11.9489 120.596 12.0054C121.112 11.9767 121.614 12.185 121.965 12.5737C122.315 12.9625 122.479 13.491 122.41 14.0155V17.4966H121.369V14.278C121.369 13.4168 120.977 12.9806 120.243 12.9806C119.881 12.9503 119.525 13.0849 119.269 13.3484C119.014 13.612 118.884 13.9776 118.917 14.3476V17.4966H117.877L117.877 10ZM128.471 16.0408C128.18 17.0579 127.218 17.715 126.189 17.6007C125.486 17.6197 124.811 17.3217 124.343 16.7858C123.874 16.2498 123.659 15.5302 123.756 14.8177C123.662 14.1033 123.876 13.3824 124.342 12.842C124.808 12.3015 125.48 11.9946 126.184 12.0008C127.65 12.0008 128.534 13.0257 128.534 14.7189V15.0902H124.814V15.1498C124.782 15.5499 124.915 15.9456 125.182 16.2397C125.449 16.5338 125.825 16.6989 126.217 16.6944C126.726 16.7569 127.221 16.4987 127.47 16.0408L128.471 16.0408ZM124.814 14.3032H127.475C127.501 13.9373 127.376 13.5769 127.129 13.3109C126.882 13.0449 126.537 12.898 126.178 12.9064C125.815 12.9017 125.466 13.0474 125.209 13.3104C124.952 13.5734 124.81 13.9314 124.814 14.3032ZM34.3479 25.1562C34.3506 27.6683 35.8535 29.9353 38.1648 30.9138C37.7203 32.3592 37.0502 33.7253 36.1795 34.9612C35.01 36.7122 33.7839 38.4229 31.8378 38.4545C29.9469 38.4982 29.3114 37.3406 27.1425 37.3406C24.9533 37.3406 24.276 38.4229 22.4623 38.4982C20.609 38.5669 19.1926 36.6294 17.9806 34.8948C15.5583 31.3524 13.6721 24.9118 16.2008 20.5295C17.3883 18.3936 19.6085 17.0382 22.0493 16.9593C23.9043 16.9211 25.627 18.2133 26.7675 18.2133C27.8863 18.2133 30.0149 16.6675 32.2106 16.8982C34.2975 16.9635 36.2315 18.0101 37.4291 19.7221C35.5393 20.885 34.3764 22.9359 34.3479 25.1562ZM30.7762 14.5685C29.7467 15.8501 28.1869 16.5883 26.544 16.5714C26.4395 14.9644 26.9775 13.3818 28.0395 12.1721C29.1149 10.946 30.6123 10.1704 32.2334 10C32.36 11.6546 31.8373 13.2934 30.7762 14.5685Z" fill="white"/>
</svg>
